<?xml version="1.0" encoding="us-ascii" standalone="no"?><svg xmlns="http://www.w3.org/2000/svg" xmlns:xlink="http://www.w3.org/1999/xlink" contentStyleType="text/css" height="411px" preserveAspectRatio="none" style="width:306px;height:411px;background:#FFFFFF;" version="1.1" viewBox="0 0 306 411" width="306px" zoomAndPan="magnify"><defs/><g><!--class BinaryTree--><g id="elem_BinaryTree"><rect codeLine="1" fill="#F1F1F1" height="390.2344" id="BinaryTree" rx="2.5" ry="2.5" style="stroke:#181818;stroke-width:0.5;" width="285" x="7" y="7"/><ellipse cx="100.75" cy="23" fill="#ADD1B2" rx="11" ry="11" style="stroke:#181818;stroke-width:1.0;"/><path d="M103.0938,18.6719 C102.1563,18.2344 101.5625,18.0938 100.6875,18.0938 C98.0625,18.0938 96.0625,20.1719 96.0625,22.8906 L96.0625,24.0156 C96.0625,26.5938 98.1719,28.4844 101.0625,28.4844 C102.2813,28.4844 103.4375,28.1875 104.1875,27.6406 C104.7656,27.2344 105.0938,26.7813 105.0938,26.3906 C105.0938,25.9375 104.7031,25.5469 104.2344,25.5469 C104.0156,25.5469 103.8125,25.625 103.625,25.8125 C103.1719,26.2969 103.1719,26.2969 102.9844,26.3906 C102.5625,26.6563 101.875,26.7813 101.1094,26.7813 C99.0625,26.7813 97.7656,25.6875 97.7656,23.9844 L97.7656,22.8906 C97.7656,21.1094 99.0156,19.7969 100.75,19.7969 C101.3281,19.7969 101.9375,19.9531 102.4063,20.2031 C102.8906,20.4844 103.0625,20.7031 103.1563,21.1094 C103.2188,21.5156 103.25,21.6406 103.3906,21.7656 C103.5313,21.9063 103.7656,22.0156 103.9844,22.0156 C104.25,22.0156 104.5156,21.875 104.6875,21.6563 C104.7969,21.5 104.8281,21.3125 104.8281,20.8906 L104.8281,19.4688 C104.8281,19.0313 104.8125,18.9063 104.7188,18.75 C104.5625,18.4844 104.2813,18.3438 103.9844,18.3438 C103.6875,18.3438 103.4844,18.4375 103.2656,18.75 L103.0938,18.6719 Z " fill="#000000"/><text fill="#000000" font-family="sans-serif" font-size="14" lengthAdjust="spacing" textLength="78" x="121.25" y="27.8467">BinaryTree</text><rect fill="#FFFFFF" height="15.9688" style="stroke:#181818;stroke-width:1.0;stroke-dasharray:2.0,2.0;" width="9" x="286" y="4"/><text fill="#000000" font-family="sans-serif" font-size="12" font-style="italic" lengthAdjust="spacing" textLength="7" x="287" y="16.1387">T</text><line style="stroke:#181818;stroke-width:0.5;" x1="8" x2="291" y1="39" y2="39"/><rect fill="none" height="6" style="stroke:#C82930;stroke-width:1.0;" width="6" x="15" y="49.6484"/><text fill="#000000" font-family="sans-serif" font-size="14" lengthAdjust="spacing" textLength="50" x="27" y="55.9951">data: T</text><rect fill="none" height="6" style="stroke:#C82930;stroke-width:1.0;" width="6" x="15" y="65.9453"/><text fill="#000000" font-family="sans-serif" font-size="14" lengthAdjust="spacing" textLength="180" x="27" y="72.292">leftChild: BinaryTree&lt;T&gt;</text><rect fill="none" height="6" style="stroke:#C82930;stroke-width:1.0;" width="6" x="15" y="82.2422"/><text fill="#000000" font-family="sans-serif" font-size="14" lengthAdjust="spacing" textLength="189" x="27" y="88.5889">rightChild: BinaryTree&lt;T&gt;</text><line style="stroke:#181818;stroke-width:0.5;" x1="8" x2="291" y1="95.8906" y2="95.8906"/><ellipse cx="18" cy="109.5391" fill="#84BE84" rx="3" ry="3" style="stroke:#038048;stroke-width:1.0;"/><text fill="#000000" font-family="sans-serif" font-size="14" lengthAdjust="spacing" textLength="127" x="27" y="112.8857">BinaryTree(): void</text><ellipse cx="18" cy="125.8359" fill="#84BE84" rx="3" ry="3" style="stroke:#038048;stroke-width:1.0;"/><text fill="#000000" font-family="sans-serif" font-size="14" lengthAdjust="spacing" textLength="136" x="27" y="129.1826">BinaryTree(T): void</text><ellipse cx="18" cy="142.1328" fill="#84BE84" rx="3" ry="3" style="stroke:#038048;stroke-width:1.0;"/><text fill="#000000" font-family="sans-serif" font-size="14" lengthAdjust="spacing" textLength="87" x="27" y="145.4795">getData(): T</text><ellipse cx="18" cy="158.4297" fill="#84BE84" rx="3" ry="3" style="stroke:#038048;stroke-width:1.0;"/><text fill="#000000" font-family="sans-serif" font-size="14" lengthAdjust="spacing" textLength="115" x="27" y="161.7764">setData(T): void</text><ellipse cx="18" cy="174.7266" fill="#84BE84" rx="3" ry="3" style="stroke:#038048;stroke-width:1.0;"/><text fill="#000000" font-family="sans-serif" font-size="14" lengthAdjust="spacing" textLength="219" x="27" y="178.0732">getLeftChild(): BinaryTree&lt;T&gt;</text><ellipse cx="18" cy="191.0234" fill="#84BE84" rx="3" ry="3" style="stroke:#038048;stroke-width:1.0;"/><text fill="#000000" font-family="sans-serif" font-size="14" lengthAdjust="spacing" textLength="228" x="27" y="194.3701">getRightChild(): BinaryTree&lt;T&gt;</text><ellipse cx="18" cy="207.3203" fill="#84BE84" rx="3" ry="3" style="stroke:#038048;stroke-width:1.0;"/><text fill="#000000" font-family="sans-serif" font-size="14" lengthAdjust="spacing" textLength="250" x="27" y="210.667">addLeftChild(BinaryTree&lt;T&gt;): void</text><ellipse cx="18" cy="223.6172" fill="#84BE84" rx="3" ry="3" style="stroke:#038048;stroke-width:1.0;"/><text fill="#000000" font-family="sans-serif" font-size="14" lengthAdjust="spacing" textLength="259" x="27" y="226.9639">addRightChild(BinaryTree&lt;T&gt;): void</text><ellipse cx="18" cy="239.9141" fill="#84BE84" rx="3" ry="3" style="stroke:#038048;stroke-width:1.0;"/><text fill="#000000" font-family="sans-serif" font-size="14" lengthAdjust="spacing" textLength="170" x="27" y="243.2607">removeLeftChild(): void</text><ellipse cx="18" cy="256.2109" fill="#84BE84" rx="3" ry="3" style="stroke:#038048;stroke-width:1.0;"/><text fill="#000000" font-family="sans-serif" font-size="14" lengthAdjust="spacing" textLength="179" x="27" y="259.5576">removeRightChild(): void</text><ellipse cx="18" cy="272.5078" fill="#84BE84" rx="3" ry="3" style="stroke:#038048;stroke-width:1.0;"/><text fill="#000000" font-family="sans-serif" font-size="14" lengthAdjust="spacing" textLength="136" x="27" y="275.8545">isEmpty(): boolean</text><ellipse cx="18" cy="288.8047" fill="#84BE84" rx="3" ry="3" style="stroke:#038048;stroke-width:1.0;"/><text fill="#000000" font-family="sans-serif" font-size="14" lengthAdjust="spacing" textLength="119" x="27" y="292.1514">isLeaf(): boolean</text><ellipse cx="18" cy="305.1016" fill="#84BE84" rx="3" ry="3" style="stroke:#038048;stroke-width:1.0;"/><text fill="#000000" font-family="sans-serif" font-size="14" lengthAdjust="spacing" textLength="167" x="27" y="308.4482">hasLeftChild(): boolean</text><ellipse cx="18" cy="321.3984" fill="#84BE84" rx="3" ry="3" style="stroke:#038048;stroke-width:1.0;"/><text fill="#000000" font-family="sans-serif" font-size="14" lengthAdjust="spacing" textLength="176" x="27" y="324.7451">hasRightChild(): boolean</text><ellipse cx="18" cy="337.6953" fill="#84BE84" rx="3" ry="3" style="stroke:#038048;stroke-width:1.0;"/><text fill="#000000" font-family="sans-serif" font-size="14" lengthAdjust="spacing" textLength="123" x="27" y="341.042">toString(): String</text><ellipse cx="18" cy="353.9922" fill="#84BE84" rx="3" ry="3" style="stroke:#038048;stroke-width:1.0;"/><text fill="#000000" font-family="sans-serif" font-size="14" lengthAdjust="spacing" textLength="124" x="27" y="357.3389">contarHojas(): int</text><ellipse cx="18" cy="370.2891" fill="#84BE84" rx="3" ry="3" style="stroke:#038048;stroke-width:1.0;"/><text fill="#000000" font-family="sans-serif" font-size="14" lengthAdjust="spacing" textLength="176" x="27" y="373.6357">espejo(): BinaryTree&lt;T&gt;</text><ellipse cx="18" cy="386.5859" fill="#84BE84" rx="3" ry="3" style="stroke:#038048;stroke-width:1.0;"/><text fill="#000000" font-family="sans-serif" font-size="14" lengthAdjust="spacing" textLength="188" x="27" y="389.9326">entreNiveles(int, int): void</text></g><!--SRC=[VP1D3i8W44RNUWgM6lK2ZN7XJ-B2k50kCChOOX0CJ9eOuzqjYjgnLXO4vZsO3_O6GX1JRS5Vf4SSoucuTaKrHa81GIPasXayqApGHcLSJzZhl6ZdZsbG0xr-9agdLHD8JdAaUPKZ-ZALGYerpTKhOzIRAHxEvXsqJGAbFXSnWJUilDfbVqIF9rSY2nUfO9ZdgdCT5gSpNM9vvvn1i1-oGZZy00K4rgw9URilJcvBNjiyekSgWRsp17xfZX0YqvOwYM0uuz6rVIbQyhZM9HeClUhKC1vDp-nqRtS0]--></g></svg>