<?xml version="1.0" encoding="us-ascii" standalone="no"?><svg xmlns="http://www.w3.org/2000/svg" xmlns:xlink="http://www.w3.org/1999/xlink" contentStyleType="text/css" height="354px" preserveAspectRatio="none" style="width:342px;height:354px;background:#FFFFFF;" version="1.1" viewBox="0 0 342 354" width="342px" zoomAndPan="magnify"><defs/><g><!--class BinaryTree--><g id="elem_BinaryTree"><rect codeLine="1" fill="#F1F1F1" height="333.3125" id="BinaryTree" rx="2.5" ry="2.5" style="stroke:#181818;stroke-width:0.5;" width="321" x="7" y="7"/><ellipse cx="126.25" cy="27.1328" fill="#ADD1B2" rx="11" ry="11" style="stroke:#181818;stroke-width:1.0;"/><path d="M129.2188,32.7734 Q128.6406,33.0703 128,33.2109 Q127.3594,33.3672 126.6563,33.3672 Q124.1563,33.3672 122.8281,31.7266 Q121.5156,30.0703 121.5156,26.9453 Q121.5156,23.8203 122.8281,22.1641 Q124.1563,20.5078 126.6563,20.5078 Q127.3594,20.5078 128,20.6641 Q128.6563,20.8203 129.2188,21.1172 L129.2188,23.8359 Q128.5938,23.2578 128,22.9922 Q127.4063,22.7109 126.7813,22.7109 Q125.4375,22.7109 124.75,23.7891 Q124.0625,24.8516 124.0625,26.9453 Q124.0625,29.0391 124.75,30.1172 Q125.4375,31.1797 126.7813,31.1797 Q127.4063,31.1797 128,30.9141 Q128.5938,30.6328 129.2188,30.0547 L129.2188,32.7734 Z " fill="#000000"/><text fill="#000000" font-family="sans-serif" font-size="12" font-style="italic" lengthAdjust="spacing" textLength="21" x="173.25" y="23.1387">&#171;T&#187;</text><text fill="#000000" font-family="sans-serif" font-size="14" lengthAdjust="spacing" textLength="74" x="146.75" y="38.9639">BinaryTree</text><line style="stroke:#181818;stroke-width:0.5;" x1="8" x2="327" y1="47.2656" y2="47.2656"/><rect fill="none" height="6" style="stroke:#C82930;stroke-width:1.0;" width="6" x="15" y="57.9141"/><text fill="#000000" font-family="sans-serif" font-size="14" lengthAdjust="spacing" textLength="48" x="27" y="64.2607">data: T</text><rect fill="none" height="6" style="stroke:#C82930;stroke-width:1.0;" width="6" x="15" y="74.2109"/><text fill="#000000" font-family="sans-serif" font-size="14" lengthAdjust="spacing" textLength="230" x="27" y="80.5576">children: List&lt;GeneralTree&lt;T&gt;&gt;</text><line style="stroke:#181818;stroke-width:0.5;" x1="8" x2="327" y1="87.8594" y2="87.8594"/><ellipse cx="18" cy="101.5078" fill="#84BE84" rx="3" ry="3" style="stroke:#038048;stroke-width:1.0;"/><text fill="#000000" font-family="sans-serif" font-size="14" lengthAdjust="spacing" textLength="133" x="27" y="104.8545">GeneralTree(): void</text><ellipse cx="18" cy="117.8047" fill="#84BE84" rx="3" ry="3" style="stroke:#038048;stroke-width:1.0;"/><text fill="#000000" font-family="sans-serif" font-size="14" lengthAdjust="spacing" textLength="142" x="27" y="121.1514">GeneralTree(T): void</text><ellipse cx="18" cy="134.1016" fill="#84BE84" rx="3" ry="3" style="stroke:#038048;stroke-width:1.0;"/><text fill="#000000" font-family="sans-serif" font-size="14" lengthAdjust="spacing" textLength="295" x="27" y="137.4482">GeneralTree(T, List&lt;GeneralTree&gt;&gt;): void</text><ellipse cx="18" cy="150.3984" fill="#84BE84" rx="3" ry="3" style="stroke:#038048;stroke-width:1.0;"/><text fill="#000000" font-family="sans-serif" font-size="14" lengthAdjust="spacing" textLength="83" x="27" y="153.7451">getData(): T</text><ellipse cx="18" cy="166.6953" fill="#84BE84" rx="3" ry="3" style="stroke:#038048;stroke-width:1.0;"/><text fill="#000000" font-family="sans-serif" font-size="14" lengthAdjust="spacing" textLength="110" x="27" y="170.042">setData(T): void</text><ellipse cx="18" cy="182.9922" fill="#84BE84" rx="3" ry="3" style="stroke:#038048;stroke-width:1.0;"/><text fill="#000000" font-family="sans-serif" font-size="14" lengthAdjust="spacing" textLength="265" x="27" y="186.3389">getChildren(): List&lt;GeneralTree&lt;T&gt;&gt;</text><ellipse cx="18" cy="199.2891" fill="#84BE84" rx="3" ry="3" style="stroke:#038048;stroke-width:1.0;"/><text fill="#000000" font-family="sans-serif" font-size="14" lengthAdjust="spacing" textLength="257" x="27" y="202.6357">setChildren(GeneralTree&lt;T&gt;&gt;): void</text><ellipse cx="18" cy="215.5859" fill="#84BE84" rx="3" ry="3" style="stroke:#038048;stroke-width:1.0;"/><text fill="#000000" font-family="sans-serif" font-size="14" lengthAdjust="spacing" textLength="238" x="27" y="218.9326">addChild(GeneralTree&lt;T&gt;&gt;): void</text><ellipse cx="18" cy="231.8828" fill="#84BE84" rx="3" ry="3" style="stroke:#038048;stroke-width:1.0;"/><text fill="#000000" font-family="sans-serif" font-size="14" lengthAdjust="spacing" textLength="114" x="27" y="235.2295">isLeaf(): boolean</text><ellipse cx="18" cy="248.1797" fill="#84BE84" rx="3" ry="3" style="stroke:#038048;stroke-width:1.0;"/><text fill="#000000" font-family="sans-serif" font-size="14" lengthAdjust="spacing" textLength="157" x="27" y="251.5264">hasChildren(): boolean</text><ellipse cx="18" cy="264.4766" fill="#84BE84" rx="3" ry="3" style="stroke:#038048;stroke-width:1.0;"/><text fill="#000000" font-family="sans-serif" font-size="14" lengthAdjust="spacing" textLength="129" x="27" y="267.8232">isEmpty(): boolean</text><ellipse cx="18" cy="280.7734" fill="#84BE84" rx="3" ry="3" style="stroke:#038048;stroke-width:1.0;"/><text fill="#000000" font-family="sans-serif" font-size="14" lengthAdjust="spacing" textLength="252" x="27" y="284.1201">removeChild(GeneralTree&lt;T&gt;): void</text><ellipse cx="18" cy="297.0703" fill="#84BE84" rx="3" ry="3" style="stroke:#038048;stroke-width:1.0;"/><text fill="#000000" font-family="sans-serif" font-size="14" lengthAdjust="spacing" textLength="74" x="27" y="300.417">altura(): int</text><ellipse cx="18" cy="313.3672" fill="#84BE84" rx="3" ry="3" style="stroke:#038048;stroke-width:1.0;"/><text fill="#000000" font-family="sans-serif" font-size="14" lengthAdjust="spacing" textLength="76" x="27" y="316.7139">nivel(T): int</text><ellipse cx="18" cy="329.6641" fill="#84BE84" rx="3" ry="3" style="stroke:#038048;stroke-width:1.0;"/><text fill="#000000" font-family="sans-serif" font-size="14" lengthAdjust="spacing" textLength="79" x="27" y="333.0107">ancho(): int</text></g><!--SRC=[VP1D3e8m48NtdcAM6lK2X7JXJzomx0L6EagJsfgsaX3ZtOMc87_2eWdlVM_cPNA5pi51QhGLjqHfoXc3zmhgRmy2FIR0urzUI2KiwGGowNnw8KqMLKZLeG25PmizQxr9e3HIp3XymTfDTZ0snE_aJtMzPZwFaeiIdv37MBsX_vOF0pfoH0n7eX01NAQaomXlpSwhCOfGj_SfqFKRHRTBdHzFNyt4B3rCINEBH-sKVzbm6QbzrBGiIONB_3JKUM5QxFC5]--></g></svg>