<svg version="1.1" xmlns="http://www.w3.org/2000/svg" viewBox="0 0 1020.7750549316406 583.699951171875" width="1020.7750549316406" height="583.699951171875">
  <!-- svg-source:excalidraw -->
  
  <defs>
    <style class="style-fonts">
      @font-face {
        font-family: "Virgil";
        src: url("https://excalidraw.com/Virgil.woff2");
      }
      @font-face {
        font-family: "Cascadia";
        src: url("https://excalidraw.com/Cascadia.woff2");
      }
      @font-face {
        font-family: "Assistant";
        src: url("https://excalidraw.com/Assistant-Regular.woff2");
      }
    </style>
    
  </defs>
  <rect x="0" y="0" width="1020.7750549316406" height="583.699951171875" fill="#ffffff"></rect><g stroke-linecap="round" transform="translate(59.600006103515625 94.4499740600586) rotate(0 26 21)"><path d="M32.19 0.81 C37.54 1.38, 44.19 4.86, 47.53 8.32 C50.88 11.78, 52.66 16.93, 52.27 21.58 C51.89 26.22, 49.15 32.92, 45.24 36.18 C41.34 39.45, 34.36 40.91, 28.86 41.16 C23.36 41.41, 16.83 39.99, 12.23 37.69 C7.63 35.39, 3.05 31.44, 1.29 27.35 C-0.46 23.27, -0.45 17.42, 1.7 13.2 C3.85 8.99, 8.66 3.92, 14.19 2.08 C19.71 0.24, 30.86 1.9, 34.86 2.18 C38.86 2.46, 38.28 3.45, 38.19 3.75 M17.46 1.89 C21.86 0.26, 28.17 0.79, 33.58 2.37 C38.99 3.94, 46.86 7.73, 49.93 11.34 C53 14.94, 53.01 19.81, 52 23.99 C50.99 28.17, 48.18 33.63, 43.87 36.4 C39.55 39.17, 31.99 40.71, 26.12 40.62 C20.25 40.53, 13.13 38.54, 8.66 35.86 C4.19 33.18, 0.27 28.74, -0.7 24.55 C-1.67 20.36, -0.19 14.6, 2.85 10.7 C5.88 6.81, 15.03 2.57, 17.5 1.19 C19.97 -0.19, 17.44 1.88, 17.66 2.4" stroke="#1e1e1e" stroke-width="2" fill="none"></path></g><g transform="translate(79.36323241717713 105.60073165514109) rotate(0 6.351997375488281 10)"><text x="6.351997375488281" y="14.016" font-family="Virgil, Segoe UI Emoji" font-size="16px" fill="#1e1e1e" text-anchor="middle" style="white-space: pre;" direction="ltr" dominant-baseline="alphabetic">v1</text></g><g stroke-linecap="round" transform="translate(144.80007934570312 35.24994659423828) rotate(0 26 21)"><path d="M19.92 0.39 C24.89 -0.98, 32.26 0.47, 37.1 2.41 C41.95 4.34, 46.67 7.91, 48.98 12 C51.3 16.08, 52.27 22.41, 51.01 26.93 C49.75 31.44, 46.02 36.69, 41.42 39.09 C36.83 41.48, 29.03 41.72, 23.42 41.28 C17.82 40.84, 11.54 39.64, 7.81 36.46 C4.09 33.27, 1.59 26.93, 1.06 22.19 C0.53 17.45, 0.93 11.77, 4.62 8.01 C8.32 4.24, 19.55 0.93, 23.24 -0.42 C26.94 -1.76, 26.71 -0.59, 26.79 -0.07 M36.54 0.78 C41.47 2.13, 45.84 6.51, 48.39 10.82 C50.94 15.13, 53.05 22.04, 51.83 26.65 C50.6 31.27, 45.65 36.04, 41.03 38.5 C36.41 40.96, 29.81 42.05, 24.12 41.4 C18.42 40.75, 10.81 37.56, 6.88 34.58 C2.94 31.6, 0.98 27.71, 0.53 23.53 C0.07 19.34, 0.82 13.43, 4.15 9.48 C7.48 5.53, 15.03 1.1, 20.51 -0.17 C25.98 -1.45, 34.34 1.24, 36.99 1.84 C39.64 2.44, 36.61 2.87, 36.43 3.41" stroke="#1e1e1e" stroke-width="2" fill="none"></path></g><g transform="translate(161.03530578143494 46.40070418932078) rotate(0 9.879997253417997 10)"><text x="9.879997253417969" y="14.016" font-family="Virgil, Segoe UI Emoji" font-size="16px" fill="#1e1e1e" text-anchor="middle" style="white-space: pre;" direction="ltr" dominant-baseline="alphabetic">v2</text></g><g stroke-linecap="round" transform="translate(128.79998779296875 160.0499496459961) rotate(0 26 21)"><path d="M35.04 2.07 C40.12 3.13, 46.44 6.41, 49.16 10.29 C51.88 14.17, 52.62 20.82, 51.38 25.36 C50.13 29.91, 46.06 34.69, 41.69 37.58 C37.32 40.47, 30.68 42.89, 25.14 42.72 C19.6 42.55, 12.65 39.56, 8.46 36.56 C4.27 33.56, 0.61 29.26, 0 24.74 C-0.6 20.22, 1.75 13.32, 4.82 9.44 C7.89 5.56, 12.7 2.69, 18.43 1.46 C24.16 0.24, 35.54 1.7, 39.2 2.09 C42.86 2.47, 40.66 3.5, 40.4 3.77 M19.47 0.58 C24.46 -0.73, 31.49 0.38, 36.47 2.59 C41.44 4.81, 47.14 9.98, 49.32 13.88 C51.5 17.78, 50.98 22.1, 49.54 25.99 C48.1 29.88, 45.31 34.6, 40.7 37.19 C36.08 39.79, 27.64 42.1, 21.86 41.58 C16.09 41.06, 9.75 37.49, 6.05 34.08 C2.35 30.67, -0.13 25.18, -0.33 21.11 C-0.54 17.05, 1.59 13.3, 4.83 9.7 C8.06 6.1, 16.75 0.8, 19.09 -0.49 C21.42 -1.77, 18.8 1.38, 18.83 2" stroke="#1e1e1e" stroke-width="2" fill="none"></path></g><g transform="translate(145.28321532733338 171.2007072410786) rotate(0 9.631996154785185 10)"><text x="9.631996154785156" y="14.016" font-family="Virgil, Segoe UI Emoji" font-size="16px" fill="#1e1e1e" text-anchor="middle" style="white-space: pre;" direction="ltr" dominant-baseline="alphabetic">v3</text></g><g stroke-linecap="round" transform="translate(240.79995727539062 172.04996490478516) rotate(0 26 21)"><path d="M25.61 -0.07 C30.91 -0.1, 38.52 2.74, 42.89 5.71 C47.25 8.68, 50.78 13.41, 51.79 17.76 C52.8 22.12, 51.79 27.99, 48.94 31.83 C46.1 35.68, 40.01 39.51, 34.71 40.83 C29.41 42.15, 22.49 41.47, 17.13 39.77 C11.77 38.07, 5.33 34.24, 2.55 30.64 C-0.23 27.04, -0.8 22.5, 0.45 18.19 C1.7 13.89, 5.41 7.96, 10.05 4.8 C14.7 1.63, 25.15 -0.01, 28.31 -0.8 C31.46 -1.59, 29.19 -0.36, 28.97 0.05 M22.24 -0.38 C27.4 -1.36, 36.24 -0.23, 41.23 2.46 C46.22 5.14, 50.53 10.99, 52.19 15.73 C53.84 20.48, 53.77 27.1, 51.17 30.93 C48.57 34.76, 41.92 36.86, 36.58 38.69 C31.24 40.53, 24.57 42.79, 19.15 41.95 C13.72 41.11, 7.18 37.46, 4.01 33.66 C0.84 29.86, -0.5 23.46, 0.12 19.15 C0.73 14.84, 3.64 11.15, 7.72 7.81 C11.81 4.47, 21.87 0.39, 24.62 -0.89 C27.38 -2.17, 24.68 -0.58, 24.25 0.12" stroke="#1e1e1e" stroke-width="2" fill="none"></path></g><g transform="translate(257.6111877394427 183.20072249986765) rotate(0 9.303993225097656 10)"><text x="9.303993225097656" y="14.016" font-family="Virgil, Segoe UI Emoji" font-size="16px" fill="#1e1e1e" text-anchor="middle" style="white-space: pre;" direction="ltr" dominant-baseline="alphabetic">v6</text></g><g stroke-linecap="round" transform="translate(247.99996948242188 89.64995574951172) rotate(0 26 21)"><path d="M35.59 1.15 C40.52 2.41, 45.76 7.38, 48.4 11.22 C51.05 15.06, 52.39 19.68, 51.46 24.21 C50.53 28.74, 47.24 35.46, 42.83 38.39 C38.43 41.32, 30.71 42.1, 25.06 41.78 C19.4 41.46, 12.99 39.39, 8.92 36.48 C4.85 33.57, 1.45 28.84, 0.65 24.32 C-0.16 19.8, 1.24 13.11, 4.09 9.36 C6.94 5.6, 12.39 3.21, 17.73 1.78 C23.08 0.35, 32.8 0.53, 36.15 0.77 C39.49 1.01, 38.08 2.76, 37.79 3.22 M26.27 -1.23 C31.49 -1.55, 39.2 2.3, 43.31 5.65 C47.42 9, 49.91 14.55, 50.94 18.88 C51.98 23.2, 52.41 27.77, 49.49 31.62 C46.58 35.46, 39.09 40.43, 33.45 41.94 C27.81 43.44, 20.77 42.72, 15.64 40.65 C10.5 38.58, 5.1 33.31, 2.65 29.51 C0.2 25.72, -0.36 22.15, 0.92 17.88 C2.2 13.6, 5.87 6.67, 10.33 3.85 C14.78 1.02, 25.1 1.3, 27.64 0.94 C30.17 0.59, 25.65 1.3, 25.54 1.72" stroke="#1e1e1e" stroke-width="2" fill="none"></path></g><g transform="translate(264.98720244891535 100.80071334459421) rotate(0 9.12799072265625 10)"><text x="9.12799072265625" y="14.016" font-family="Virgil, Segoe UI Emoji" font-size="16px" fill="#1e1e1e" text-anchor="middle" style="white-space: pre;" direction="ltr" dominant-baseline="alphabetic">v5</text></g><g stroke-linecap="round" transform="translate(355.1999816894531 165.65003204345703) rotate(0 26 21)"><path d="M28.88 0.77 C34.16 1.29, 41.84 4.29, 45.55 7.66 C49.26 11.04, 50.99 16.77, 51.14 21.04 C51.28 25.3, 49.67 29.75, 46.4 33.23 C43.13 36.72, 36.97 40.84, 31.52 41.94 C26.07 43.04, 18.66 42.18, 13.7 39.84 C8.73 37.5, 3.85 32.28, 1.71 27.9 C-0.42 23.53, -0.88 17.88, 0.9 13.59 C2.68 9.3, 6.73 4.23, 12.4 2.17 C18.06 0.12, 30.37 1.08, 34.9 1.25 C39.44 1.43, 39.74 3.03, 39.6 3.25 M16.52 1.89 C21.12 -0.13, 27.32 0.21, 32.56 1.25 C37.79 2.3, 44.78 4.56, 47.92 8.16 C51.05 11.75, 51.79 18.4, 51.35 22.81 C50.92 27.23, 49.15 31.52, 45.34 34.64 C41.52 37.77, 34.39 41.08, 28.49 41.59 C22.59 42.09, 14.31 40.01, 9.92 37.7 C5.52 35.39, 3.24 32.17, 2.13 27.72 C1.02 23.27, 1.05 15.43, 3.26 11.01 C5.47 6.59, 13.21 2.47, 15.39 1.18 C17.58 -0.11, 16.35 2.97, 16.37 3.27" stroke="#1e1e1e" stroke-width="2" fill="none"></path></g><g transform="translate(372.82721404559504 176.80078963853953) rotate(0 8.487991333007812 10)"><text x="8.487991333007812" y="14.016" font-family="Virgil, Segoe UI Emoji" font-size="16px" fill="#1e1e1e" text-anchor="middle" style="white-space: pre;" direction="ltr" dominant-baseline="alphabetic">v7</text></g><g stroke-linecap="round" transform="translate(381.6000061035156 61.64997100830078) rotate(0 26 21)"><path d="M26.43 -0.65 C31.71 -0.98, 38.13 1.95, 42.46 4.82 C46.78 7.69, 51.33 12.12, 52.39 16.54 C53.44 20.96, 51.83 27.35, 48.79 31.35 C45.75 35.34, 39.3 38.79, 34.15 40.51 C29 42.24, 22.91 43.32, 17.87 41.7 C12.83 40.08, 6.79 34.95, 3.9 30.8 C1 26.65, -0.5 21.01, 0.51 16.8 C1.52 12.58, 4.67 8.29, 9.98 5.53 C15.28 2.76, 27.6 0.61, 32.32 0.2 C37.03 -0.21, 38.28 2.66, 38.28 3.08 M36.62 1.5 C41.84 3.07, 47.77 8.23, 50.31 12.21 C52.85 16.2, 53.43 21.22, 51.87 25.39 C50.32 29.56, 45.76 34.34, 40.96 37.25 C36.16 40.16, 28.71 43.19, 23.06 42.86 C17.41 42.53, 10.93 38.69, 7.06 35.26 C3.2 31.83, 0.12 26.52, -0.15 22.29 C-0.42 18.05, 2.32 13.55, 5.44 9.85 C8.55 6.14, 13.24 1.25, 18.54 0.05 C23.84 -1.15, 34.28 2.05, 37.25 2.64 C40.22 3.23, 36.65 3.66, 36.37 3.59" stroke="#1e1e1e" stroke-width="2" fill="none"></path></g><g transform="translate(397.4112365675677 72.80072860338328) rotate(0 10.303993225097656 10)"><text x="10.303993225097656" y="14.016" font-family="Virgil, Segoe UI Emoji" font-size="16px" fill="#1e1e1e" text-anchor="middle" style="white-space: pre;" direction="ltr" dominant-baseline="alphabetic">v8</text></g><g stroke-linecap="round" transform="translate(246.39999389648438 16.84996795654297) rotate(0 26 21)"><path d="M27.54 -0.06 C33.08 -0.04, 40.09 2.03, 44.16 5.2 C48.23 8.38, 51.32 14.39, 51.97 18.99 C52.61 23.59, 51.16 29.05, 48.02 32.79 C44.88 36.54, 38.52 40.24, 33.12 41.45 C27.72 42.66, 20.81 41.84, 15.63 40.05 C10.44 38.27, 4.68 34.69, 2.02 30.73 C-0.64 26.77, -1.6 20.59, -0.34 16.31 C0.93 12.03, 4.3 7.79, 9.61 5.07 C14.93 2.34, 27.1 0.34, 31.54 -0.03 C35.98 -0.4, 36.2 2.56, 36.26 2.85 M36.14 2.41 C41.13 3.86, 47.73 7.85, 50.04 12.05 C52.34 16.25, 51.3 23.04, 49.95 27.61 C48.61 32.19, 46.54 36.98, 41.98 39.5 C37.41 42.03, 28.3 43.58, 22.55 42.77 C16.81 41.96, 11.09 37.8, 7.5 34.65 C3.91 31.5, 1.37 28.1, 1.03 23.88 C0.7 19.66, 2.41 13.2, 5.48 9.32 C8.55 5.44, 14.17 1.97, 19.43 0.59 C24.69 -0.8, 33.9 0.86, 37.01 1.02 C40.13 1.17, 38.26 0.8, 38.12 1.52" stroke="#1e1e1e" stroke-width="2" fill="none"></path></g><g transform="translate(263.21122436053645 28.000725551625465) rotate(0 9.303993225097656 10)"><text x="9.303993225097656" y="14.016" font-family="Virgil, Segoe UI Emoji" font-size="16px" fill="#1e1e1e" text-anchor="middle" style="white-space: pre;" direction="ltr" dominant-baseline="alphabetic">v4</text></g><g stroke-linecap="round"><g transform="translate(102.79276410575392 97.65494405239951) rotate(0 22.28195978051994 -15.245562809056906)"><path d="M0 0 C10.01 -7.37, 18.98 -12.69, 44.56 -30.49 M0 0 C10.86 -7.73, 21.77 -14.6, 44.56 -30.49" stroke="#1e1e1e" stroke-width="2" fill="none"></path></g><g transform="translate(102.79276410575392 97.65494405239951) rotate(0 22.28195978051994 -15.245562809056906)"><path d="M44.88 -29.84 L37.15 -18.46 L30.58 -28.95 L44.8 -30.88" stroke="none" stroke-width="0" fill="#1e1e1e" fill-rule="evenodd"></path><path d="M44.56 -30.49 C43.2 -28.32, 41.18 -24.68, 36.96 -17.56 M44.56 -30.49 C42.78 -27.63, 40.94 -24.04, 36.96 -17.56 M36.96 -17.56 C34.33 -20.33, 32.75 -24.49, 29.77 -28.01 M36.96 -17.56 C34.79 -20.55, 32.32 -24.03, 29.77 -28.01 M29.77 -28.01 C33.4 -28.82, 38.13 -29.97, 44.56 -30.49 M29.77 -28.01 C34.91 -28.9, 39.62 -29.71, 44.56 -30.49 M44.56 -30.49 C44.56 -30.49, 44.56 -30.49, 44.56 -30.49 M44.56 -30.49 C44.56 -30.49, 44.56 -30.49, 44.56 -30.49" stroke="#1e1e1e" stroke-width="2" fill="none"></path></g></g><mask></mask><g stroke-linecap="round"><g transform="translate(103.95041228263437 132.70520095684356) rotate(0 14.872493130618182 17.311504020631332)"><path d="M0 0 C9.52 10.95, 18.14 20.65, 29.74 34.62 M0 0 C7.41 8.56, 14.56 17.15, 29.74 34.62" stroke="#1e1e1e" stroke-width="2" fill="none"></path></g><g transform="translate(103.95041228263437 132.70520095684356) rotate(0 14.872493130618182 17.311504020631332)"><path d="M28.99 34.91 L15.18 28.39 L24.67 19.66 L28.99 34.94" stroke="none" stroke-width="0" fill="#1e1e1e" fill-rule="evenodd"></path><path d="M29.74 34.62 C25.82 32.89, 21.1 30.18, 16.06 28.48 M29.74 34.62 C26.22 33.19, 22.65 31.67, 16.06 28.48 M16.06 28.48 C19.17 25.72, 22.27 23.68, 25.65 20.19 M16.06 28.48 C18.22 26.49, 20.59 24.04, 25.65 20.19 M25.65 20.19 C26.85 24.75, 28.63 30.57, 29.74 34.62 M25.65 20.19 C26.47 23.94, 27.57 26.91, 29.74 34.62 M29.74 34.62 C29.74 34.62, 29.74 34.62, 29.74 34.62 M29.74 34.62 C29.74 34.62, 29.74 34.62, 29.74 34.62" stroke="#1e1e1e" stroke-width="2" fill="none"></path></g></g><mask></mask><g stroke-linecap="round"><g transform="translate(196.03532843912785 48.426782163634925) rotate(0 24.822943364161233 -3.704914388717782)"><path d="M0 0 C13.42 -1.95, 29.58 -4.8, 49.65 -7.41 M0 0 C13.15 -2.09, 26.18 -3.67, 49.65 -7.41" stroke="#1e1e1e" stroke-width="2" fill="none"></path></g><g transform="translate(196.03532843912785 48.426782163634925) rotate(0 24.822943364161233 -3.704914388717782)"><path d="M50.56 -7.8 L38.01 1.71 L34.36 -11.74 L50.12 -7.19" stroke="none" stroke-width="0" fill="#1e1e1e" fill-rule="evenodd"></path><path d="M49.65 -7.41 C45.37 -4.98, 43.09 -3.09, 37.17 0.92 M49.65 -7.41 C46.67 -5.43, 43.57 -3.02, 37.17 0.92 M37.17 0.92 C37.19 -2.65, 36.38 -5.19, 35.25 -11.61 M37.17 0.92 C36.75 -3.25, 36.03 -7.62, 35.25 -11.61 M35.25 -11.61 C39.12 -10.22, 44.59 -9.37, 49.65 -7.41 M35.25 -11.61 C39.15 -10.15, 43.4 -9.21, 49.65 -7.41 M49.65 -7.41 C49.65 -7.41, 49.65 -7.41, 49.65 -7.41 M49.65 -7.41 C49.65 -7.41, 49.65 -7.41, 49.65 -7.41" stroke="#1e1e1e" stroke-width="2" fill="none"></path></g></g><mask></mask><g stroke-linecap="round"><g transform="translate(191.58381361382715 73.64112893249853) rotate(0 28.232031776670738 15.469599985919217)"><path d="M0 0 C15.51 8, 31.26 18.76, 56.46 30.94 M0 0 C12.75 7.66, 25.79 14.77, 56.46 30.94" stroke="#1e1e1e" stroke-width="2" fill="none"></path></g><g transform="translate(191.58381361382715 73.64112893249853) rotate(0 28.232031776670738 15.469599985919217)"><path d="M57.1 32.24 L40.27 30.79 L45.69 19.04 L56.25 31.22" stroke="none" stroke-width="0" fill="#1e1e1e" fill-rule="evenodd"></path><path d="M56.46 30.94 C51.38 30.19, 46.34 31.21, 41.48 30.17 M56.46 30.94 C52.77 31.41, 49.43 31.27, 41.48 30.17 M41.48 30.17 C43.78 27.23, 43.36 24.53, 47.43 18.97 M41.48 30.17 C42.53 27.21, 44.18 24.25, 47.43 18.97 M47.43 18.97 C51.34 22.79, 54.03 27.2, 56.46 30.94 M47.43 18.97 C50.65 22.46, 52.75 25.45, 56.46 30.94 M56.46 30.94 C56.46 30.94, 56.46 30.94, 56.46 30.94 M56.46 30.94 C56.46 30.94, 56.46 30.94, 56.46 30.94" stroke="#1e1e1e" stroke-width="2" fill="none"></path></g></g><mask></mask><g stroke-linecap="round"><g transform="translate(304.3982609199337 107.25039667476904) rotate(0 38.002610335131976 -9.200636553825234)"><path d="M0 0 C25.11 -6.19, 46.84 -9.35, 76.01 -18.4 M0 0 C25.61 -7.44, 51.2 -13.3, 76.01 -18.4" stroke="#1e1e1e" stroke-width="2" fill="none"></path></g><g transform="translate(304.3982609199337 107.25039667476904) rotate(0 38.002610335131976 -9.200636553825234)"><path d="M74.48 -17.63 L64.41 -8.05 L59.96 -20.48 L76.51 -17.93" stroke="none" stroke-width="0" fill="#1e1e1e" fill-rule="evenodd"></path><path d="M76.01 -18.4 C72.94 -16.12, 67.46 -11.27, 64.04 -9.36 M76.01 -18.4 C72.29 -15.7, 68.39 -12.45, 64.04 -9.36 M64.04 -9.36 C62.36 -13.52, 62.25 -17.73, 61.39 -21.76 M64.04 -9.36 C62.89 -12.1, 62.35 -15.5, 61.39 -21.76 M61.39 -21.76 C65.22 -19.78, 68.72 -20.08, 76.01 -18.4 M61.39 -21.76 C64.89 -21.26, 68.98 -20.6, 76.01 -18.4 M76.01 -18.4 C76.01 -18.4, 76.01 -18.4, 76.01 -18.4 M76.01 -18.4 C76.01 -18.4, 76.01 -18.4, 76.01 -18.4" stroke="#1e1e1e" stroke-width="2" fill="none"></path></g></g><mask></mask><g stroke-linecap="round"><g transform="translate(182.6946535317686 187.9336977242208) rotate(0 27.93742194196585 1.7160397717296405)"><path d="M0 0 C16.55 -0.42, 33.5 3.28, 55.87 3.46 M0 0 C11.96 0.19, 23.73 1.23, 55.87 3.46" stroke="#1e1e1e" stroke-width="2" fill="none"></path></g><g transform="translate(182.6946535317686 187.9336977242208) rotate(0 27.93742194196585 1.7160397717296405)"><path d="M55.91 1.77 L43.41 10.74 L41.62 -5.7 L55.9 4.78" stroke="none" stroke-width="0" fill="#1e1e1e" fill-rule="evenodd"></path><path d="M55.87 3.46 C51.24 3.97, 46.89 7.59, 41.87 8.83 M55.87 3.46 C53.23 4.72, 50.45 6.08, 41.87 8.83 M41.87 8.83 C43.11 4.2, 41.33 0.08, 42.76 -3.82 M41.87 8.83 C41.9 5.72, 42.38 2.03, 42.76 -3.82 M42.76 -3.82 C45.5 -3.39, 49.51 -2, 55.87 3.46 M42.76 -3.82 C47.1 -1.02, 51.62 0.96, 55.87 3.46 M55.87 3.46 C55.87 3.46, 55.87 3.46, 55.87 3.46 M55.87 3.46 C55.87 3.46, 55.87 3.46, 55.87 3.46" stroke="#1e1e1e" stroke-width="2" fill="none"></path></g></g><mask></mask><g stroke-linecap="round"><g transform="translate(295.5932901382628 192.26097540342676) rotate(0 29.24877605951241 -1.849649369487821)"><path d="M0 0 C19.68 0.18, 44.61 -3.85, 58.5 -3.7 M0 0 C12.7 -1.79, 23.39 -1.89, 58.5 -3.7" stroke="#1e1e1e" stroke-width="2" fill="none"></path></g><g transform="translate(295.5932901382628 192.26097540342676) rotate(0 29.24877605951241 -1.849649369487821)"><path d="M57.37 -5.58 L43.8 3.13 L43.56 -10.28 L58.55 -4.92" stroke="none" stroke-width="0" fill="#1e1e1e" fill-rule="evenodd"></path><path d="M58.5 -3.7 C52.32 0.01, 50.18 0.55, 45.23 3.3 M58.5 -3.7 C56.26 -2.65, 52.51 -0.72, 45.23 3.3 M45.23 3.3 C46.19 -0.57, 45.84 -5.01, 44.61 -9.37 M45.23 3.3 C45.48 -1.29, 44.78 -5.17, 44.61 -9.37 M44.61 -9.37 C48.41 -7.57, 53.87 -5.94, 58.5 -3.7 M44.61 -9.37 C48.24 -7.49, 53.3 -6.59, 58.5 -3.7 M58.5 -3.7 C58.5 -3.7, 58.5 -3.7, 58.5 -3.7 M58.5 -3.7 C58.5 -3.7, 58.5 -3.7, 58.5 -3.7" stroke="#1e1e1e" stroke-width="2" fill="none"></path></g></g><mask></mask><g stroke-linecap="round"><g transform="translate(364.04479618465143 168.37816553712378) rotate(0 -34.87296781894713 -21.610936851429116)"><path d="M0 0 C-20.13 -13.02, -37.7 -26.62, -69.75 -43.22 M0 0 C-26.84 -16.59, -53.23 -31.99, -69.75 -43.22" stroke="#1e1e1e" stroke-width="2" fill="none"></path></g><g transform="translate(364.04479618465143 168.37816553712378) rotate(0 -34.87296781894713 -21.610936851429116)"><path d="M-71.45 -41.39 L-55.2 -40.72 L-62.35 -29.34 L-68.88 -44.52" stroke="none" stroke-width="0" fill="#1e1e1e" fill-rule="evenodd"></path><path d="M-69.75 -43.22 C-65.82 -42.85, -60.25 -43.43, -54.89 -41.17 M-69.75 -43.22 C-64.58 -43.29, -59.1 -41.87, -54.89 -41.17 M-54.89 -41.17 C-57.41 -37.51, -59.48 -35.64, -61.76 -30.52 M-54.89 -41.17 C-57.19 -37.37, -59.82 -34.47, -61.76 -30.52 M-61.76 -30.52 C-65.62 -33.56, -68.13 -38.93, -69.75 -43.22 M-61.76 -30.52 C-64.42 -35.45, -67.03 -39.02, -69.75 -43.22 M-69.75 -43.22 C-69.75 -43.22, -69.75 -43.22, -69.75 -43.22 M-69.75 -43.22 C-69.75 -43.22, -69.75 -43.22, -69.75 -43.22" stroke="#1e1e1e" stroke-width="2" fill="none"></path></g></g><mask></mask><g transform="translate(10 228.74996185302734) rotate(0 234.375 24)"><text x="0" y="19.3125" font-family="Cascadia, Segoe UI Emoji" font-size="20px" fill="#1e1e1e" text-anchor="start" style="white-space: pre;" direction="ltr" dominant-baseline="alphabetic">grado_in:  0   1   1   1   2   1   1   1</text><text x="0" y="43.3125" font-family="Cascadia, Segoe UI Emoji" font-size="20px" fill="#1e1e1e" text-anchor="start" style="white-space: pre;" direction="ltr" dominant-baseline="alphabetic">          v1  v2  v3  v4  v5  v6  v7  v8</text></g><g transform="translate(10.79998779296875 11.849952697753906) rotate(0 29.296875 12)"><text x="0" y="19.3125" font-family="Cascadia, Segoe UI Emoji" font-size="20px" fill="#1e1e1e" text-anchor="start" style="white-space: pre;" direction="ltr" dominant-baseline="alphabetic">Grafo</text></g><g stroke-linecap="round" transform="translate(591.625 92.60002136230469) rotate(0 26 21)"><path d="M25.12 0.95 C30.35 0.53, 36.97 1.41, 41.22 4 C45.47 6.6, 49.3 12.05, 50.62 16.52 C51.94 21, 51.56 27, 49.17 30.85 C46.78 34.69, 41.6 37.83, 36.27 39.59 C30.93 41.35, 22.56 42.54, 17.16 41.4 C11.76 40.26, 6.71 36.54, 3.88 32.74 C1.06 28.95, -0.54 23.37, 0.22 18.65 C0.99 13.93, 3.44 7.62, 8.48 4.44 C13.51 1.25, 26 -0.12, 30.42 -0.46 C34.84 -0.81, 35.21 1.95, 35 2.36 M27.89 -0.91 C32.92 -0.68, 39.7 3.93, 43.76 7.44 C47.82 10.96, 51.45 16.04, 52.27 20.17 C53.09 24.3, 51.79 28.53, 48.67 32.22 C45.56 35.9, 39.29 41.13, 33.56 42.28 C27.83 43.43, 19.41 41.15, 14.29 39.13 C9.17 37.11, 5.33 34.11, 2.86 30.17 C0.38 26.23, -2.02 19.95, -0.55 15.47 C0.92 10.99, 7.14 6, 11.69 3.3 C16.24 0.6, 23.98 -0.34, 26.76 -0.74 C29.55 -1.15, 28.34 0.23, 28.41 0.86" stroke="#e03131" stroke-width="2" fill="none"></path></g><g transform="translate(611.3882263136614 103.75077895738718) rotate(0 6.351997375488281 10)"><text x="6.351997375488281" y="14.016" font-family="Virgil, Segoe UI Emoji" font-size="16px" fill="#e03131" text-anchor="middle" style="white-space: pre;" direction="ltr" dominant-baseline="alphabetic">v1</text></g><g stroke-linecap="round" transform="translate(676.8250732421875 33.399993896484375) rotate(0 26 21)"><path d="M36.91 2.14 C41.95 3.9, 47.69 8.71, 50.11 12.71 C52.52 16.72, 53.2 21.8, 51.42 26.18 C49.64 30.56, 44.19 36.28, 39.43 39 C34.68 41.71, 28.26 42.98, 22.86 42.47 C17.46 41.96, 10.84 39.49, 7.02 35.95 C3.2 32.41, 0.15 25.92, -0.08 21.22 C-0.32 16.51, 2.18 11.03, 5.6 7.71 C9.03 4.39, 14.75 2.05, 20.47 1.29 C26.19 0.53, 36.22 2.35, 39.93 3.15 C43.64 3.94, 42.83 5.74, 42.72 6.06 M17.98 2.21 C23.2 0.23, 31.45 -0.95, 36.7 0.66 C41.96 2.28, 47.17 7.98, 49.5 11.89 C51.83 15.8, 51.82 19.85, 50.69 24.13 C49.55 28.41, 47.11 34.62, 42.68 37.57 C38.24 40.52, 29.58 42.04, 24.06 41.82 C18.54 41.6, 13.77 39.33, 9.58 36.26 C5.39 33.19, -0.17 27.7, -1.09 23.41 C-2.01 19.11, 1.06 14.07, 4.05 10.5 C7.05 6.94, 14.67 3.37, 16.89 2.03 C19.1 0.7, 17.05 2.1, 17.35 2.51" stroke="#1e1e1e" stroke-width="2" fill="none"></path></g><g transform="translate(693.0602996779194 44.55075149156687) rotate(0 9.879997253417969 10)"><text x="9.879997253417969" y="14.016" font-family="Virgil, Segoe UI Emoji" font-size="16px" fill="#1e1e1e" text-anchor="middle" style="white-space: pre;" direction="ltr" dominant-baseline="alphabetic">v2</text></g><g stroke-linecap="round" transform="translate(660.8249816894531 158.1999969482422) rotate(0 26 21)"><path d="M25.11 -0.85 C30.21 -1.28, 36.44 1.68, 40.8 4.63 C45.15 7.58, 49.86 12.44, 51.25 16.85 C52.65 21.25, 51.69 27.31, 49.16 31.06 C46.63 34.81, 41.13 37.8, 36.09 39.35 C31.04 40.91, 24.12 41.41, 18.88 40.38 C13.63 39.36, 7.83 36.92, 4.64 33.21 C1.44 29.5, -0.91 22.59, -0.29 18.12 C0.34 13.64, 3.98 9.43, 8.39 6.38 C12.81 3.33, 23.18 0.87, 26.2 -0.18 C29.22 -1.23, 26.42 -0.34, 26.52 0.08 M35.96 2.39 C40.67 3.63, 45.22 6.02, 47.88 9.82 C50.54 13.61, 53.05 20.61, 51.91 25.15 C50.77 29.7, 45.28 34.38, 41.02 37.1 C36.75 39.81, 31.89 41.62, 26.32 41.45 C20.76 41.28, 11.89 38.86, 7.61 36.08 C3.33 33.29, 1.41 28.88, 0.63 24.72 C-0.14 20.57, 0.22 14.91, 2.95 11.15 C5.68 7.39, 11.61 3.56, 17.03 2.16 C22.44 0.76, 32.56 2.79, 35.43 2.76 C38.29 2.72, 34.56 1.84, 34.19 1.95" stroke="#1e1e1e" stroke-width="2" fill="none"></path></g><g transform="translate(677.3082092238178 169.35075454332468) rotate(0 9.631996154785156 10)"><text x="9.631996154785156" y="14.016" font-family="Virgil, Segoe UI Emoji" font-size="16px" fill="#1e1e1e" text-anchor="middle" style="white-space: pre;" direction="ltr" dominant-baseline="alphabetic">v3</text></g><g stroke-linecap="round" transform="translate(772.824951171875 170.20001220703125) rotate(0 26 21)"><path d="M14.85 2.62 C19.63 0.58, 27.22 0.38, 32.6 1.26 C37.98 2.15, 43.83 4.47, 47.12 7.93 C50.41 11.39, 52.71 17.27, 52.33 22.03 C51.96 26.8, 48.94 33.27, 44.87 36.52 C40.8 39.78, 33.48 41.14, 27.89 41.54 C22.3 41.95, 15.78 41.49, 11.34 38.95 C6.89 36.42, 2.82 30.86, 1.22 26.34 C-0.38 21.82, -1.49 16.08, 1.74 11.83 C4.96 7.59, 16.62 2.64, 20.56 0.88 C24.51 -0.87, 25.52 0.95, 25.4 1.32 M35.04 1.42 C40.04 2.71, 44.1 6.41, 46.99 10.15 C49.87 13.9, 53.25 19.58, 52.34 23.91 C51.42 28.24, 45.8 33.07, 41.5 36.15 C37.2 39.22, 32 42.04, 26.54 42.37 C21.08 42.7, 13.17 40.88, 8.75 38.12 C4.33 35.36, 0.87 30.17, 0.01 25.83 C-0.86 21.48, 0.88 16.1, 3.55 12.05 C6.22 8, 11.02 3.31, 16.02 1.52 C21.02 -0.27, 30.25 1.43, 33.57 1.31 C36.88 1.19, 35.6 0.3, 35.89 0.81" stroke="#1e1e1e" stroke-width="2" fill="none"></path></g><g transform="translate(789.6361816359272 181.35076980211375) rotate(0 9.303993225097656 10)"><text x="9.303993225097656" y="14.016" font-family="Virgil, Segoe UI Emoji" font-size="16px" fill="#1e1e1e" text-anchor="middle" style="white-space: pre;" direction="ltr" dominant-baseline="alphabetic">v6</text></g><g stroke-linecap="round" transform="translate(780.0249633789062 87.80000305175781) rotate(0 26 21)"><path d="M33.73 0.02 C38.96 0.84, 45.3 4.95, 48.37 9.03 C51.45 13.11, 53.07 19.99, 52.19 24.51 C51.3 29.02, 47.21 33.11, 43.06 36.14 C38.91 39.17, 32.69 42.47, 27.26 42.69 C21.82 42.91, 15 40.38, 10.45 37.46 C5.9 34.54, 1.05 29.47, -0.05 25.15 C-1.15 20.82, 1.05 15.31, 3.86 11.52 C6.67 7.74, 11.28 3.94, 16.81 2.46 C22.35 0.99, 32.96 2.47, 37.05 2.67 C41.14 2.86, 41.57 3.35, 41.35 3.63 M28.55 -0.5 C33.85 -0.57, 38.76 1.81, 42.69 5.1 C46.63 8.38, 51.47 14.44, 52.16 19.21 C52.85 23.97, 50.06 29.85, 46.81 33.68 C43.57 37.51, 37.91 40.87, 32.7 42.19 C27.49 43.5, 20.73 43.53, 15.58 41.56 C10.42 39.59, 4.4 34.63, 1.75 30.37 C-0.9 26.11, -2.05 20.53, -0.32 16 C1.41 11.47, 7.2 5.66, 12.14 3.2 C17.09 0.75, 26.74 1.68, 29.35 1.25 C31.96 0.83, 28.08 0.51, 27.81 0.64" stroke="#1e1e1e" stroke-width="2" fill="none"></path></g><g transform="translate(797.0121963453998 98.95076064684031) rotate(0 9.12799072265625 10)"><text x="9.12799072265625" y="14.016" font-family="Virgil, Segoe UI Emoji" font-size="16px" fill="#1e1e1e" text-anchor="middle" style="white-space: pre;" direction="ltr" dominant-baseline="alphabetic">v5</text></g><g stroke-linecap="round" transform="translate(887.2249755859375 163.80007934570312) rotate(0 26 21)"><path d="M14.4 3.11 C18.79 0.95, 25.75 -0.84, 31.15 0.13 C36.54 1.1, 43.27 5.32, 46.79 8.92 C50.31 12.52, 52.67 17.42, 52.29 21.73 C51.91 26.05, 48.18 31.43, 44.52 34.82 C40.85 38.21, 35.59 41.27, 30.3 42.07 C25.01 42.86, 17.69 41.97, 12.76 39.59 C7.83 37.21, 2.39 32.33, 0.7 27.8 C-0.98 23.27, -0.06 16.83, 2.66 12.42 C5.38 8.01, 13.84 3.47, 17.01 1.36 C20.19 -0.74, 21.5 -0.57, 21.72 -0.21 M21.56 0.72 C26.81 -0.03, 33.35 1.31, 38.08 3.63 C42.81 5.95, 47.82 10.34, 49.92 14.64 C52.02 18.93, 52.63 25.29, 50.7 29.39 C48.76 33.5, 43.35 37.21, 38.34 39.28 C33.32 41.36, 25.73 42.73, 20.61 41.82 C15.49 40.92, 10.81 37.09, 7.63 33.85 C4.44 30.61, 1.78 26.72, 1.5 22.39 C1.22 18.05, 2.62 11.51, 5.93 7.82 C9.24 4.12, 18.88 1.66, 21.34 0.24 C23.8 -1.18, 20.42 -0.89, 20.69 -0.69" stroke="#1e1e1e" stroke-width="2" fill="none"></path></g><g transform="translate(904.8522079420795 174.95083694078562) rotate(0 8.487991333007812 10)"><text x="8.487991333007812" y="14.016" font-family="Virgil, Segoe UI Emoji" font-size="16px" fill="#1e1e1e" text-anchor="middle" style="white-space: pre;" direction="ltr" dominant-baseline="alphabetic">v7</text></g><g stroke-linecap="round" transform="translate(913.625 59.800018310546875) rotate(0 26 21)"><path d="M35.49 2.1 C40.68 3.42, 46.49 6.89, 49.05 10.65 C51.62 14.4, 51.83 20.16, 50.86 24.65 C49.9 29.14, 47.36 34.54, 43.26 37.57 C39.16 40.61, 32.07 42.91, 26.27 42.87 C20.46 42.83, 12.64 40.52, 8.43 37.33 C4.22 34.14, 1.89 28.21, 1 23.73 C0.11 19.25, 0.31 14.35, 3.09 10.43 C5.87 6.51, 11.82 1.44, 17.69 0.2 C23.55 -1.03, 34.46 2.47, 38.27 3 C42.09 3.54, 40.86 3.14, 40.58 3.4 M28.79 1.15 C34.23 1.5, 41.52 4.93, 45.23 8.09 C48.95 11.26, 51.04 15.85, 51.1 20.13 C51.17 24.41, 48.62 30.35, 45.63 33.78 C42.65 37.2, 38.19 39.5, 33.2 40.68 C28.2 41.87, 20.84 42.78, 15.65 40.89 C10.46 39, 4.44 33.7, 2.04 29.34 C-0.36 24.98, -0.3 19.28, 1.23 14.71 C2.76 10.14, 6.35 4.5, 11.22 1.91 C16.09 -0.67, 27.29 -0.53, 30.46 -0.81 C33.63 -1.08, 30.42 -0.01, 30.26 0.27" stroke="#1e1e1e" stroke-width="2" fill="none"></path></g><g transform="translate(929.4362304640522 70.95077590562937) rotate(0 10.303993225097656 10)"><text x="10.303993225097656" y="14.016" font-family="Virgil, Segoe UI Emoji" font-size="16px" fill="#1e1e1e" text-anchor="middle" style="white-space: pre;" direction="ltr" dominant-baseline="alphabetic">v8</text></g><g stroke-linecap="round" transform="translate(778.4249877929688 15.000015258789062) rotate(0 26 21)"><path d="M34.32 0.93 C39.5 2.22, 46.46 6.7, 49.46 10.81 C52.46 14.92, 53.54 21.13, 52.32 25.59 C51.1 30.06, 46.43 34.97, 42.14 37.61 C37.85 40.26, 32.18 41.51, 26.59 41.45 C21 41.4, 12.94 40.26, 8.59 37.29 C4.25 34.32, 1.39 28.03, 0.52 23.64 C-0.34 19.24, 0.69 14.79, 3.41 10.9 C6.13 7.01, 11.12 1.69, 16.82 0.31 C22.53 -1.06, 33.58 2.06, 37.62 2.64 C41.66 3.22, 41.09 3.56, 41.08 3.79 M33.59 1.33 C38.48 2.25, 43.93 6.59, 47.17 10.28 C50.42 13.97, 53.51 18.86, 53.08 23.48 C52.64 28.11, 49 34.93, 44.57 38.04 C40.13 41.15, 32.27 42.3, 26.47 42.17 C20.66 42.03, 14.17 40.32, 9.73 37.22 C5.29 34.12, 0.7 28.13, -0.18 23.57 C-1.05 19.01, 1.5 13.61, 4.49 9.86 C7.48 6.11, 12.68 2.78, 17.77 1.09 C22.86 -0.6, 32.34 -0.23, 35.04 -0.27 C37.74 -0.31, 34.35 0.25, 33.98 0.85" stroke="#1e1e1e" stroke-width="2" fill="none"></path></g><g transform="translate(795.2362182570209 26.15077285387156) rotate(0 9.303993225097656 10)"><text x="9.303993225097656" y="14.016" font-family="Virgil, Segoe UI Emoji" font-size="16px" fill="#1e1e1e" text-anchor="middle" style="white-space: pre;" direction="ltr" dominant-baseline="alphabetic">v4</text></g><g stroke-linecap="round"><g transform="translate(634.8249816894531 95.800048828125) rotate(0 22.800003051757812 -15.600013732910156)"><path d="M0 0 C16.19 -11.88, 34.64 -22.83, 45.6 -31.2 M0 0 C17.1 -11.17, 33.58 -23.45, 45.6 -31.2" stroke="#e03131" stroke-width="2" fill="none"></path></g><g transform="translate(634.8249816894531 95.800048828125) rotate(0 22.800003051757812 -15.600013732910156)"><path d="M45.15 -31.57 L38.48 -17.88 L30.43 -29.02 L45.36 -30.39" stroke="none" stroke-width="0" fill="#e03131" fill-rule="evenodd"></path><path d="M45.6 -31.2 C42.27 -26.72, 40.57 -21.49, 37.88 -18.34 M45.6 -31.2 C42.96 -26.17, 39.69 -21.87, 37.88 -18.34 M37.88 -18.34 C35.49 -21.5, 33.03 -25.79, 30.79 -28.85 M37.88 -18.34 C35.97 -20.72, 34.29 -23.28, 30.79 -28.85 M30.79 -28.85 C35.5 -30.09, 40.09 -29.58, 45.6 -31.2 M30.79 -28.85 C34.44 -29.45, 38.13 -30.1, 45.6 -31.2 M45.6 -31.2 C45.6 -31.2, 45.6 -31.2, 45.6 -31.2 M45.6 -31.2 C45.6 -31.2, 45.6 -31.2, 45.6 -31.2" stroke="#e03131" stroke-width="2" fill="none"></path></g></g><mask></mask><g stroke-linecap="round"><g transform="translate(636.1349963448486 130.74001939363382) rotate(0 14.815632437899922 17.34576441482062)"><path d="M0 0 C9.15 10.09, 17.33 20.5, 29.63 34.69 M0 0 C7.21 8.25, 15.01 17.3, 29.63 34.69" stroke="#e03131" stroke-width="2" fill="none"></path></g><g transform="translate(636.1349963448486 130.74001939363382) rotate(0 14.815632437899922 17.34576441482062)"><path d="M30.23 35.15 L15.66 28.23 L25.47 21.02 L29.16 33.71" stroke="none" stroke-width="0" fill="#e03131" fill-rule="evenodd"></path><path d="M29.63 34.69 C26.49 33.08, 22.52 31.77, 16.02 28.39 M29.63 34.69 C26.01 32.93, 22.91 31.65, 16.02 28.39 M16.02 28.39 C17.79 26.1, 19.67 25.13, 25.7 20.21 M16.02 28.39 C19.09 25.92, 22.37 23.34, 25.7 20.21 M25.7 20.21 C26.72 24.44, 27.22 28, 29.63 34.69 M25.7 20.21 C27.22 25.69, 28.52 30.85, 29.63 34.69 M29.63 34.69 C29.63 34.69, 29.63 34.69, 29.63 34.69 M29.63 34.69 C29.63 34.69, 29.63 34.69, 29.63 34.69" stroke="#e03131" stroke-width="2" fill="none"></path></g></g><mask></mask><g stroke-linecap="round"><g transform="translate(725.2249755859375 47.00001525878906) rotate(0 26.800018310546875 -4)"><path d="M0 0 C15.5 -0.49, 27.17 -3.39, 53.6 -8 M0 0 C20.02 -2.46, 38.55 -5.67, 53.6 -8" stroke="#1e1e1e" stroke-width="2" fill="none"></path></g><g transform="translate(725.2249755859375 47.00001525878906) rotate(0 26.800018310546875 -4)"><path d="M52.88 -8.34 L40.69 2.01 L38.24 -14.1 L52.92 -7" stroke="none" stroke-width="0" fill="#1e1e1e" fill-rule="evenodd"></path><path d="M53.6 -8 C51.49 -4.44, 46.37 -2.83, 41.17 0.39 M53.6 -8 C49.17 -4.88, 43.7 -1.99, 41.17 0.39 M41.17 0.39 C39.83 -3.71, 40.15 -8.91, 39.18 -12.13 M41.17 0.39 C40.56 -3.53, 39.4 -8.55, 39.18 -12.13 M39.18 -12.13 C41.66 -9.83, 46.91 -10.4, 53.6 -8 M39.18 -12.13 C43.34 -11.56, 48.78 -10.03, 53.6 -8 M53.6 -8 C53.6 -8, 53.6 -8, 53.6 -8 M53.6 -8 C53.6 -8, 53.6 -8, 53.6 -8" stroke="#1e1e1e" stroke-width="2" fill="none"></path></g></g><mask></mask><g stroke-linecap="round"><g transform="translate(723.625 71.800048828125) rotate(0 29.20001220703125 16)"><path d="M0 0 C18.21 10.85, 39.55 19.19, 58.4 32 M0 0 C12.99 7.39, 28.24 14.73, 58.4 32" stroke="#1e1e1e" stroke-width="2" fill="none"></path></g><g transform="translate(723.625 71.800048828125) rotate(0 29.20001220703125 16)"><path d="M57.92 33.62 L42.5 28.92 L48.95 20.83 L59.69 33.1" stroke="none" stroke-width="0" fill="#1e1e1e" fill-rule="evenodd"></path><path d="M58.4 32 C52.78 32.49, 49.69 30.59, 43.44 30.89 M58.4 32 C54.15 31.67, 51.65 31.22, 43.44 30.89 M43.44 30.89 C45.1 27.98, 46.83 25.93, 49.63 19.83 M43.44 30.89 C45.33 26.86, 47.5 22.78, 49.63 19.83 M49.63 19.83 C54.21 24.52, 56.63 29.39, 58.4 32 M49.63 19.83 C52.77 22.99, 55.26 26.88, 58.4 32 M58.4 32 C58.4 32, 58.4 32, 58.4 32 M58.4 32 C58.4 32, 58.4 32, 58.4 32" stroke="#1e1e1e" stroke-width="2" fill="none"></path></g></g><mask></mask><g stroke-linecap="round"><g transform="translate(836.4249877929688 105.4000244140625) rotate(0 38 -9.200004577636719)"><path d="M0 0 C30.91 -8.59, 57.74 -14.13, 76 -18.4 M0 0 C24.52 -6.06, 47.01 -12.02, 76 -18.4" stroke="#1e1e1e" stroke-width="2" fill="none"></path></g><g transform="translate(836.4249877929688 105.4000244140625) rotate(0 38 -9.200004577636719)"><path d="M75.06 -20.37 L63.49 -8.18 L62.62 -20.43 L74.88 -19.27" stroke="none" stroke-width="0" fill="#1e1e1e" fill-rule="evenodd"></path><path d="M76 -18.4 C72.39 -15.59, 65.84 -10.82, 64.17 -9.18 M76 -18.4 C72.54 -15.79, 67.78 -13.03, 64.17 -9.18 M64.17 -9.18 C64 -13.51, 63.16 -16.94, 61.33 -21.53 M64.17 -9.18 C62.66 -13.98, 62.6 -19.2, 61.33 -21.53 M61.33 -21.53 C67.39 -20.2, 72.98 -19.69, 76 -18.4 M61.33 -21.53 C64.89 -20.96, 67.61 -20.87, 76 -18.4 M76 -18.4 C76 -18.4, 76 -18.4, 76 -18.4 M76 -18.4 C76 -18.4, 76 -18.4, 76 -18.4" stroke="#1e1e1e" stroke-width="2" fill="none"></path></g></g><mask></mask><g stroke-linecap="round"><g transform="translate(714.7188257490479 186.08602856839434) rotate(0 27.937799166240097 1.7316537767745217)"><path d="M0 0 C18.22 2.01, 39.21 0.84, 55.88 3.46 M0 0 C15.18 0.66, 32.4 2.45, 55.88 3.46" stroke="#1e1e1e" stroke-width="2" fill="none"></path></g><g transform="translate(714.7188257490479 186.08602856839434) rotate(0 27.937799166240097 1.7316537767745217)"><path d="M55.19 4.46 L43.25 10.15 L41.53 -4.48 L54.06 3.22" stroke="none" stroke-width="0" fill="#1e1e1e" fill-rule="evenodd"></path><path d="M55.88 3.46 C50.13 5.7, 46.44 5.87, 41.95 9.05 M55.88 3.46 C51.19 4.61, 48.03 6.82, 41.95 9.05 M41.95 9.05 C42.89 6.02, 43.4 1.94, 42.65 -3.61 M41.95 9.05 C42.85 4.76, 43.11 1.64, 42.65 -3.61 M42.65 -3.61 C46.51 -2.16, 49.13 1.86, 55.88 3.46 M42.65 -3.61 C46.11 -2.62, 48.78 -0.6, 55.88 3.46 M55.88 3.46 C55.88 3.46, 55.88 3.46, 55.88 3.46 M55.88 3.46 C55.88 3.46, 55.88 3.46, 55.88 3.46" stroke="#1e1e1e" stroke-width="2" fill="none"></path></g></g><mask></mask><g stroke-linecap="round"><g transform="translate(827.6181107756681 190.40671586691633) rotate(0 29.248790872869677 -1.84911347085864)"><path d="M0 0 C14.65 -2.93, 28.47 -1.03, 58.5 -3.7 M0 0 C15.64 -0.41, 30.36 -1.02, 58.5 -3.7" stroke="#1e1e1e" stroke-width="2" fill="none"></path></g><g transform="translate(827.6181107756681 190.40671586691633) rotate(0 29.248790872869677 -1.84911347085864)"><path d="M59.79 -2.6 L44.38 2.91 L42.59 -9.09 L57.33 -4.46" stroke="none" stroke-width="0" fill="#1e1e1e" fill-rule="evenodd"></path><path d="M58.5 -3.7 C55.48 -3.24, 51.9 0.7, 45.5 3.78 M58.5 -3.7 C55.15 -1.61, 51.22 0.63, 45.5 3.78 M45.5 3.78 C46.29 -0.37, 44.98 -4, 44.41 -8.85 M45.5 3.78 C45.68 0.4, 44.71 -3.91, 44.41 -8.85 M44.41 -8.85 C47.25 -5.97, 52.04 -4.54, 58.5 -3.7 M44.41 -8.85 C48.21 -7.62, 51.92 -5.76, 58.5 -3.7 M58.5 -3.7 C58.5 -3.7, 58.5 -3.7, 58.5 -3.7 M58.5 -3.7 C58.5 -3.7, 58.5 -3.7, 58.5 -3.7" stroke="#1e1e1e" stroke-width="2" fill="none"></path></g></g><mask></mask><g stroke-linecap="round"><g transform="translate(896.1003017001663 166.50888697516768) rotate(0 -34.885320984019245 -21.603971466927547)"><path d="M0 0 C-22.97 -13.77, -46.13 -30.59, -69.77 -43.21 M0 0 C-17.7 -9.83, -34.63 -20.38, -69.77 -43.21" stroke="#1e1e1e" stroke-width="2" fill="none"></path></g><g transform="translate(896.1003017001663 166.50888697516768) rotate(0 -34.885320984019245 -21.603971466927547)"><path d="M-70.89 -44.08 L-56.72 -41.41 L-62.94 -31.28 L-68.48 -44.14" stroke="none" stroke-width="0" fill="#1e1e1e" fill-rule="evenodd"></path><path d="M-69.77 -43.21 C-65.12 -41.71, -60.66 -43.14, -54.91 -41.17 M-69.77 -43.21 C-66.48 -42.29, -62.68 -41.75, -54.91 -41.17 M-54.91 -41.17 C-56.8 -38.82, -59.01 -33.37, -61.78 -30.52 M-54.91 -41.17 C-56.51 -38.41, -58.17 -35.89, -61.78 -30.52 M-61.78 -30.52 C-64.67 -32.6, -66.06 -36.36, -69.77 -43.21 M-61.78 -30.52 C-63.78 -33.09, -65.64 -35.79, -69.77 -43.21 M-69.77 -43.21 C-69.77 -43.21, -69.77 -43.21, -69.77 -43.21 M-69.77 -43.21 C-69.77 -43.21, -69.77 -43.21, -69.77 -43.21" stroke="#1e1e1e" stroke-width="2" fill="none"></path></g></g><mask></mask><g transform="translate(542.0249938964844 226.90000915527344) rotate(0 234.375 24)"><text x="0" y="19.3125" font-family="Cascadia, Segoe UI Emoji" font-size="20px" fill="#1e1e1e" text-anchor="start" style="white-space: pre;" direction="ltr" dominant-baseline="alphabetic">grado_in:  x   0   0   1   2   1   1   1</text><text x="0" y="43.3125" font-family="Cascadia, Segoe UI Emoji" font-size="20px" fill="#1e1e1e" text-anchor="start" style="white-space: pre;" direction="ltr" dominant-baseline="alphabetic">          v1  v2  v3  v4  v5  v6  v7  v8</text></g><g transform="translate(542.8249816894531 10) rotate(0 46.875 12)"><text x="0" y="19.3125" font-family="Cascadia, Segoe UI Emoji" font-size="20px" fill="#1e1e1e" text-anchor="start" style="white-space: pre;" direction="ltr" dominant-baseline="alphabetic">Bucle: 1</text></g><g stroke-linecap="round" transform="translate(60.0250244140625 390.99998474121094) rotate(0 26 21)"><path d="M31.3 -0.17 C36.34 0.78, 43.15 5.6, 46.51 9.25 C49.87 12.89, 51.68 17.47, 51.48 21.68 C51.28 25.88, 48.99 31.04, 45.3 34.49 C41.62 37.94, 34.97 41.81, 29.38 42.36 C23.79 42.91, 16.58 40.31, 11.78 37.79 C6.98 35.27, 2.22 31.53, 0.59 27.25 C-1.03 22.98, -0.35 16.19, 2.01 12.12 C4.37 8.05, 9.02 4.43, 14.77 2.83 C20.52 1.22, 32.49 2.44, 36.5 2.48 C40.51 2.52, 38.94 2.74, 38.83 3.08 M13.59 0.59 C18.25 -1.62, 27.64 -0.27, 33.45 1.2 C39.25 2.67, 45.14 6, 48.39 9.41 C51.65 12.82, 53.67 17.09, 52.98 21.67 C52.3 26.25, 48.63 33.62, 44.3 36.89 C39.96 40.16, 32.51 40.86, 26.98 41.3 C21.46 41.74, 15.51 42.12, 11.13 39.53 C6.75 36.94, 2.35 30.48, 0.72 25.75 C-0.9 21.03, -1.18 14.93, 1.37 11.16 C3.92 7.4, 13.7 4.65, 16.02 3.16 C18.33 1.68, 15.39 2.13, 15.26 2.26" stroke="#e03131" stroke-width="2" fill="none"></path></g><g transform="translate(79.78825072772406 402.15074233629343) rotate(0 6.351997375488281 10)"><text x="6.351997375488281" y="14.016" font-family="Virgil, Segoe UI Emoji" font-size="16px" fill="#e03131" text-anchor="middle" style="white-space: pre;" direction="ltr" dominant-baseline="alphabetic">v1</text></g><g stroke-linecap="round" transform="translate(145.22509765625 331.7999572753906) rotate(0 26 21)"><path d="M16.7 0.92 C21.63 -1.07, 29.86 -1.16, 35.18 0.53 C40.51 2.23, 45.95 7.2, 48.65 11.09 C51.36 14.97, 52.53 19.5, 51.43 23.84 C50.33 28.19, 46.32 34.26, 42.07 37.16 C37.81 40.05, 31.26 41.17, 25.9 41.24 C20.54 41.3, 14.07 40.17, 9.9 37.53 C5.73 34.9, 2.09 30.05, 0.88 25.44 C-0.33 20.83, -0.5 13.83, 2.66 9.87 C5.82 5.92, 16.93 3.15, 19.85 1.73 C22.77 0.31, 20.03 1.3, 20.16 1.34 M15.15 3 C19.71 0.52, 27.43 -1.56, 32.63 -0.5 C37.82 0.55, 43.37 5.71, 46.35 9.34 C49.32 12.96, 50.69 16.75, 50.48 21.26 C50.27 25.76, 48.62 33.09, 45.08 36.37 C41.54 39.66, 34.91 40.76, 29.24 40.97 C23.58 41.17, 15.58 39.7, 11.11 37.62 C6.64 35.54, 3.91 32.62, 2.42 28.49 C0.93 24.36, 0.37 17.2, 2.17 12.85 C3.98 8.5, 11 3.94, 13.24 2.41 C15.49 0.88, 15.08 3.57, 15.63 3.69" stroke="#e03131" stroke-width="2" fill="none"></path></g><g transform="translate(161.46032409198187 342.9507148704731) rotate(0 9.879997253417969 10)"><text x="9.879997253417969" y="14.016" font-family="Virgil, Segoe UI Emoji" font-size="16px" fill="#e03131" text-anchor="middle" style="white-space: pre;" direction="ltr" dominant-baseline="alphabetic">v2</text></g><g stroke-linecap="round" transform="translate(129.22500610351562 456.59996032714844) rotate(0 26 21)"><path d="M21.87 0.8 C26.98 -0.17, 34.42 -0.15, 39.1 2.06 C43.78 4.27, 48.09 9.8, 49.96 14.07 C51.83 18.33, 52.07 23.36, 50.32 27.65 C48.56 31.94, 44.19 37.32, 39.42 39.8 C34.65 42.27, 27.42 43.51, 21.69 42.5 C15.96 41.49, 8.5 37.21, 5.02 33.75 C1.54 30.29, 0.74 26.04, 0.8 21.72 C0.86 17.41, 1.25 11.6, 5.39 7.85 C9.52 4.09, 22.07 0.33, 25.62 -0.79 C29.17 -1.92, 26.76 0.46, 26.69 1.08 M30.91 1.58 C35.74 2.23, 41.34 3.77, 44.83 7.3 C48.32 10.83, 51.79 18.3, 51.86 22.75 C51.93 27.21, 49.1 31.07, 45.28 34.05 C41.45 37.03, 34.17 39.65, 28.9 40.65 C23.63 41.65, 18.19 42.23, 13.64 40.04 C9.09 37.85, 3.66 31.97, 1.57 27.52 C-0.51 23.07, -1.14 17.35, 1.11 13.34 C3.35 9.33, 9.78 5.82, 15.02 3.48 C20.27 1.14, 29.87 -0.34, 32.58 -0.69 C35.29 -1.03, 31.59 1.1, 31.28 1.41" stroke="#1e1e1e" stroke-width="2" fill="none"></path></g><g transform="translate(145.7082336378803 467.75071792223093) rotate(0 9.631996154785156 10)"><text x="9.631996154785156" y="14.016" font-family="Virgil, Segoe UI Emoji" font-size="16px" fill="#1e1e1e" text-anchor="middle" style="white-space: pre;" direction="ltr" dominant-baseline="alphabetic">v3</text></g><g stroke-linecap="round" transform="translate(241.2249755859375 468.5999755859375) rotate(0 26 21)"><path d="M32.18 0.74 C37.41 1.62, 43.91 4.45, 47.31 8.21 C50.7 11.98, 52.99 18.6, 52.58 23.35 C52.17 28.1, 49.07 33.73, 44.86 36.73 C40.66 39.73, 32.87 40.96, 27.37 41.36 C21.87 41.76, 16.42 41.56, 11.86 39.15 C7.3 36.75, 1.41 31.58, -0.01 26.94 C-1.43 22.29, 0.99 15.34, 3.34 11.28 C5.69 7.22, 8.68 4.08, 14.08 2.57 C19.47 1.06, 31.73 2.09, 35.73 2.23 C39.72 2.37, 38.37 3.24, 38.05 3.41 M35.71 2.79 C40.95 4.12, 46.34 6.78, 48.79 10.37 C51.25 13.96, 51.38 19.61, 50.43 24.34 C49.49 29.06, 47.32 35.81, 43.12 38.73 C38.91 41.64, 31.08 42.18, 25.2 41.82 C19.32 41.46, 11.75 39.4, 7.83 36.56 C3.91 33.71, 2.09 29.4, 1.69 24.75 C1.29 20.11, 2.67 12.55, 5.44 8.69 C8.21 4.83, 13.22 2.98, 18.31 1.58 C23.39 0.18, 32.9 0.15, 35.97 0.28 C39.04 0.4, 37.11 1.83, 36.71 2.33" stroke="#1e1e1e" stroke-width="2" fill="none"></path></g><g transform="translate(258.0362060499897 479.75073318102) rotate(0 9.303993225097656 10)"><text x="9.303993225097656" y="14.016" font-family="Virgil, Segoe UI Emoji" font-size="16px" fill="#1e1e1e" text-anchor="middle" style="white-space: pre;" direction="ltr" dominant-baseline="alphabetic">v6</text></g><g stroke-linecap="round" transform="translate(248.42498779296875 386.19996643066406) rotate(0 26 21)"><path d="M26.97 0.49 C32.35 0.54, 39.47 3.17, 43.44 5.93 C47.4 8.68, 49.83 12.56, 50.79 17.02 C51.74 21.48, 52.01 28.62, 49.17 32.67 C46.33 36.72, 38.97 40.15, 33.73 41.34 C28.49 42.54, 22.95 41.41, 17.73 39.83 C12.5 38.26, 5.2 35.56, 2.37 31.91 C-0.45 28.26, -0.46 22.34, 0.8 17.94 C2.05 13.53, 5.51 8.48, 9.91 5.47 C14.31 2.47, 23.82 0.87, 27.19 -0.11 C30.55 -1.09, 30.09 -0.76, 30.1 -0.4 M35.37 0.62 C40.6 2.4, 47.77 8.55, 50.46 12.74 C53.15 16.92, 53.12 21.53, 51.51 25.72 C49.9 29.91, 45.06 35.02, 40.79 37.88 C36.52 40.74, 31.1 43.34, 25.89 42.88 C20.68 42.43, 13.79 38.29, 9.54 35.14 C5.3 31.99, 1.25 28.48, 0.4 23.98 C-0.45 19.48, 1.22 11.93, 4.43 8.14 C7.64 4.35, 14.55 2.35, 19.66 1.25 C24.77 0.15, 32.5 1.29, 35.08 1.51 C37.65 1.74, 34.94 2.21, 35.12 2.62" stroke="#1e1e1e" stroke-width="2" fill="none"></path></g><g transform="translate(265.41222075946234 397.35072402574656) rotate(0 9.12799072265625 10)"><text x="9.12799072265625" y="14.016" font-family="Virgil, Segoe UI Emoji" font-size="16px" fill="#1e1e1e" text-anchor="middle" style="white-space: pre;" direction="ltr" dominant-baseline="alphabetic">v5</text></g><g stroke-linecap="round" transform="translate(355.625 462.2000427246094) rotate(0 26 21)"><path d="M31.47 0.07 C36.73 0.87, 44.6 5.83, 47.86 9.65 C51.13 13.48, 51.43 18.84, 51.04 23.03 C50.66 27.22, 49.45 31.55, 45.56 34.8 C41.67 38.04, 33.34 41.77, 27.71 42.5 C22.08 43.24, 16.16 41.71, 11.77 39.2 C7.39 36.7, 3.09 31.95, 1.39 27.46 C-0.3 22.97, -0.73 16.66, 1.61 12.27 C3.94 7.87, 9.77 2.91, 15.42 1.11 C21.07 -0.68, 31.42 1.15, 35.48 1.49 C39.54 1.83, 39.98 2.91, 39.79 3.14 M16.75 1.28 C21.24 -0.71, 28.13 -0.51, 33.62 1.11 C39.1 2.73, 46.4 7.34, 49.66 10.99 C52.91 14.65, 54.17 18.66, 53.13 23.05 C52.09 27.44, 47.81 34.4, 43.41 37.34 C39.02 40.29, 32.17 40.64, 26.74 40.71 C21.31 40.78, 15.42 40.42, 10.83 37.78 C6.25 35.15, 0.69 29.31, -0.76 24.92 C-2.2 20.52, -0.86 15.3, 2.16 11.43 C5.18 7.56, 15.11 3.1, 17.37 1.71 C19.63 0.31, 15.73 2.66, 15.72 3.06" stroke="#1e1e1e" stroke-width="2" fill="none"></path></g><g transform="translate(373.25223235614203 473.35080031969187) rotate(0 8.487991333007812 10)"><text x="8.487991333007812" y="14.016" font-family="Virgil, Segoe UI Emoji" font-size="16px" fill="#1e1e1e" text-anchor="middle" style="white-space: pre;" direction="ltr" dominant-baseline="alphabetic">v7</text></g><g stroke-linecap="round" transform="translate(382.0250244140625 358.1999816894531) rotate(0 26 21)"><path d="M17.89 1.36 C22.89 -0.39, 32.33 -0.86, 37.41 0.98 C42.49 2.81, 46.01 8.05, 48.38 12.36 C50.74 16.68, 52.7 22.46, 51.59 26.85 C50.49 31.23, 46.4 36.18, 41.73 38.67 C37.06 41.16, 29.08 42.38, 23.59 41.79 C18.09 41.2, 12.73 38.25, 8.76 35.14 C4.79 32.04, 0.33 27.49, -0.25 23.16 C-0.84 18.82, 1.92 13.03, 5.23 9.15 C8.54 5.28, 16.98 1.16, 19.59 -0.11 C22.2 -1.38, 20.58 1.05, 20.89 1.52 M26.04 0.95 C31.66 0.27, 38.78 0.45, 43.03 3.1 C47.28 5.74, 50.51 12.46, 51.55 16.81 C52.6 21.17, 51.69 25.23, 49.31 29.21 C46.94 33.19, 42.63 38.75, 37.28 40.69 C31.92 42.64, 22.86 42.16, 17.18 40.87 C11.5 39.59, 5.9 36.66, 3.2 32.97 C0.51 29.28, 0.35 23.09, 1.02 18.75 C1.69 14.4, 3.33 9.9, 7.22 6.9 C11.12 3.9, 21.53 1.57, 24.37 0.74 C27.21 -0.09, 24.02 1.78, 24.27 1.94" stroke="#1e1e1e" stroke-width="2" fill="none"></path></g><g transform="translate(397.8362548781147 369.3507392845356) rotate(0 10.303993225097656 10)"><text x="10.303993225097656" y="14.016" font-family="Virgil, Segoe UI Emoji" font-size="16px" fill="#1e1e1e" text-anchor="middle" style="white-space: pre;" direction="ltr" dominant-baseline="alphabetic">v8</text></g><g stroke-linecap="round" transform="translate(246.82501220703125 313.3999786376953) rotate(0 26 21)"><path d="M31.83 1.35 C36.94 2.48, 44.28 6.11, 47.69 9.82 C51.1 13.53, 52.96 19.28, 52.29 23.6 C51.62 27.92, 47.56 32.84, 43.67 35.73 C39.79 38.62, 34.48 40.54, 28.97 40.93 C23.46 41.32, 15.17 40.53, 10.62 38.08 C6.08 35.63, 3.14 30.68, 1.69 26.23 C0.23 21.79, -0.21 15.34, 1.9 11.42 C4.01 7.51, 8.84 4.45, 14.33 2.74 C19.82 1.04, 31.39 1.43, 34.85 1.19 C38.3 0.96, 35.34 0.87, 35.08 1.34 M34.09 1.56 C39.02 2.57, 44.95 4.7, 48.08 8.46 C51.2 12.23, 53.81 19.52, 52.84 24.16 C51.87 28.79, 46.73 33.23, 42.26 36.29 C37.8 39.34, 31.28 42.21, 26.07 42.48 C20.85 42.75, 15.38 40.52, 10.97 37.9 C6.56 35.28, 0.98 31.06, -0.4 26.74 C-1.77 22.42, 0.05 15.93, 2.75 11.98 C5.44 8.04, 10.37 4.98, 15.75 3.07 C21.14 1.16, 31.97 0.75, 35.04 0.52 C38.12 0.28, 34.48 1.19, 34.22 1.69" stroke="#1e1e1e" stroke-width="2" fill="none"></path></g><g transform="translate(263.63624267108344 324.5507362327778) rotate(0 9.303993225097656 10)"><text x="9.303993225097656" y="14.016" font-family="Virgil, Segoe UI Emoji" font-size="16px" fill="#1e1e1e" text-anchor="middle" style="white-space: pre;" direction="ltr" dominant-baseline="alphabetic">v4</text></g><g stroke-linecap="round"><g transform="translate(103.22500610351562 394.20001220703125) rotate(0 22.800003051757812 -15.600013732910156)"><path d="M0 0 C14.99 -10.21, 32.4 -21.02, 45.6 -31.2 M0 0 C15.31 -10.07, 30.39 -21.26, 45.6 -31.2" stroke="#e03131" stroke-width="2" fill="none"></path></g><g transform="translate(103.22500610351562 394.20001220703125) rotate(0 22.800003051757812 -15.600013732910156)"><path d="M44.95 -31.68 L37.88 -18.78 L31.09 -28.95 L46.45 -31.4" stroke="none" stroke-width="0" fill="#e03131" fill-rule="evenodd"></path><path d="M45.6 -31.2 C42.21 -26.23, 40.47 -21.55, 37.88 -18.34 M45.6 -31.2 C42.96 -26.56, 40.02 -22.64, 37.88 -18.34 M37.88 -18.34 C35.41 -21.82, 33.23 -23.96, 30.79 -28.85 M37.88 -18.34 C35.06 -22.28, 32.86 -26.03, 30.79 -28.85 M30.79 -28.85 C36.94 -29.73, 41.86 -30.19, 45.6 -31.2 M30.79 -28.85 C35.36 -29.48, 40.64 -30.3, 45.6 -31.2 M45.6 -31.2 C45.6 -31.2, 45.6 -31.2, 45.6 -31.2 M45.6 -31.2 C45.6 -31.2, 45.6 -31.2, 45.6 -31.2" stroke="#e03131" stroke-width="2" fill="none"></path></g></g><mask></mask><g stroke-linecap="round"><g transform="translate(104.53502075891083 429.13998277254007) rotate(0 14.815632437899922 17.34576441482062)"><path d="M0 0 C6.65 8.29, 13.16 15.75, 29.63 34.69 M0 0 C6.41 7.8, 13.8 16.53, 29.63 34.69" stroke="#e03131" stroke-width="2" fill="none"></path></g><g transform="translate(104.53502075891083 429.13998277254007) rotate(0 14.815632437899922 17.34576441482062)"><path d="M29.63 34.25 L16.24 28.48 L26.36 20.07 L29.18 35.43" stroke="none" stroke-width="0" fill="#e03131" fill-rule="evenodd"></path><path d="M29.63 34.69 C26.94 34.01, 23.98 32.6, 15.93 28.58 M29.63 34.69 C26.06 33.16, 23.19 32.19, 15.93 28.58 M15.93 28.58 C18.22 26.74, 21.9 23.96, 25.51 20.27 M15.93 28.58 C19.03 26.37, 21.79 23.54, 25.51 20.27 M25.51 20.27 C26.2 25.35, 28.33 28.73, 29.63 34.69 M25.51 20.27 C26.85 24.44, 27.56 28.8, 29.63 34.69 M29.63 34.69 C29.63 34.69, 29.63 34.69, 29.63 34.69 M29.63 34.69 C29.63 34.69, 29.63 34.69, 29.63 34.69" stroke="#e03131" stroke-width="2" fill="none"></path></g></g><mask></mask><g stroke-linecap="round"><g transform="translate(193.625 345.3999786376953) rotate(0 26.800018310546875 -4)"><path d="M0 0 C20.14 -1.91, 37.4 -6.54, 53.6 -8 M0 0 C20.23 -1.99, 40.42 -6.39, 53.6 -8" stroke="#e03131" stroke-width="2" fill="none"></path></g><g transform="translate(193.625 345.3999786376953) rotate(0 26.800018310546875 -4)"><path d="M54.21 -8.2 L42.8 -0.09 L38.31 -10.74 L52.24 -9.44" stroke="none" stroke-width="0" fill="#e03131" fill-rule="evenodd"></path><path d="M53.6 -8 C49.71 -3.83, 43.61 -2.13, 41.11 0.31 M53.6 -8 C48.74 -4.3, 43.98 -2.2, 41.11 0.31 M41.11 0.31 C41.71 -2.43, 40.17 -6.15, 39.21 -12.22 M41.11 0.31 C41.02 -3.92, 39.94 -6.97, 39.21 -12.22 M39.21 -12.22 C43.99 -12.29, 47.82 -10.74, 53.6 -8 M39.21 -12.22 C43.52 -10.23, 48.71 -9.08, 53.6 -8 M53.6 -8 C53.6 -8, 53.6 -8, 53.6 -8 M53.6 -8 C53.6 -8, 53.6 -8, 53.6 -8" stroke="#e03131" stroke-width="2" fill="none"></path></g></g><mask></mask><g stroke-linecap="round"><g transform="translate(192.0250244140625 370.20001220703125) rotate(0 29.20001220703125 16)"><path d="M0 0 C21.08 11.47, 46.22 22, 58.4 32 M0 0 C14.99 7.27, 29.65 15.39, 58.4 32" stroke="#e03131" stroke-width="2" fill="none"></path></g><g transform="translate(192.0250244140625 370.20001220703125) rotate(0 29.20001220703125 16)"><path d="M60.09 31.6 L42.56 32.23 L48.4 18.3 L59.78 33.74" stroke="none" stroke-width="0" fill="#e03131" fill-rule="evenodd"></path><path d="M58.4 32 C51.71 31.39, 48.16 29.65, 43.45 30.75 M58.4 32 C54.41 31.37, 50.15 30.91, 43.45 30.75 M43.45 30.75 C45.63 25.97, 48.17 23.61, 49.75 19.74 M43.45 30.75 C45.72 27.06, 47.95 22.3, 49.75 19.74 M49.75 19.74 C52.77 23.34, 56.7 29.75, 58.4 32 M49.75 19.74 C52.31 23.92, 54.99 28.2, 58.4 32 M58.4 32 C58.4 32, 58.4 32, 58.4 32 M58.4 32 C58.4 32, 58.4 32, 58.4 32" stroke="#e03131" stroke-width="2" fill="none"></path></g></g><mask></mask><g stroke-linecap="round"><g transform="translate(304.82501220703125 403.79998779296875) rotate(0 38 -9.200004577636719)"><path d="M0 0 C29.87 -8.7, 55.7 -13.71, 76 -18.4 M0 0 C28.4 -7.34, 58.87 -12.87, 76 -18.4" stroke="#1e1e1e" stroke-width="2" fill="none"></path></g><g transform="translate(304.82501220703125 403.79998779296875) rotate(0 38 -9.200004577636719)"><path d="M75.1 -16.92 L63.17 -10.18 L62.6 -19.23 L74.97 -16.92" stroke="none" stroke-width="0" fill="#1e1e1e" fill-rule="evenodd"></path><path d="M76 -18.4 C72.85 -16.33, 66.82 -11.38, 64.53 -8.74 M76 -18.4 C71.12 -15.33, 67.82 -10.52, 64.53 -8.74 M64.53 -8.74 C63.51 -11.37, 63.24 -15.25, 61.22 -20.98 M64.53 -8.74 C63.81 -12.04, 63.46 -14.1, 61.22 -20.98 M61.22 -20.98 C64.9 -19.48, 67.85 -20.77, 76 -18.4 M61.22 -20.98 C66.69 -19.32, 73.09 -19.31, 76 -18.4 M76 -18.4 C76 -18.4, 76 -18.4, 76 -18.4 M76 -18.4 C76 -18.4, 76 -18.4, 76 -18.4" stroke="#1e1e1e" stroke-width="2" fill="none"></path></g></g><mask></mask><g stroke-linecap="round"><g transform="translate(183.11885016311044 484.4859919473006) rotate(0 27.937799166240097 1.7316537767745217)"><path d="M0 0 C15.09 1.36, 33.4 2.24, 55.88 3.46 M0 0 C14.38 2.01, 27.33 1.99, 55.88 3.46" stroke="#1e1e1e" stroke-width="2" fill="none"></path></g><g transform="translate(183.11885016311044 484.4859919473006) rotate(0 27.937799166240097 1.7316537767745217)"><path d="M54.52 2.02 L43.38 10.91 L41.56 -2.02 L54.84 2.86" stroke="none" stroke-width="0" fill="#1e1e1e" fill-rule="evenodd"></path><path d="M55.88 3.46 C51.37 4.81, 49.27 6.35, 42 9.17 M55.88 3.46 C53.06 5.31, 49.19 6.06, 42 9.17 M42 9.17 C42.93 7.15, 41.37 2.93, 42.59 -3.5 M42 9.17 C42.64 5.04, 41.85 0.5, 42.59 -3.5 M42.59 -3.5 C45.96 -2.96, 50 -0.56, 55.88 3.46 M42.59 -3.5 C47.78 -1.45, 52.06 1.36, 55.88 3.46 M55.88 3.46 C55.88 3.46, 55.88 3.46, 55.88 3.46 M55.88 3.46 C55.88 3.46, 55.88 3.46, 55.88 3.46" stroke="#1e1e1e" stroke-width="2" fill="none"></path></g></g><mask></mask><g stroke-linecap="round"><g transform="translate(296.01813518973086 488.8066792458226) rotate(0 29.248790872869677 -1.84911347085864)"><path d="M0 0 C13.37 -0.98, 22.32 -2.73, 58.5 -3.7 M0 0 C13.31 -1.38, 25.88 -2.1, 58.5 -3.7" stroke="#1e1e1e" stroke-width="2" fill="none"></path></g><g transform="translate(296.01813518973086 488.8066792458226) rotate(0 29.248790872869677 -1.84911347085864)"><path d="M59.88 -1.96 L44.21 4.8 L43.56 -9.94 L58.62 -5.68" stroke="none" stroke-width="0" fill="#1e1e1e" fill-rule="evenodd"></path><path d="M58.5 -3.7 C57.04 -2.52, 52.31 -1.87, 45.24 3.32 M58.5 -3.7 C55.68 -2.1, 52.23 -0.43, 45.24 3.32 M45.24 3.32 C43.98 -1.5, 45.15 -6.62, 44.6 -9.34 M45.24 3.32 C44.48 0.52, 44.44 -1.89, 44.6 -9.34 M44.6 -9.34 C50.78 -7.45, 55.21 -5.57, 58.5 -3.7 M44.6 -9.34 C50.45 -6.89, 55.93 -4.54, 58.5 -3.7 M58.5 -3.7 C58.5 -3.7, 58.5 -3.7, 58.5 -3.7 M58.5 -3.7 C58.5 -3.7, 58.5 -3.7, 58.5 -3.7" stroke="#1e1e1e" stroke-width="2" fill="none"></path></g></g><mask></mask><g stroke-linecap="round"><g transform="translate(364.50032611422876 464.90885035407393) rotate(0 -34.88532098401919 -21.603971466927533)"><path d="M0 0 C-21.8 -13.98, -42.48 -23.67, -69.77 -43.21 M0 0 C-26.67 -16.26, -51.39 -31.85, -69.77 -43.21" stroke="#1e1e1e" stroke-width="2" fill="none"></path></g><g transform="translate(364.50032611422876 464.90885035407393) rotate(0 -34.88532098401919 -21.603971466927533)"><path d="M-70.8 -41.73 L-55.92 -42.02 L-61.45 -32.63 L-68.04 -42.78" stroke="none" stroke-width="0" fill="#1e1e1e" fill-rule="evenodd"></path><path d="M-69.77 -43.21 C-66.27 -43.64, -62.2 -40.94, -54.88 -41.42 M-69.77 -43.21 C-64.53 -42.51, -57.88 -41.39, -54.88 -41.42 M-54.88 -41.42 C-57.11 -37.05, -61.33 -32, -61.57 -30.65 M-54.88 -41.42 C-57.58 -37.71, -58.97 -34.31, -61.57 -30.65 M-61.57 -30.65 C-62.87 -33.93, -64.01 -35.33, -69.77 -43.21 M-61.57 -30.65 C-63.62 -33.76, -65.72 -36.72, -69.77 -43.21 M-69.77 -43.21 C-69.77 -43.21, -69.77 -43.21, -69.77 -43.21 M-69.77 -43.21 C-69.77 -43.21, -69.77 -43.21, -69.77 -43.21" stroke="#1e1e1e" stroke-width="2" fill="none"></path></g></g><mask></mask><g transform="translate(10.425018310546875 525.2999725341797) rotate(0 234.375 24)"><text x="0" y="19.3125" font-family="Cascadia, Segoe UI Emoji" font-size="20px" fill="#1e1e1e" text-anchor="start" style="white-space: pre;" direction="ltr" dominant-baseline="alphabetic">grado_in:  x   x   0   0   1   1   1   1</text><text x="0" y="43.3125" font-family="Cascadia, Segoe UI Emoji" font-size="20px" fill="#1e1e1e" text-anchor="start" style="white-space: pre;" direction="ltr" dominant-baseline="alphabetic">          v1  v2  v3  v4  v5  v6  v7  v8</text></g><g transform="translate(11.225006103515625 308.39996337890625) rotate(0 46.875 12)"><text x="0" y="19.3125" font-family="Cascadia, Segoe UI Emoji" font-size="20px" fill="#1e1e1e" text-anchor="start" style="white-space: pre;" direction="ltr" dominant-baseline="alphabetic">Bucle: 2</text></g><g stroke-linecap="round" transform="translate(591.6250610351562 391.39996337890625) rotate(0 26 21)"><path d="M27.14 0.7 C32.31 0.86, 39.99 3.13, 44.18 6.3 C48.36 9.48, 51.75 15.34, 52.26 19.75 C52.77 24.17, 50.34 29.04, 47.25 32.78 C44.15 36.52, 38.97 41.03, 33.68 42.19 C28.38 43.36, 20.51 41.81, 15.47 39.76 C10.42 37.71, 5.82 33.8, 3.39 29.89 C0.96 25.97, -0.2 20.67, 0.88 16.27 C1.96 11.86, 4.62 5.97, 9.87 3.48 C15.11 0.98, 28.03 1.65, 32.35 1.29 C36.67 0.92, 35.98 0.94, 35.77 1.28 M26.13 -0.33 C31.79 -0.17, 39.85 3.2, 44.01 6.12 C48.17 9.04, 50.32 13.12, 51.1 17.19 C51.88 21.27, 51.3 26.44, 48.69 30.56 C46.08 34.68, 40.98 40.08, 35.44 41.93 C29.89 43.79, 20.93 43.71, 15.43 41.68 C9.92 39.65, 4.87 33.67, 2.4 29.76 C-0.07 25.85, -0.52 22.16, 0.61 18.2 C1.74 14.23, 4.75 9.11, 9.18 5.98 C13.62 2.86, 24.51 0.47, 27.23 -0.53 C29.94 -1.54, 25.75 -0.31, 25.48 -0.05" stroke="#e03131" stroke-width="2" fill="none"></path></g><g transform="translate(611.3882873488177 402.55072097398875) rotate(0 6.351997375488281 10)"><text x="6.351997375488281" y="14.016" font-family="Virgil, Segoe UI Emoji" font-size="16px" fill="#e03131" text-anchor="middle" style="white-space: pre;" direction="ltr" dominant-baseline="alphabetic">v1</text></g><g stroke-linecap="round" transform="translate(676.8251342773438 332.19993591308594) rotate(0 26 21)"><path d="M34.6 1.94 C39.68 2.97, 44.94 6.12, 47.9 9.97 C50.85 13.82, 53.08 20.66, 52.33 25.06 C51.58 29.45, 47.53 33.53, 43.4 36.31 C39.26 39.1, 33.11 41.49, 27.53 41.75 C21.95 42.01, 14.59 40.72, 9.93 37.88 C5.27 35.05, 0.71 29.1, -0.4 24.74 C-1.51 20.37, 0.53 15.7, 3.28 11.69 C6.03 7.67, 10.79 2.23, 16.09 0.64 C21.39 -0.95, 31.66 2, 35.08 2.14 C38.5 2.28, 36.84 1.3, 36.62 1.48 M22.57 -0.33 C27.69 -1.43, 35.9 -0.43, 40.78 2.32 C45.66 5.08, 50.56 11.5, 51.85 16.2 C53.13 20.89, 51.02 26.79, 48.48 30.48 C45.94 34.17, 41.37 36.33, 36.62 38.35 C31.88 40.36, 25.32 43.15, 20 42.55 C14.67 41.94, 7.84 38.61, 4.66 34.7 C1.47 30.8, 0.63 23.9, 0.91 19.12 C1.18 14.34, 2.73 9.37, 6.31 6.02 C9.88 2.68, 19.73 0.16, 22.36 -0.96 C24.99 -2.08, 21.84 -1.28, 22.11 -0.68" stroke="#e03131" stroke-width="2" fill="none"></path></g><g transform="translate(693.0603607130756 343.35069350816843) rotate(0 9.879997253417969 10)"><text x="9.879997253417969" y="14.016" font-family="Virgil, Segoe UI Emoji" font-size="16px" fill="#e03131" text-anchor="middle" style="white-space: pre;" direction="ltr" dominant-baseline="alphabetic">v2</text></g><g stroke-linecap="round" transform="translate(660.8250427246094 456.99993896484375) rotate(0 26 21)"><path d="M37.49 2.91 C42.5 4.4, 47.24 7.78, 49.65 11.64 C52.06 15.51, 53.38 21.61, 51.95 26.1 C50.53 30.59, 45.93 36.02, 41.1 38.57 C36.26 41.13, 28.46 41.77, 22.92 41.45 C17.38 41.12, 11.71 39.82, 7.85 36.6 C3.99 33.37, 0.38 26.58, -0.23 22.1 C-0.84 17.62, 0.95 13.41, 4.19 9.72 C7.42 6.02, 13.1 0.9, 19.18 -0.06 C25.26 -1.02, 36.41 2.62, 40.68 3.96 C44.95 5.3, 44.82 7.74, 44.81 7.99 M22.96 1.34 C27.86 0.8, 33.71 2.19, 38.17 4.1 C42.63 6.01, 47.69 8.51, 49.72 12.78 C51.76 17.06, 52.31 25.11, 50.37 29.76 C48.43 34.41, 42.87 38.8, 38.1 40.68 C33.33 42.56, 27.31 42.23, 21.76 41.06 C16.22 39.89, 8.58 37.26, 4.82 33.66 C1.07 30.06, -0.86 24.07, -0.77 19.44 C-0.68 14.82, 1.48 9.05, 5.38 5.92 C9.27 2.78, 19.75 1.48, 22.62 0.64 C25.48 -0.2, 22.52 0.38, 22.58 0.88" stroke="#e03131" stroke-width="2" fill="none"></path></g><g transform="translate(677.3082702589741 468.15069655992625) rotate(0 9.631996154785156 10)"><text x="9.631996154785156" y="14.016" font-family="Virgil, Segoe UI Emoji" font-size="16px" fill="#e03131" text-anchor="middle" style="white-space: pre;" direction="ltr" dominant-baseline="alphabetic">v3</text></g><g stroke-linecap="round" transform="translate(772.8250122070312 468.9999542236328) rotate(0 26 21)"><path d="M39.09 2.25 C43.91 4.17, 48.45 9.49, 50.22 13.63 C52 17.77, 51.5 22.76, 49.77 27.08 C48.04 31.39, 44.48 37.21, 39.85 39.53 C35.21 41.84, 27.56 41.59, 21.95 40.95 C16.34 40.31, 9.82 39.03, 6.17 35.68 C2.52 32.33, 0.27 25.5, 0.04 20.86 C-0.19 16.22, 1.37 11.14, 4.77 7.85 C8.18 4.56, 14.04 1.68, 20.46 1.12 C26.88 0.56, 39.11 3.26, 43.29 4.47 C47.47 5.68, 46.09 7.93, 45.57 8.36 M34.4 -0.09 C39.71 1.21, 46.09 7.56, 48.88 11.95 C51.67 16.34, 52.07 22.12, 51.13 26.26 C50.19 30.4, 47.63 34.23, 43.22 36.78 C38.81 39.32, 30.51 41.69, 24.67 41.52 C18.83 41.35, 12.41 38.84, 8.17 35.77 C3.93 32.69, -0.11 27.26, -0.76 23.07 C-1.42 18.87, 1.14 14.2, 4.27 10.59 C7.39 6.97, 12.7 2.68, 17.96 1.37 C23.23 0.06, 32.85 2.75, 35.83 2.71 C38.81 2.67, 36.31 1.02, 35.85 1.14" stroke="#1e1e1e" stroke-width="2" fill="none"></path></g><g transform="translate(789.6362426710834 480.1507118187153) rotate(0 9.303993225097656 10)"><text x="9.303993225097656" y="14.016" font-family="Virgil, Segoe UI Emoji" font-size="16px" fill="#1e1e1e" text-anchor="middle" style="white-space: pre;" direction="ltr" dominant-baseline="alphabetic">v6</text></g><g stroke-linecap="round" transform="translate(780.0250244140625 386.5999450683594) rotate(0 26 21)"><path d="M21.94 -0.33 C27.16 -1.07, 35.57 1.69, 40.34 4.08 C45.11 6.48, 49.02 9.75, 50.54 14.06 C52.06 18.36, 51.59 25.77, 49.47 29.92 C47.35 34.06, 42.82 37.03, 37.8 38.92 C32.77 40.82, 24.79 42.06, 19.32 41.29 C13.85 40.52, 8.09 37.92, 4.99 34.29 C1.89 30.65, 0.42 24.06, 0.71 19.49 C1 14.92, 2.34 10.03, 6.71 6.89 C11.08 3.75, 22.52 1.76, 26.92 0.64 C31.32 -0.47, 32.89 0.04, 33.11 0.19 M13.31 3.76 C17.93 1.22, 26.79 -0.72, 32.16 -0.09 C37.53 0.53, 42.36 4.09, 45.53 7.53 C48.71 10.97, 51.41 16.19, 51.21 20.56 C51 24.94, 47.79 30.16, 44.3 33.76 C40.81 37.36, 35.54 41.29, 30.28 42.18 C25.02 43.06, 17.49 41.29, 12.75 39.07 C8.01 36.86, 3.53 33.3, 1.83 28.89 C0.14 24.47, 0.83 16.95, 2.58 12.57 C4.34 8.19, 10.48 4.32, 12.37 2.6 C14.25 0.89, 13.48 1.87, 13.88 2.28" stroke="#1e1e1e" stroke-width="2" fill="none"></path></g><g transform="translate(797.0122573805561 397.75070266344187) rotate(0 9.12799072265625 10)"><text x="9.12799072265625" y="14.016" font-family="Virgil, Segoe UI Emoji" font-size="16px" fill="#1e1e1e" text-anchor="middle" style="white-space: pre;" direction="ltr" dominant-baseline="alphabetic">v5</text></g><g stroke-linecap="round" transform="translate(887.2250366210938 462.6000213623047) rotate(0 26 21)"><path d="M19.44 -0.22 C24.4 -1.5, 31.96 0.84, 37.02 2.83 C42.08 4.82, 47.62 7.74, 49.81 11.71 C52 15.69, 51.77 22.11, 50.18 26.68 C48.59 31.25, 44.64 36.65, 40.26 39.12 C35.88 41.59, 29.44 42.06, 23.88 41.5 C18.33 40.94, 11.05 38.87, 6.94 35.78 C2.84 32.7, -0.54 27.68, -0.74 23 C-0.94 18.33, 2.02 11.59, 5.74 7.72 C9.46 3.86, 19.02 0.97, 21.58 -0.19 C24.14 -1.35, 20.99 0.36, 21.09 0.76 M35.73 1.36 C40.43 2.77, 46.21 6.82, 48.61 10.75 C51.01 14.67, 51.26 20.28, 50.13 24.89 C48.99 29.5, 46.06 35.53, 41.8 38.41 C37.54 41.29, 30.14 42.34, 24.57 42.17 C19.01 42, 12.38 40.67, 8.43 37.39 C4.48 34.12, 1.75 27.19, 0.86 22.51 C-0.02 17.83, 0.15 13.04, 3.14 9.33 C6.13 5.61, 13.26 1.35, 18.82 0.21 C24.38 -0.92, 33.59 2.03, 36.5 2.51 C39.4 2.99, 36.24 3.06, 36.24 3.09" stroke="#1e1e1e" stroke-width="2" fill="none"></path></g><g transform="translate(904.8522689772358 473.7507789573872) rotate(0 8.487991333007812 10)"><text x="8.487991333007812" y="14.016" font-family="Virgil, Segoe UI Emoji" font-size="16px" fill="#1e1e1e" text-anchor="middle" style="white-space: pre;" direction="ltr" dominant-baseline="alphabetic">v7</text></g><g stroke-linecap="round" transform="translate(913.6250610351562 358.59996032714844) rotate(0 26 21)"><path d="M15.52 0.99 C20.17 -1.12, 27.13 -0.83, 32.44 0.66 C37.75 2.16, 44.03 6.28, 47.38 9.98 C50.72 13.68, 53.13 18.47, 52.52 22.88 C51.91 27.28, 47.97 33.11, 43.7 36.39 C39.44 39.67, 32.32 42.44, 26.94 42.55 C21.55 42.66, 15.64 39.92, 11.39 37.07 C7.14 34.21, 3.07 29.63, 1.45 25.42 C-0.16 21.22, -1.31 15.97, 1.68 11.84 C4.66 7.7, 15.85 2.37, 19.37 0.6 C22.88 -1.16, 22.83 0.97, 22.76 1.25 M20.81 -0.97 C26.21 -1.66, 34.88 0.82, 39.92 3.38 C44.95 5.93, 49.2 9.95, 51.01 14.36 C52.83 18.76, 52.75 25.76, 50.81 29.82 C48.87 33.88, 44.54 36.72, 39.36 38.71 C34.19 40.69, 25.34 42.57, 19.74 41.72 C14.14 40.88, 9.06 37.04, 5.75 33.65 C2.44 30.25, -0.2 25.6, -0.12 21.34 C-0.05 17.09, 2.36 11.8, 6.18 8.12 C10.01 4.44, 20.3 0.49, 22.82 -0.75 C25.34 -1.99, 21.21 0.26, 21.29 0.69" stroke="#1e1e1e" stroke-width="2" fill="none"></path></g><g transform="translate(929.4362914992084 369.75071792223093) rotate(0 10.303993225097656 10)"><text x="10.303993225097656" y="14.016" font-family="Virgil, Segoe UI Emoji" font-size="16px" fill="#1e1e1e" text-anchor="middle" style="white-space: pre;" direction="ltr" dominant-baseline="alphabetic">v8</text></g><g stroke-linecap="round" transform="translate(778.425048828125 313.7999572753906) rotate(0 26 21)"><path d="M15.64 2.34 C20.63 0.39, 28.98 -0.7, 34.3 0.54 C39.61 1.79, 44.73 5.88, 47.51 9.82 C50.3 13.75, 51.51 19.9, 51 24.17 C50.49 28.45, 48.28 32.62, 44.45 35.48 C40.62 38.35, 33.89 40.97, 28.04 41.37 C22.19 41.77, 13.79 40.51, 9.35 37.86 C4.91 35.2, 2.37 29.75, 1.42 25.44 C0.48 21.14, 0.6 16.27, 3.69 12.02 C6.77 7.76, 16.45 1.93, 19.94 -0.08 C23.42 -2.1, 24.58 -0.4, 24.61 -0.08 M16.08 1.96 C20.8 0.17, 28.53 1.05, 33.92 2.19 C39.31 3.32, 45.65 5.22, 48.41 8.77 C51.18 12.32, 51.26 19.01, 50.5 23.49 C49.73 27.97, 47.66 32.46, 43.82 35.65 C39.98 38.84, 33.03 42.13, 27.45 42.64 C21.87 43.16, 14.66 41.71, 10.36 38.75 C6.05 35.79, 3.02 29.4, 1.64 24.88 C0.25 20.36, -0.45 15.58, 2.04 11.63 C4.54 7.68, 14.48 2.89, 16.59 1.2 C18.71 -0.5, 14.72 1.27, 14.73 1.44" stroke="#1e1e1e" stroke-width="2" fill="none"></path></g><g transform="translate(795.2362792921772 324.9507148704731) rotate(0 9.303993225097656 10)"><text x="9.303993225097656" y="14.016" font-family="Virgil, Segoe UI Emoji" font-size="16px" fill="#1e1e1e" text-anchor="middle" style="white-space: pre;" direction="ltr" dominant-baseline="alphabetic">v4</text></g><g stroke-linecap="round"><g transform="translate(634.8250427246094 394.59999084472656) rotate(0 22.800003051757812 -15.600013732910156)"><path d="M0 0 C9.93 -6.15, 20.85 -14.06, 45.6 -31.2 M0 0 C12.55 -7.86, 24.1 -16.29, 45.6 -31.2" stroke="#e03131" stroke-width="2" fill="none"></path></g><g transform="translate(634.8250427246094 394.59999084472656) rotate(0 22.800003051757812 -15.600013732910156)"><path d="M45.81 -30.39 L37.68 -17.7 L30.34 -27.66 L44.91 -32.03" stroke="none" stroke-width="0" fill="#e03131" fill-rule="evenodd"></path><path d="M45.6 -31.2 C43.73 -27.85, 42.75 -25.78, 38.08 -18.22 M45.6 -31.2 C43.81 -27.46, 41.23 -23.97, 38.08 -18.22 M38.08 -18.22 C36.87 -20.88, 35.18 -22.85, 30.82 -28.62 M38.08 -18.22 C36.03 -21.21, 34.04 -23.99, 30.82 -28.62 M30.82 -28.62 C35.91 -29.25, 41.44 -30.02, 45.6 -31.2 M30.82 -28.62 C34.62 -29.44, 38.4 -29.78, 45.6 -31.2 M45.6 -31.2 C45.6 -31.2, 45.6 -31.2, 45.6 -31.2 M45.6 -31.2 C45.6 -31.2, 45.6 -31.2, 45.6 -31.2" stroke="#e03131" stroke-width="2" fill="none"></path></g></g><mask></mask><g stroke-linecap="round"><g transform="translate(636.1350573800046 429.53996141023526) rotate(0 14.815632437899922 17.34576441482062)"><path d="M0 0 C9.04 9.36, 16.46 19.81, 29.63 34.69 M0 0 C6.18 7.87, 12.83 14.66, 29.63 34.69" stroke="#e03131" stroke-width="2" fill="none"></path></g><g transform="translate(636.1350573800046 429.53996141023526) rotate(0 14.815632437899922 17.34576441482062)"><path d="M29.23 35.21 L15.5 29.41 L24.95 19.4 L29.25 33.81" stroke="none" stroke-width="0" fill="#e03131" fill-rule="evenodd"></path><path d="M29.63 34.69 C26.28 32.68, 21.68 31.38, 15.99 28.45 M29.63 34.69 C26.28 33.63, 23.39 31.63, 15.99 28.45 M15.99 28.45 C19.48 26.28, 21.71 23, 25.64 20.23 M15.99 28.45 C18.37 26.02, 21.31 24.16, 25.64 20.23 M25.64 20.23 C27.63 25.35, 27.96 29.08, 29.63 34.69 M25.64 20.23 C26.83 24.85, 28.05 29.34, 29.63 34.69 M29.63 34.69 C29.63 34.69, 29.63 34.69, 29.63 34.69 M29.63 34.69 C29.63 34.69, 29.63 34.69, 29.63 34.69" stroke="#e03131" stroke-width="2" fill="none"></path></g></g><mask></mask><g stroke-linecap="round"><g transform="translate(725.2250366210938 345.7999572753906) rotate(0 26.800018310546875 -4)"><path d="M0 0 C19.03 -2.26, 37.74 -4.48, 53.6 -8 M0 0 C19.47 -4.35, 40.18 -5.59, 53.6 -8" stroke="#e03131" stroke-width="2" fill="none"></path></g><g transform="translate(725.2250366210938 345.7999572753906) rotate(0 26.800018310546875 -4)"><path d="M52.63 -6.08 L39.65 -1.47 L38.47 -14.12 L52.01 -7.32" stroke="none" stroke-width="0" fill="#e03131" fill-rule="evenodd"></path><path d="M53.6 -8 C48.58 -4.68, 43.22 -1.13, 41.04 0.2 M53.6 -8 C48.39 -5.59, 44.22 -1.22, 41.04 0.2 M41.04 0.2 C39.99 -3.98, 39.55 -7.32, 39.25 -12.36 M41.04 0.2 C40.96 -2.51, 40.5 -5.44, 39.25 -12.36 M39.25 -12.36 C43.45 -12.3, 49.01 -9.57, 53.6 -8 M39.25 -12.36 C42.9 -10.85, 47.19 -10.66, 53.6 -8 M53.6 -8 C53.6 -8, 53.6 -8, 53.6 -8 M53.6 -8 C53.6 -8, 53.6 -8, 53.6 -8" stroke="#e03131" stroke-width="2" fill="none"></path></g></g><mask></mask><g stroke-linecap="round"><g transform="translate(723.6250610351562 370.59999084472656) rotate(0 29.20001220703125 16)"><path d="M0 0 C13.61 9.44, 31.99 14.86, 58.4 32 M0 0 C21.51 13.17, 42.75 25.09, 58.4 32" stroke="#e03131" stroke-width="2" fill="none"></path></g><g transform="translate(723.6250610351562 370.59999084472656) rotate(0 29.20001220703125 16)"><path d="M57.01 30.34 L42.63 30.02 L47.33 21.06 L60.05 31.22" stroke="none" stroke-width="0" fill="#e03131" fill-rule="evenodd"></path><path d="M58.4 32 C53.27 32.88, 51.64 30.6, 43.4 31.79 M58.4 32 C52.93 32.35, 47.11 32.33, 43.4 31.79 M43.4 31.79 C45.01 27.09, 46.46 22.76, 48.92 20.38 M43.4 31.79 C44.75 29.38, 45.99 27.36, 48.92 20.38 M48.92 20.38 C52.28 24.44, 54.89 28.44, 58.4 32 M48.92 20.38 C52.64 23.83, 55.11 28.36, 58.4 32 M58.4 32 C58.4 32, 58.4 32, 58.4 32 M58.4 32 C58.4 32, 58.4 32, 58.4 32" stroke="#e03131" stroke-width="2" fill="none"></path></g></g><mask></mask><g stroke-linecap="round"><g transform="translate(836.425048828125 404.19996643066406) rotate(0 38 -9.200004577636719)"><path d="M0 0 C26.23 -8.19, 50.78 -13.58, 76 -18.4 M0 0 C15.03 -3.44, 31.17 -8.35, 76 -18.4" stroke="#1e1e1e" stroke-width="2" fill="none"></path></g><g transform="translate(836.425048828125 404.19996643066406) rotate(0 38 -9.200004577636719)"><path d="M75.23 -20.17 L62.61 -8.46 L62.98 -22.27 L76.06 -19.25" stroke="none" stroke-width="0" fill="#1e1e1e" fill-rule="evenodd"></path><path d="M76 -18.4 C73.2 -16.66, 69.33 -13.24, 64.2 -9.15 M76 -18.4 C73.43 -15.81, 71.68 -14.85, 64.2 -9.15 M64.2 -9.15 C62.62 -13.05, 61.81 -14.63, 61.32 -21.49 M64.2 -9.15 C63.44 -12.61, 62.59 -17.47, 61.32 -21.49 M61.32 -21.49 C63.83 -20.96, 68.2 -20.35, 76 -18.4 M61.32 -21.49 C66.26 -20.28, 72.34 -19.45, 76 -18.4 M76 -18.4 C76 -18.4, 76 -18.4, 76 -18.4 M76 -18.4 C76 -18.4, 76 -18.4, 76 -18.4" stroke="#1e1e1e" stroke-width="2" fill="none"></path></g></g><mask></mask><g stroke-linecap="round"><g transform="translate(714.7188867842042 484.8859705849959) rotate(0 27.937799166240097 1.7316537767745217)"><path d="M0 0 C21.52 0.54, 38.25 3.18, 55.88 3.46 M0 0 C21.57 0.47, 41.42 1.82, 55.88 3.46" stroke="#e03131" stroke-width="2" fill="none"></path></g><g transform="translate(714.7188867842042 484.8859705849959) rotate(0 27.937799166240097 1.7316537767745217)"><path d="M54.29 4.15 L43.39 7.69 L43.02 -5 L53.97 4.33" stroke="none" stroke-width="0" fill="#e03131" fill-rule="evenodd"></path><path d="M55.88 3.46 C51.87 4.24, 44.26 7.09, 41.74 8.47 M55.88 3.46 C50.97 5.2, 44.78 7.11, 41.74 8.47 M41.74 8.47 C41.09 5.82, 42.76 2.59, 42.95 -4.15 M41.74 8.47 C42.38 4.21, 41.89 0.56, 42.95 -4.15 M42.95 -4.15 C47.42 -2.06, 51.44 1.28, 55.88 3.46 M42.95 -4.15 C46.39 -2.65, 48.36 -0.96, 55.88 3.46 M55.88 3.46 C55.88 3.46, 55.88 3.46, 55.88 3.46 M55.88 3.46 C55.88 3.46, 55.88 3.46, 55.88 3.46" stroke="#e03131" stroke-width="2" fill="none"></path></g></g><mask></mask><g stroke-linecap="round"><g transform="translate(827.6181718108246 489.2066578835179) rotate(0 29.248790872869677 -1.84911347085864)"><path d="M0 0 C10.37 -0.24, 26.22 -1.74, 58.5 -3.7 M0 0 C21.86 -1.53, 44.41 -3.36, 58.5 -3.7" stroke="#1e1e1e" stroke-width="2" fill="none"></path></g><g transform="translate(827.6181718108246 489.2066578835179) rotate(0 29.248790872869677 -1.84911347085864)"><path d="M60.15 -4.48 L45.27 2.39 L42.72 -8.56 L57.68 -2.55" stroke="none" stroke-width="0" fill="#1e1e1e" fill-rule="evenodd"></path><path d="M58.5 -3.7 C54.26 -2.17, 54.07 -1.24, 45.2 3.24 M58.5 -3.7 C52.98 -1.32, 47.93 1.05, 45.2 3.24 M45.2 3.24 C45.51 0.74, 45.23 -2.07, 44.63 -9.42 M45.2 3.24 C44.35 -1.63, 44.67 -6.83, 44.63 -9.42 M44.63 -9.42 C49.58 -6.82, 51.73 -6.76, 58.5 -3.7 M44.63 -9.42 C48.28 -7.99, 52.98 -6.66, 58.5 -3.7 M58.5 -3.7 C58.5 -3.7, 58.5 -3.7, 58.5 -3.7 M58.5 -3.7 C58.5 -3.7, 58.5 -3.7, 58.5 -3.7" stroke="#1e1e1e" stroke-width="2" fill="none"></path></g></g><mask></mask><g stroke-linecap="round"><g transform="translate(896.1003627353225 465.30882899176913) rotate(0 -34.885320984019245 -21.603971466927533)"><path d="M0 0 C-14.78 -10.82, -31.35 -19.52, -69.77 -43.21 M0 0 C-18.7 -12.36, -37.34 -23.88, -69.77 -43.21" stroke="#1e1e1e" stroke-width="2" fill="none"></path></g><g transform="translate(896.1003627353225 465.30882899176913) rotate(0 -34.885320984019245 -21.603971466927533)"><path d="M-69.71 -44.06 L-56.76 -40.78 L-62.2 -29.63 L-68.29 -42.71" stroke="none" stroke-width="0" fill="#1e1e1e" fill-rule="evenodd"></path><path d="M-69.77 -43.21 C-65.07 -43.24, -61.37 -41.62, -54.85 -41.64 M-69.77 -43.21 C-66.23 -43.29, -62.44 -42.95, -54.85 -41.64 M-54.85 -41.64 C-56.84 -37.51, -58.11 -33.68, -61.38 -30.77 M-54.85 -41.64 C-56.66 -39.09, -58.36 -35.76, -61.38 -30.77 M-61.38 -30.77 C-64.89 -35, -66.29 -36.95, -69.77 -43.21 M-61.38 -30.77 C-63.52 -34.82, -66.13 -37.34, -69.77 -43.21 M-69.77 -43.21 C-69.77 -43.21, -69.77 -43.21, -69.77 -43.21 M-69.77 -43.21 C-69.77 -43.21, -69.77 -43.21, -69.77 -43.21" stroke="#1e1e1e" stroke-width="2" fill="none"></path></g></g><mask></mask><g transform="translate(542.0250549316406 525.699951171875) rotate(0 234.375 24)"><text x="0" y="19.3125" font-family="Cascadia, Segoe UI Emoji" font-size="20px" fill="#1e1e1e" text-anchor="start" style="white-space: pre;" direction="ltr" dominant-baseline="alphabetic">grado_in:  x   x   x   0   1   0   1   1</text><text x="0" y="43.3125" font-family="Cascadia, Segoe UI Emoji" font-size="20px" fill="#1e1e1e" text-anchor="start" style="white-space: pre;" direction="ltr" dominant-baseline="alphabetic">          v1  v2  v3  v4  v5  v6  v7  v8</text></g><g transform="translate(542.8250427246094 308.79994201660156) rotate(0 46.875 12)"><text x="0" y="19.3125" font-family="Cascadia, Segoe UI Emoji" font-size="20px" fill="#1e1e1e" text-anchor="start" style="white-space: pre;" direction="ltr" dominant-baseline="alphabetic">Bucle: 3</text></g></svg>