<svg version="1.1" xmlns="http://www.w3.org/2000/svg" viewBox="0 0 1052.4248733520508 641.4749565124512" width="3157.2746200561523" height="1924.4248695373535">
  <!-- svg-source:excalidraw -->
  
  <defs>
    <style class="style-fonts">
      @font-face {
        font-family: "Virgil";
        src: url("https://excalidraw.com/Virgil.woff2");
      }
      @font-face {
        font-family: "Cascadia";
        src: url("https://excalidraw.com/Cascadia.woff2");
      }
      @font-face {
        font-family: "Assistant";
        src: url("https://excalidraw.com/Assistant-Regular.woff2");
      }
    </style>
    
  </defs>
  <rect x="0" y="0" width="1052.4248733520508" height="641.4749565124512" fill="#ffffff"></rect><g stroke-linecap="round" transform="translate(60.0999755859375 92.60002136230469) rotate(0 26 21)"><path d="M20.12 -0.31 C24.91 -1.46, 32.01 0.54, 37.01 2.82 C42 5.09, 47.82 9.29, 50.07 13.34 C52.32 17.38, 52.05 22.76, 50.5 27.08 C48.95 31.4, 45.42 36.88, 40.78 39.28 C36.14 41.68, 28.21 42.22, 22.66 41.48 C17.11 40.74, 11.23 37.99, 7.47 34.85 C3.71 31.71, 0.31 27.19, 0.11 22.64 C-0.1 18.1, 2.22 11.32, 6.22 7.59 C10.22 3.87, 20.47 1.64, 24.09 0.29 C27.71 -1.06, 28.09 -0.81, 27.93 -0.53 M20.06 0.28 C24.99 -0.92, 32.99 0.93, 37.94 2.99 C42.89 5.05, 47.43 8.55, 49.77 12.65 C52.11 16.74, 53.96 22.97, 51.97 27.54 C49.98 32.11, 42.72 37.58, 37.84 40.06 C32.97 42.54, 28.16 43.57, 22.73 42.41 C17.29 41.26, 8.93 36.83, 5.23 33.13 C1.53 29.43, 0.29 24.29, 0.54 20.21 C0.79 16.13, 3.06 12, 6.72 8.64 C10.39 5.28, 20 1.36, 22.54 0.05 C25.08 -1.26, 22.33 0.2, 21.98 0.79" stroke="#1e1e1e" stroke-width="2" fill="none"></path></g><g transform="translate(79.863201899599 103.75077895738718) rotate(0 6.351997375488281 10)"><text x="6.351997375488281" y="14.016" font-family="Virgil, Segoe UI Emoji" font-size="16px" fill="#1e1e1e" text-anchor="middle" style="white-space: pre;" direction="ltr" dominant-baseline="alphabetic">v1</text></g><g stroke-linecap="round" transform="translate(145.300048828125 33.399993896484375) rotate(0 26 21)"><path d="M15.38 2.43 C20.13 0.32, 27.16 -0.51, 32.6 0.72 C38.05 1.94, 44.87 6.13, 48.05 9.79 C51.23 13.45, 52.25 18.38, 51.69 22.66 C51.13 26.95, 48.62 32.21, 44.69 35.51 C40.75 38.81, 33.55 42.17, 28.09 42.47 C22.62 42.77, 16.37 39.98, 11.88 37.31 C7.39 34.64, 2.62 30.84, 1.15 26.45 C-0.31 22.06, 0.3 15.26, 3.08 10.96 C5.86 6.67, 14.69 2.36, 17.82 0.69 C20.96 -0.99, 21.51 0.68, 21.9 0.9 M24.85 -1.04 C30.54 -1.52, 39.55 0.97, 43.77 4.12 C48 7.28, 49.18 13.25, 50.2 17.87 C51.21 22.48, 52.48 28.28, 49.86 31.82 C47.23 35.36, 39.72 37.75, 34.44 39.1 C29.16 40.45, 23.15 40.98, 18.16 39.95 C13.17 38.91, 7.28 36.65, 4.51 32.91 C1.74 29.17, 0.71 22.11, 1.53 17.49 C2.35 12.88, 5.68 7.95, 9.44 5.23 C13.2 2.52, 21.56 1.9, 24.08 1.23 C26.61 0.56, 24.55 1.04, 24.6 1.22" stroke="#1e1e1e" stroke-width="2" fill="none"></path></g><g transform="translate(161.53527526385682 44.55075149156687) rotate(0 9.879997253417997 10)"><text x="9.879997253417969" y="14.016" font-family="Virgil, Segoe UI Emoji" font-size="16px" fill="#1e1e1e" text-anchor="middle" style="white-space: pre;" direction="ltr" dominant-baseline="alphabetic">v2</text></g><g stroke-linecap="round" transform="translate(129.29995727539062 158.1999969482422) rotate(0 26 21)"><path d="M33.69 1.46 C38.91 2.32, 44.21 5.3, 47.32 8.83 C50.43 12.36, 52.87 18.02, 52.35 22.64 C51.82 27.27, 48.1 33.51, 44.19 36.59 C40.28 39.68, 34.41 40.89, 28.89 41.17 C23.38 41.44, 15.71 40.91, 11.12 38.24 C6.52 35.58, 2.89 29.6, 1.33 25.17 C-0.23 20.74, -0.5 15.53, 1.77 11.69 C4.05 7.84, 8.87 3.82, 14.98 2.1 C21.09 0.38, 34.04 1.05, 38.44 1.37 C42.84 1.69, 41.67 3.62, 41.37 4 M15.85 2.19 C20.65 0.69, 30.73 0.84, 36.02 1.99 C41.31 3.13, 44.9 5.43, 47.58 9.06 C50.27 12.69, 52.83 18.91, 52.14 23.76 C51.44 28.61, 47.58 35.16, 43.42 38.15 C39.26 41.14, 32.77 41.88, 27.16 41.71 C21.56 41.53, 14.5 39.74, 9.81 37.09 C5.12 34.44, 0.2 30.13, -0.99 25.82 C-2.18 21.52, -0.2 15.32, 2.65 11.25 C5.49 7.18, 13.71 3.06, 16.08 1.42 C18.44 -0.22, 16.62 1.36, 16.85 1.42" stroke="#1e1e1e" stroke-width="2" fill="none"></path></g><g transform="translate(145.78318480975526 169.35075454332468) rotate(0 9.631996154785156 10)"><text x="9.631996154785156" y="14.016" font-family="Virgil, Segoe UI Emoji" font-size="16px" fill="#1e1e1e" text-anchor="middle" style="white-space: pre;" direction="ltr" dominant-baseline="alphabetic">v3</text></g><g stroke-linecap="round" transform="translate(241.2999267578125 170.20001220703125) rotate(0 26 21)"><path d="M35.02 0.68 C40.17 1.98, 45.46 6.96, 48.4 10.78 C51.34 14.59, 53.51 19.18, 52.66 23.57 C51.82 27.96, 47.62 34.2, 43.33 37.1 C39.04 40.01, 32.67 41.02, 26.91 41.02 C21.15 41.02, 13.22 39.74, 8.75 37.11 C4.29 34.47, 0.87 29.73, 0.1 25.2 C-0.67 20.67, 1.37 14, 4.14 9.93 C6.9 5.85, 10.84 2, 16.72 0.77 C22.59 -0.47, 35.12 1.53, 39.4 2.52 C43.67 3.51, 42.67 6.47, 42.36 6.7 M33.08 -0.45 C38.13 0.35, 45.36 4.71, 48.59 8.94 C51.83 13.18, 53.16 20.4, 52.5 24.96 C51.83 29.53, 48.79 33.47, 44.61 36.32 C40.44 39.16, 33.47 41.62, 27.47 42.02 C21.46 42.43, 13.24 41.41, 8.61 38.77 C3.98 36.12, 0.81 30.73, -0.3 26.15 C-1.41 21.57, -0.72 15.45, 1.96 11.31 C4.64 7.16, 10.53 3.25, 15.78 1.3 C21.03 -0.65, 30.5 -0.61, 33.46 -0.4 C36.42 -0.18, 33.75 2.13, 33.57 2.6" stroke="#1e1e1e" stroke-width="2" fill="none"></path></g><g transform="translate(258.1111572218646 181.35076980211375) rotate(0 9.303993225097656 10)"><text x="9.303993225097656" y="14.016" font-family="Virgil, Segoe UI Emoji" font-size="16px" fill="#1e1e1e" text-anchor="middle" style="white-space: pre;" direction="ltr" dominant-baseline="alphabetic">v6</text></g><g stroke-linecap="round" transform="translate(248.49993896484375 87.80000305175781) rotate(0 26 21)"><path d="M20.78 -0.17 C25.88 -1.51, 32.87 0.41, 37.8 2.36 C42.72 4.31, 48.26 7.48, 50.32 11.53 C52.38 15.59, 51.85 22.15, 50.15 26.68 C48.45 31.2, 44.47 36.31, 40.11 38.7 C35.76 41.1, 29.53 41.67, 24.04 41.04 C18.56 40.41, 11.17 38.11, 7.2 34.94 C3.23 31.76, 0.7 26.23, 0.22 22 C-0.26 17.78, 0.42 13.4, 4.32 9.6 C8.21 5.79, 19.52 0.59, 23.58 -0.8 C27.65 -2.2, 28.53 0.82, 28.7 1.2 M14.45 3.53 C19.06 1.38, 27.1 -0.6, 32.52 0.15 C37.94 0.9, 43.97 4.25, 46.99 8.04 C50 11.82, 51.02 18.24, 50.61 22.86 C50.2 27.49, 48.19 32.59, 44.53 35.78 C40.87 38.96, 34.09 41.48, 28.64 41.95 C23.19 42.43, 16.49 41.27, 11.83 38.63 C7.18 36, 2.44 30.19, 0.72 26.15 C-0.99 22.11, -0.48 18.43, 1.53 14.39 C3.55 10.35, 10.76 3.76, 12.83 1.9 C14.9 0.05, 13.58 3, 13.97 3.25" stroke="#1e1e1e" stroke-width="2" fill="none"></path></g><g transform="translate(265.48717193133723 98.95076064684031) rotate(0 9.12799072265625 10)"><text x="9.12799072265625" y="14.016" font-family="Virgil, Segoe UI Emoji" font-size="16px" fill="#1e1e1e" text-anchor="middle" style="white-space: pre;" direction="ltr" dominant-baseline="alphabetic">v5</text></g><g stroke-linecap="round" transform="translate(355.699951171875 163.80007934570312) rotate(0 26 21)"><path d="M16.68 0.59 C21.26 -1.34, 27.93 -0.75, 33.09 0.82 C38.25 2.4, 44.37 6.35, 47.62 10.04 C50.87 13.74, 53.3 18.67, 52.6 22.98 C51.91 27.3, 47.69 32.83, 43.45 35.93 C39.22 39.03, 32.88 41.14, 27.2 41.58 C21.52 42.03, 13.89 41.43, 9.4 38.6 C4.91 35.77, 1.22 29.04, 0.26 24.6 C-0.71 20.15, -0.37 16.14, 3.61 11.95 C7.59 7.76, 19.7 1.23, 24.15 -0.56 C28.6 -2.34, 30.47 0.69, 30.33 1.23 M35.35 1.27 C40.01 2.72, 44.52 7.63, 47.08 11.64 C49.65 15.65, 51.66 21.09, 50.76 25.35 C49.86 29.61, 45.9 34.46, 41.71 37.2 C37.52 39.94, 31.12 42.02, 25.63 41.77 C20.14 41.53, 13.05 38.36, 8.79 35.72 C4.54 33.08, 1.14 30.2, 0.1 25.91 C-0.94 21.62, -0.26 14.02, 2.56 9.98 C5.38 5.95, 11.62 3.29, 17.03 1.68 C22.44 0.07, 32.27 0.26, 35.01 0.34 C37.75 0.42, 33.57 1.49, 33.47 2.14" stroke="#1e1e1e" stroke-width="2" fill="none"></path></g><g transform="translate(373.3271835280169 174.95083694078562) rotate(0 8.487991333007812 10)"><text x="8.487991333007812" y="14.016" font-family="Virgil, Segoe UI Emoji" font-size="16px" fill="#1e1e1e" text-anchor="middle" style="white-space: pre;" direction="ltr" dominant-baseline="alphabetic">v7</text></g><g stroke-linecap="round" transform="translate(382.0999755859375 59.800018310546875) rotate(0 26 21)"><path d="M13.41 2.73 C18.2 0.37, 26.72 -1.17, 32.22 -0.38 C37.72 0.41, 43.11 3.84, 46.43 7.45 C49.75 11.07, 52.45 16.55, 52.15 21.31 C51.85 26.08, 48.45 32.76, 44.64 36.03 C40.83 39.29, 34.6 40.34, 29.3 40.92 C24 41.51, 17.46 41.88, 12.87 39.53 C8.28 37.19, 3.74 31.2, 1.75 26.86 C-0.25 22.53, -1.86 17.77, 0.9 13.51 C3.65 9.25, 14.25 3.34, 18.28 1.3 C22.31 -0.74, 24.88 0.96, 25.07 1.28 M25.45 0.79 C30.79 0.4, 37.57 2.48, 41.86 5.25 C46.15 8.01, 50.19 13.2, 51.17 17.38 C52.16 21.55, 50.59 26.19, 47.78 30.29 C44.96 34.39, 39.59 40.36, 34.28 41.99 C28.98 43.62, 21.11 41.77, 15.95 40.05 C10.8 38.33, 5.91 35.64, 3.36 31.67 C0.81 27.69, -0.16 20.61, 0.68 16.21 C1.51 11.81, 4.03 7.79, 8.38 5.27 C12.74 2.74, 23.85 2.07, 26.82 1.08 C29.79 0.09, 26.12 -0.73, 26.19 -0.7" stroke="#1e1e1e" stroke-width="2" fill="none"></path></g><g transform="translate(397.9112060499896 70.95077590562937) rotate(0 10.303993225097656 10)"><text x="10.303993225097656" y="14.016" font-family="Virgil, Segoe UI Emoji" font-size="16px" fill="#1e1e1e" text-anchor="middle" style="white-space: pre;" direction="ltr" dominant-baseline="alphabetic">v8</text></g><g stroke-linecap="round" transform="translate(246.89996337890625 15.000015258789062) rotate(0 26 21)"><path d="M29.33 -0.43 C34.5 -0.07, 41.65 2.81, 45.31 6.39 C48.97 9.97, 51.12 16.63, 51.28 21.05 C51.45 25.47, 49.47 29.37, 46.3 32.89 C43.14 36.42, 37.59 41.2, 32.28 42.21 C26.98 43.23, 19.7 41.13, 14.49 39 C9.28 36.86, 3.32 33.38, 1 29.42 C-1.32 25.45, -1.38 19.42, 0.57 15.21 C2.52 10.99, 7.52 6.5, 12.7 4.12 C17.87 1.73, 28.06 1.5, 31.63 0.91 C35.19 0.32, 34.01 0.38, 34.08 0.56 M32.29 0.5 C37.57 1.09, 43.53 3.64, 46.74 7.56 C49.96 11.48, 52.12 19.42, 51.58 24.04 C51.04 28.66, 47.37 32.24, 43.49 35.28 C39.6 38.32, 33.62 41.97, 28.25 42.31 C22.88 42.64, 16.02 39.85, 11.27 37.28 C6.52 34.72, 1.12 30.93, -0.27 26.91 C-1.65 22.89, 0.43 17.51, 2.97 13.17 C5.5 8.82, 9.81 3.04, 14.94 0.83 C20.08 -1.38, 31.02 -0.22, 33.76 -0.09 C36.5 0.05, 31.45 1.14, 31.39 1.65" stroke="#1e1e1e" stroke-width="2" fill="none"></path></g><g transform="translate(263.7111938429583 26.15077285387156) rotate(0 9.303993225097656 10)"><text x="9.303993225097656" y="14.016" font-family="Virgil, Segoe UI Emoji" font-size="16px" fill="#1e1e1e" text-anchor="middle" style="white-space: pre;" direction="ltr" dominant-baseline="alphabetic">v4</text></g><g stroke-linecap="round"><g transform="translate(103.29273358817579 95.80499135464561) rotate(0 22.28195978051994 -15.245562809056906)"><path d="M0 0 C14.36 -10.36, 29.09 -20.09, 44.56 -30.49 M0 0 C9.69 -6.64, 20.76 -13.75, 44.56 -30.49" stroke="#1e1e1e" stroke-width="2" fill="none"></path></g><g transform="translate(103.29273358817579 95.80499135464561) rotate(0 22.28195978051994 -15.245562809056906)"><path d="M45.39 -31.46 L37.73 -17.34 L29.34 -27.04 L43.81 -30.15" stroke="none" stroke-width="0" fill="#1e1e1e" fill-rule="evenodd"></path><path d="M44.56 -30.49 C42.13 -26.75, 39.82 -22.37, 37.02 -17.53 M44.56 -30.49 C42.56 -27.28, 41.42 -24.35, 37.02 -17.53 M37.02 -17.53 C34.97 -19.65, 34.09 -21.91, 29.78 -27.94 M37.02 -17.53 C34.68 -20.19, 32.76 -23.2, 29.78 -27.94 M29.78 -27.94 C33.03 -28.79, 35.79 -29.23, 44.56 -30.49 M29.78 -27.94 C35.39 -28.78, 41.03 -30.06, 44.56 -30.49 M44.56 -30.49 C44.56 -30.49, 44.56 -30.49, 44.56 -30.49 M44.56 -30.49 C44.56 -30.49, 44.56 -30.49, 44.56 -30.49" stroke="#1e1e1e" stroke-width="2" fill="none"></path></g></g><mask></mask><g stroke-linecap="round"><g transform="translate(104.60378059727088 130.73277073833572) rotate(0 14.818728104657453 17.3493887424697)"><path d="M0 0 C6.56 7.19, 12.12 16.08, 29.64 34.7 M0 0 C8.09 9.37, 15.3 17.87, 29.64 34.7" stroke="#1e1e1e" stroke-width="2" fill="none"></path></g><g transform="translate(104.60378059727088 130.73277073833572) rotate(0 14.818728104657453 17.3493887424697)"><path d="M30.35 34.88 L15.55 29.36 L24.89 20.58 L29.77 34.91" stroke="none" stroke-width="0" fill="#1e1e1e" fill-rule="evenodd"></path><path d="M29.64 34.7 C26.81 33.01, 23.22 32.7, 16 28.46 M29.64 34.7 C26.3 33.26, 22.17 31.05, 16 28.46 M16 28.46 C19.7 26.19, 22.38 23.15, 25.65 20.24 M16 28.46 C18.77 26.1, 21.64 23.49, 25.65 20.24 M25.65 20.24 C25.99 23.96, 28.36 27.56, 29.64 34.7 M25.65 20.24 C26.74 23.77, 27.44 27.89, 29.64 34.7 M29.64 34.7 C29.64 34.7, 29.64 34.7, 29.64 34.7 M29.64 34.7 C29.64 34.7, 29.64 34.7, 29.64 34.7" stroke="#1e1e1e" stroke-width="2" fill="none"></path></g></g><mask></mask><g stroke-linecap="round"><g transform="translate(196.53529792154973 46.57682946588102) rotate(0 24.822943364161233 -3.704914388717782)"><path d="M0 0 C11.18 -0.69, 23.42 -4.32, 49.65 -7.41 M0 0 C17.67 -3.3, 36.19 -5.81, 49.65 -7.41" stroke="#1e1e1e" stroke-width="2" fill="none"></path></g><g transform="translate(196.53529792154973 46.57682946588102) rotate(0 24.822943364161233 -3.704914388717782)"><path d="M49.2 -6.51 L36.2 0.92 L35.49 -11.78 L50.42 -7.92" stroke="none" stroke-width="0" fill="#1e1e1e" fill-rule="evenodd"></path><path d="M49.65 -7.41 C46.09 -4.78, 43.32 -4.26, 36.95 0.58 M49.65 -7.41 C44.83 -4.85, 40.6 -1.81, 36.95 0.58 M36.95 0.58 C36.23 -3.57, 35.81 -8.8, 35.36 -11.99 M36.95 0.58 C36.15 -4.17, 35.67 -9.06, 35.36 -11.99 M35.36 -11.99 C39.66 -11.21, 42.5 -9.57, 49.65 -7.41 M35.36 -11.99 C39.73 -10.33, 44.79 -8.7, 49.65 -7.41 M49.65 -7.41 C49.65 -7.41, 49.65 -7.41, 49.65 -7.41 M49.65 -7.41 C49.65 -7.41, 49.65 -7.41, 49.65 -7.41" stroke="#1e1e1e" stroke-width="2" fill="none"></path></g></g><mask></mask><g stroke-linecap="round"><g transform="translate(192.08378309624902 71.79117623474463) rotate(0 28.232031776670738 15.469599985919217)"><path d="M0 0 C13.77 5.73, 30.38 16.94, 56.46 30.94 M0 0 C19.76 10.67, 39.5 22.72, 56.46 30.94" stroke="#1e1e1e" stroke-width="2" fill="none"></path></g><g transform="translate(192.08378309624902 71.79117623474463) rotate(0 28.232031776670738 15.469599985919217)"><path d="M54.95 31.61 L41.74 30.72 L48.88 18.03 L57.98 31.15" stroke="none" stroke-width="0" fill="#1e1e1e" fill-rule="evenodd"></path><path d="M56.46 30.94 C52.07 29.61, 49.63 31.82, 41.48 30.29 M56.46 30.94 C51.54 30.1, 46.44 30.86, 41.48 30.29 M41.48 30.29 C43.76 24.82, 47 20.96, 47.33 19.04 M41.48 30.29 C43.42 26.22, 45.44 21.75, 47.33 19.04 M47.33 19.04 C49.37 22.44, 52.9 25.96, 56.46 30.94 M47.33 19.04 C49.69 22.41, 51.57 24.17, 56.46 30.94 M56.46 30.94 C56.46 30.94, 56.46 30.94, 56.46 30.94 M56.46 30.94 C56.46 30.94, 56.46 30.94, 56.46 30.94" stroke="#1e1e1e" stroke-width="2" fill="none"></path></g></g><mask></mask><g stroke-linecap="round"><g transform="translate(304.8982304023557 105.40044397701513) rotate(0 38.002610335131976 -9.200636553825234)"><path d="M0 0 C31.63 -5.24, 61.62 -15.3, 76.01 -18.4 M0 0 C15.74 -2.54, 31.36 -7.13, 76.01 -18.4" stroke="#1e1e1e" stroke-width="2" fill="none"></path></g><g transform="translate(304.8982304023557 105.40044397701513) rotate(0 38.002610335131976 -9.200636553825234)"><path d="M76.26 -17.97 L65.95 -9.91 L62.78 -20.97 L76.89 -19" stroke="none" stroke-width="0" fill="#1e1e1e" fill-rule="evenodd"></path><path d="M76.01 -18.4 C72.29 -13.64, 67.43 -11.88, 64.4 -8.89 M76.01 -18.4 C74.08 -16.04, 71.98 -14.79, 64.4 -8.89 M64.4 -8.89 C64.37 -13.8, 62.95 -18.14, 61.26 -21.18 M64.4 -8.89 C63.22 -13.33, 62.35 -16.05, 61.26 -21.18 M61.26 -21.18 C65.21 -20.28, 67.5 -20.98, 76.01 -18.4 M61.26 -21.18 C66.14 -20.92, 71.62 -19.84, 76.01 -18.4 M76.01 -18.4 C76.01 -18.4, 76.01 -18.4, 76.01 -18.4 M76.01 -18.4 C76.01 -18.4, 76.01 -18.4, 76.01 -18.4" stroke="#1e1e1e" stroke-width="2" fill="none"></path></g></g><mask></mask><g stroke-linecap="round"><g transform="translate(183.182593827358 186.08533389939782) rotate(0 27.940745525205216 1.7318363993783805)"><path d="M0 0 C12.85 -0.95, 21.83 1.79, 55.88 3.46 M0 0 C14.12 0.24, 26.97 1.29, 55.88 3.46" stroke="#1e1e1e" stroke-width="2" fill="none"></path></g><g transform="translate(183.182593827358 186.08533389939782) rotate(0 27.940745525205216 1.7318363993783805)"><path d="M57.43 2.45 L43.37 8.98 L43.69 -4.48 L55.4 2.11" stroke="none" stroke-width="0" fill="#1e1e1e" fill-rule="evenodd"></path><path d="M55.88 3.46 C53.64 3.73, 48.46 6.36, 41.85 8.77 M55.88 3.46 C53.18 4.67, 49.52 6.1, 41.85 8.77 M41.85 8.77 C42.61 5.22, 42.29 3.1, 42.8 -3.88 M41.85 8.77 C42.04 5.67, 42.08 1.32, 42.8 -3.88 M42.8 -3.88 C45.87 -2.82, 51.23 1.05, 55.88 3.46 M42.8 -3.88 C48.15 -1.45, 51.9 1.94, 55.88 3.46 M55.88 3.46 C55.88 3.46, 55.88 3.46, 55.88 3.46 M55.88 3.46 C55.88 3.46, 55.88 3.46, 55.88 3.46" stroke="#1e1e1e" stroke-width="2" fill="none"></path></g></g><mask></mask><g stroke-linecap="round"><g transform="translate(296.0929351950824 190.4067254236894) rotate(0 29.2489454141936 -1.8491232409870975)"><path d="M0 0 C19.74 -0.28, 42.2 -1.37, 58.5 -3.7 M0 0 C21.93 -1.23, 42.22 -1.8, 58.5 -3.7" stroke="#1e1e1e" stroke-width="2" fill="none"></path></g><g transform="translate(296.0929351950824 190.4067254236894) rotate(0 29.2489454141936 -1.8491232409870975)"><path d="M60.02 -3.49 L46.41 3.23 L43.91 -10.16 L58.48 -3.38" stroke="none" stroke-width="0" fill="#1e1e1e" fill-rule="evenodd"></path><path d="M58.5 -3.7 C52.23 -0.44, 47.96 2.56, 45.52 3.83 M58.5 -3.7 C54.06 -0.93, 48.3 2.44, 45.52 3.83 M45.52 3.83 C45.33 0.35, 44.72 -2.79, 44.39 -8.8 M45.52 3.83 C44.95 1, 45.1 -1.17, 44.39 -8.8 M44.39 -8.8 C49.32 -6.57, 54.33 -5.59, 58.5 -3.7 M44.39 -8.8 C46.98 -7.31, 51.43 -6.3, 58.5 -3.7 M58.5 -3.7 C58.5 -3.7, 58.5 -3.7, 58.5 -3.7 M58.5 -3.7 C58.5 -3.7, 58.5 -3.7, 58.5 -3.7" stroke="#1e1e1e" stroke-width="2" fill="none"></path></g></g><mask></mask><g stroke-linecap="round"><g transform="translate(364.59327774989447 166.52003440036412) rotate(0 -34.8898310007113 -21.606764454613582)"><path d="M0 0 C-17.27 -8.94, -31.1 -18.5, -69.78 -43.21 M0 0 C-20.65 -11.29, -39.88 -23.69, -69.78 -43.21" stroke="#1e1e1e" stroke-width="2" fill="none"></path></g><g transform="translate(364.59327774989447 166.52003440036412) rotate(0 -34.8898310007113 -21.606764454613582)"><path d="M-68.89 -43.82 L-55.4 -42.49 L-61.84 -30.18 L-68.67 -44.71" stroke="none" stroke-width="0" fill="#1e1e1e" fill-rule="evenodd"></path><path d="M-69.78 -43.21 C-67.23 -42.02, -61.76 -41.06, -54.93 -41.13 M-69.78 -43.21 C-66.29 -42.02, -61.87 -41.65, -54.93 -41.13 M-54.93 -41.13 C-56.67 -39.22, -59.26 -36.58, -61.83 -30.49 M-54.93 -41.13 C-57.58 -36.97, -60.11 -33.49, -61.83 -30.49 M-61.83 -30.49 C-62.57 -33.43, -66.55 -35.18, -69.78 -43.21 M-61.83 -30.49 C-63.03 -33.47, -65.88 -37.39, -69.78 -43.21 M-69.78 -43.21 C-69.78 -43.21, -69.78 -43.21, -69.78 -43.21 M-69.78 -43.21 C-69.78 -43.21, -69.78 -43.21, -69.78 -43.21" stroke="#1e1e1e" stroke-width="2" fill="none"></path></g></g><mask></mask><g transform="translate(10.499969482421875 216.90000915527344) rotate(0 234.375 48)"><text x="0" y="19.3125" font-family="Cascadia, Segoe UI Emoji" font-size="20px" fill="#1e1e1e" text-anchor="start" style="white-space: pre;" direction="ltr" dominant-baseline="alphabetic">grado_in:  0   1   1   1   2   1   1   1</text><text x="0" y="43.3125" font-family="Cascadia, Segoe UI Emoji" font-size="20px" fill="#1e1e1e" text-anchor="start" style="white-space: pre;" direction="ltr" dominant-baseline="alphabetic">          v1  v2  v3  v4  v5  v6  v7  v8</text><text x="0" y="67.3125" font-family="Cascadia, Segoe UI Emoji" font-size="20px" fill="#1e1e1e" text-anchor="start" style="white-space: pre;" direction="ltr" dominant-baseline="alphabetic">pila: v1</text><text x="0" y="91.3125" font-family="Cascadia, Segoe UI Emoji" font-size="20px" fill="#1e1e1e" text-anchor="start" style="white-space: pre;" direction="ltr" dominant-baseline="alphabetic">result =</text></g><g transform="translate(11.299957275390625 10) rotate(0 29.296875 12)"><text x="0" y="19.3125" font-family="Cascadia, Segoe UI Emoji" font-size="20px" fill="#1e1e1e" text-anchor="start" style="white-space: pre;" direction="ltr" dominant-baseline="alphabetic">Grafo</text></g><g stroke-linecap="round" transform="translate(572.3437652587891 93.60005187988281) rotate(0 26 21)"><path d="M26.09 0.1 C31.33 -0.21, 37.7 2.45, 42.05 5.31 C46.4 8.18, 51.2 13.02, 52.2 17.27 C53.21 21.53, 50.93 26.87, 48.1 30.84 C45.28 34.81, 40.38 39.54, 35.23 41.08 C30.07 42.63, 22.29 41.64, 17.18 40.11 C12.07 38.58, 7.45 35.57, 4.58 31.88 C1.7 28.2, -0.7 22.57, -0.07 18.01 C0.56 13.45, 3.47 7.42, 8.37 4.52 C13.28 1.63, 25.4 1.29, 29.37 0.63 C33.34 -0.03, 32.27 0.31, 32.17 0.56 M36.62 2.27 C41.68 3.77, 47.39 8.91, 49.96 12.51 C52.52 16.1, 53.56 19.52, 52.02 23.85 C50.48 28.19, 45.27 35.48, 40.72 38.52 C36.18 41.55, 30.27 42.27, 24.76 42.07 C19.24 41.87, 11.49 40.34, 7.62 37.32 C3.74 34.3, 2.14 28.42, 1.49 23.95 C0.84 19.48, 0.87 14.11, 3.7 10.5 C6.53 6.89, 13.29 3.62, 18.48 2.28 C23.66 0.94, 31.78 2.74, 34.81 2.45 C37.85 2.17, 36.75 0.32, 36.7 0.59" stroke="#e03131" stroke-width="2" fill="none"></path></g><g transform="translate(592.1069915724505 104.75080947496531) rotate(0 6.351997375488281 10)"><text x="6.351997375488281" y="14.016" font-family="Virgil, Segoe UI Emoji" font-size="16px" fill="#e03131" text-anchor="middle" style="white-space: pre;" direction="ltr" dominant-baseline="alphabetic">v1</text></g><g stroke-linecap="round" transform="translate(657.5438385009766 34.4000244140625) rotate(0 26 21)"><path d="M27.94 0.5 C33.14 0.28, 38.95 2.34, 42.87 5.4 C46.79 8.46, 50.73 14.52, 51.46 18.87 C52.2 23.23, 50.12 27.85, 47.29 31.53 C44.46 35.2, 39.75 39.45, 34.48 40.94 C29.2 42.43, 20.95 42.32, 15.62 40.48 C10.3 38.63, 4.96 33.81, 2.52 29.88 C0.08 25.95, -0.23 21.24, 1 16.88 C2.23 12.53, 4.43 6.43, 9.89 3.76 C15.34 1.09, 28.68 0.81, 33.72 0.86 C38.76 0.9, 40.2 3.58, 40.12 4.03 M33.04 -0.82 C37.86 -0.09, 42.74 5.84, 45.82 9.76 C48.91 13.67, 51.93 18.25, 51.55 22.69 C51.17 27.12, 47.2 33.18, 43.57 36.39 C39.94 39.59, 35.19 41.47, 29.78 41.9 C24.36 42.32, 15.8 41.27, 11.09 38.93 C6.38 36.6, 3.12 32.17, 1.51 27.89 C-0.1 23.62, -0.98 17.79, 1.43 13.27 C3.83 8.74, 10.81 2.75, 15.95 0.75 C21.08 -1.25, 29.72 1.44, 32.24 1.26 C34.76 1.08, 31.33 -0.32, 31.06 -0.31" stroke="#1e1e1e" stroke-width="2" fill="none"></path></g><g transform="translate(673.7790649367083 45.550782009144996) rotate(0 9.879997253418026 10)"><text x="9.879997253417969" y="14.016" font-family="Virgil, Segoe UI Emoji" font-size="16px" fill="#1e1e1e" text-anchor="middle" style="white-space: pre;" direction="ltr" dominant-baseline="alphabetic">v2</text></g><g stroke-linecap="round" transform="translate(641.5437469482422 159.2000274658203) rotate(0 26 21)"><path d="M31.85 1.15 C37.09 1.8, 42.9 4.25, 46.37 7.77 C49.84 11.28, 53 17.62, 52.68 22.26 C52.36 26.9, 48.47 32.47, 44.44 35.62 C40.4 38.76, 33.88 40.56, 28.46 41.12 C23.04 41.67, 16.55 41.42, 11.93 38.95 C7.3 36.49, 2.3 30.75, 0.69 26.34 C-0.92 21.93, -0.17 16.41, 2.26 12.47 C4.68 8.54, 9.07 4.23, 15.26 2.72 C21.44 1.22, 34.41 2.64, 39.36 3.43 C44.31 4.23, 45.07 7.22, 44.95 7.48 M13.3 2.59 C17.85 0.28, 24.53 0.24, 30.25 1.13 C35.98 2.03, 44.05 4.47, 47.63 7.98 C51.22 11.5, 52.04 17.52, 51.76 22.22 C51.48 26.93, 49.78 32.79, 45.96 36.21 C42.15 39.62, 34.27 42.49, 28.87 42.72 C23.46 42.94, 18.16 39.97, 13.53 37.55 C8.9 35.13, 3.26 32.48, 1.1 28.2 C-1.06 23.92, -1.32 16.37, 0.57 11.86 C2.46 7.36, 10.2 2.79, 12.45 1.18 C14.71 -0.44, 13.58 1.82, 14.12 2.16" stroke="#1e1e1e" stroke-width="2" fill="none"></path></g><g transform="translate(658.0269744826068 170.3507850609028) rotate(0 9.631996154785213 10)"><text x="9.631996154785156" y="14.016" font-family="Virgil, Segoe UI Emoji" font-size="16px" fill="#1e1e1e" text-anchor="middle" style="white-space: pre;" direction="ltr" dominant-baseline="alphabetic">v3</text></g><g stroke-linecap="round" transform="translate(753.5437164306641 171.20004272460938) rotate(0 26 21)"><path d="M33.8 0.69 C39.02 1.74, 44.2 5.68, 47.14 9.29 C50.09 12.9, 51.93 17.81, 51.49 22.35 C51.04 26.89, 48.49 33.36, 44.5 36.54 C40.51 39.71, 33.17 41.16, 27.57 41.4 C21.96 41.64, 15.19 40.41, 10.86 37.96 C6.52 35.51, 2.88 30.96, 1.56 26.71 C0.24 22.47, 0.55 16.51, 2.92 12.48 C5.3 8.45, 10.24 4.3, 15.83 2.53 C21.42 0.76, 32.98 1.97, 36.45 1.85 C39.93 1.73, 36.87 1.6, 36.66 1.82 M27.94 0.01 C33.37 -0.16, 38.97 2.7, 43.02 5.89 C47.08 9.08, 51.56 14.65, 52.27 19.16 C52.97 23.67, 50.07 29.52, 47.26 32.93 C44.45 36.34, 40.58 38.24, 35.41 39.61 C30.24 40.97, 21.82 42.8, 16.23 41.13 C10.64 39.47, 4.68 33.9, 1.87 29.63 C-0.95 25.35, -2.05 19.75, -0.69 15.45 C0.67 11.16, 5.34 6.6, 10.04 3.83 C14.74 1.07, 24.98 -0.78, 27.52 -1.14 C30.07 -1.49, 25.65 1.31, 25.3 1.7" stroke="#1e1e1e" stroke-width="2" fill="none"></path></g><g transform="translate(770.3549468947162 182.35080031969187) rotate(0 9.303993225097656 10)"><text x="9.303993225097656" y="14.016" font-family="Virgil, Segoe UI Emoji" font-size="16px" fill="#1e1e1e" text-anchor="middle" style="white-space: pre;" direction="ltr" dominant-baseline="alphabetic">v6</text></g><g stroke-linecap="round" transform="translate(760.7437286376953 88.80003356933594) rotate(0 26 21)"><path d="M24.25 -0.73 C29.64 -1.16, 37.55 1.97, 42.01 4.72 C46.46 7.46, 49.78 11.44, 50.98 15.73 C52.19 20.02, 51.57 26.26, 49.22 30.46 C46.88 34.65, 42.01 39.01, 36.93 40.88 C31.85 42.76, 24.11 42.99, 18.74 41.69 C13.37 40.4, 7.63 36.93, 4.7 33.12 C1.76 29.31, 0.69 23.56, 1.12 18.83 C1.55 14.11, 2.63 7.93, 7.28 4.77 C11.92 1.6, 24.89 0.58, 29 -0.16 C33.11 -0.91, 32.01 -0.23, 31.94 0.3 M26.55 1.24 C31.73 1.03, 37.45 3.38, 41.82 5.85 C46.2 8.32, 51.71 11.66, 52.79 16.04 C53.87 20.41, 51.5 28.21, 48.3 32.1 C45.11 35.99, 39.02 38.14, 33.62 39.36 C28.22 40.58, 20.88 40.83, 15.89 39.4 C10.9 37.97, 6.13 34.65, 3.69 30.78 C1.24 26.92, 0.51 20.31, 1.21 16.21 C1.91 12.11, 3.96 9.04, 7.89 6.18 C11.82 3.33, 21.53 0.01, 24.78 -0.93 C28.03 -1.87, 27.29 0.24, 27.38 0.55" stroke="#1e1e1e" stroke-width="2" fill="none"></path></g><g transform="translate(777.7309616041889 99.95079116441843) rotate(0 9.12799072265625 10)"><text x="9.12799072265625" y="14.016" font-family="Virgil, Segoe UI Emoji" font-size="16px" fill="#1e1e1e" text-anchor="middle" style="white-space: pre;" direction="ltr" dominant-baseline="alphabetic">v5</text></g><g stroke-linecap="round" transform="translate(867.9437408447266 164.80010986328125) rotate(0 26 21)"><path d="M16.02 0.95 C20.76 -0.98, 28.72 -0.61, 34.2 0.98 C39.68 2.57, 45.9 6.56, 48.87 10.5 C51.85 14.44, 52.91 20.15, 52.07 24.62 C51.23 29.1, 47.87 34.39, 43.81 37.35 C39.76 40.31, 33.54 42.5, 27.72 42.38 C21.9 42.26, 13.33 39.51, 8.91 36.62 C4.49 33.72, 2.16 29.4, 1.2 25.03 C0.24 20.65, 0.13 14.28, 3.15 10.38 C6.18 6.48, 16.29 3.25, 19.36 1.62 C22.43 -0.01, 21.48 0.32, 21.59 0.58 M37.63 0.45 C42.72 1.86, 47.03 8.27, 49.09 12.29 C51.15 16.31, 51.48 20.54, 49.99 24.59 C48.51 28.64, 44.43 33.81, 40.19 36.58 C35.94 39.36, 29.76 41.49, 24.54 41.24 C19.32 40.98, 13.15 37.82, 8.86 35.05 C4.56 32.27, -0.29 29.02, -1.24 24.58 C-2.19 20.15, -0.41 12.36, 3.14 8.42 C6.7 4.49, 14.64 2.28, 20.07 0.98 C25.51 -0.32, 33.23 0.46, 35.75 0.62 C38.27 0.79, 35.21 1.3, 35.19 1.97" stroke="#1e1e1e" stroke-width="2" fill="none"></path></g><g transform="translate(885.5709732008686 175.95086745836375) rotate(0 8.487991333007812 10)"><text x="8.487991333007812" y="14.016" font-family="Virgil, Segoe UI Emoji" font-size="16px" fill="#1e1e1e" text-anchor="middle" style="white-space: pre;" direction="ltr" dominant-baseline="alphabetic">v7</text></g><g stroke-linecap="round" transform="translate(894.3437652587891 60.800048828125) rotate(0 26 21)"><path d="M19.79 1.32 C24.85 0.03, 32.07 0.61, 37.1 2.49 C42.12 4.37, 47.46 8.6, 49.96 12.62 C52.46 16.64, 53.74 22.53, 52.11 26.63 C50.47 30.73, 44.71 34.7, 40.13 37.21 C35.55 39.72, 30.02 42, 24.64 41.69 C19.26 41.37, 11.86 38.29, 7.85 35.32 C3.84 32.34, 1.14 28.24, 0.59 23.85 C0.04 19.46, 0.91 12.84, 4.56 8.97 C8.21 5.09, 18.89 2.13, 22.47 0.61 C26.04 -0.92, 25.9 -0.58, 26.01 -0.16 M13.68 0.62 C18.16 -1.76, 25.82 -1.9, 31.45 -0.63 C37.08 0.63, 43.91 4.48, 47.46 8.19 C51.01 11.9, 53.46 16.81, 52.72 21.63 C51.98 26.44, 47.3 33.85, 43.03 37.08 C38.77 40.3, 32.2 40.77, 27.12 40.98 C22.03 41.2, 17.01 40.97, 12.52 38.37 C8.04 35.76, 2.08 29.74, 0.22 25.35 C-1.64 20.95, -1.13 15.73, 1.37 12 C3.86 8.26, 13.02 4.68, 15.19 2.94 C17.36 1.2, 14.05 1.29, 14.38 1.57" stroke="#1e1e1e" stroke-width="2" fill="none"></path></g><g transform="translate(910.1549957228412 71.9508064232075) rotate(0 10.303993225097656 10)"><text x="10.303993225097656" y="14.016" font-family="Virgil, Segoe UI Emoji" font-size="16px" fill="#1e1e1e" text-anchor="middle" style="white-space: pre;" direction="ltr" dominant-baseline="alphabetic">v8</text></g><g stroke-linecap="round" transform="translate(759.1437530517578 16.000045776367188) rotate(0 26 21)"><path d="M33.6 1.48 C38.88 2.35, 45.56 6.13, 48.44 9.6 C51.32 13.06, 51.49 17.89, 50.88 22.26 C50.27 26.63, 48.59 32.65, 44.77 35.82 C40.95 38.98, 33.53 40.76, 27.94 41.27 C22.35 41.77, 15.77 41.39, 11.24 38.84 C6.72 36.3, 2.16 30.42, 0.79 25.98 C-0.58 21.55, 0.44 16.34, 3 12.21 C5.57 8.09, 10.21 2.74, 16.18 1.25 C22.16 -0.25, 34.61 2.61, 38.84 3.26 C43.07 3.9, 41.81 5.1, 41.57 5.14 M14.71 1.44 C19.65 -0.65, 27.86 -1.94, 33 -0.54 C38.14 0.86, 42.62 6.19, 45.57 9.86 C48.53 13.52, 50.63 17.15, 50.72 21.45 C50.82 25.75, 49.92 32.44, 46.16 35.66 C42.39 38.87, 34.08 40.3, 28.14 40.73 C22.19 41.17, 14.98 40.43, 10.51 38.28 C6.03 36.12, 2.8 32.24, 1.28 27.82 C-0.23 23.4, -0.97 15.89, 1.42 11.74 C3.81 7.58, 13.58 4.5, 15.63 2.89 C17.68 1.28, 13.94 1.94, 13.72 2.09" stroke="#1e1e1e" stroke-width="2" fill="none"></path></g><g transform="translate(775.95498351581 27.150803371449683) rotate(0 9.303993225097656 10)"><text x="9.303993225097656" y="14.016" font-family="Virgil, Segoe UI Emoji" font-size="16px" fill="#1e1e1e" text-anchor="middle" style="white-space: pre;" direction="ltr" dominant-baseline="alphabetic">v4</text></g><g stroke-linecap="round"><g transform="translate(615.5221742873435 96.81483959838863) rotate(0 22.289134267361817 -15.250471672139383)"><path d="M0 0 C16.29 -10.29, 32.55 -21.42, 44.58 -30.5 M0 0 C8.98 -6.26, 17.73 -12.19, 44.58 -30.5" stroke="#e03131" stroke-width="2" fill="none"></path></g><g transform="translate(615.5221742873435 96.81483959838863) rotate(0 22.289134267361817 -15.250471672139383)"><path d="M44.87 -29.69 L37.74 -18.02 L29.13 -28.41 L45.03 -30.52" stroke="none" stroke-width="0" fill="#e03131" fill-rule="evenodd"></path><path d="M44.58 -30.5 C42.25 -25.39, 39.85 -21.02, 36.92 -17.6 M44.58 -30.5 C42.89 -27.86, 41.19 -25.11, 36.92 -17.6 M36.92 -17.6 C34.44 -21.38, 31.98 -25.99, 29.78 -28.08 M36.92 -17.6 C34.24 -21.3, 31.43 -25.52, 29.78 -28.08 M29.78 -28.08 C32.67 -28.21, 35.7 -29.85, 44.58 -30.5 M29.78 -28.08 C35.82 -28.93, 41 -30.18, 44.58 -30.5 M44.58 -30.5 C44.58 -30.5, 44.58 -30.5, 44.58 -30.5 M44.58 -30.5 C44.58 -30.5, 44.58 -30.5, 44.58 -30.5" stroke="#e03131" stroke-width="2" fill="none"></path></g></g><mask></mask><g stroke-linecap="round"><g transform="translate(616.8352739811286 131.71840507451844) rotate(0 14.824876249154386 17.356586833167427)"><path d="M0 0 C11.72 12.82, 20.5 24.08, 29.65 34.71 M0 0 C10.46 12.92, 22.05 25.38, 29.65 34.71" stroke="#e03131" stroke-width="2" fill="none"></path></g><g transform="translate(616.8352739811286 131.71840507451844) rotate(0 14.824876249154386 17.356586833167427)"><path d="M30.47 34.3 L15.38 28.12 L26.15 20.23 L30.22 34.5" stroke="none" stroke-width="0" fill="#e03131" fill-rule="evenodd"></path><path d="M29.65 34.71 C25.41 32.79, 19.06 29.58, 16.02 28.44 M29.65 34.71 C24.42 32.6, 20 30.13, 16.02 28.44 M16.02 28.44 C19.28 25.72, 21.91 24.26, 25.69 20.24 M16.02 28.44 C17.81 26.39, 19.88 24.66, 25.69 20.24 M25.69 20.24 C26.33 24.07, 28.77 28.69, 29.65 34.71 M25.69 20.24 C26.53 23.4, 27.38 27.08, 29.65 34.71 M29.65 34.71 C29.65 34.71, 29.65 34.71, 29.65 34.71 M29.65 34.71 C29.65 34.71, 29.65 34.71, 29.65 34.71" stroke="#e03131" stroke-width="2" fill="none"></path></g></g><mask></mask><g stroke-linecap="round"><g transform="translate(708.7790875944011 47.576859983459144) rotate(0 24.822943364161347 -3.704914388717796)"><path d="M0 0 C17.24 -3.7, 37.15 -5.8, 49.65 -7.41 M0 0 C15.6 -2.38, 30.28 -4.44, 49.65 -7.41" stroke="#1e1e1e" stroke-width="2" fill="none"></path></g><g transform="translate(708.7790875944011 47.576859983459144) rotate(0 24.822943364161347 -3.704914388717796)"><path d="M49 -7.74 L37.6 0.87 L35.83 -11.86 L49.39 -6.87" stroke="none" stroke-width="0" fill="#1e1e1e" fill-rule="evenodd"></path><path d="M49.65 -7.41 C44.35 -4.99, 40.98 -1.47, 37.15 0.89 M49.65 -7.41 C46.11 -4.85, 41.93 -2.16, 37.15 0.89 M37.15 0.89 C36.86 -2.84, 35.27 -7.65, 35.26 -11.65 M37.15 0.89 C36.3 -3.67, 35.96 -7.8, 35.26 -11.65 M35.26 -11.65 C40.97 -10.69, 44.97 -7.89, 49.65 -7.41 M35.26 -11.65 C39.43 -10.33, 44.2 -8.74, 49.65 -7.41 M49.65 -7.41 C49.65 -7.41, 49.65 -7.41, 49.65 -7.41 M49.65 -7.41 C49.65 -7.41, 49.65 -7.41, 49.65 -7.41" stroke="#1e1e1e" stroke-width="2" fill="none"></path></g></g><mask></mask><g stroke-linecap="round"><g transform="translate(704.3114490849621 72.78237186059772) rotate(0 28.240093618740048 15.474017431781675)"><path d="M0 0 C20.15 10.48, 38.09 20.12, 56.48 30.95 M0 0 C19.67 11.13, 39.76 22.28, 56.48 30.95" stroke="#1e1e1e" stroke-width="2" fill="none"></path></g><g transform="translate(704.3114490849621 72.78237186059772) rotate(0 28.240093618740048 15.474017431781675)"><path d="M57.39 30.91 L42.64 29.75 L46.93 20.05 L57.17 32.19" stroke="none" stroke-width="0" fill="#1e1e1e" fill-rule="evenodd"></path><path d="M56.48 30.95 C52.4 30.18, 46.42 29.28, 41.5 30.18 M56.48 30.95 C51.17 30.98, 46.37 31.04, 41.5 30.18 M41.5 30.18 C41.75 27.25, 44.8 23.67, 47.44 18.98 M41.5 30.18 C42.91 27.59, 44.41 25.08, 47.44 18.98 M47.44 18.98 C48.48 22.91, 51.41 23.31, 56.48 30.95 M47.44 18.98 C49.5 22.14, 51.01 23.95, 56.48 30.95 M56.48 30.95 C56.48 30.95, 56.48 30.95, 56.48 30.95 M56.48 30.95 C56.48 30.95, 56.48 30.95, 56.48 30.95" stroke="#1e1e1e" stroke-width="2" fill="none"></path></g></g><mask></mask><g stroke-linecap="round"><g transform="translate(817.1402877996898 106.40089388782195) rotate(0 38.00521787960645 -9.201267854380532)"><path d="M0 0 C16.14 -5.07, 33.12 -5.99, 76.01 -18.4 M0 0 C23.2 -5, 45.04 -10.72, 76.01 -18.4" stroke="#1e1e1e" stroke-width="2" fill="none"></path></g><g transform="translate(817.1402877996898 106.40089388782195) rotate(0 38.00521787960645 -9.201267854380532)"><path d="M77.15 -18.83 L63.85 -7.89 L61.98 -20.02 L77.57 -20.1" stroke="none" stroke-width="0" fill="#1e1e1e" fill-rule="evenodd"></path><path d="M76.01 -18.4 C73.68 -17.44, 71.82 -13.19, 64.36 -8.96 M76.01 -18.4 C72.77 -14.9, 68.56 -12.22, 64.36 -8.96 M64.36 -8.96 C63.81 -14.7, 60.97 -19.32, 61.28 -21.26 M64.36 -8.96 C64.04 -12.05, 62.45 -13.63, 61.28 -21.26 M61.28 -21.26 C64.62 -21.46, 66.57 -21.19, 76.01 -18.4 M61.28 -21.26 C65.14 -20.93, 70.33 -19.34, 76.01 -18.4 M76.01 -18.4 C76.01 -18.4, 76.01 -18.4, 76.01 -18.4 M76.01 -18.4 C76.01 -18.4, 76.01 -18.4, 76.01 -18.4" stroke="#1e1e1e" stroke-width="2" fill="none"></path></g></g><mask></mask><g stroke-linecap="round"><g transform="translate(695.4207894947435 187.08501768670442) rotate(0 27.943685668235503 1.7320186367032306)"><path d="M0 0 C16.3 2.97, 30.75 1.98, 55.89 3.46 M0 0 C18.43 1.34, 38.83 1.02, 55.89 3.46" stroke="#1e1e1e" stroke-width="2" fill="none"></path></g><g transform="translate(695.4207894947435 187.08501768670442) rotate(0 27.943685668235503 1.7320186367032306)"><path d="M55.38 4.54 L42.43 9.69 L44.54 -5.87 L56.33 4.97" stroke="none" stroke-width="0" fill="#1e1e1e" fill-rule="evenodd"></path><path d="M55.89 3.46 C52.7 5.97, 48.11 5.88, 41.74 8.45 M55.89 3.46 C50.65 5.75, 46.88 6.32, 41.74 8.45 M41.74 8.45 C40.88 3.83, 41.27 1.42, 42.97 -4.17 M41.74 8.45 C41.39 5.82, 41.78 1.71, 42.97 -4.17 M42.97 -4.17 C46.9 -2.16, 52.93 2.12, 55.89 3.46 M42.97 -4.17 C48.18 -0.96, 51.81 1.22, 55.89 3.46 M55.89 3.46 C55.89 3.46, 55.89 3.46, 55.89 3.46 M55.89 3.46 C55.89 3.46, 55.89 3.46, 55.89 3.46" stroke="#1e1e1e" stroke-width="2" fill="none"></path></g></g><mask></mask><g stroke-linecap="round"><g transform="translate(808.3366492879377 191.40676071944762) rotate(0 29.249099939530424 -1.8491330101048504)"><path d="M0 0 C13.58 -1.65, 27.98 -1.47, 58.5 -3.7 M0 0 C23.2 -2.66, 44.64 -2.79, 58.5 -3.7" stroke="#1e1e1e" stroke-width="2" fill="none"></path></g><g transform="translate(808.3366492879377 191.40676071944762) rotate(0 29.249099939530424 -1.8491330101048504)"><path d="M59.19 -2.46 L46.79 1.59 L45.05 -7.87 L59.1 -5.03" stroke="none" stroke-width="0" fill="#1e1e1e" fill-rule="evenodd"></path><path d="M58.5 -3.7 C55.45 -2.2, 52.96 0.21, 45.23 3.29 M58.5 -3.7 C53.97 -1.6, 48.19 2.03, 45.23 3.29 M45.23 3.29 C44.08 0.73, 44.47 -1.48, 44.61 -9.37 M45.23 3.29 C44.69 0.07, 45.65 -2.31, 44.61 -9.37 M44.61 -9.37 C47.92 -7.59, 52.58 -7.18, 58.5 -3.7 M44.61 -9.37 C47.57 -8.26, 50.85 -6.77, 58.5 -3.7 M58.5 -3.7 C58.5 -3.7, 58.5 -3.7, 58.5 -3.7 M58.5 -3.7 C58.5 -3.7, 58.5 -3.7, 58.5 -3.7" stroke="#1e1e1e" stroke-width="2" fill="none"></path></g></g><mask></mask><g stroke-linecap="round"><g transform="translate(876.8460084080075 167.52560193996248) rotate(0 -34.89670870479267 -21.611023716633852)"><path d="M0 0 C-25.86 -15.89, -51.67 -34.32, -69.79 -43.22 M0 0 C-25.78 -15.88, -51.78 -32.86, -69.79 -43.22" stroke="#1e1e1e" stroke-width="2" fill="none"></path></g><g transform="translate(876.8460084080075 167.52560193996248) rotate(0 -34.89670870479267 -21.611023716633852)"><path d="M-68.23 -44.92 L-54.44 -40.15 L-60.8 -32.12 L-70.05 -41.48" stroke="none" stroke-width="0" fill="#1e1e1e" fill-rule="evenodd"></path><path d="M-69.79 -43.22 C-63.49 -42.05, -57.16 -42.89, -54.88 -41.65 M-69.79 -43.22 C-64.48 -42.22, -59.6 -42.64, -54.88 -41.65 M-54.88 -41.65 C-57.01 -38.58, -58.8 -38.07, -61.41 -30.79 M-54.88 -41.65 C-56.89 -37.46, -60.28 -33.82, -61.41 -30.79 M-61.41 -30.79 C-62.38 -34.43, -66.06 -35.39, -69.79 -43.22 M-61.41 -30.79 C-64.9 -35.27, -66.88 -39.44, -69.79 -43.22 M-69.79 -43.22 C-69.79 -43.22, -69.79 -43.22, -69.79 -43.22 M-69.79 -43.22 C-69.79 -43.22, -69.79 -43.22, -69.79 -43.22" stroke="#1e1e1e" stroke-width="2" fill="none"></path></g></g><mask></mask><g transform="translate(522.7437591552734 217.90003967285156) rotate(0 234.375 48)"><text x="0" y="19.3125" font-family="Cascadia, Segoe UI Emoji" font-size="20px" fill="#1e1e1e" text-anchor="start" style="white-space: pre;" direction="ltr" dominant-baseline="alphabetic">grado_in:  0   0   0   1   2   1   1   1</text><text x="0" y="43.3125" font-family="Cascadia, Segoe UI Emoji" font-size="20px" fill="#1e1e1e" text-anchor="start" style="white-space: pre;" direction="ltr" dominant-baseline="alphabetic">          v1  v2  v3  v4  v5  v6  v7  v8</text><text x="0" y="67.3125" font-family="Cascadia, Segoe UI Emoji" font-size="20px" fill="#1e1e1e" text-anchor="start" style="white-space: pre;" direction="ltr" dominant-baseline="alphabetic">pila: v2 v3</text><text x="0" y="91.3125" font-family="Cascadia, Segoe UI Emoji" font-size="20px" fill="#1e1e1e" text-anchor="start" style="white-space: pre;" direction="ltr" dominant-baseline="alphabetic">result = v1</text></g><g transform="translate(523.5437469482422 11.000030517578125) rotate(0 35.15625 12)"><text x="0" y="19.3125" font-family="Cascadia, Segoe UI Emoji" font-size="20px" fill="#1e1e1e" text-anchor="start" style="white-space: pre;" direction="ltr" dominant-baseline="alphabetic">Paso 1</text></g><g stroke-linecap="round" transform="translate(59.600006103515625 411.1749687194824) rotate(0 26 21)"><path d="M36.77 0.93 C41.6 2.52, 46.56 8.25, 48.91 12.44 C51.26 16.62, 52.13 21.85, 50.87 26.02 C49.62 30.19, 45.89 34.7, 41.38 37.45 C36.87 40.2, 29.41 42.71, 23.79 42.52 C18.18 42.34, 11.67 39.45, 7.68 36.35 C3.69 33.24, 0.37 28.38, -0.14 23.9 C-0.66 19.42, 1.44 13.2, 4.59 9.45 C7.74 5.7, 13.08 2.5, 18.77 1.41 C24.46 0.33, 35.06 2.58, 38.73 2.93 C42.41 3.29, 41.14 3.29, 40.83 3.52 M35.07 0.82 C40.27 2.28, 46.6 7.16, 49.27 11.51 C51.94 15.86, 52.3 22.75, 51.09 26.92 C49.87 31.09, 46.63 34.1, 41.99 36.52 C37.36 38.95, 28.87 41.58, 23.29 41.47 C17.71 41.37, 12.43 38.82, 8.54 35.9 C4.64 32.99, 0.46 28.4, -0.09 23.97 C-0.65 19.53, 1.98 12.9, 5.19 9.29 C8.39 5.68, 14.01 3.54, 19.12 2.31 C24.24 1.07, 32.88 1.75, 35.89 1.89 C38.89 2.03, 37.11 2.71, 37.17 3.14" stroke="#e03131" stroke-width="2" fill="none"></path></g><g transform="translate(79.36323241717707 422.3257263145649) rotate(0 6.351997375488281 10)"><text x="6.351997375488281" y="14.016" font-family="Virgil, Segoe UI Emoji" font-size="16px" fill="#e03131" text-anchor="middle" style="white-space: pre;" direction="ltr" dominant-baseline="alphabetic">v1</text></g><g stroke-linecap="round" transform="translate(144.80007934570312 351.9749412536621) rotate(0 26 21)"><path d="M13.46 2.19 C18.12 -0.24, 26.2 -1.3, 31.68 -0.22 C37.16 0.85, 42.97 4.91, 46.34 8.63 C49.72 12.34, 52.14 17.53, 51.93 22.09 C51.73 26.64, 48.81 32.6, 45.1 35.95 C41.39 39.3, 35.19 41.58, 29.66 42.17 C24.13 42.76, 16.7 41.91, 11.93 39.49 C7.16 37.08, 2.71 32.17, 1.06 27.67 C-0.59 23.17, -0.52 16.97, 2.02 12.52 C4.55 8.06, 13.03 3.04, 16.27 0.97 C19.5 -1.11, 21.18 -0.18, 21.44 0.06 M17.99 2.01 C23.02 0.27, 31.48 -1.21, 36.47 0.26 C41.45 1.73, 45.36 6.67, 47.91 10.83 C50.47 14.99, 52.85 20.64, 51.79 25.21 C50.73 29.78, 45.89 35.46, 41.55 38.23 C37.21 41, 31.17 41.89, 25.74 41.84 C20.31 41.78, 13.29 40.9, 8.96 37.91 C4.64 34.92, 0.41 28.41, -0.23 23.89 C-0.87 19.36, 1.89 14.41, 5.12 10.73 C8.36 7.05, 16.76 3.14, 19.17 1.82 C21.58 0.49, 19.58 2.56, 19.58 2.78" stroke="#1e1e1e" stroke-width="2" fill="none"></path></g><g transform="translate(161.0353057814349 363.1256988487446) rotate(0 9.879997253417969 10)"><text x="9.879997253417969" y="14.016" font-family="Virgil, Segoe UI Emoji" font-size="16px" fill="#1e1e1e" text-anchor="middle" style="white-space: pre;" direction="ltr" dominant-baseline="alphabetic">v2</text></g><g stroke-linecap="round" transform="translate(128.79998779296875 476.7749443054199) rotate(0 26 21)"><path d="M22.2 0.81 C27.32 0.11, 34.95 1.13, 39.66 3.56 C44.37 5.99, 48.7 11.11, 50.44 15.38 C52.19 19.66, 52.21 25.06, 50.12 29.19 C48.04 33.32, 42.88 38.09, 37.93 40.17 C32.99 42.26, 25.81 42.83, 20.44 41.69 C15.07 40.55, 9.24 36.93, 5.71 33.32 C2.17 29.7, -1.05 24.53, -0.76 20.01 C-0.47 15.48, 3.07 9.64, 7.44 6.17 C11.82 2.69, 22.02 0.1, 25.47 -0.84 C28.93 -1.77, 28.17 0.09, 28.18 0.55 M33.71 0.77 C38.78 2.14, 45.97 6.06, 48.91 10.13 C51.85 14.2, 52.23 20.72, 51.34 25.19 C50.46 29.66, 47.75 33.89, 43.62 36.93 C39.49 39.97, 32.36 43.38, 26.56 43.43 C20.77 43.49, 13.04 40.21, 8.86 37.26 C4.67 34.3, 2.18 30.01, 1.44 25.69 C0.71 21.38, 1.63 15.2, 4.44 11.37 C7.26 7.53, 13.21 4.34, 18.31 2.68 C23.41 1.02, 32.36 1.52, 35.06 1.4 C37.75 1.28, 34.81 1.88, 34.49 1.96" stroke="#e03131" stroke-width="2" fill="none"></path></g><g transform="translate(145.28321532733332 487.9257019005024) rotate(0 9.631996154785156 10)"><text x="9.631996154785156" y="14.016" font-family="Virgil, Segoe UI Emoji" font-size="16px" fill="#e03131" text-anchor="middle" style="white-space: pre;" direction="ltr" dominant-baseline="alphabetic">v3</text></g><g stroke-linecap="round" transform="translate(240.79995727539062 488.774959564209) rotate(0 26 21)"><path d="M33.33 1.85 C38.49 2.83, 44.76 6.2, 47.78 9.93 C50.81 13.66, 52.18 19.78, 51.47 24.2 C50.76 28.63, 47.5 33.63, 43.51 36.48 C39.52 39.34, 33.18 41.15, 27.53 41.31 C21.87 41.47, 13.93 40.19, 9.59 37.46 C5.25 34.73, 2.63 29.38, 1.49 24.91 C0.34 20.44, 0.44 14.51, 2.72 10.64 C5.01 6.77, 9.69 3.21, 15.21 1.69 C20.74 0.16, 31.98 1.22, 35.89 1.46 C39.8 1.71, 38.99 2.95, 38.68 3.17 M21.53 0.84 C26.78 -0.08, 35.23 0.36, 40.16 2.8 C45.08 5.24, 49.46 11.19, 51.08 15.49 C52.7 19.79, 51.76 24.43, 49.88 28.58 C47.99 32.72, 44.39 38.02, 39.77 40.34 C35.15 42.66, 27.59 43.26, 22.15 42.49 C16.71 41.71, 10.77 39.31, 7.11 35.71 C3.45 32.11, 0.36 25.57, 0.19 20.89 C0.02 16.21, 2.62 11.28, 6.09 7.62 C9.55 3.96, 18.57 0.32, 20.98 -1.06 C23.39 -2.45, 20.44 -1.42, 20.55 -0.69" stroke="#1e1e1e" stroke-width="2" fill="none"></path></g><g transform="translate(257.6111877394428 499.9257171592915) rotate(0 9.303993225097656 10)"><text x="9.303993225097656" y="14.016" font-family="Virgil, Segoe UI Emoji" font-size="16px" fill="#1e1e1e" text-anchor="middle" style="white-space: pre;" direction="ltr" dominant-baseline="alphabetic">v6</text></g><g stroke-linecap="round" transform="translate(247.99996948242188 406.37495040893555) rotate(0 26 21)"><path d="M37.35 2.9 C42.19 4.54, 47.37 8.92, 49.65 12.84 C51.93 16.75, 52.74 22.15, 51.05 26.38 C49.36 30.61, 44.04 35.79, 39.49 38.23 C34.95 40.68, 29.2 41.64, 23.78 41.03 C18.36 40.42, 11.03 37.69, 6.97 34.56 C2.91 31.42, -0.25 26.59, -0.57 22.21 C-0.88 17.84, 1.55 11.86, 5.1 8.31 C8.64 4.76, 14.96 1.81, 20.72 0.9 C26.48 -0.02, 36.03 2.01, 39.66 2.83 C43.3 3.65, 42.65 5.44, 42.52 5.83 M31.39 1.8 C36.43 2.39, 42.08 4.46, 45.69 7.87 C49.29 11.29, 52.88 17.69, 53.04 22.3 C53.2 26.92, 50.27 32.09, 46.67 35.56 C43.06 39.03, 37.03 42.53, 31.41 43.14 C25.78 43.74, 17.92 41.67, 12.89 39.19 C7.86 36.7, 3.26 32.72, 1.25 28.23 C-0.75 23.73, -0.92 16.71, 0.87 12.22 C2.66 7.73, 7.07 3.11, 11.97 1.3 C16.87 -0.52, 26.9 1.58, 30.27 1.31 C33.65 1.04, 32.16 -0.33, 32.22 -0.32" stroke="#1e1e1e" stroke-width="2" fill="none"></path></g><g transform="translate(264.98720244891547 417.52570800401804) rotate(0 9.12799072265625 10)"><text x="9.12799072265625" y="14.016" font-family="Virgil, Segoe UI Emoji" font-size="16px" fill="#1e1e1e" text-anchor="middle" style="white-space: pre;" direction="ltr" dominant-baseline="alphabetic">v5</text></g><g stroke-linecap="round" transform="translate(355.1999816894531 482.37502670288086) rotate(0 26 21)"><path d="M34.57 0.47 C39.6 1.53, 44.5 6.01, 47.49 9.84 C50.48 13.66, 53.25 19.07, 52.5 23.43 C51.75 27.78, 47.42 32.89, 42.99 35.99 C38.55 39.08, 31.45 41.8, 25.89 42.01 C20.32 42.21, 13.73 39.98, 9.61 37.2 C5.49 34.43, 2.39 29.89, 1.18 25.37 C-0.03 20.85, -0.18 14.03, 2.34 10.08 C4.87 6.13, 10.54 3.04, 16.32 1.68 C22.1 0.31, 33.06 1.47, 37.01 1.89 C40.95 2.31, 40.16 3.8, 40 4.2 M39 3.38 C44.09 5.23, 48.8 9.56, 50.97 13.78 C53.15 17.99, 53.84 24.51, 52.04 28.69 C50.24 32.86, 45.13 36.59, 40.2 38.83 C35.27 41.07, 28.15 42.96, 22.46 42.13 C16.76 41.31, 10.01 37.47, 6.05 33.88 C2.09 30.28, -1.09 24.69, -1.3 20.57 C-1.51 16.46, 0.92 12.72, 4.77 9.19 C8.61 5.66, 16.21 0.72, 21.79 -0.59 C27.38 -1.91, 35.62 0.6, 38.28 1.29 C40.94 1.99, 37.87 3.02, 37.75 3.6" stroke="#1e1e1e" stroke-width="2" fill="none"></path></g><g transform="translate(372.82721404559516 493.52578429796336) rotate(0 8.487991333007812 10)"><text x="8.487991333007812" y="14.016" font-family="Virgil, Segoe UI Emoji" font-size="16px" fill="#1e1e1e" text-anchor="middle" style="white-space: pre;" direction="ltr" dominant-baseline="alphabetic">v7</text></g><g stroke-linecap="round" transform="translate(381.6000061035156 378.3749656677246) rotate(0 26 21)"><path d="M18.38 0.31 C23.39 -1.42, 30.28 -1.2, 35.24 0.56 C40.2 2.32, 45.44 6.79, 48.14 10.85 C50.85 14.9, 52.31 20.42, 51.46 24.89 C50.6 29.36, 47.51 34.95, 43.04 37.67 C38.57 40.39, 30.36 41.32, 24.62 41.22 C18.88 41.13, 12.69 39.96, 8.6 37.11 C4.51 34.25, 0.83 28.48, 0.08 24.09 C-0.67 19.7, 0.52 14.66, 4.1 10.76 C7.68 6.85, 17.78 2.43, 21.57 0.65 C25.37 -1.12, 26.75 -0.28, 26.85 0.12 M35.96 2.63 C40.92 3.69, 46.04 6.82, 48.62 10.52 C51.2 14.22, 52.53 20.63, 51.43 24.82 C50.34 29.01, 46.46 33.02, 42.03 35.66 C37.59 38.29, 30.38 40.21, 24.84 40.62 C19.31 41.03, 12.67 40.94, 8.84 38.12 C5.02 35.29, 2.75 28.44, 1.9 23.68 C1.04 18.92, 1.21 13.14, 3.72 9.56 C6.23 5.98, 11.68 3.49, 16.97 2.19 C22.27 0.88, 32.57 1.85, 35.49 1.74 C38.4 1.63, 34.62 1.13, 34.44 1.54" stroke="#1e1e1e" stroke-width="2" fill="none"></path></g><g transform="translate(397.4112365675678 389.5257232628071) rotate(0 10.303993225097656 10)"><text x="10.303993225097656" y="14.016" font-family="Virgil, Segoe UI Emoji" font-size="16px" fill="#1e1e1e" text-anchor="middle" style="white-space: pre;" direction="ltr" dominant-baseline="alphabetic">v8</text></g><g stroke-linecap="round" transform="translate(246.39999389648438 333.5749626159668) rotate(0 26 21)"><path d="M14.95 1.78 C19.67 -0.07, 27.68 -0.61, 33.25 0.71 C38.81 2.03, 45.38 6.05, 48.33 9.69 C51.28 13.33, 51.73 18.08, 50.95 22.54 C50.16 27, 47.55 33.25, 43.63 36.46 C39.71 39.67, 32.88 41.44, 27.43 41.78 C21.99 42.12, 15.44 41.09, 10.97 38.51 C6.51 35.94, 1.86 30.85, 0.64 26.33 C-0.58 21.8, 0.35 15.58, 3.65 11.39 C6.96 7.2, 16.73 2.91, 20.47 1.19 C24.21 -0.53, 25.91 0.71, 26.08 1.07 M37.57 2.58 C42.27 4.03, 47.1 7.56, 49.1 11.42 C51.1 15.28, 51.13 21.04, 49.55 25.72 C47.97 30.41, 43.82 37.03, 39.62 39.53 C35.42 42.04, 29.73 41.62, 24.35 40.75 C18.96 39.87, 11.38 37.24, 7.34 34.29 C3.29 31.33, 0.29 27.23, 0.06 23.01 C-0.17 18.78, 2.64 12.67, 5.96 8.91 C9.29 5.16, 14.6 1.41, 19.99 0.47 C25.39 -0.48, 35.27 2.78, 38.33 3.24 C41.38 3.7, 38.78 3.18, 38.33 3.25" stroke="#1e1e1e" stroke-width="2" fill="none"></path></g><g transform="translate(263.21122436053656 344.7257202110493) rotate(0 9.303993225097656 10)"><text x="9.303993225097656" y="14.016" font-family="Virgil, Segoe UI Emoji" font-size="16px" fill="#1e1e1e" text-anchor="middle" style="white-space: pre;" direction="ltr" dominant-baseline="alphabetic">v4</text></g><g stroke-linecap="round"><g transform="translate(102.77128957347975 414.3946318238211) rotate(0 22.292697046657025 -15.252909365055785)"><path d="M0 0 C9.1 -6.43, 19.34 -13.21, 44.59 -30.51 M0 0 C16.04 -11.24, 33.05 -22.47, 44.59 -30.51" stroke="#e03131" stroke-width="2" fill="none"></path></g><g transform="translate(102.77128957347975 414.3946318238211) rotate(0 22.292697046657025 -15.252909365055785)"><path d="M44.22 -30.08 L36.89 -18.35 L28.81 -27.38 L44.68 -31.26" stroke="none" stroke-width="0" fill="#e03131" fill-rule="evenodd"></path><path d="M44.59 -30.51 C42.46 -27.72, 41.22 -25.03, 36.96 -17.59 M44.59 -30.51 C41.5 -25.89, 39.07 -21.08, 36.96 -17.59 M36.96 -17.59 C34.85 -20.29, 33.5 -23.66, 29.79 -28.05 M36.96 -17.59 C34.9 -20.64, 32.73 -23.76, 29.79 -28.05 M29.79 -28.05 C34.56 -29.22, 38.36 -30.24, 44.59 -30.51 M29.79 -28.05 C33.24 -28.88, 36.03 -29.38, 44.59 -30.51 M44.59 -30.51 C44.59 -30.51, 44.59 -30.51, 44.59 -30.51 M44.59 -30.51 C44.59 -30.51, 44.59 -30.51, 44.59 -30.51" stroke="#e03131" stroke-width="2" fill="none"></path></g></g><mask></mask><g stroke-linecap="round"><g transform="translate(104.09151482585503 449.293321914118) rotate(0 14.824876249154386 17.3565868331674)"><path d="M0 0 C6.23 7.35, 13.39 15.32, 29.65 34.71 M0 0 C6.24 7.24, 12.26 14.85, 29.65 34.71" stroke="#e03131" stroke-width="2" fill="none"></path></g><g transform="translate(104.09151482585503 449.293321914118) rotate(0 14.824876249154386 17.3565868331674)"><path d="M29.58 33.95 L14.98 29.25 L25.64 19.53 L29.61 34.37" stroke="none" stroke-width="0" fill="#e03131" fill-rule="evenodd"></path><path d="M29.65 34.71 C26.67 33.29, 24.28 32.32, 15.96 28.59 M29.65 34.71 C26.89 33.31, 23.84 32.25, 15.96 28.59 M15.96 28.59 C20.01 25.4, 22.91 23.05, 25.54 20.29 M15.96 28.59 C19.72 25.8, 23.03 22.47, 25.54 20.29 M25.54 20.29 C26.07 23.77, 27.22 28.28, 29.65 34.71 M25.54 20.29 C27.18 25.27, 28.6 30.99, 29.65 34.71 M29.65 34.71 C29.65 34.71, 29.65 34.71, 29.65 34.71 M29.65 34.71 C29.65 34.71, 29.65 34.71, 29.65 34.71" stroke="#e03131" stroke-width="2" fill="none"></path></g></g><mask></mask><g stroke-linecap="round"><g transform="translate(196.03532843912785 365.15177682305875) rotate(0 24.822943364161233 -3.704914388717782)"><path d="M0 0 C15.64 -1.86, 28.99 -5.2, 49.65 -7.41 M0 0 C13.18 -1.74, 26.85 -3.95, 49.65 -7.41" stroke="#1e1e1e" stroke-width="2" fill="none"></path></g><g transform="translate(196.03532843912785 365.15177682305875) rotate(0 24.822943364161233 -3.704914388717782)"><path d="M48.67 -6.74 L37.26 0.15 L35.21 -11.96 L49.37 -7.85" stroke="none" stroke-width="0" fill="#1e1e1e" fill-rule="evenodd"></path><path d="M49.65 -7.41 C46.41 -4.66, 41.46 -2.99, 37.17 0.91 M49.65 -7.41 C46.25 -5.06, 43.2 -3.01, 37.17 0.91 M37.17 0.91 C36.53 -2.86, 36.25 -7.1, 35.25 -11.62 M37.17 0.91 C36.47 -3.52, 35.71 -7.95, 35.25 -11.62 M35.25 -11.62 C38.07 -10.81, 42.77 -8.75, 49.65 -7.41 M35.25 -11.62 C38.52 -10.4, 41.97 -9.53, 49.65 -7.41 M49.65 -7.41 C49.65 -7.41, 49.65 -7.41, 49.65 -7.41 M49.65 -7.41 C49.65 -7.41, 49.65 -7.41, 49.65 -7.41" stroke="#1e1e1e" stroke-width="2" fill="none"></path></g></g><mask></mask><g stroke-linecap="round"><g transform="translate(191.55163484670527 390.3484913981308) rotate(0 28.248121160231676 15.478416082814931)"><path d="M0 0 C14.61 7.13, 31.93 18.09, 56.5 30.96 M0 0 C16.17 8.26, 31.58 17.88, 56.5 30.96" stroke="#1e1e1e" stroke-width="2" fill="none"></path></g><g transform="translate(191.55163484670527 390.3484913981308) rotate(0 28.248121160231676 15.478416082814931)"><path d="M56.69 29.44 L41.44 29.38 L47 18.03 L57.6 29.56" stroke="none" stroke-width="0" fill="#1e1e1e" fill-rule="evenodd"></path><path d="M56.5 30.96 C50.86 29.59, 47.43 30.9, 41.52 30.06 M56.5 30.96 C52.8 30.69, 48.48 31.24, 41.52 30.06 M41.52 30.06 C44.01 27.83, 45.49 25.04, 47.56 18.91 M41.52 30.06 C43.8 25.8, 45.92 20.71, 47.56 18.91 M47.56 18.91 C50.28 22.97, 50.13 24.36, 56.5 30.96 M47.56 18.91 C49.99 21.88, 51.6 24.35, 56.5 30.96 M56.5 30.96 C56.5 30.96, 56.5 30.96, 56.5 30.96 M56.5 30.96 C56.5 30.96, 56.5 30.96, 56.5 30.96" stroke="#1e1e1e" stroke-width="2" fill="none"></path></g></g><mask></mask><g stroke-linecap="round"><g transform="translate(304.3965286444163 423.9758107274215) rotate(0 38.00521787960645 -9.201267854380546)"><path d="M0 0 C24.85 -5, 50.38 -12.04, 76.01 -18.4 M0 0 C25.91 -5.18, 50.91 -12.25, 76.01 -18.4" stroke="#1e1e1e" stroke-width="2" fill="none"></path></g><g transform="translate(304.3965286444163 423.9758107274215) rotate(0 38.00521787960645 -9.201267854380546)"><path d="M75.93 -19.08 L63.83 -9.81 L62.38 -22.61 L76.72 -16.87" stroke="none" stroke-width="0" fill="#1e1e1e" fill-rule="evenodd"></path><path d="M76.01 -18.4 C71.56 -14.92, 67.82 -12.44, 64.38 -8.93 M76.01 -18.4 C72.41 -14.5, 67.99 -11.94, 64.38 -8.93 M64.38 -8.93 C63.87 -12.41, 63.19 -17.83, 61.28 -21.22 M64.38 -8.93 C63.09 -13.29, 61.92 -17.11, 61.28 -21.22 M61.28 -21.22 C64.05 -20.3, 67.94 -19.86, 76.01 -18.4 M61.28 -21.22 C66.51 -20.3, 72.12 -18.77, 76.01 -18.4 M76.01 -18.4 C76.01 -18.4, 76.01 -18.4, 76.01 -18.4 M76.01 -18.4 C76.01 -18.4, 76.01 -18.4, 76.01 -18.4" stroke="#1e1e1e" stroke-width="2" fill="none"></path></g></g><mask></mask><g stroke-linecap="round"><g transform="translate(182.6770303394701 504.659934526304) rotate(0 27.943685668235503 1.7320186367032306)"><path d="M0 0 C11.98 0.27, 25.65 2.58, 55.89 3.46 M0 0 C15.95 0.58, 33.18 2.16, 55.89 3.46" stroke="#e03131" stroke-width="2" fill="none"></path></g><g transform="translate(182.6770303394701 504.659934526304) rotate(0 27.943685668235503 1.7320186367032306)"><path d="M55.34 2.58 L43.02 7.53 L43.44 -2.19 L54.96 1.68" stroke="none" stroke-width="0" fill="#e03131" fill-rule="evenodd"></path><path d="M55.89 3.46 C52.41 4.45, 50.21 6.82, 41.92 8.93 M55.89 3.46 C51.62 5.26, 48.31 7.29, 41.92 8.93 M41.92 8.93 C43.33 4.46, 42.55 -0.48, 42.72 -3.73 M41.92 8.93 C41.68 4.3, 42.26 1.22, 42.72 -3.73 M42.72 -3.73 C46.85 -0.87, 54.02 2.72, 55.89 3.46 M42.72 -3.73 C47.41 -0.83, 51.93 1.4, 55.89 3.46 M55.89 3.46 C55.89 3.46, 55.89 3.46, 55.89 3.46 M55.89 3.46 C55.89 3.46, 55.89 3.46, 55.89 3.46" stroke="#e03131" stroke-width="2" fill="none"></path></g></g><mask></mask><g stroke-linecap="round"><g transform="translate(295.59289013266425 508.9816775590473) rotate(0 29.249099939530424 -1.8491330101048788)"><path d="M0 0 C19.9 0.08, 38.1 -1.6, 58.5 -3.7 M0 0 C23.85 -0.84, 46.94 -2.42, 58.5 -3.7" stroke="#1e1e1e" stroke-width="2" fill="none"></path></g><g transform="translate(295.59289013266425 508.9816775590473) rotate(0 29.249099939530424 -1.8491330101048788)"><path d="M59.6 -5.09 L46.25 5.38 L43.45 -10.56 L57.85 -4.58" stroke="none" stroke-width="0" fill="#1e1e1e" fill-rule="evenodd"></path><path d="M58.5 -3.7 C54.8 -0.37, 49.85 1.76, 45.53 3.85 M58.5 -3.7 C53.87 -0.19, 48.7 2.71, 45.53 3.85 M45.53 3.85 C45.1 -1.14, 44.8 -6.48, 44.39 -8.78 M45.53 3.85 C45.16 1.57, 45.78 -1.95, 44.39 -8.78 M44.39 -8.78 C49.76 -6.39, 53.94 -5.63, 58.5 -3.7 M44.39 -8.78 C48.96 -7.07, 52.25 -6.14, 58.5 -3.7 M58.5 -3.7 C58.5 -3.7, 58.5 -3.7, 58.5 -3.7 M58.5 -3.7 C58.5 -3.7, 58.5 -3.7, 58.5 -3.7" stroke="#1e1e1e" stroke-width="2" fill="none"></path></g></g><mask></mask><g stroke-linecap="round"><g transform="translate(364.10224925273405 485.1005187795621) rotate(0 -34.89670870479267 -21.611023716633838)"><path d="M0 0 C-20.05 -11.07, -37.65 -24.59, -69.79 -43.22 M0 0 C-21.32 -12.38, -42.83 -25.43, -69.79 -43.22" stroke="#1e1e1e" stroke-width="2" fill="none"></path></g><g transform="translate(364.10224925273405 485.1005187795621) rotate(0 -34.89670870479267 -21.611023716633838)"><path d="M-69.08 -41.69 L-55.87 -42.94 L-62.48 -31.4 L-71.23 -44.83" stroke="none" stroke-width="0" fill="#1e1e1e" fill-rule="evenodd"></path><path d="M-69.79 -43.22 C-65.73 -42.19, -59.96 -42.59, -54.94 -41.16 M-69.79 -43.22 C-64.68 -42.26, -59.94 -41.34, -54.94 -41.16 M-54.94 -41.16 C-56.82 -38.53, -60.36 -35.64, -61.82 -30.51 M-54.94 -41.16 C-55.79 -39.37, -57.71 -37.14, -61.82 -30.51 M-61.82 -30.51 C-63.78 -34.42, -66.79 -37.58, -69.79 -43.22 M-61.82 -30.51 C-65.28 -35.38, -67.08 -39.69, -69.79 -43.22 M-69.79 -43.22 C-69.79 -43.22, -69.79 -43.22, -69.79 -43.22 M-69.79 -43.22 C-69.79 -43.22, -69.79 -43.22, -69.79 -43.22" stroke="#1e1e1e" stroke-width="2" fill="none"></path></g></g><mask></mask><g transform="translate(10 535.4749565124512) rotate(0 234.375 48)"><text x="0" y="19.3125" font-family="Cascadia, Segoe UI Emoji" font-size="20px" fill="#1e1e1e" text-anchor="start" style="white-space: pre;" direction="ltr" dominant-baseline="alphabetic">grado_in:  0   0   0   1   2   0   1   1</text><text x="0" y="43.3125" font-family="Cascadia, Segoe UI Emoji" font-size="20px" fill="#1e1e1e" text-anchor="start" style="white-space: pre;" direction="ltr" dominant-baseline="alphabetic">          v1  v2  v3  v4  v5  v6  v7  v8</text><text x="0" y="67.3125" font-family="Cascadia, Segoe UI Emoji" font-size="20px" fill="#1e1e1e" text-anchor="start" style="white-space: pre;" direction="ltr" dominant-baseline="alphabetic">pila: v2 v6</text><text x="0" y="91.3125" font-family="Cascadia, Segoe UI Emoji" font-size="20px" fill="#1e1e1e" text-anchor="start" style="white-space: pre;" direction="ltr" dominant-baseline="alphabetic">result = v1 v3</text></g><g transform="translate(10.79998779296875 328.57494735717773) rotate(0 35.15625 12)"><text x="0" y="19.3125" font-family="Cascadia, Segoe UI Emoji" font-size="20px" fill="#1e1e1e" text-anchor="start" style="white-space: pre;" direction="ltr" dominant-baseline="alphabetic">Paso 2</text></g><g stroke-linecap="round" transform="translate(572.3999938964844 409.17499923706055) rotate(0 26 21)"><path d="M37.33 1.77 C42.31 3.36, 47.64 7.39, 49.8 11.51 C51.96 15.62, 51.87 22.18, 50.3 26.47 C48.74 30.75, 44.84 34.72, 40.42 37.2 C36 39.68, 29.07 41.55, 23.78 41.35 C18.48 41.14, 12.61 39.01, 8.64 35.97 C4.67 32.92, 0.63 27.38, -0.05 23.06 C-0.73 18.74, 1.32 13.62, 4.54 10.03 C7.75 6.45, 13.62 2.75, 19.24 1.57 C24.86 0.38, 34.76 2.64, 38.26 2.93 C41.75 3.22, 40.25 3.14, 40.18 3.32 M23.05 -0.06 C27.93 -0.95, 35.25 0.65, 40.14 3.33 C45.03 6.01, 50.75 11.41, 52.41 16.01 C54.07 20.61, 52.93 26.83, 50.1 30.94 C47.26 35.05, 40.39 38.89, 35.41 40.68 C30.42 42.47, 25.3 42.94, 20.17 41.68 C15.04 40.43, 8.22 37.02, 4.64 33.15 C1.06 29.27, -2.07 22.98, -1.31 18.43 C-0.54 13.89, 4.79 8.8, 9.23 5.87 C13.67 2.95, 22.96 1.98, 25.32 0.91 C27.68 -0.17, 23.56 -1, 23.4 -0.58" stroke="#e03131" stroke-width="2" fill="none"></path></g><g transform="translate(592.1632202101458 420.32575683214304) rotate(0 6.351997375488281 10)"><text x="6.351997375488281" y="14.016" font-family="Virgil, Segoe UI Emoji" font-size="16px" fill="#e03131" text-anchor="middle" style="white-space: pre;" direction="ltr" dominant-baseline="alphabetic">v1</text></g><g stroke-linecap="round" transform="translate(657.6000671386719 349.97497177124023) rotate(0 26 21)"><path d="M23.84 0.28 C28.92 -0.27, 36.44 0.82, 40.98 3.4 C45.52 5.98, 49.61 11.23, 51.1 15.75 C52.6 20.27, 52.48 26.44, 49.95 30.54 C47.42 34.64, 41.18 38.45, 35.91 40.35 C30.64 42.25, 23.57 43.15, 18.32 41.95 C13.07 40.75, 7.43 37.03, 4.4 33.17 C1.36 29.31, -0.64 23.43, 0.11 18.78 C0.85 14.14, 4.07 8.48, 8.87 5.3 C13.67 2.12, 25.16 0.3, 28.89 -0.3 C32.63 -0.9, 31.31 1.4, 31.29 1.7 M26.17 0.16 C31.74 -0.04, 38.61 2.36, 42.61 5.18 C46.61 7.99, 48.9 12.71, 50.17 17.06 C51.45 21.41, 52.64 27.3, 50.28 31.26 C47.92 35.21, 41.61 39.24, 36.01 40.79 C30.4 42.35, 21.74 42.02, 16.63 40.57 C11.53 39.13, 7.89 35.74, 5.35 32.15 C2.82 28.56, 1.04 23.65, 1.44 19.03 C1.84 14.4, 3.83 7.36, 7.76 4.41 C11.69 1.45, 22.28 1.79, 25.03 1.3 C27.78 0.8, 24.31 1.38, 24.27 1.42" stroke="#1e1e1e" stroke-width="2" fill="none"></path></g><g transform="translate(673.8352935744036 361.12572936632273) rotate(0 9.879997253418026 10)"><text x="9.879997253417969" y="14.016" font-family="Virgil, Segoe UI Emoji" font-size="16px" fill="#1e1e1e" text-anchor="middle" style="white-space: pre;" direction="ltr" dominant-baseline="alphabetic">v2</text></g><g stroke-linecap="round" transform="translate(641.5999755859375 474.77497482299805) rotate(0 26 21)"><path d="M29.08 -0.42 C34.63 0, 42.16 3.32, 45.94 6.72 C49.73 10.13, 51.68 15.38, 51.8 20.03 C51.92 24.68, 49.98 30.92, 46.67 34.63 C43.36 38.34, 37.39 41.37, 31.94 42.28 C26.49 43.19, 18.86 42.31, 13.96 40.06 C9.06 37.81, 4.55 33.07, 2.55 28.79 C0.54 24.51, 0.38 18.47, 1.92 14.36 C3.47 10.25, 6.93 6.58, 11.83 4.12 C16.72 1.66, 28.03 0.26, 31.29 -0.4 C34.56 -1.05, 31.7 -0.41, 31.42 0.18 M26.03 0.54 C31.42 0.43, 40.61 3.04, 44.93 6.07 C49.25 9.1, 51.7 14.41, 51.95 18.72 C52.2 23.03, 49.24 28.23, 46.42 31.94 C43.6 35.66, 39.92 39.45, 35.04 41 C30.16 42.54, 22.62 43.12, 17.14 41.22 C11.65 39.31, 4.87 33.49, 2.13 29.56 C-0.61 25.63, -0.54 21.68, 0.7 17.64 C1.94 13.59, 5.17 8.29, 9.54 5.27 C13.92 2.24, 24.19 0.29, 26.94 -0.5 C29.68 -1.29, 26.16 0.04, 26 0.51" stroke="#e03131" stroke-width="2" fill="none"></path></g><g transform="translate(658.0832031203021 485.92573241808054) rotate(0 9.631996154785213 10)"><text x="9.631996154785156" y="14.016" font-family="Virgil, Segoe UI Emoji" font-size="16px" fill="#e03131" text-anchor="middle" style="white-space: pre;" direction="ltr" dominant-baseline="alphabetic">v3</text></g><g stroke-linecap="round" transform="translate(753.5999450683594 486.7749900817871) rotate(0 26 21)"><path d="M18.26 0.9 C23.1 -0.44, 31.01 0.67, 36.2 2.57 C41.39 4.47, 46.93 8.35, 49.43 12.29 C51.94 16.22, 52.44 21.96, 51.23 26.17 C50.02 30.37, 46.47 34.93, 42.16 37.5 C37.84 40.07, 31.01 41.66, 25.34 41.59 C19.66 41.53, 12.14 40.27, 8.09 37.14 C4.04 34.01, 1.67 27.54, 1.01 22.81 C0.35 18.09, 0.97 12.4, 4.14 8.81 C7.31 5.22, 16.93 2.57, 20.01 1.28 C23.09 -0.01, 22.39 1, 22.64 1.08 M30.63 0.67 C35.45 0.99, 40.66 3.67, 44.45 7.05 C48.23 10.42, 52.89 16.19, 53.34 20.9 C53.79 25.62, 51.07 32.04, 47.15 35.32 C43.23 38.61, 35.48 39.76, 29.81 40.62 C24.13 41.48, 17.92 42.39, 13.1 40.49 C8.27 38.58, 2.83 33.73, 0.86 29.2 C-1.12 24.68, -0.58 17.71, 1.23 13.33 C3.04 8.94, 7.05 5.03, 11.73 2.9 C16.41 0.77, 26.11 0.87, 29.31 0.53 C32.51 0.19, 30.64 0.38, 30.93 0.85" stroke="#e03131" stroke-width="2" fill="none"></path></g><g transform="translate(770.4111755324116 497.9257476768696) rotate(0 9.303993225097656 10)"><text x="9.303993225097656" y="14.016" font-family="Virgil, Segoe UI Emoji" font-size="16px" fill="#e03131" text-anchor="middle" style="white-space: pre;" direction="ltr" dominant-baseline="alphabetic">v6</text></g><g stroke-linecap="round" transform="translate(760.7999572753906 404.3749809265137) rotate(0 26 21)"><path d="M26.19 0.79 C31.47 0.43, 38.25 2.59, 42.58 5.29 C46.9 8, 51.02 12.72, 52.14 17.02 C53.26 21.32, 52.17 27, 49.28 31.09 C46.39 35.17, 40.02 40.03, 34.8 41.52 C29.58 43.01, 23.21 41.82, 17.98 40.04 C12.75 38.26, 6.44 34.46, 3.43 30.81 C0.43 27.17, -1.03 22.43, -0.04 18.19 C0.94 13.96, 4.41 8.55, 9.34 5.41 C14.28 2.26, 25.73 -0.08, 29.56 -0.68 C33.38 -1.27, 32.39 1.33, 32.3 1.84 M30.45 0.09 C36.18 0.55, 42.71 4.38, 46.17 7.49 C49.64 10.61, 51.09 14.24, 51.21 18.8 C51.32 23.36, 50.2 30.94, 46.86 34.88 C43.52 38.82, 36.67 41.72, 31.18 42.44 C25.69 43.16, 18.98 41.39, 13.93 39.21 C8.88 37.02, 3.19 33.34, 0.86 29.32 C-1.47 25.31, -1.96 19.42, -0.04 15.12 C1.87 10.83, 7.31 5.88, 12.34 3.54 C17.37 1.2, 27.44 1.35, 30.13 1.11 C32.81 0.86, 28.51 1.99, 28.44 2.06" stroke="#1e1e1e" stroke-width="2" fill="none"></path></g><g transform="translate(777.7871902418842 415.52573852159617) rotate(0 9.12799072265625 10)"><text x="9.12799072265625" y="14.016" font-family="Virgil, Segoe UI Emoji" font-size="16px" fill="#1e1e1e" text-anchor="middle" style="white-space: pre;" direction="ltr" dominant-baseline="alphabetic">v5</text></g><g stroke-linecap="round" transform="translate(867.9999694824219 480.375057220459) rotate(0 26 21)"><path d="M36.54 1.32 C41.69 2.59, 47.38 6.79, 49.83 10.97 C52.27 15.14, 52.43 22.05, 51.23 26.39 C50.02 30.72, 47.02 34.5, 42.61 36.98 C38.19 39.45, 30.51 41.21, 24.74 41.25 C18.96 41.3, 12.04 40.1, 7.97 37.25 C3.9 34.4, 0.87 28.9, 0.31 24.17 C-0.24 19.43, 1.58 12.59, 4.62 8.86 C7.67 5.13, 12.45 2.62, 18.58 1.81 C24.7 0.99, 36.94 3.24, 41.38 3.99 C45.82 4.74, 45.58 5.9, 45.23 6.32 M24.73 -1.05 C29.83 -1.33, 38.03 2.77, 42.37 5.93 C46.71 9.09, 49.77 13.82, 50.78 17.93 C51.8 22.05, 51.22 26.82, 48.45 30.61 C45.67 34.4, 39.48 38.91, 34.14 40.66 C28.81 42.4, 21.4 42.53, 16.43 41.09 C11.46 39.64, 6.81 35.71, 4.3 31.98 C1.78 28.25, 0.67 22.94, 1.33 18.72 C2 14.5, 4.11 9.91, 8.29 6.68 C12.47 3.44, 23.79 0.45, 26.41 -0.69 C29.04 -1.82, 24.03 -0.7, 24.04 -0.14" stroke="#1e1e1e" stroke-width="2" fill="none"></path></g><g transform="translate(885.6272018385639 491.5258148155415) rotate(0 8.487991333007812 10)"><text x="8.487991333007812" y="14.016" font-family="Virgil, Segoe UI Emoji" font-size="16px" fill="#1e1e1e" text-anchor="middle" style="white-space: pre;" direction="ltr" dominant-baseline="alphabetic">v7</text></g><g stroke-linecap="round" transform="translate(894.3999938964844 376.37499618530273) rotate(0 26 21)"><path d="M22.05 1.03 C27.25 0.08, 35.68 0.3, 40.44 2.4 C45.19 4.5, 49.04 9.12, 50.59 13.64 C52.14 18.16, 51.77 25.14, 49.75 29.52 C47.73 33.9, 43.21 38.06, 38.47 39.93 C33.73 41.81, 26.72 41.59, 21.3 40.75 C15.89 39.91, 9.47 38.27, 5.97 34.89 C2.48 31.52, 0.19 25.32, 0.33 20.52 C0.47 15.73, 2.2 9.36, 6.79 6.1 C11.38 2.84, 23.36 1.61, 27.86 0.97 C32.36 0.32, 33.69 2.1, 33.79 2.22 M16.36 2.26 C21.15 0.24, 29.39 -0.65, 34.55 0.73 C39.7 2.11, 44.62 6.53, 47.27 10.55 C49.92 14.57, 51.11 20.4, 50.45 24.84 C49.78 29.28, 47.18 34.18, 43.28 37.2 C39.38 40.22, 32.81 42.72, 27.05 42.96 C21.28 43.19, 12.99 41.76, 8.7 38.59 C4.42 35.43, 2.44 28.75, 1.32 23.97 C0.21 19.2, -0.77 13.65, 2.01 9.95 C4.8 6.26, 15.63 3.1, 18.03 1.82 C20.44 0.55, 16.34 1.87, 16.45 2.29" stroke="#1e1e1e" stroke-width="2" fill="none"></path></g><g transform="translate(910.2112243605366 387.52575378038523) rotate(0 10.303993225097656 10)"><text x="10.303993225097656" y="14.016" font-family="Virgil, Segoe UI Emoji" font-size="16px" fill="#1e1e1e" text-anchor="middle" style="white-space: pre;" direction="ltr" dominant-baseline="alphabetic">v8</text></g><g stroke-linecap="round" transform="translate(759.1999816894531 331.5749931335449) rotate(0 26 21)"><path d="M36.08 0.95 C40.87 2.62, 46.18 8.06, 48.74 12.27 C51.3 16.47, 52.53 22.08, 51.43 26.19 C50.34 30.3, 46.58 34.18, 42.17 36.95 C37.76 39.72, 30.58 42.9, 24.98 42.82 C19.39 42.74, 12.68 39.83, 8.59 36.46 C4.5 33.09, 1.21 26.93, 0.43 22.6 C-0.35 18.26, 0.92 13.93, 3.91 10.45 C6.9 6.98, 12.47 3.1, 18.36 1.72 C24.25 0.34, 35.63 1.74, 39.24 2.16 C42.86 2.58, 40.2 3.94, 40.04 4.25 M33.18 1.2 C38.15 2.45, 43.92 6.5, 47.09 10.36 C50.27 14.22, 52.73 19.79, 52.24 24.36 C51.75 28.93, 48.51 34.59, 44.13 37.77 C39.74 40.96, 31.5 43.68, 25.91 43.49 C20.32 43.3, 15.09 39.83, 10.61 36.66 C6.13 33.49, 0.1 28.7, -0.97 24.49 C-2.04 20.28, 1.38 15.15, 4.18 11.41 C6.98 7.67, 10.65 3.56, 15.81 2.04 C20.97 0.51, 32.22 2.23, 35.12 2.25 C38.02 2.27, 33.73 2.17, 33.22 2.17" stroke="#1e1e1e" stroke-width="2" fill="none"></path></g><g transform="translate(776.0112121535053 342.7257507286274) rotate(0 9.303993225097656 10)"><text x="9.303993225097656" y="14.016" font-family="Virgil, Segoe UI Emoji" font-size="16px" fill="#1e1e1e" text-anchor="middle" style="white-space: pre;" direction="ltr" dominant-baseline="alphabetic">v4</text></g><g stroke-linecap="round"><g transform="translate(615.5571234287429 412.4043466217952) rotate(0 22.299774015509797 -15.257751505253793)"><path d="M0 0 C16.76 -12.17, 33.37 -22.25, 44.6 -30.52 M0 0 C13.33 -9.39, 27.98 -18.86, 44.6 -30.52" stroke="#e03131" stroke-width="2" fill="none"></path></g><g transform="translate(615.5571234287429 412.4043466217952) rotate(0 22.299774015509797 -15.257751505253793)"><path d="M43.91 -31.3 L36.33 -18.2 L29.31 -27.91 L44.15 -30.03" stroke="none" stroke-width="0" fill="#e03131" fill-rule="evenodd"></path><path d="M44.6 -30.52 C41.71 -26.17, 38.55 -20.11, 37 -17.58 M44.6 -30.52 C41.97 -26.36, 40.24 -22.36, 37 -17.58 M37 -17.58 C34.58 -20.29, 32.5 -23.59, 29.81 -28.02 M37 -17.58 C34.47 -21.06, 31.74 -24.85, 29.81 -28.02 M29.81 -28.02 C33.97 -29.23, 38.16 -29.07, 44.6 -30.52 M29.81 -28.02 C34.21 -28.46, 39.15 -29.78, 44.6 -30.52 M44.6 -30.52 C44.6 -30.52, 44.6 -30.52, 44.6 -30.52 M44.6 -30.52 C44.6 -30.52, 44.6 -30.52, 44.6 -30.52" stroke="#e03131" stroke-width="2" fill="none"></path></g></g><mask></mask><g stroke-linecap="round"><g transform="translate(616.8793207441634 447.2790902036829) rotate(0 14.8309671864846 17.36371794717411)"><path d="M0 0 C6.35 8.86, 13.68 16.49, 29.66 34.73 M0 0 C10.73 12.34, 20.81 24.54, 29.66 34.73" stroke="#e03131" stroke-width="2" fill="none"></path></g><g transform="translate(616.8793207441634 447.2790902036829) rotate(0 14.8309671864846 17.36371794717411)"><path d="M28.99 34.11 L15.5 28.65 L25.17 20.77 L29.55 34.89" stroke="none" stroke-width="0" fill="#e03131" fill-rule="evenodd"></path><path d="M29.66 34.73 C26.21 33.86, 23.48 32.19, 16 28.53 M29.66 34.73 C25.19 32.69, 20.1 30.48, 16 28.53 M16 28.53 C17.95 27.32, 20.3 24.81, 25.63 20.28 M16 28.53 C18.06 26.8, 20.36 24.58, 25.63 20.28 M25.63 20.28 C26.62 23.72, 27.45 27.1, 29.66 34.73 M25.63 20.28 C27.3 25.34, 28.17 30.63, 29.66 34.73 M29.66 34.73 C29.66 34.73, 29.66 34.73, 29.66 34.73 M29.66 34.73 C29.66 34.73, 29.66 34.73, 29.66 34.73" stroke="#e03131" stroke-width="2" fill="none"></path></g></g><mask></mask><g stroke-linecap="round"><g transform="translate(708.8353162320964 363.1518073406369) rotate(0 24.822943364161347 -3.704914388717782)"><path d="M0 0 C11.42 -1.42, 23.14 -4.39, 49.65 -7.41 M0 0 C16.63 -2.44, 32.71 -5.18, 49.65 -7.41" stroke="#1e1e1e" stroke-width="2" fill="none"></path></g><g transform="translate(708.8353162320964 363.1518073406369) rotate(0 24.822943364161347 -3.704914388717782)"><path d="M49.14 -7.3 L36.62 1.26 L35.19 -11.63 L49.01 -8.27" stroke="none" stroke-width="0" fill="#1e1e1e" fill-rule="evenodd"></path><path d="M49.65 -7.41 C46.84 -5.15, 44.29 -4.25, 37.07 0.77 M49.65 -7.41 C45.51 -4.56, 40.91 -2.03, 37.07 0.77 M37.07 0.77 C36.74 -4.43, 35.25 -8.98, 35.3 -11.79 M37.07 0.77 C36.35 -4.18, 35.48 -8.89, 35.3 -11.79 M35.3 -11.79 C38.56 -10.33, 42.17 -10.17, 49.65 -7.41 M35.3 -11.79 C40.68 -10.15, 47.01 -8.12, 49.65 -7.41 M49.65 -7.41 C49.65 -7.41, 49.65 -7.41, 49.65 -7.41 M49.65 -7.41 C49.65 -7.41, 49.65 -7.41, 49.65 -7.41" stroke="#1e1e1e" stroke-width="2" fill="none"></path></g></g><mask></mask><g stroke-linecap="round"><g transform="translate(704.3197174587208 388.3310396320842) rotate(0 28.26407375070835 15.487157224627254)"><path d="M0 0 C22.54 9.86, 43.66 24.96, 56.53 30.97 M0 0 C17.84 9.86, 38.46 20.39, 56.53 30.97" stroke="#1e1e1e" stroke-width="2" fill="none"></path></g><g transform="translate(704.3197174587208 388.3310396320842) rotate(0 28.26407375070835 15.487157224627254)"><path d="M55.62 31.95 L41.36 30.13 L46.54 17.04 L56.41 32.06" stroke="none" stroke-width="0" fill="#1e1e1e" fill-rule="evenodd"></path><path d="M56.53 30.97 C51.63 29.37, 45.69 31.43, 41.57 29.81 M56.53 30.97 C50.84 30.41, 47.27 30.21, 41.57 29.81 M41.57 29.81 C42.99 25.69, 47.33 20.83, 47.81 18.77 M41.57 29.81 C43.36 25.82, 45.67 21.84, 47.81 18.77 M47.81 18.77 C51.71 22.22, 55.18 27.85, 56.53 30.97 M47.81 18.77 C50.38 22.17, 51.71 25.31, 56.53 30.97 M56.53 30.97 C56.53 30.97, 56.53 30.97, 56.53 30.97 M56.53 30.97 C56.53 30.97, 56.53 30.97, 56.53 30.97" stroke="#1e1e1e" stroke-width="2" fill="none"></path></g></g><mask></mask><g stroke-linecap="round"><g transform="translate(817.1947848626085 421.9762604685752) rotate(0 38.00782263595249 -9.201898479914917)"><path d="M0 0 C26.93 -4.06, 53.22 -11.92, 76.02 -18.4 M0 0 C25.7 -5.78, 50.23 -11.14, 76.02 -18.4" stroke="#1e1e1e" stroke-width="2" fill="none"></path></g><g transform="translate(817.1947848626085 421.9762604685752) rotate(0 38.00782263595249 -9.201898479914917)"><path d="M75.8 -18.08 L63.24 -10.52 L61.13 -19.96 L76.88 -17.55" stroke="none" stroke-width="0" fill="#1e1e1e" fill-rule="evenodd"></path><path d="M76.02 -18.4 C72.59 -13.9, 68.57 -11.68, 64.5 -8.79 M76.02 -18.4 C72.86 -15.35, 69.07 -11.78, 64.5 -8.79 M64.5 -8.79 C64.86 -12.47, 63.8 -15.18, 61.25 -21.04 M64.5 -8.79 C63.25 -11.94, 63.11 -15.23, 61.25 -21.04 M61.25 -21.04 C68.2 -19.09, 71.45 -20.5, 76.02 -18.4 M61.25 -21.04 C64.73 -20.09, 69.37 -19.15, 76.02 -18.4 M76.02 -18.4 C76.02 -18.4, 76.02 -18.4, 76.02 -18.4 M76.02 -18.4 C76.02 -18.4, 76.02 -18.4, 76.02 -18.4" stroke="#1e1e1e" stroke-width="2" fill="none"></path></g></g><mask></mask><g stroke-linecap="round"><g transform="translate(695.460275121123 502.65892727069865) rotate(0 27.952486503421255 1.7325641341992082)"><path d="M0 0 C12.83 0.49, 24.84 -0.89, 55.9 3.47 M0 0 C16.01 1.53, 29.89 1.2, 55.9 3.47" stroke="#e03131" stroke-width="2" fill="none"></path></g><g transform="translate(695.460275121123 502.65892727069865) rotate(0 27.952486503421255 1.7325641341992082)"><path d="M54.64 1.74 L41.78 9.91 L43.66 -2.97 L54.37 4.53" stroke="none" stroke-width="0" fill="#e03131" fill-rule="evenodd"></path><path d="M55.9 3.47 C53.35 4.91, 50.18 4.48, 41.9 8.83 M55.9 3.47 C52.75 5.34, 47.97 5.85, 41.9 8.83 M41.9 8.83 C42.9 4.72, 41.89 0.11, 42.79 -3.82 M41.9 8.83 C42.5 5.02, 42.97 1.52, 42.79 -3.82 M42.79 -3.82 C45.58 -3.47, 49.11 0.83, 55.9 3.47 M42.79 -3.82 C47.52 -0.86, 51.07 1.35, 55.9 3.47 M55.9 3.47 C55.9 3.47, 55.9 3.47, 55.9 3.47 M55.9 3.47 C55.9 3.47, 55.9 3.47, 55.9 3.47" stroke="#e03131" stroke-width="2" fill="none"></path></g></g><mask></mask><g stroke-linecap="round"><g transform="translate(808.3927267721713 506.98171763257267) rotate(0 29.24940892568725 -1.8491525442615853)"><path d="M0 0 C22.96 -3.41, 44.41 -1.12, 58.5 -3.7 M0 0 C16.79 -2.13, 34.65 -1.67, 58.5 -3.7" stroke="#e03131" stroke-width="2" fill="none"></path></g><g transform="translate(808.3927267721713 506.98171763257267) rotate(0 29.24940892568725 -1.8491525442615853)"><path d="M58.38 -2.61 L46.2 4.36 L42.99 -8.08 L58.54 -3.54" stroke="none" stroke-width="0" fill="#e03131" fill-rule="evenodd"></path><path d="M58.5 -3.7 C53.82 -2.36, 47.97 3.2, 45.34 3.5 M58.5 -3.7 C54.28 -2.02, 50.79 1.28, 45.34 3.5 M45.34 3.5 C44.61 -0.72, 44.91 -3.84, 44.52 -9.15 M45.34 3.5 C45.47 -0.07, 44.53 -3.82, 44.52 -9.15 M44.52 -9.15 C48.99 -6.09, 55.15 -5.89, 58.5 -3.7 M44.52 -9.15 C48.82 -7.07, 53.37 -5.97, 58.5 -3.7 M58.5 -3.7 C58.5 -3.7, 58.5 -3.7, 58.5 -3.7 M58.5 -3.7 C58.5 -3.7, 58.5 -3.7, 58.5 -3.7" stroke="#e03131" stroke-width="2" fill="none"></path></g></g><mask></mask><g stroke-linecap="round"><g transform="translate(876.9111387431885 483.10606198881305) rotate(0 -34.903242557288195 -21.615070036372344)"><path d="M0 0 C-22.35 -12.31, -43.53 -25.91, -69.81 -43.23 M0 0 C-24.66 -15.07, -50.1 -30.69, -69.81 -43.23" stroke="#1e1e1e" stroke-width="2" fill="none"></path></g><g transform="translate(876.9111387431885 483.10606198881305) rotate(0 -34.903242557288195 -21.615070036372344)"><path d="M-68.94 -42.38 L-56.46 -40.29 L-61.63 -30.47 L-68.82 -42.17" stroke="none" stroke-width="0" fill="#1e1e1e" fill-rule="evenodd"></path><path d="M-69.81 -43.23 C-65.61 -41.17, -60.62 -40.72, -54.92 -41.36 M-69.81 -43.23 C-64.48 -41.82, -59.56 -41.29, -54.92 -41.36 M-54.92 -41.36 C-56.78 -39.41, -58.54 -34.97, -61.68 -30.63 M-54.92 -41.36 C-57.19 -37.37, -58.62 -34.99, -61.68 -30.63 M-61.68 -30.63 C-62.73 -33.95, -64.3 -34.98, -69.81 -43.23 M-61.68 -30.63 C-65.37 -35.75, -67.9 -39.79, -69.81 -43.23 M-69.81 -43.23 C-69.81 -43.23, -69.81 -43.23, -69.81 -43.23 M-69.81 -43.23 C-69.81 -43.23, -69.81 -43.23, -69.81 -43.23" stroke="#1e1e1e" stroke-width="2" fill="none"></path></g></g><mask></mask><g transform="translate(522.7999877929688 533.4749870300293) rotate(0 234.375 48)"><text x="0" y="19.3125" font-family="Cascadia, Segoe UI Emoji" font-size="20px" fill="#1e1e1e" text-anchor="start" style="white-space: pre;" direction="ltr" dominant-baseline="alphabetic">grado_in:  0   0   0   1   2   0   0   1</text><text x="0" y="43.3125" font-family="Cascadia, Segoe UI Emoji" font-size="20px" fill="#1e1e1e" text-anchor="start" style="white-space: pre;" direction="ltr" dominant-baseline="alphabetic">          v1  v2  v3  v4  v5  v6  v7  v8</text><text x="0" y="67.3125" font-family="Cascadia, Segoe UI Emoji" font-size="20px" fill="#1e1e1e" text-anchor="start" style="white-space: pre;" direction="ltr" dominant-baseline="alphabetic">pila: v2 v7</text><text x="0" y="91.3125" font-family="Cascadia, Segoe UI Emoji" font-size="20px" fill="#1e1e1e" text-anchor="start" style="white-space: pre;" direction="ltr" dominant-baseline="alphabetic">result = v1 v3 v6</text></g><g transform="translate(523.5999755859375 326.57497787475586) rotate(0 35.15625 12)"><text x="0" y="19.3125" font-family="Cascadia, Segoe UI Emoji" font-size="20px" fill="#1e1e1e" text-anchor="start" style="white-space: pre;" direction="ltr" dominant-baseline="alphabetic">Paso 3</text></g><g transform="translate(680.4851150512695 266.6249885559082) rotate(0 180.96987915039062 25)"><text x="0" y="17.52" font-family="Virgil, Segoe UI Emoji" font-size="20px" fill="#2f9e44" text-anchor="start" style="white-space: pre;" direction="ltr" dominant-baseline="alphabetic">desapilo v1, decremento grado_in</text><text x="0" y="42.519999999999996" font-family="Virgil, Segoe UI Emoji" font-size="20px" fill="#2f9e44" text-anchor="start" style="white-space: pre;" direction="ltr" dominant-baseline="alphabetic">de v2 y v3, y los apilo (grado_in=0)</text></g><g transform="translate(140.70500946044922 265.82500076293945) rotate(0 169.16986083984375 25)"><text x="0" y="17.52" font-family="Virgil, Segoe UI Emoji" font-size="20px" fill="#2f9e44" text-anchor="start" style="white-space: pre;" direction="ltr" dominant-baseline="alphabetic">se recorre todo 1 vez, para</text><text x="0" y="42.519999999999996" font-family="Virgil, Segoe UI Emoji" font-size="20px" fill="#2f9e44" text-anchor="start" style="white-space: pre;" direction="ltr" dominant-baseline="alphabetic">verificar vertice con grado_in = 0</text></g></svg>