<svg version="1.1" xmlns="http://www.w3.org/2000/svg" viewBox="0 0 1001.1499938964844 698.1501083374023" width="3003.449981689453" height="2094.450325012207">
  <!-- svg-source:excalidraw -->
  
  <defs>
    <style class="style-fonts">
      @font-face {
        font-family: "Virgil";
        src: url("https://excalidraw.com/Virgil.woff2");
      }
      @font-face {
        font-family: "Cascadia";
        src: url("https://excalidraw.com/Cascadia.woff2");
      }
      @font-face {
        font-family: "Assistant";
        src: url("https://excalidraw.com/Assistant-Regular.woff2");
      }
    </style>
    
  </defs>
  <rect x="0" y="0" width="1001.1499938964844" height="698.1501083374023" fill="#ffffff"></rect><g stroke-linecap="round" transform="translate(59.600006103515625 92.60002136230469) rotate(0 26 21)"><path d="M15.53 1.25 C20.03 -0.43, 26.91 0.54, 32.33 1.73 C37.75 2.92, 44.9 4.74, 48.07 8.38 C51.23 12.01, 52.08 18.87, 51.33 23.54 C50.57 28.2, 47.31 33.35, 43.52 36.38 C39.74 39.41, 34.01 41.52, 28.61 41.7 C23.22 41.87, 15.67 40.1, 11.15 37.42 C6.63 34.75, 3.04 29.81, 1.5 25.63 C-0.05 21.44, -0.9 16.31, 1.86 12.32 C4.62 8.34, 14.55 3.74, 18.03 1.7 C21.51 -0.34, 22.61 -0.09, 22.73 0.07 M17.75 1.88 C22.45 0.31, 30.55 0.19, 35.58 1.94 C40.6 3.69, 45.13 8.48, 47.9 12.37 C50.67 16.26, 53.25 21.21, 52.19 25.27 C51.13 29.33, 46.19 33.93, 41.53 36.73 C36.88 39.52, 29.62 42.32, 24.27 42.04 C18.91 41.77, 13.28 38.36, 9.4 35.09 C5.53 31.81, 2.05 26.63, 1.02 22.39 C0 18.14, 0.16 13.36, 3.25 9.61 C6.33 5.87, 17.15 1.14, 19.52 -0.09 C21.9 -1.31, 17.72 1.8, 17.47 2.27" stroke="#e03131" stroke-width="2" fill="none"></path></g><g transform="translate(79.36323241717713 103.75077895738718) rotate(0 6.351997375488281 10)"><text x="6.351997375488281" y="14.016" font-family="Virgil, Segoe UI Emoji" font-size="16px" fill="#e03131" text-anchor="middle" style="white-space: pre;" direction="ltr" dominant-baseline="alphabetic">v1</text></g><g stroke-linecap="round" transform="translate(144.80007934570312 33.399993896484375) rotate(0 26 21)"><path d="M19.72 -0.27 C24.83 -1.74, 31.59 0.1, 36.49 2.2 C41.4 4.3, 46.55 8.33, 49.14 12.33 C51.74 16.33, 53.34 21.96, 52.06 26.19 C50.77 30.42, 46.05 35.15, 41.45 37.72 C36.85 40.28, 30.25 41.79, 24.47 41.58 C18.69 41.37, 10.93 39.46, 6.76 36.47 C2.59 33.49, -0.32 28.35, -0.53 23.66 C-0.74 18.97, 1.9 12.26, 5.49 8.33 C9.08 4.4, 18.01 1.28, 21.01 0.09 C24.01 -1.1, 23.26 0.87, 23.5 1.19 M32.73 2 C38.09 2.94, 45.69 5.98, 48.82 9.45 C51.96 12.93, 52.52 18.33, 51.55 22.86 C50.57 27.39, 46.89 33.65, 42.97 36.62 C39.05 39.58, 33.4 40.69, 28.05 40.64 C22.7 40.59, 15.61 38.86, 10.89 36.33 C6.16 33.79, 0.82 29.77, -0.29 25.41 C-1.4 21.05, 1.66 14, 4.24 10.18 C6.83 6.36, 10.43 4.05, 15.21 2.48 C19.99 0.91, 29.7 1.14, 32.93 0.78 C36.15 0.42, 34.29 -0.11, 34.56 0.32" stroke="#1e1e1e" stroke-width="2" fill="none"></path></g><g transform="translate(161.03530578143494 44.55075149156687) rotate(0 9.879997253417997 10)"><text x="9.879997253417969" y="14.016" font-family="Virgil, Segoe UI Emoji" font-size="16px" fill="#1e1e1e" text-anchor="middle" style="white-space: pre;" direction="ltr" dominant-baseline="alphabetic">v2</text></g><g stroke-linecap="round" transform="translate(128.79998779296875 158.1999969482422) rotate(0 26 21)"><path d="M13.35 2.65 C18.11 0.33, 26.73 -0.62, 32.35 0.2 C37.96 1.02, 43.64 4.04, 47.04 7.57 C50.44 11.1, 53.17 16.7, 52.74 21.39 C52.32 26.07, 48.45 32.14, 44.49 35.68 C40.53 39.23, 34.24 42.22, 29 42.64 C23.75 43.06, 17.74 40.76, 13.01 38.2 C8.28 35.65, 2.58 31.35, 0.62 27.29 C-1.33 23.23, -1.98 18.36, 1.29 13.85 C4.55 9.34, 15.96 2.53, 20.23 0.24 C24.5 -2.05, 26.86 -0.15, 26.94 0.11 M34.25 0.16 C39.14 1.37, 44.7 6.45, 47.78 10.25 C50.86 14.05, 53.37 18.72, 52.72 22.94 C52.07 27.16, 48.4 32.41, 43.87 35.58 C39.35 38.75, 31.07 41.84, 25.58 41.96 C20.08 42.08, 15.23 38.96, 10.89 36.29 C6.54 33.61, 0.96 30.21, -0.48 25.93 C-1.92 21.65, -0.74 14.87, 2.25 10.6 C5.24 6.33, 11.86 1.83, 17.47 0.31 C23.07 -1.21, 32.96 1.05, 35.89 1.46 C38.83 1.87, 35.52 2.27, 35.08 2.79" stroke="#e03131" stroke-width="2" fill="none"></path></g><g transform="translate(145.28321532733338 169.35075454332468) rotate(0 9.631996154785156 10)"><text x="9.631996154785156" y="14.016" font-family="Virgil, Segoe UI Emoji" font-size="16px" fill="#e03131" text-anchor="middle" style="white-space: pre;" direction="ltr" dominant-baseline="alphabetic">v3</text></g><g stroke-linecap="round" transform="translate(240.79995727539062 170.20001220703125) rotate(0 26 21)"><path d="M29.02 -0.4 C34.29 -0.27, 41.61 2.53, 45.28 5.93 C48.96 9.32, 50.87 15.28, 51.08 19.97 C51.29 24.65, 49.52 30.56, 46.56 34.02 C43.59 37.48, 38.71 39.76, 33.32 40.72 C27.92 41.67, 19.44 41.47, 14.18 39.76 C8.92 38.05, 3.9 34.56, 1.75 30.44 C-0.4 26.33, -0.38 19.57, 1.31 15.06 C2.99 10.55, 6.88 5.97, 11.87 3.4 C16.86 0.82, 27.56 -0.15, 31.27 -0.4 C34.98 -0.66, 34.28 1.42, 34.12 1.87 M18.7 -0.23 C23.83 -2.08, 31.39 -1.69, 36.26 0.16 C41.13 2.01, 45.18 6.89, 47.93 10.88 C50.67 14.86, 53.85 19.51, 52.74 24.08 C51.64 28.65, 46.02 35.36, 41.3 38.31 C36.58 41.26, 29.68 42.21, 24.4 41.77 C19.12 41.33, 13.41 38.57, 9.63 35.69 C5.85 32.81, 2.57 28.55, 1.73 24.49 C0.89 20.44, 1.97 15, 4.57 11.34 C7.18 7.68, 15.23 4.22, 17.35 2.52 C19.46 0.82, 17.08 0.88, 17.29 1.15" stroke="#e03131" stroke-width="2" fill="none"></path></g><g transform="translate(257.6111877394427 181.35076980211375) rotate(0 9.303993225097656 10)"><text x="9.303993225097656" y="14.016" font-family="Virgil, Segoe UI Emoji" font-size="16px" fill="#e03131" text-anchor="middle" style="white-space: pre;" direction="ltr" dominant-baseline="alphabetic">v6</text></g><g stroke-linecap="round" transform="translate(247.99996948242188 87.80000305175781) rotate(0 26 21)"><path d="M18.81 1.27 C23.63 0.17, 31.43 1.19, 36.71 2.95 C42 4.7, 48.23 7.87, 50.51 11.8 C52.78 15.74, 52.11 21.99, 50.36 26.54 C48.61 31.08, 44.43 36.59, 39.99 39.09 C35.55 41.6, 29.05 42.17, 23.71 41.54 C18.37 40.91, 11.87 38.62, 7.96 35.31 C4.05 32.01, 0.67 26.06, 0.28 21.71 C-0.12 17.37, 1.65 12.88, 5.59 9.25 C9.54 5.61, 20.2 1.42, 23.95 -0.09 C27.69 -1.6, 27.98 -0.29, 28.05 0.2 M13.86 2.03 C18.56 -0.02, 28.3 -1.65, 33.69 -0.38 C39.07 0.89, 43.3 5.89, 46.17 9.68 C49.04 13.47, 51.04 18.21, 50.91 22.37 C50.78 26.52, 48.87 31.28, 45.38 34.59 C41.89 37.9, 35.54 41.38, 29.99 42.21 C24.45 43.05, 17.01 41.94, 12.12 39.59 C7.23 37.23, 2.37 32.68, 0.65 28.08 C-1.08 23.48, -0.59 16.15, 1.77 11.99 C4.13 7.83, 12.67 4.93, 14.81 3.12 C16.95 1.32, 14.67 1.22, 14.62 1.18" stroke="#1e1e1e" stroke-width="2" fill="none"></path></g><g transform="translate(264.98720244891535 98.95076064684031) rotate(0 9.12799072265625 10)"><text x="9.12799072265625" y="14.016" font-family="Virgil, Segoe UI Emoji" font-size="16px" fill="#1e1e1e" text-anchor="middle" style="white-space: pre;" direction="ltr" dominant-baseline="alphabetic">v5</text></g><g stroke-linecap="round" transform="translate(355.1999816894531 163.80007934570312) rotate(0 26 21)"><path d="M34.94 0.45 C40.06 1.36, 44.77 5.71, 47.47 9.76 C50.17 13.8, 51.76 20.31, 51.13 24.74 C50.49 29.17, 47.62 33.5, 43.67 36.33 C39.71 39.15, 32.99 41.62, 27.4 41.68 C21.8 41.74, 14.47 39.32, 10.1 36.68 C5.73 34.04, 2.41 30.11, 1.2 25.81 C0 21.52, 0.45 15.02, 2.87 10.91 C5.29 6.8, 10.31 2.62, 15.73 1.16 C21.15 -0.31, 32.12 1.84, 35.4 2.1 C38.69 2.36, 35.74 2.62, 35.43 2.73 M24.73 0.92 C29.64 0.74, 36.86 2.01, 41.46 4.53 C46.06 7.05, 50.9 11.51, 52.34 16.02 C53.77 20.53, 52.83 27.29, 50.1 31.6 C47.37 35.91, 41.48 40.12, 35.97 41.89 C30.47 43.67, 22.56 43.99, 17.08 42.23 C11.6 40.48, 5.88 35.29, 3.1 31.36 C0.32 27.43, -0.53 23.25, 0.41 18.65 C1.34 14.06, 4.72 7.1, 8.7 3.81 C12.68 0.51, 21.6 -0.47, 24.3 -1.11 C26.99 -1.75, 24.55 -0.68, 24.88 -0.02" stroke="#e03131" stroke-width="2" fill="none"></path></g><g transform="translate(372.82721404559504 174.95083694078562) rotate(0 8.487991333007812 10)"><text x="8.487991333007812" y="14.016" font-family="Virgil, Segoe UI Emoji" font-size="16px" fill="#e03131" text-anchor="middle" style="white-space: pre;" direction="ltr" dominant-baseline="alphabetic">v7</text></g><g stroke-linecap="round" transform="translate(381.6000061035156 59.800018310546875) rotate(0 26 21)"><path d="M17.6 1.68 C22.72 0.12, 30.99 -0.3, 36.34 1.26 C41.69 2.81, 47.15 7.1, 49.7 11.01 C52.24 14.93, 52.79 20.23, 51.59 24.76 C50.38 29.3, 46.97 35.38, 42.47 38.22 C37.97 41.07, 30.39 42.18, 24.61 41.84 C18.82 41.49, 11.82 39.04, 7.76 36.13 C3.7 33.23, 1.03 28.73, 0.26 24.41 C-0.5 20.1, -0.94 14.41, 3.19 10.24 C7.32 6.07, 20 0.76, 25.04 -0.59 C30.07 -1.94, 33.37 1.8, 33.4 2.14 M34.63 -0.11 C40.18 1.02, 46.39 5.87, 49.37 10.05 C52.36 14.24, 53.59 20.37, 52.56 25.01 C51.54 29.66, 47.56 35.14, 43.23 37.91 C38.89 40.68, 32.06 41.49, 26.56 41.62 C21.06 41.76, 14.6 41.6, 10.21 38.7 C5.83 35.8, 1.7 29.01, 0.26 24.25 C-1.18 19.5, -0.94 14.02, 1.56 10.17 C4.06 6.32, 9.79 2.55, 15.26 1.15 C20.74 -0.26, 31.1 1.49, 34.39 1.71 C37.69 1.93, 35.13 2.4, 35.04 2.46" stroke="#1e1e1e" stroke-width="2" fill="none"></path></g><g transform="translate(397.4112365675677 70.95077590562937) rotate(0 10.303993225097656 10)"><text x="10.303993225097656" y="14.016" font-family="Virgil, Segoe UI Emoji" font-size="16px" fill="#1e1e1e" text-anchor="middle" style="white-space: pre;" direction="ltr" dominant-baseline="alphabetic">v8</text></g><g stroke-linecap="round" transform="translate(246.39999389648438 15.000015258789062) rotate(0 26 21)"><path d="M35.69 1.01 C40.74 2.17, 46.06 5.77, 48.82 9.83 C51.58 13.88, 53.32 20.81, 52.24 25.35 C51.15 29.88, 46.85 34.32, 42.34 37.04 C37.82 39.76, 30.69 41.56, 25.16 41.66 C19.64 41.77, 13.47 40.45, 9.19 37.68 C4.91 34.91, 0.54 29.69, -0.53 25.04 C-1.61 20.39, -0.24 13.62, 2.73 9.78 C5.69 5.95, 11.7 3.47, 17.26 2.05 C22.82 0.63, 32.51 1.22, 36.11 1.26 C39.71 1.3, 38.93 1.76, 38.84 2.27 M17.57 2.61 C22.11 1.03, 29.21 1.37, 34.25 2.59 C39.29 3.8, 44.89 6.1, 47.8 9.9 C50.71 13.71, 52.59 21.14, 51.73 25.42 C50.87 29.71, 47.09 33.06, 42.62 35.64 C38.16 38.21, 30.6 40.69, 24.95 40.89 C19.31 41.08, 12.73 39.36, 8.74 36.82 C4.75 34.28, 1.68 29.82, 1.01 25.66 C0.33 21.49, 1.9 16.03, 4.67 11.82 C7.44 7.62, 15.34 2.33, 17.62 0.43 C19.91 -1.46, 18.25 0.2, 18.37 0.43" stroke="#1e1e1e" stroke-width="2" fill="none"></path></g><g transform="translate(263.21122436053645 26.15077285387156) rotate(0 9.303993225097656 10)"><text x="9.303993225097656" y="14.016" font-family="Virgil, Segoe UI Emoji" font-size="16px" fill="#1e1e1e" text-anchor="middle" style="white-space: pre;" direction="ltr" dominant-baseline="alphabetic">v4</text></g><g stroke-linecap="round"><g transform="translate(102.73614565992182 95.84373032018505) rotate(0 22.3067866468499 -15.26254962501551)"><path d="M0 0 C17.13 -11.56, 33.28 -23.39, 44.61 -30.53 M0 0 C16.19 -11.46, 32.43 -22.29, 44.61 -30.53" stroke="#e03131" stroke-width="2" fill="none"></path></g><g transform="translate(102.73614565992182 95.84373032018505) rotate(0 22.3067866468499 -15.26254962501551)"><path d="M44.51 -30.89 L36.15 -17.89 L28.81 -28.66 L44.05 -29.62" stroke="none" stroke-width="0" fill="#e03131" fill-rule="evenodd"></path><path d="M44.61 -30.53 C42.23 -26, 39.06 -21.59, 36.89 -17.67 M44.61 -30.53 C41.77 -26.07, 38.86 -21.1, 36.89 -17.67 M36.89 -17.67 C33.78 -21.9, 31.68 -24.89, 29.8 -28.18 M36.89 -17.67 C35.07 -20.12, 33.81 -22.73, 29.8 -28.18 M29.8 -28.18 C36.28 -29.3, 42.22 -30.34, 44.61 -30.53 M29.8 -28.18 C33.8 -29.2, 37.63 -29.8, 44.61 -30.53 M44.61 -30.53 C44.61 -30.53, 44.61 -30.53, 44.61 -30.53 M44.61 -30.53 C44.61 -30.53, 44.61 -30.53, 44.61 -30.53" stroke="#e03131" stroke-width="2" fill="none"></path></g></g><mask></mask><g stroke-linecap="round"><g transform="translate(104.06127268985017 130.68296783578012) rotate(0 14.837001368623902 17.370782613651443)"><path d="M0 0 C8.18 8.45, 16.5 19.02, 29.67 34.74 M0 0 C8.02 9.73, 16.75 18.88, 29.67 34.74" stroke="#e03131" stroke-width="2" fill="none"></path></g><g transform="translate(104.06127268985017 130.68296783578012) rotate(0 14.837001368623902 17.370782613651443)"><path d="M28.94 34.51 L15.1 27.9 L25.24 21.16 L30.64 34.85" stroke="none" stroke-width="0" fill="#e03131" fill-rule="evenodd"></path><path d="M29.67 34.74 C26.21 32.43, 22.95 31.76, 16.09 28.38 M29.67 34.74 C25.79 32.95, 22.42 30.84, 16.09 28.38 M16.09 28.38 C19.55 26.06, 22.57 22.24, 25.81 20.25 M16.09 28.38 C19.79 25.22, 23.44 22.58, 25.81 20.25 M25.81 20.25 C27.94 25.09, 28.42 30.51, 29.67 34.74 M25.81 20.25 C26.88 25.35, 28.45 30.89, 29.67 34.74 M29.67 34.74 C29.67 34.74, 29.67 34.74, 29.67 34.74 M29.67 34.74 C29.67 34.74, 29.67 34.74, 29.67 34.74" stroke="#e03131" stroke-width="2" fill="none"></path></g></g><mask></mask><g stroke-linecap="round"><g transform="translate(196.03532843912785 46.57682946588099) rotate(0 24.822943364161233 -3.704914388717768)"><path d="M0 0 C14.01 -1.24, 26.47 -3.93, 49.65 -7.41 M0 0 C12.01 -2.2, 23.59 -3.91, 49.65 -7.41" stroke="#1e1e1e" stroke-width="2" fill="none"></path></g><g transform="translate(196.03532843912785 46.57682946588099) rotate(0 24.822943364161233 -3.704914388717768)"><path d="M48.66 -7.89 L36.47 1.62 L36.29 -11.74 L49.55 -8.22" stroke="none" stroke-width="0" fill="#1e1e1e" fill-rule="evenodd"></path><path d="M49.65 -7.41 C46.76 -4.86, 42.7 -3.2, 37.04 0.71 M49.65 -7.41 C46.93 -5.84, 43.92 -3.91, 37.04 0.71 M37.04 0.71 C36.19 -2.72, 36.6 -5.77, 35.32 -11.85 M37.04 0.71 C36.82 -2.81, 36.19 -6.19, 35.32 -11.85 M35.32 -11.85 C39.16 -10.55, 43.86 -9.52, 49.65 -7.41 M35.32 -11.85 C38.18 -10.95, 41.61 -9.7, 49.65 -7.41 M49.65 -7.41 C49.65 -7.41, 49.65 -7.41, 49.65 -7.41 M49.65 -7.41 C49.65 -7.41, 49.65 -7.41, 49.65 -7.41" stroke="#1e1e1e" stroke-width="2" fill="none"></path></g></g><mask></mask><g stroke-linecap="round"><g transform="translate(191.47238128339848 71.73011744907643) rotate(0 28.279890367372218 15.495823860272026)"><path d="M0 0 C12.17 6.21, 23.75 12.64, 56.56 30.99 M0 0 C17.98 9.09, 34.07 19.35, 56.56 30.99" stroke="#1e1e1e" stroke-width="2" fill="none"></path></g><g transform="translate(191.47238128339848 71.73011744907643) rotate(0 28.279890367372218 15.495823860272026)"><path d="M55.43 32.81 L43.52 30.33 L47.42 17.33 L54.78 32.84" stroke="none" stroke-width="0" fill="#1e1e1e" fill-rule="evenodd"></path><path d="M56.56 30.99 C52.92 30.67, 48.99 30.19, 41.59 30.12 M56.56 30.99 C52.4 29.96, 47 30.31, 41.59 30.12 M41.59 30.12 C44.75 25.02, 46.09 22.27, 47.6 18.96 M41.59 30.12 C43.18 28.09, 44.08 25.62, 47.6 18.96 M47.6 18.96 C50.99 21.78, 51.03 23.91, 56.56 30.99 M47.6 18.96 C49.84 22.07, 52.26 24.96, 56.56 30.99 M56.56 30.99 C56.56 30.99, 56.56 30.99, 56.56 30.99 M56.56 30.99 C56.56 30.99, 56.56 30.99, 56.56 30.99" stroke="#1e1e1e" stroke-width="2" fill="none"></path></g></g><mask></mask><g stroke-linecap="round"><g transform="translate(304.38960654683274 105.40253924733472) rotate(0 38.01302379437732 -9.203157708370611)"><path d="M0 0 C25.73 -7.1, 54.13 -11.58, 76.03 -18.41 M0 0 C15.31 -3.25, 32.73 -7.79, 76.03 -18.41" stroke="#1e1e1e" stroke-width="2" fill="none"></path></g><g transform="translate(304.38960654683274 105.40253924733472) rotate(0 38.01302379437732 -9.203157708370611)"><path d="M77.96 -18.2 L64.16 -10.62 L59.53 -19.46 L75.48 -17.27" stroke="none" stroke-width="0" fill="#1e1e1e" fill-rule="evenodd"></path><path d="M76.03 -18.41 C70.88 -15.58, 67.77 -10.7, 64.34 -9 M76.03 -18.41 C73.18 -16.54, 71.78 -15.06, 64.34 -9 M64.34 -9 C63.36 -11.26, 61.92 -13.62, 61.31 -21.31 M64.34 -9 C63.17 -12.33, 62.1 -17.03, 61.31 -21.31 M61.31 -21.31 C64.54 -21.78, 69.18 -20.32, 76.03 -18.41 M61.31 -21.31 C65.98 -20.05, 69.7 -20.28, 76.03 -18.41 M76.03 -18.41 C76.03 -18.41, 76.03 -18.41, 76.03 -18.41 M76.03 -18.41 C76.03 -18.41, 76.03 -18.41, 76.03 -18.41" stroke="#1e1e1e" stroke-width="2" fill="none"></path></g></g><mask></mask><g stroke-linecap="round"><g transform="translate(182.64360284395968 186.08291525041477) rotate(0 27.95833739396727 1.7329267868423983)"><path d="M0 0 C16.04 2.56, 30.13 3.25, 55.92 3.47 M0 0 C12.84 0.07, 23.41 2.12, 55.92 3.47" stroke="#e03131" stroke-width="2" fill="none"></path></g><g transform="translate(182.64360284395968 186.08291525041477) rotate(0 27.95833739396727 1.7329267868423983)"><path d="M55.73 1.84 L40.21 10.89 L42.15 -2.48 L55.75 4.71" stroke="none" stroke-width="0" fill="#e03131" fill-rule="evenodd"></path><path d="M55.92 3.47 C51.97 6.05, 46.58 7.42, 41.99 9.04 M55.92 3.47 C53.51 4.15, 49.41 6.32, 41.99 9.04 M41.99 9.04 C41.26 7.3, 42.61 3.82, 42.69 -3.62 M41.99 9.04 C42.06 4.03, 42.58 -0.22, 42.69 -3.62 M42.69 -3.62 C45.18 -2.35, 49.5 0.97, 55.92 3.47 M42.69 -3.62 C47.79 -1.7, 52.69 0.57, 55.92 3.47 M55.92 3.47 C55.92 3.47, 55.92 3.47, 55.92 3.47 M55.92 3.47 C55.92 3.47, 55.92 3.47, 55.92 3.47" stroke="#e03131" stroke-width="2" fill="none"></path></g></g><mask></mask><g stroke-linecap="round"><g transform="translate(295.5924366983995 190.40675886805997) rotate(0 29.24987224367345 -1.8491818353024883)"><path d="M0 0 C13.8 -0.31, 29.49 -3.55, 58.5 -3.7 M0 0 C16.74 -0.08, 34.12 -1.95, 58.5 -3.7" stroke="#e03131" stroke-width="2" fill="none"></path></g><g transform="translate(295.5924366983995 190.40675886805997) rotate(0 29.24987224367345 -1.8491818353024883)"><path d="M56.72 -1.85 L44.88 4.8 L44.29 -7.74 L59.62 -2.45" stroke="none" stroke-width="0" fill="#e03131" fill-rule="evenodd"></path><path d="M58.5 -3.7 C53.68 -0.83, 50.26 -0.56, 45.43 3.66 M58.5 -3.7 C54.19 -1.14, 50.28 0.48, 45.43 3.66 M45.43 3.66 C45.45 -0.11, 45.89 -5.5, 44.46 -8.98 M45.43 3.66 C45.12 -0.88, 44.56 -6.84, 44.46 -8.98 M44.46 -8.98 C46.88 -7.26, 50.97 -5.36, 58.5 -3.7 M44.46 -8.98 C50.41 -7.59, 55.26 -5.69, 58.5 -3.7 M58.5 -3.7 C58.5 -3.7, 58.5 -3.7, 58.5 -3.7 M58.5 -3.7 C58.5 -3.7, 58.5 -3.7, 58.5 -3.7" stroke="#e03131" stroke-width="2" fill="none"></path></g></g><mask></mask><g stroke-linecap="round"><g transform="translate(364.1463679935513 166.5528935163453) rotate(0 -34.91647802355658 -21.62326656796641)"><path d="M0 0 C-27.1 -16.77, -51.25 -29.91, -69.83 -43.25 M0 0 C-16.53 -9.71, -31.47 -20.28, -69.83 -43.25" stroke="#e03131" stroke-width="2" fill="none"></path></g><g transform="translate(364.1463679935513 166.5528935163453) rotate(0 -34.91647802355658 -21.62326656796641)"><path d="M-70.38 -42.11 L-55.1 -40.33 L-60.41 -29.5 L-69.84 -43.36" stroke="none" stroke-width="0" fill="#e03131" fill-rule="evenodd"></path><path d="M-69.83 -43.25 C-65.61 -43.59, -58.87 -40.84, -54.93 -41.57 M-69.83 -43.25 C-66.91 -43.06, -62.56 -43.11, -54.93 -41.57 M-54.93 -41.57 C-56.46 -37.53, -58.93 -33.44, -61.53 -30.75 M-54.93 -41.57 C-56.9 -39.07, -59.16 -36.02, -61.53 -30.75 M-61.53 -30.75 C-62.8 -32.44, -64.5 -36.02, -69.83 -43.25 M-61.53 -30.75 C-63.3 -34.53, -65.59 -36.45, -69.83 -43.25 M-69.83 -43.25 C-69.83 -43.25, -69.83 -43.25, -69.83 -43.25 M-69.83 -43.25 C-69.83 -43.25, -69.83 -43.25, -69.83 -43.25" stroke="#e03131" stroke-width="2" fill="none"></path></g></g><mask></mask><g transform="translate(10 216.90000915527344) rotate(0 234.375 48)"><text x="0" y="19.3125" font-family="Cascadia, Segoe UI Emoji" font-size="20px" fill="#1e1e1e" text-anchor="start" style="white-space: pre;" direction="ltr" dominant-baseline="alphabetic">grado_in:  0   0   0   1   1   0   0   1</text><text x="0" y="43.3125" font-family="Cascadia, Segoe UI Emoji" font-size="20px" fill="#1e1e1e" text-anchor="start" style="white-space: pre;" direction="ltr" dominant-baseline="alphabetic">          v1  v2  v3  v4  v5  v6  v7  v8</text><text x="0" y="67.3125" font-family="Cascadia, Segoe UI Emoji" font-size="20px" fill="#1e1e1e" text-anchor="start" style="white-space: pre;" direction="ltr" dominant-baseline="alphabetic">pila: v2</text><text x="0" y="91.3125" font-family="Cascadia, Segoe UI Emoji" font-size="20px" fill="#1e1e1e" text-anchor="start" style="white-space: pre;" direction="ltr" dominant-baseline="alphabetic">result = v1 v3 v6 v7</text></g><g transform="translate(10.79998779296875 10) rotate(0 35.15625 12)"><text x="0" y="19.3125" font-family="Cascadia, Segoe UI Emoji" font-size="20px" fill="#1e1e1e" text-anchor="start" style="white-space: pre;" direction="ltr" dominant-baseline="alphabetic">Paso 4</text></g><g transform="translate(293.0050048828125 274.85009002685547) rotate(0 93.67994689941406 20)"><text x="0" y="14.016" font-family="Virgil, Segoe UI Emoji" font-size="16px" fill="#2f9e44" text-anchor="start" style="white-space: pre;" direction="ltr" dominant-baseline="alphabetic">decremento grado_in de</text><text x="0" y="34.016" font-family="Virgil, Segoe UI Emoji" font-size="16px" fill="#2f9e44" text-anchor="start" style="white-space: pre;" direction="ltr" dominant-baseline="alphabetic">nodo 5, pero no lo apilo</text></g><g stroke-linecap="round" transform="translate(571.5925750732422 92.82503890991211) rotate(0 26 21)"><path d="M25.84 0.3 C31.1 0.13, 38.01 1.9, 42.22 4.85 C46.42 7.8, 50.2 13.4, 51.07 18 C51.94 22.61, 50.08 28.81, 47.42 32.48 C44.75 36.15, 40.02 38.57, 35.09 40.03 C30.15 41.48, 23.16 42.69, 17.8 41.22 C12.44 39.75, 5.66 35.35, 2.92 31.21 C0.19 27.07, 0.29 20.91, 1.38 16.39 C2.47 11.87, 5.16 6.78, 9.45 4.08 C13.75 1.39, 23.96 0.96, 27.15 0.21 C30.34 -0.53, 28.66 -0.54, 28.59 -0.38 M25.38 -1.24 C30.37 -1.85, 36.78 1.77, 40.88 4.55 C44.97 7.32, 48.76 10.9, 49.94 15.4 C51.11 19.91, 50.01 27.64, 47.93 31.57 C45.85 35.5, 42.37 37.24, 37.47 38.99 C32.56 40.74, 23.99 43.41, 18.51 42.09 C13.02 40.77, 7.57 35.14, 4.53 31.09 C1.5 27.04, -0.41 22.16, 0.28 17.79 C0.97 13.43, 4.8 7.77, 8.69 4.89 C12.58 2.01, 20.94 1.2, 23.65 0.51 C26.35 -0.18, 24.75 0.47, 24.91 0.76" stroke="#e03131" stroke-width="2" fill="none"></path></g><g transform="translate(591.3558013869036 103.9757965049946) rotate(0 6.351997375488281 10)"><text x="6.351997375488281" y="14.016" font-family="Virgil, Segoe UI Emoji" font-size="16px" fill="#e03131" text-anchor="middle" style="white-space: pre;" direction="ltr" dominant-baseline="alphabetic">v1</text></g><g stroke-linecap="round" transform="translate(656.7926483154297 33.6250114440918) rotate(0 26 21)"><path d="M29.25 0.71 C34.48 1.24, 40.61 4.75, 44.46 7.91 C48.32 11.07, 51.92 15.22, 52.39 19.67 C52.85 24.12, 50.86 30.98, 47.25 34.6 C43.65 38.23, 36.2 40.75, 30.75 41.43 C25.3 42.11, 19.38 40.9, 14.56 38.67 C9.74 36.43, 4.07 32.02, 1.82 28 C-0.43 23.97, -0.7 18.84, 1.06 14.54 C2.83 10.24, 7.37 4.69, 12.4 2.2 C17.44 -0.3, 27.75 -0.39, 31.3 -0.44 C34.84 -0.49, 33.55 1.34, 33.68 1.9 M13.94 0.81 C18.59 -1.07, 26.12 0.53, 31.96 1.7 C37.81 2.87, 45.64 4.07, 49.01 7.82 C52.37 11.57, 52.89 19.7, 52.15 24.2 C51.41 28.71, 48.58 31.98, 44.55 34.85 C40.51 37.73, 33.52 41.03, 27.94 41.45 C22.35 41.87, 15.77 39.84, 11.05 37.37 C6.33 34.89, 1 30.82, -0.4 26.61 C-1.79 22.41, 0.09 16.26, 2.66 12.16 C5.23 8.05, 12.77 3.58, 15.01 1.99 C17.25 0.39, 15.78 2.27, 16.11 2.58" stroke="#e03131" stroke-width="2" fill="none"></path></g><g transform="translate(673.0278747511614 44.77576903917429) rotate(0 9.879997253418026 10)"><text x="9.879997253417969" y="14.016" font-family="Virgil, Segoe UI Emoji" font-size="16px" fill="#e03131" text-anchor="middle" style="white-space: pre;" direction="ltr" dominant-baseline="alphabetic">v2</text></g><g stroke-linecap="round" transform="translate(640.7925567626953 158.4250144958496) rotate(0 26 21)"><path d="M32.61 -0.16 C38.14 0.56, 44.73 5.42, 47.88 9.15 C51.02 12.89, 51.85 17.99, 51.49 22.26 C51.12 26.52, 49.49 31.59, 45.71 34.74 C41.92 37.89, 34.54 40.51, 28.8 41.16 C23.06 41.81, 15.88 41.17, 11.26 38.63 C6.63 36.09, 2.65 30.46, 1.04 25.94 C-0.57 21.43, -0.61 15.42, 1.62 11.53 C3.85 7.65, 8.9 4.35, 14.44 2.66 C19.98 0.97, 31.44 1.63, 34.86 1.41 C38.27 1.2, 35.15 1.26, 34.91 1.37 M18.8 -0.19 C23.91 -1.85, 30.34 0.78, 35.39 2.38 C40.43 3.98, 46.36 5.77, 49.07 9.43 C51.78 13.09, 52.67 19.81, 51.63 24.33 C50.59 28.85, 47.33 33.52, 42.83 36.55 C38.32 39.58, 30.21 42.36, 24.6 42.49 C18.99 42.61, 13.28 40.27, 9.18 37.29 C5.08 34.32, 0.84 29.06, 0 24.63 C-0.84 20.19, 1.14 14.6, 4.12 10.71 C7.11 6.81, 15.73 2.57, 17.91 1.27 C20.08 -0.04, 17.25 2.63, 17.16 2.89" stroke="#e03131" stroke-width="2" fill="none"></path></g><g transform="translate(657.2757842970599 169.5757720909321) rotate(0 9.631996154785156 10)"><text x="9.631996154785156" y="14.016" font-family="Virgil, Segoe UI Emoji" font-size="16px" fill="#e03131" text-anchor="middle" style="white-space: pre;" direction="ltr" dominant-baseline="alphabetic">v3</text></g><g stroke-linecap="round" transform="translate(752.7925262451172 170.42502975463867) rotate(0 26 21)"><path d="M15.86 1.37 C20.66 -0.7, 29.67 -1.06, 35.04 0.24 C40.41 1.55, 45.35 5.21, 48.09 9.2 C50.82 13.18, 52.25 19.73, 51.47 24.15 C50.68 28.58, 47.56 32.92, 43.36 35.73 C39.16 38.54, 31.83 40.62, 26.25 41 C20.67 41.39, 14.01 40.58, 9.85 38.02 C5.7 35.47, 2.58 30.27, 1.31 25.68 C0.04 21.09, -1.31 14.89, 2.23 10.48 C5.77 6.08, 18.25 1.03, 22.53 -0.75 C26.82 -2.54, 27.79 -0.91, 27.92 -0.24 M14.75 1.02 C19.29 -1.4, 26.63 -1.06, 32.03 0.06 C37.43 1.19, 43.99 4.02, 47.12 7.79 C50.24 11.56, 51.13 18.03, 50.77 22.68 C50.42 27.34, 48.67 32.49, 44.99 35.71 C41.31 38.93, 34.14 41.47, 28.69 42.01 C23.24 42.54, 16.77 41.4, 12.27 38.92 C7.77 36.43, 3.44 31.26, 1.69 27.11 C-0.05 22.95, -0.18 18.19, 1.79 14 C3.76 9.8, 11.34 3.72, 13.49 1.93 C15.65 0.14, 14.4 2.72, 14.72 3.24" stroke="#e03131" stroke-width="2" fill="none"></path></g><g transform="translate(769.6037567091694 181.57578734972117) rotate(0 9.303993225097656 10)"><text x="9.303993225097656" y="14.016" font-family="Virgil, Segoe UI Emoji" font-size="16px" fill="#e03131" text-anchor="middle" style="white-space: pre;" direction="ltr" dominant-baseline="alphabetic">v6</text></g><g stroke-linecap="round" transform="translate(759.9925384521484 88.02502059936523) rotate(0 26 21)"><path d="M24.14 -0.66 C29.2 -1.07, 36.46 1.56, 40.97 4.17 C45.49 6.78, 49.92 10.8, 51.23 14.97 C52.53 19.14, 51.24 24.9, 48.79 29.19 C46.34 33.47, 41.39 38.61, 36.53 40.67 C31.67 42.74, 25.11 42.98, 19.63 41.56 C14.15 40.14, 6.85 36.11, 3.63 32.16 C0.41 28.21, -0.31 22.39, 0.29 17.88 C0.89 13.38, 2.68 7.97, 7.22 5.15 C11.76 2.34, 23.95 1.72, 27.53 1 C31.11 0.28, 28.7 0.59, 28.71 0.82 M15.98 1.07 C20.5 -0.71, 26.97 -0.08, 32.27 1.37 C37.57 2.82, 44.58 6.08, 47.78 9.78 C50.98 13.48, 52.03 19.11, 51.47 23.59 C50.9 28.06, 48.27 33.56, 44.38 36.63 C40.48 39.7, 33.81 41.61, 28.11 42.02 C22.4 42.44, 14.86 41.89, 10.15 39.14 C5.45 36.39, 1.09 30.02, -0.11 25.53 C-1.31 21.04, 0.33 16.01, 2.95 12.2 C5.57 8.38, 13.63 4.48, 15.61 2.63 C17.6 0.79, 14.55 0.84, 14.85 1.1" stroke="#1e1e1e" stroke-width="2" fill="none"></path></g><g transform="translate(776.979771418642 99.17577819444773) rotate(0 9.12799072265625 10)"><text x="9.12799072265625" y="14.016" font-family="Virgil, Segoe UI Emoji" font-size="16px" fill="#1e1e1e" text-anchor="middle" style="white-space: pre;" direction="ltr" dominant-baseline="alphabetic">v5</text></g><g stroke-linecap="round" transform="translate(867.1925506591797 164.02509689331055) rotate(0 26 21)"><path d="M16.87 0.43 C21.65 -1.52, 28.81 -1.52, 34.05 0.21 C39.28 1.94, 45.23 6.72, 48.29 10.82 C51.35 14.92, 53.44 20.55, 52.4 24.8 C51.36 29.05, 46.4 33.63, 42.07 36.33 C37.74 39.04, 31.96 41.02, 26.42 41.04 C20.87 41.06, 13.04 38.99, 8.81 36.46 C4.58 33.92, 2.11 30.11, 1.04 25.85 C-0.02 21.58, -0.74 15.02, 2.42 10.88 C5.58 6.74, 16.88 2.7, 19.99 1.01 C23.09 -0.68, 21.11 0.42, 21.04 0.74 M20.47 0.81 C25.71 -0.42, 32.67 0.45, 37.68 2.54 C42.7 4.63, 48.29 9.21, 50.57 13.35 C52.85 17.5, 53.2 22.96, 51.38 27.41 C49.55 31.85, 44.55 37.67, 39.61 40.02 C34.67 42.37, 27.19 42.21, 21.75 41.5 C16.32 40.79, 10.62 38.9, 6.98 35.78 C3.35 32.66, 0.38 27.56, -0.06 22.8 C-0.5 18.03, 0.82 10.81, 4.35 7.18 C7.88 3.56, 18.33 2.31, 21.12 1.05 C23.91 -0.21, 21.05 -0.74, 21.1 -0.35" stroke="#e03131" stroke-width="2" fill="none"></path></g><g transform="translate(884.8197830153217 175.17585448839304) rotate(0 8.487991333007812 10)"><text x="8.487991333007812" y="14.016" font-family="Virgil, Segoe UI Emoji" font-size="16px" fill="#e03131" text-anchor="middle" style="white-space: pre;" direction="ltr" dominant-baseline="alphabetic">v7</text></g><g stroke-linecap="round" transform="translate(893.5925750732422 60.0250358581543) rotate(0 26 21)"><path d="M14.49 2.64 C19.33 0.75, 27.74 0.09, 33.02 0.99 C38.3 1.88, 43 4.61, 46.18 8.03 C49.36 11.44, 52.45 17.03, 52.09 21.49 C51.73 25.95, 47.83 31.24, 44.04 34.81 C40.25 38.37, 34.92 42.24, 29.34 42.87 C23.76 43.51, 15.15 41.24, 10.55 38.61 C5.94 35.98, 3.24 31.45, 1.72 27.1 C0.2 22.75, -1.27 16.84, 1.42 12.52 C4.12 8.19, 14.51 3.26, 17.88 1.15 C21.25 -0.95, 21.42 -0.43, 21.66 -0.13 M29.31 0.48 C34.77 0.65, 41.62 3.11, 45.34 6.51 C49.06 9.91, 51.48 16.45, 51.62 20.88 C51.76 25.31, 49.39 29.55, 46.19 33.07 C42.99 36.59, 37.7 40.72, 32.41 42.01 C27.12 43.29, 19.67 43.02, 14.46 40.77 C9.25 38.51, 3.29 32.67, 1.17 28.49 C-0.95 24.32, -0.09 20.08, 1.73 15.72 C3.55 11.36, 7.5 4.77, 12.09 2.31 C16.68 -0.15, 26.33 1.36, 29.25 0.96 C32.17 0.55, 29.65 -0.11, 29.61 -0.09" stroke="#1e1e1e" stroke-width="2" fill="none"></path></g><g transform="translate(909.4038055372944 71.17579345323679) rotate(0 10.303993225097656 10)"><text x="10.303993225097656" y="14.016" font-family="Virgil, Segoe UI Emoji" font-size="16px" fill="#1e1e1e" text-anchor="middle" style="white-space: pre;" direction="ltr" dominant-baseline="alphabetic">v8</text></g><g stroke-linecap="round" transform="translate(758.3925628662109 15.225032806396484) rotate(0 26 21)"><path d="M31.65 0.05 C36.76 0.64, 44.04 4.2, 47.31 7.84 C50.57 11.47, 51.6 17.06, 51.24 21.87 C50.88 26.68, 49.1 33.33, 45.16 36.7 C41.21 40.07, 33.1 41.78, 27.57 42.09 C22.05 42.41, 16.56 41.18, 11.99 38.61 C7.42 36.04, 1.8 31.02, 0.13 26.67 C-1.53 22.31, -0.37 16.73, 2 12.49 C4.38 8.26, 8.88 3.14, 14.36 1.26 C19.84 -0.62, 31.19 1.09, 34.89 1.21 C38.6 1.33, 36.76 1.58, 36.58 1.96 M28.77 1.44 C33.83 1.62, 40.26 3.15, 44.16 6.32 C48.05 9.49, 51.72 15.76, 52.14 20.46 C52.57 25.16, 50.27 31.18, 46.72 34.51 C43.18 37.84, 36.16 39.48, 30.87 40.45 C25.57 41.41, 19.67 42.37, 14.97 40.3 C10.27 38.22, 4.9 32.1, 2.67 28.01 C0.44 23.92, -0.09 19.95, 1.58 15.75 C3.25 11.55, 7.99 5.58, 12.67 2.79 C17.35 0, 26.85 -0.44, 29.65 -0.98 C32.45 -1.52, 29.55 -1, 29.45 -0.43" stroke="#1e1e1e" stroke-width="2" fill="none"></path></g><g transform="translate(775.2037933302631 26.37579040147898) rotate(0 9.303993225097656 10)"><text x="9.303993225097656" y="14.016" font-family="Virgil, Segoe UI Emoji" font-size="16px" fill="#1e1e1e" text-anchor="middle" style="white-space: pre;" direction="ltr" dominant-baseline="alphabetic">v4</text></g><g stroke-linecap="round"><g transform="translate(614.7287146296484 96.0687478677925) rotate(0 22.310269003435963 -15.264932291826668)"><path d="M0 0 C14.68 -11.4, 31.32 -22.44, 44.62 -30.53 M0 0 C10.96 -7.68, 20.91 -13.94, 44.62 -30.53" stroke="#e03131" stroke-width="2" fill="none"></path></g><g transform="translate(614.7287146296484 96.0687478677925) rotate(0 22.310269003435963 -15.264932291826668)"><path d="M45.6 -30.97 L36.23 -18.09 L30.38 -28.62 L44.45 -30.55" stroke="none" stroke-width="0" fill="#e03131" fill-rule="evenodd"></path><path d="M44.62 -30.53 C41.38 -26.44, 39.47 -22.16, 37.04 -17.59 M44.62 -30.53 C43.18 -27.86, 41.13 -24.24, 37.04 -17.59 M37.04 -17.59 C34.5 -20.9, 32.06 -24.96, 29.83 -28.02 M37.04 -17.59 C34.57 -21.01, 32.36 -24.44, 29.83 -28.02 M29.83 -28.02 C35.5 -29.26, 39.71 -29.61, 44.62 -30.53 M29.83 -28.02 C34.62 -29.17, 40.1 -29.64, 44.62 -30.53 M44.62 -30.53 C44.62 -30.53, 44.62 -30.53, 44.62 -30.53 M44.62 -30.53 C44.62 -30.53, 44.62 -30.53, 44.62 -30.53" stroke="#e03131" stroke-width="2" fill="none"></path></g></g><mask></mask><g stroke-linecap="round"><g transform="translate(616.0538416595768 130.9079853833876) rotate(0 14.839997317156758 17.374290193747555)"><path d="M0 0 C10 10.83, 19.16 22.72, 29.68 34.75 M0 0 C10.95 13, 21.69 24.75, 29.68 34.75" stroke="#e03131" stroke-width="2" fill="none"></path></g><g transform="translate(616.0538416595768 130.9079853833876) rotate(0 14.839997317156758 17.374290193747555)"><path d="M28.87 34.24 L16.66 27.74 L25.69 20.22 L30.05 34.94" stroke="none" stroke-width="0" fill="#e03131" fill-rule="evenodd"></path><path d="M29.68 34.75 C25.25 31.83, 20.06 29.82, 16.11 28.35 M29.68 34.75 C24.84 32.64, 19.99 29.77, 16.11 28.35 M16.11 28.35 C18.82 25.37, 22.27 23.43, 25.86 20.24 M16.11 28.35 C19.37 25.81, 22.52 23.14, 25.86 20.24 M25.86 20.24 C26.83 24.38, 28.36 28.29, 29.68 34.75 M25.86 20.24 C27.37 25.63, 28.71 30.42, 29.68 34.75 M29.68 34.75 C29.68 34.75, 29.68 34.75, 29.68 34.75 M29.68 34.75 C29.68 34.75, 29.68 34.75, 29.68 34.75" stroke="#e03131" stroke-width="2" fill="none"></path></g></g><mask></mask><g stroke-linecap="round"><g transform="translate(708.0278974088542 46.80184701348844) rotate(0 24.822943364161347 -3.704914388717796)"><path d="M0 0 C11.16 -2.3, 24.28 -2.31, 49.65 -7.41 M0 0 C10.4 -2.11, 20.54 -3.4, 49.65 -7.41" stroke="#e03131" stroke-width="2" fill="none"></path></g><g transform="translate(708.0278974088542 46.80184701348844) rotate(0 24.822943364161347 -3.704914388717796)"><path d="M50.19 -8.02 L36.87 0.7 L35.69 -11.65 L50.41 -7.44" stroke="none" stroke-width="0" fill="#e03131" fill-rule="evenodd"></path><path d="M49.65 -7.41 C46.13 -6.11, 44.09 -2.85, 37.04 0.72 M49.65 -7.41 C47.16 -5.99, 44.46 -4.13, 37.04 0.72 M37.04 0.72 C36.72 -3.27, 36.1 -7.45, 35.31 -11.84 M37.04 0.72 C36.61 -3.16, 35.88 -6.8, 35.31 -11.84 M35.31 -11.84 C39.15 -10.8, 42.82 -10.19, 49.65 -7.41 M35.31 -11.84 C38.81 -11.15, 42.12 -9.59, 49.65 -7.41 M49.65 -7.41 C49.65 -7.41, 49.65 -7.41, 49.65 -7.41 M49.65 -7.41 C49.65 -7.41, 49.65 -7.41, 49.65 -7.41" stroke="#e03131" stroke-width="2" fill="none"></path></g></g><mask></mask><g stroke-linecap="round"><g transform="translate(703.4649502531252 71.95513499668382) rotate(0 28.287747941885073 15.500129378753158)"><path d="M0 0 C12.54 8.74, 21.03 13.48, 56.58 31 M0 0 C21.08 11.61, 42.17 22.98, 56.58 31" stroke="#e03131" stroke-width="2" fill="none"></path></g><g transform="translate(703.4649502531252 71.95513499668382) rotate(0 28.287747941885073 15.500129378753158)"><path d="M56.23 30.96 L42.35 30.37 L49.25 18.83 L57.71 31.14" stroke="none" stroke-width="0" fill="#e03131" fill-rule="evenodd"></path><path d="M56.58 31 C54.43 32.16, 49.07 30.76, 41.61 29.99 M56.58 31 C51.06 30.26, 45.63 29.81, 41.61 29.99 M41.61 29.99 C43.2 27.23, 44.41 25.53, 47.73 18.89 M41.61 29.99 C43.41 26.94, 45.19 22.66, 47.73 18.89 M47.73 18.89 C51.46 21.62, 52.3 27.16, 56.58 31 M47.73 18.89 C50.99 23.46, 54.19 26.82, 56.58 31 M56.58 31 C56.58 31, 56.58 31, 56.58 31 M56.58 31 C56.58 31, 56.58 31, 56.58 31" stroke="#e03131" stroke-width="2" fill="none"></path></g></g><mask></mask><g stroke-linecap="round"><g transform="translate(816.3821755165591 105.62755679494217) rotate(0 38.01562020151596 -9.203786312516968)"><path d="M0 0 C15 -4.48, 35.26 -8.38, 76.03 -18.41 M0 0 C16.79 -4.2, 32.43 -7.47, 76.03 -18.41" stroke="#1e1e1e" stroke-width="2" fill="none"></path></g><g transform="translate(816.3821755165591 105.62755679494217) rotate(0 38.01562020151596 -9.203786312516968)"><path d="M76.78 -18.03 L65.87 -9.05 L62.45 -21.17 L74.13 -16.83" stroke="none" stroke-width="0" fill="#1e1e1e" fill-rule="evenodd"></path><path d="M76.03 -18.41 C72.08 -15.9, 71.92 -13.65, 64.35 -9 M76.03 -18.41 C73.62 -16.71, 70.34 -14.09, 64.35 -9 M64.35 -9 C63.53 -12.3, 62.78 -15.98, 61.31 -21.31 M64.35 -9 C63.11 -12.85, 62.61 -16.19, 61.31 -21.31 M61.31 -21.31 C64.66 -19.64, 70.56 -18.92, 76.03 -18.41 M61.31 -21.31 C64.96 -21.08, 67.98 -20.7, 76.03 -18.41 M76.03 -18.41 C76.03 -18.41, 76.03 -18.41, 76.03 -18.41 M76.03 -18.41 C76.03 -18.41, 76.03 -18.41, 76.03 -18.41" stroke="#1e1e1e" stroke-width="2" fill="none"></path></g></g><mask></mask><g stroke-linecap="round"><g transform="translate(694.6361718136861 186.30793279802214) rotate(0 27.961257938023323 1.7331078093744452)"><path d="M0 0 C23.68 1.87, 42.95 2.74, 55.92 3.47 M0 0 C14.15 1.49, 29.91 2.31, 55.92 3.47" stroke="#e03131" stroke-width="2" fill="none"></path></g><g transform="translate(694.6361718136861 186.30793279802214) rotate(0 27.961257938023323 1.7331078093744452)"><path d="M57.45 3.41 L43.18 9.31 L40.74 -1.92 L57.69 3.04" stroke="none" stroke-width="0" fill="#e03131" fill-rule="evenodd"></path><path d="M55.92 3.47 C51.39 6.21, 43.58 8.1, 42.05 9.16 M55.92 3.47 C51.64 5.17, 48.55 6.61, 42.05 9.16 M42.05 9.16 C42.5 6.17, 42.41 1.9, 42.64 -3.5 M42.05 9.16 C42.42 4.54, 42.54 -0.23, 42.64 -3.5 M42.64 -3.5 C46.21 -1.39, 47.45 0.1, 55.92 3.47 M42.64 -3.5 C47.68 -1.53, 52.34 1.01, 55.92 3.47 M55.92 3.47 C55.92 3.47, 55.92 3.47, 55.92 3.47 M55.92 3.47 C55.92 3.47, 55.92 3.47, 55.92 3.47" stroke="#e03131" stroke-width="2" fill="none"></path></g></g><mask></mask><g stroke-linecap="round"><g transform="translate(807.5850056681259 190.6317764156674) rotate(0 29.250026640013857 -1.849191596265058)"><path d="M0 0 C17.02 -1.27, 36.66 -2.16, 58.5 -3.7 M0 0 C15.08 -0.93, 29.82 -1.99, 58.5 -3.7" stroke="#e03131" stroke-width="2" fill="none"></path></g><g transform="translate(807.5850056681259 190.6317764156674) rotate(0 29.250026640013857 -1.849191596265058)"><path d="M59.63 -3.56 L43.42 5.04 L46.31 -9.61 L60.27 -1.99" stroke="none" stroke-width="0" fill="#e03131" fill-rule="evenodd"></path><path d="M58.5 -3.7 C53.12 -1.31, 49.64 1.19, 45.32 3.46 M58.5 -3.7 C55.09 -1.66, 51.5 0.1, 45.32 3.46 M45.32 3.46 C45.08 -1.05, 45.86 -5.7, 44.54 -9.19 M45.32 3.46 C45.05 0.32, 44.43 -4.02, 44.54 -9.19 M44.54 -9.19 C48.16 -6.87, 55.09 -4.54, 58.5 -3.7 M44.54 -9.19 C48.37 -8.17, 51.91 -6.14, 58.5 -3.7 M58.5 -3.7 C58.5 -3.7, 58.5 -3.7, 58.5 -3.7 M58.5 -3.7 C58.5 -3.7, 58.5 -3.7, 58.5 -3.7" stroke="#e03131" stroke-width="2" fill="none"></path></g></g><mask></mask><g stroke-linecap="round"><g transform="translate(876.138936963278 166.77791106395273) rotate(0 -34.920851078954 -21.625974737516344)"><path d="M0 0 C-23.32 -13.85, -46.54 -30.05, -69.84 -43.25 M0 0 C-23.48 -14.13, -46.12 -28.38, -69.84 -43.25" stroke="#e03131" stroke-width="2" fill="none"></path></g><g transform="translate(876.138936963278 166.77791106395273) rotate(0 -34.920851078954 -21.625974737516344)"><path d="M-71.75 -41.67 L-53.19 -41.83 L-59.92 -28.95 L-70.42 -43.86" stroke="none" stroke-width="0" fill="#e03131" fill-rule="evenodd"></path><path d="M-69.84 -43.25 C-65.45 -42.37, -60.7 -43.22, -54.96 -41.4 M-69.84 -43.25 C-65.07 -42.59, -59.67 -41.88, -54.96 -41.4 M-54.96 -41.4 C-56.15 -38.46, -59.79 -33.97, -61.69 -30.66 M-54.96 -41.4 C-57.7 -38.12, -59.26 -33.79, -61.69 -30.66 M-61.69 -30.66 C-63.51 -34.01, -67.73 -38.61, -69.84 -43.25 M-61.69 -30.66 C-63.41 -33.44, -65.44 -36.89, -69.84 -43.25 M-69.84 -43.25 C-69.84 -43.25, -69.84 -43.25, -69.84 -43.25 M-69.84 -43.25 C-69.84 -43.25, -69.84 -43.25, -69.84 -43.25" stroke="#e03131" stroke-width="2" fill="none"></path></g></g><mask></mask><g transform="translate(521.9925689697266 217.12502670288086) rotate(0 234.375 48)"><text x="0" y="19.3125" font-family="Cascadia, Segoe UI Emoji" font-size="20px" fill="#1e1e1e" text-anchor="start" style="white-space: pre;" direction="ltr" dominant-baseline="alphabetic">grado_in:  0   0   0   0   0   0   0   1</text><text x="0" y="43.3125" font-family="Cascadia, Segoe UI Emoji" font-size="20px" fill="#1e1e1e" text-anchor="start" style="white-space: pre;" direction="ltr" dominant-baseline="alphabetic">          v1  v2  v3  v4  v5  v6  v7  v8</text><text x="0" y="67.3125" font-family="Cascadia, Segoe UI Emoji" font-size="20px" fill="#1e1e1e" text-anchor="start" style="white-space: pre;" direction="ltr" dominant-baseline="alphabetic">pila: v4 v5</text><text x="0" y="91.3125" font-family="Cascadia, Segoe UI Emoji" font-size="20px" fill="#1e1e1e" text-anchor="start" style="white-space: pre;" direction="ltr" dominant-baseline="alphabetic">result = v1 v3 v6 v7 v2</text></g><g transform="translate(522.7925567626953 10.225017547607422) rotate(0 35.15625 12)"><text x="0" y="19.3125" font-family="Cascadia, Segoe UI Emoji" font-size="20px" fill="#1e1e1e" text-anchor="start" style="white-space: pre;" direction="ltr" dominant-baseline="alphabetic">Paso 5</text></g><g stroke-linecap="round" transform="translate(59.60003662109375 408.60009765625) rotate(0 26 21)"><path d="M14.6 2.03 C19.43 0.18, 28.23 0.03, 33.82 1.26 C39.41 2.49, 45.3 5.89, 48.14 9.44 C50.98 12.98, 51.47 17.97, 50.85 22.53 C50.22 27.08, 48.36 33.61, 44.41 36.77 C40.45 39.93, 32.84 41.17, 27.11 41.5 C21.39 41.84, 14.36 41.3, 10.06 38.79 C5.76 36.28, 2.51 30.92, 1.31 26.44 C0.11 21.96, -0.65 16.32, 2.87 11.9 C6.4 7.49, 18.18 1.71, 22.45 -0.03 C26.72 -1.78, 28.4 0.98, 28.49 1.44 M25.19 -0.09 C30.42 -0.47, 36.32 1.56, 40.53 4.18 C44.74 6.79, 48.91 11.37, 50.42 15.58 C51.93 19.8, 52.12 25.5, 49.6 29.46 C47.07 33.42, 40.22 37.64, 35.28 39.35 C30.33 41.05, 25.12 40.9, 19.92 39.69 C14.71 38.47, 7.28 35.51, 4.05 32.05 C0.81 28.6, 0.01 23.29, 0.52 18.94 C1.04 14.58, 3.08 8.87, 7.12 5.92 C11.17 2.96, 21.97 1.99, 24.78 1.21 C27.59 0.43, 23.8 1.04, 24 1.23" stroke="#e03131" stroke-width="2" fill="none"></path></g><g transform="translate(79.3632629347552 419.7508552513325) rotate(0 6.351997375488281 10)"><text x="6.351997375488281" y="14.016" font-family="Virgil, Segoe UI Emoji" font-size="16px" fill="#e03131" text-anchor="middle" style="white-space: pre;" direction="ltr" dominant-baseline="alphabetic">v1</text></g><g stroke-linecap="round" transform="translate(144.80010986328125 349.4000701904297) rotate(0 26 21)"><path d="M30 0.26 C35.05 0.37, 40.52 2.67, 44.26 6.08 C48 9.5, 52.16 16.2, 52.45 20.75 C52.74 25.3, 49.6 29.8, 46.02 33.41 C42.44 37.02, 36.25 41.3, 30.99 42.41 C25.73 43.52, 19.28 42.28, 14.47 40.07 C9.65 37.87, 4.19 33.48, 2.1 29.18 C0.01 24.88, 0.2 18.44, 1.92 14.28 C3.65 10.11, 7.57 6.45, 12.46 4.18 C17.34 1.92, 28.12 1.35, 31.24 0.71 C34.36 0.07, 31.49 -0.02, 31.2 0.34 M23.99 -0.54 C29.49 -1.16, 37.79 0.71, 42.18 3.39 C46.57 6.06, 48.97 11.21, 50.34 15.52 C51.72 19.84, 52.86 25.2, 50.42 29.26 C47.98 33.32, 41.03 37.88, 35.71 39.9 C30.4 41.92, 23.98 42.63, 18.54 41.39 C13.09 40.15, 6.05 36.13, 3.05 32.47 C0.05 28.81, -0.28 23.8, 0.53 19.44 C1.34 15.08, 3.65 9.49, 7.93 6.29 C12.22 3.1, 23.56 1.28, 26.24 0.24 C28.92 -0.79, 24.31 -0.33, 24 0.09" stroke="#e03131" stroke-width="2" fill="none"></path></g><g transform="translate(161.03533629901312 360.5508277855122) rotate(0 9.879997253417969 10)"><text x="9.879997253417969" y="14.016" font-family="Virgil, Segoe UI Emoji" font-size="16px" fill="#e03131" text-anchor="middle" style="white-space: pre;" direction="ltr" dominant-baseline="alphabetic">v2</text></g><g stroke-linecap="round" transform="translate(128.80001831054688 474.2000732421875) rotate(0 26 21)"><path d="M27.35 0.58 C32.73 0.52, 38.87 1.87, 42.85 4.93 C46.83 7.99, 50.26 14.33, 51.22 18.94 C52.19 23.55, 51.47 28.9, 48.64 32.61 C45.81 36.31, 39.5 39.94, 34.22 41.2 C28.94 42.46, 22.1 41.73, 16.96 40.17 C11.82 38.6, 5.98 35.68, 3.38 31.82 C0.77 27.97, 0.25 21.69, 1.33 17.04 C2.41 12.4, 4.74 6.58, 9.86 3.93 C14.98 1.29, 27.42 1.47, 32.06 1.17 C36.69 0.86, 37.68 1.92, 37.66 2.09 M20.15 -0.56 C25.46 -1.7, 35.11 -1.02, 40.1 1.26 C45.09 3.53, 48.29 8.58, 50.09 13.09 C51.88 17.6, 52.86 23.95, 50.88 28.31 C48.91 32.67, 43.04 36.82, 38.24 39.25 C33.44 41.68, 27.5 43.53, 22.09 42.9 C16.68 42.27, 9.23 39.03, 5.78 35.46 C2.33 31.89, 1.51 26.15, 1.38 21.47 C1.25 16.78, 1.81 10.75, 5 7.34 C8.2 3.94, 17.68 1.89, 20.56 1.03 C23.44 0.17, 22.24 2.09, 22.3 2.18" stroke="#e03131" stroke-width="2" fill="none"></path></g><g transform="translate(145.28324584491156 485.35083083727) rotate(0 9.631996154785156 10)"><text x="9.631996154785156" y="14.016" font-family="Virgil, Segoe UI Emoji" font-size="16px" fill="#e03131" text-anchor="middle" style="white-space: pre;" direction="ltr" dominant-baseline="alphabetic">v3</text></g><g stroke-linecap="round" transform="translate(240.79998779296875 486.20008850097656) rotate(0 26 21)"><path d="M32.76 1.72 C38.12 2.82, 44.99 6.2, 48.2 9.83 C51.41 13.47, 52.6 19.19, 52.01 23.53 C51.42 27.87, 48.65 32.63, 44.66 35.86 C40.66 39.09, 33.56 42.49, 28.02 42.9 C22.47 43.31, 15.95 41.23, 11.38 38.32 C6.82 35.42, 2.17 29.81, 0.62 25.45 C-0.92 21.1, -0.33 16.24, 2.14 12.18 C4.61 8.13, 9.74 2.96, 15.45 1.12 C21.16 -0.71, 32.54 0.76, 36.41 1.17 C40.29 1.58, 38.97 3.26, 38.69 3.57 M17.85 0.5 C22.62 -0.76, 31.19 0.11, 36.21 1.93 C41.24 3.75, 45.41 7.3, 48 11.42 C50.58 15.54, 52.81 22.15, 51.71 26.65 C50.62 31.14, 45.63 35.79, 41.4 38.39 C37.18 40.98, 31.97 42.57, 26.34 42.21 C20.71 41.84, 12.07 39.14, 7.62 36.19 C3.16 33.24, 0.04 28.65, -0.4 24.48 C-0.83 20.32, 2.08 15.25, 5.03 11.19 C7.99 7.13, 15.08 1.71, 17.34 0.13 C19.6 -1.45, 18.54 1.37, 18.57 1.72" stroke="#e03131" stroke-width="2" fill="none"></path></g><g transform="translate(257.61121825702094 497.35084609605906) rotate(0 9.303993225097656 10)"><text x="9.303993225097656" y="14.016" font-family="Virgil, Segoe UI Emoji" font-size="16px" fill="#e03131" text-anchor="middle" style="white-space: pre;" direction="ltr" dominant-baseline="alphabetic">v6</text></g><g stroke-linecap="round" transform="translate(248 403.8000793457031) rotate(0 26 21)"><path d="M37.27 2.24 C42.22 3.69, 47.95 7.7, 50.3 11.91 C52.66 16.11, 52.86 23.03, 51.41 27.48 C49.95 31.94, 46.23 36.34, 41.58 38.65 C36.92 40.97, 29.25 41.78, 23.49 41.38 C17.72 40.98, 10.9 39.47, 6.98 36.25 C3.07 33.04, 0.36 26.73, 0 22.07 C-0.36 17.41, 1.63 11.81, 4.8 8.29 C7.97 4.77, 13.46 1.97, 19.02 0.92 C24.58 -0.12, 34.75 1.39, 38.17 2.03 C41.59 2.67, 39.8 4.4, 39.53 4.79 M20.68 0.47 C25.84 -0.36, 34.62 1.7, 39.5 4.08 C44.39 6.46, 47.97 10.68, 50.01 14.76 C52.05 18.84, 53.75 24.55, 51.73 28.58 C49.72 32.6, 43.1 36.64, 37.92 38.93 C32.73 41.22, 25.8 42.84, 20.63 42.32 C15.47 41.79, 10.52 39.49, 6.95 35.77 C3.39 32.04, -0.68 24.63, -0.75 19.95 C-0.82 15.28, 3.03 11.1, 6.55 7.69 C10.07 4.28, 17.73 0.68, 20.36 -0.5 C23 -1.67, 21.83 -0.02, 22.36 0.62" stroke="#e03131" stroke-width="2" fill="none"></path></g><g transform="translate(264.9872329664936 414.9508369407856) rotate(0 9.12799072265625 10)"><text x="9.12799072265625" y="14.016" font-family="Virgil, Segoe UI Emoji" font-size="16px" fill="#e03131" text-anchor="middle" style="white-space: pre;" direction="ltr" dominant-baseline="alphabetic">v5</text></g><g stroke-linecap="round" transform="translate(355.20001220703125 479.80015563964844) rotate(0 26 21)"><path d="M29.34 1.09 C34.65 1.44, 41.93 3.95, 45.68 6.98 C49.43 10.01, 51.73 14.74, 51.84 19.25 C51.94 23.75, 49.63 30.43, 46.31 34.02 C42.99 37.61, 37.24 39.92, 31.91 40.78 C26.58 41.64, 19.38 41.06, 14.35 39.19 C9.33 37.32, 4.07 33.7, 1.76 29.55 C-0.56 25.4, -1.1 18.49, 0.46 14.29 C2.01 10.09, 5.7 6.61, 11.09 4.36 C16.49 2.11, 28.38 1.01, 32.81 0.8 C37.24 0.58, 37.61 2.83, 37.68 3.08 M27.08 0.81 C32.56 0.65, 41.29 3.08, 45.27 5.98 C49.25 8.89, 50.65 13.72, 50.94 18.27 C51.24 22.81, 49.81 29.21, 47.06 33.25 C44.3 37.3, 39.77 41.51, 34.41 42.54 C29.05 43.56, 20.12 41.37, 14.89 39.4 C9.67 37.42, 5.64 34.71, 3.06 30.7 C0.47 26.69, -1.97 19.77, -0.63 15.32 C0.71 10.88, 6.16 6.43, 11.09 4.04 C16.02 1.65, 26.19 1.69, 28.97 1 C31.74 0.3, 27.84 -0.23, 27.74 -0.15" stroke="#e03131" stroke-width="2" fill="none"></path></g><g transform="translate(372.8272445631733 490.95091323473093) rotate(0 8.487991333007812 10)"><text x="8.487991333007812" y="14.016" font-family="Virgil, Segoe UI Emoji" font-size="16px" fill="#e03131" text-anchor="middle" style="white-space: pre;" direction="ltr" dominant-baseline="alphabetic">v7</text></g><g stroke-linecap="round" transform="translate(381.60003662109375 375.8000946044922) rotate(0 26 21)"><path d="M37.76 1.79 C42.4 3.51, 47.25 9.2, 49.42 13.33 C51.59 17.46, 52.3 22.42, 50.75 26.55 C49.2 30.67, 44.85 35.48, 40.12 38.07 C35.39 40.65, 28.02 42.65, 22.38 42.07 C16.75 41.49, 10.13 37.77, 6.3 34.58 C2.47 31.4, -0.26 27.35, -0.59 22.94 C-0.92 18.54, 0.91 11.85, 4.33 8.15 C7.74 4.45, 13.7 1.57, 19.9 0.76 C26.09 -0.05, 37.46 2.34, 41.48 3.3 C45.5 4.27, 44.17 6.21, 44.01 6.55 M31.75 0.35 C36.62 1.26, 43.09 5.59, 46.62 9.56 C50.14 13.53, 53.41 19.93, 52.92 24.16 C52.43 28.39, 47.74 31.92, 43.7 34.93 C39.66 37.95, 34.32 41.82, 28.68 42.24 C23.03 42.66, 14.35 40.1, 9.82 37.46 C5.28 34.82, 2.48 30.47, 1.47 26.42 C0.47 22.37, 1.51 17.32, 3.79 13.15 C6.06 8.98, 10.16 3.58, 15.12 1.4 C20.09 -0.78, 30.65 -0.08, 33.56 0.07 C36.47 0.22, 32.86 1.7, 32.57 2.3" stroke="#1e1e1e" stroke-width="2" fill="none"></path></g><g transform="translate(397.41126708514594 386.9508521995747) rotate(0 10.303993225097656 10)"><text x="10.303993225097656" y="14.016" font-family="Virgil, Segoe UI Emoji" font-size="16px" fill="#1e1e1e" text-anchor="middle" style="white-space: pre;" direction="ltr" dominant-baseline="alphabetic">v8</text></g><g stroke-linecap="round" transform="translate(246.4000244140625 331.0000915527344) rotate(0 26 21)"><path d="M19.1 0.08 C24.22 -1.48, 31.92 -0.68, 36.93 1.36 C41.94 3.39, 46.89 8.25, 49.16 12.3 C51.42 16.35, 51.97 21.22, 50.5 25.68 C49.04 30.14, 44.97 36.39, 40.36 39.07 C35.76 41.75, 28.36 42.25, 22.86 41.76 C17.36 41.27, 11.1 39.39, 7.34 36.13 C3.59 32.87, 0.77 26.7, 0.35 22.22 C-0.08 17.73, 0.89 12.95, 4.78 9.22 C8.66 5.48, 19.95 1.13, 23.68 -0.18 C27.42 -1.49, 27.23 1.04, 27.18 1.35 M24.03 1.54 C29.22 0.53, 35.03 0.31, 39.56 2.6 C44.1 4.9, 49.74 11, 51.24 15.33 C52.73 19.65, 50.69 24.5, 48.52 28.56 C46.35 32.62, 42.73 37.39, 38.21 39.69 C33.68 42, 26.85 43.52, 21.36 42.39 C15.88 41.26, 8.72 36.79, 5.32 32.92 C1.92 29.04, 0.65 23.32, 0.96 19.13 C1.27 14.93, 3.52 10.78, 7.17 7.77 C10.83 4.76, 20.4 2.2, 22.88 1.07 C25.35 -0.06, 22.03 0.64, 22.02 1.01" stroke="#1e1e1e" stroke-width="2" fill="none"></path></g><g transform="translate(263.2112548781147 342.15084914781687) rotate(0 9.303993225097656 10)"><text x="9.303993225097656" y="14.016" font-family="Virgil, Segoe UI Emoji" font-size="16px" fill="#1e1e1e" text-anchor="middle" style="white-space: pre;" direction="ltr" dominant-baseline="alphabetic">v4</text></g><g stroke-linecap="round"><g transform="translate(102.74314089067207 411.8390412805081) rotate(0 22.3067866468499 -15.26254962501551)"><path d="M0 0 C11.01 -8.3, 22.14 -15.77, 44.61 -30.53 M0 0 C11.34 -8.19, 23.86 -16.38, 44.61 -30.53" stroke="#e03131" stroke-width="2" fill="none"></path></g><g transform="translate(102.74314089067207 411.8390412805081) rotate(0 22.3067866468499 -15.26254962501551)"><path d="M45.51 -30.08 L36.53 -16.67 L29.45 -29.08 L43.7 -30.16" stroke="none" stroke-width="0" fill="#e03131" fill-rule="evenodd"></path><path d="M44.61 -30.53 C42.61 -27.82, 40.79 -24.58, 36.92 -17.65 M44.61 -30.53 C42.35 -27.4, 40.92 -24.14, 36.92 -17.65 M36.92 -17.65 C35.07 -21.05, 32.97 -23.47, 29.8 -28.14 M36.92 -17.65 C34.54 -21.55, 31.36 -25.65, 29.8 -28.14 M29.8 -28.14 C34.32 -29.18, 37.01 -29.26, 44.61 -30.53 M29.8 -28.14 C34.72 -28.89, 39.69 -29.4, 44.61 -30.53 M44.61 -30.53 C44.61 -30.53, 44.61 -30.53, 44.61 -30.53 M44.61 -30.53 C44.61 -30.53, 44.61 -30.53, 44.61 -30.53" stroke="#e03131" stroke-width="2" fill="none"></path></g></g><mask></mask><g stroke-linecap="round"><g transform="translate(104.06729510449418 446.6900592899177) rotate(0 14.837001368623902 17.370782613651443)"><path d="M0 0 C10.32 11.6, 20.25 24.49, 29.67 34.74 M0 0 C7.36 7.84, 13.85 16.37, 29.67 34.74" stroke="#e03131" stroke-width="2" fill="none"></path></g><g transform="translate(104.06729510449418 446.6900592899177) rotate(0 14.837001368623902 17.370782613651443)"><path d="M29.29 35.72 L15.68 27.55 L24.79 20.64 L29.78 34.18" stroke="none" stroke-width="0" fill="#e03131" fill-rule="evenodd"></path><path d="M29.67 34.74 C24.95 32.09, 19.92 30.52, 16.04 28.49 M29.67 34.74 C26.81 32.86, 23.18 31.61, 16.04 28.49 M16.04 28.49 C19.23 25.99, 22.78 23, 25.7 20.28 M16.04 28.49 C19.21 25.52, 22.67 22.85, 25.7 20.28 M25.7 20.28 C26.8 25.76, 28.85 30.25, 29.67 34.74 M25.7 20.28 C27.06 24.1, 27.75 27.29, 29.67 34.74 M29.67 34.74 C29.67 34.74, 29.67 34.74, 29.67 34.74 M29.67 34.74 C29.67 34.74, 29.67 34.74, 29.67 34.74" stroke="#e03131" stroke-width="2" fill="none"></path></g></g><mask></mask><g stroke-linecap="round"><g transform="translate(196.03535895670598 362.57690575982633) rotate(0 24.822943364161233 -3.704914388717782)"><path d="M0 0 C11.27 -1.36, 22.66 -4.03, 49.65 -7.41 M0 0 C11.71 -1.69, 23.73 -3.17, 49.65 -7.41" stroke="#e03131" stroke-width="2" fill="none"></path></g><g transform="translate(196.03535895670598 362.57690575982633) rotate(0 24.822943364161233 -3.704914388717782)"><path d="M49.29 -8.35 L36.29 1.33 L35.33 -12.11 L50.36 -6.91" stroke="none" stroke-width="0" fill="#e03131" fill-rule="evenodd"></path><path d="M49.65 -7.41 C46.45 -5.3, 43.34 -4.03, 37.21 0.97 M49.65 -7.41 C46.66 -5.6, 43.85 -3.39, 37.21 0.97 M37.21 0.97 C37.24 -2.14, 36.61 -4.25, 35.23 -11.55 M37.21 0.97 C36.49 -2.83, 36.21 -6.62, 35.23 -11.55 M35.23 -11.55 C38.98 -11.2, 42.03 -9.21, 49.65 -7.41 M35.23 -11.55 C39.54 -10.53, 43.96 -9.32, 49.65 -7.41 M49.65 -7.41 C49.65 -7.41, 49.65 -7.41, 49.65 -7.41 M49.65 -7.41 C49.65 -7.41, 49.65 -7.41, 49.65 -7.41" stroke="#e03131" stroke-width="2" fill="none"></path></g></g><mask></mask><g stroke-linecap="round"><g transform="translate(191.48812695000242 387.7388047799841) rotate(0 28.279890367372218 15.495823860272026)"><path d="M0 0 C12.3 5.98, 26.02 16.67, 56.56 30.99 M0 0 C11.74 6.76, 22.38 12.97, 56.56 30.99" stroke="#e03131" stroke-width="2" fill="none"></path></g><g transform="translate(191.48812695000242 387.7388047799841) rotate(0 28.279890367372218 15.495823860272026)"><path d="M54.73 31.71 L41.78 29.07 L48.98 20 L55.71 29.17" stroke="none" stroke-width="0" fill="#e03131" fill-rule="evenodd"></path><path d="M56.56 30.99 C51.99 29.79, 48.39 32, 41.58 30.19 M56.56 30.99 C53.68 30.96, 49.93 30.71, 41.58 30.19 M41.58 30.19 C44.06 27.79, 45.51 22.28, 47.54 19 M41.58 30.19 C43.71 27.66, 44.61 23.6, 47.54 19 M47.54 19 C49.68 23.5, 53.28 28.18, 56.56 30.99 M47.54 19 C51.3 23.09, 54.15 28.36, 56.56 30.99 M56.56 30.99 C56.56 30.99, 56.56 30.99, 56.56 30.99 M56.56 30.99 C56.56 30.99, 56.56 30.99, 56.56 30.99" stroke="#e03131" stroke-width="2" fill="none"></path></g></g><mask></mask><g stroke-linecap="round"><g transform="translate(304.3913665387181 421.40219682623933) rotate(0 38.01302379437732 -9.203157708370611)"><path d="M0 0 C23.48 -3.62, 47.4 -11.71, 76.03 -18.41 M0 0 C19.56 -4.97, 40.73 -9.22, 76.03 -18.41" stroke="#e03131" stroke-width="2" fill="none"></path></g><g transform="translate(304.3913665387181 421.40219682623933) rotate(0 38.01302379437732 -9.203157708370611)"><path d="M76.23 -19.53 L65.81 -7.96 L60.45 -23.07 L75.51 -16.71" stroke="none" stroke-width="0" fill="#e03131" fill-rule="evenodd"></path><path d="M76.03 -18.41 C71.27 -14.07, 67 -12.61, 64.38 -8.95 M76.03 -18.41 C72.43 -15.77, 69.99 -12.75, 64.38 -8.95 M64.38 -8.95 C63.68 -12.96, 62.38 -16.02, 61.3 -21.25 M64.38 -8.95 C62.92 -13.53, 62.31 -17.26, 61.3 -21.25 M61.3 -21.25 C64.3 -19.32, 68.44 -19.92, 76.03 -18.41 M61.3 -21.25 C65.17 -19.85, 68.9 -19.25, 76.03 -18.41 M76.03 -18.41 C76.03 -18.41, 76.03 -18.41, 76.03 -18.41 M76.03 -18.41 C76.03 -18.41, 76.03 -18.41, 76.03 -18.41" stroke="#e03131" stroke-width="2" fill="none"></path></g></g><mask></mask><g stroke-linecap="round"><g transform="translate(182.64918835175922 502.08333585637047) rotate(0 27.95833739396727 1.7327180843728343)"><path d="M0 0 C10.97 -0.03, 25.12 1.56, 55.92 3.47 M0 0 C18.29 1.84, 35.87 2.69, 55.92 3.47" stroke="#e03131" stroke-width="2" fill="none"></path></g><g transform="translate(182.64918835175922 502.08333585637047) rotate(0 27.95833739396727 1.7327180843728343)"><path d="M57.35 4.46 L41.22 7.41 L42.09 -1.75 L54.86 1.82" stroke="none" stroke-width="0" fill="#e03131" fill-rule="evenodd"></path><path d="M55.92 3.47 C51.25 4.68, 48.99 6.6, 42.07 9.22 M55.92 3.47 C51.55 5.94, 46.66 7.6, 42.07 9.22 M42.07 9.22 C41.97 3.73, 43.03 0.15, 42.6 -3.44 M42.07 9.22 C42.48 4.38, 41.98 -1.08, 42.6 -3.44 M42.6 -3.44 C48.05 -1.04, 50.99 2.02, 55.92 3.47 M42.6 -3.44 C45.97 -1.3, 48.95 0.25, 55.92 3.47 M55.92 3.47 C55.92 3.47, 55.92 3.47, 55.92 3.47 M55.92 3.47 C55.92 3.47, 55.92 3.47, 55.92 3.47" stroke="#e03131" stroke-width="2" fill="none"></path></g></g><mask></mask><g stroke-linecap="round"><g transform="translate(295.59254278291337 506.4068303846509) rotate(0 29.24987224367345 -1.8708935052040374)"><path d="M0 0 C22.22 -0.88, 46.21 -4.15, 58.5 -3.7 M0 0 C17.92 -1.1, 37.43 -2.62, 58.5 -3.7" stroke="#e03131" stroke-width="2" fill="none"></path></g><g transform="translate(295.59254278291337 506.4068303846509) rotate(0 29.24987224367345 -1.8708935052040374)"><path d="M57.65 -5.52 L44.78 5.11 L43.51 -10.89 L58.5 -3.68" stroke="none" stroke-width="0" fill="#e03131" fill-rule="evenodd"></path><path d="M58.5 -3.7 C52.78 -0.59, 48.47 0.81, 45.29 3.41 M58.5 -3.7 C54.14 -0.99, 50.96 0.96, 45.29 3.41 M45.29 3.41 C45.71 1.22, 46.16 -3.32, 44.56 -9.25 M45.29 3.41 C44.52 0.01, 45.15 -2.76, 44.56 -9.25 M44.56 -9.25 C49.47 -6.17, 54.92 -4.84, 58.5 -3.7 M44.56 -9.25 C49.33 -7, 54.91 -4.59, 58.5 -3.7 M58.5 -3.7 C58.5 -3.7, 58.5 -3.7, 58.5 -3.7 M58.5 -3.7 C58.5 -3.7, 58.5 -3.7, 58.5 -3.7" stroke="#e03131" stroke-width="2" fill="none"></path></g></g><mask></mask><g stroke-linecap="round"><g transform="translate(364.13765240033445 482.5475534711908) rotate(0 -34.91647802355658 -21.623266567966425)"><path d="M0 0 C-19.2 -13.47, -39.26 -23.97, -69.83 -43.25 M0 0 C-25.36 -15.85, -53.3 -32.6, -69.83 -43.25" stroke="#e03131" stroke-width="2" fill="none"></path></g><g transform="translate(364.13765240033445 482.5475534711908) rotate(0 -34.91647802355658 -21.623266567966425)"><path d="M-70.35 -41.55 L-56 -43.03 L-61.69 -30.63 L-69.21 -44.25" stroke="none" stroke-width="0" fill="#e03131" fill-rule="evenodd"></path><path d="M-69.83 -43.25 C-65.26 -43.77, -61.21 -41.92, -54.95 -41.39 M-69.83 -43.25 C-63.52 -42.51, -59.02 -42.09, -54.95 -41.39 M-54.95 -41.39 C-55.45 -39.2, -59.11 -35.53, -61.69 -30.65 M-54.95 -41.39 C-56.97 -38, -58.79 -34.11, -61.69 -30.65 M-61.69 -30.65 C-64.82 -34.48, -65.54 -38.62, -69.83 -43.25 M-61.69 -30.65 C-64.79 -34.65, -66.98 -40.48, -69.83 -43.25 M-69.83 -43.25 C-69.83 -43.25, -69.83 -43.25, -69.83 -43.25 M-69.83 -43.25 C-69.83 -43.25, -69.83 -43.25, -69.83 -43.25" stroke="#e03131" stroke-width="2" fill="none"></path></g></g><mask></mask><g transform="translate(10.000030517578125 532.9000854492188) rotate(0 234.375 48)"><text x="0" y="19.3125" font-family="Cascadia, Segoe UI Emoji" font-size="20px" fill="#1e1e1e" text-anchor="start" style="white-space: pre;" direction="ltr" dominant-baseline="alphabetic">grado_in:  0   0   0   0   0   0   0   0</text><text x="0" y="43.3125" font-family="Cascadia, Segoe UI Emoji" font-size="20px" fill="#1e1e1e" text-anchor="start" style="white-space: pre;" direction="ltr" dominant-baseline="alphabetic">          v1  v2  v3  v4  v5  v6  v7  v8</text><text x="0" y="67.3125" font-family="Cascadia, Segoe UI Emoji" font-size="20px" fill="#1e1e1e" text-anchor="start" style="white-space: pre;" direction="ltr" dominant-baseline="alphabetic">pila: v4 v8</text><text x="0" y="91.3125" font-family="Cascadia, Segoe UI Emoji" font-size="20px" fill="#1e1e1e" text-anchor="start" style="white-space: pre;" direction="ltr" dominant-baseline="alphabetic">result = v1 v3 v6 v7 v2 v5</text></g><g transform="translate(10.800018310546875 326.0000762939453) rotate(0 35.15625 12)"><text x="0" y="19.3125" font-family="Cascadia, Segoe UI Emoji" font-size="20px" fill="#1e1e1e" text-anchor="start" style="white-space: pre;" direction="ltr" dominant-baseline="alphabetic">Paso 6</text></g><g stroke-linecap="round" transform="translate(572 408.00013732910156) rotate(0 26 21)"><path d="M29.3 0.84 C34.52 0.91, 40.24 3.04, 44.08 6.19 C47.93 9.35, 51.8 15.24, 52.35 19.78 C52.9 24.31, 50.89 29.91, 47.4 33.38 C43.91 36.86, 36.97 39.57, 31.41 40.63 C25.86 41.68, 18.97 41.49, 14.05 39.71 C9.13 37.94, 4.19 34.05, 1.9 29.97 C-0.39 25.88, -1.28 19.5, 0.34 15.22 C1.95 10.95, 6.61 6.86, 11.58 4.32 C16.54 1.79, 26.74 0.65, 30.14 0.01 C33.53 -0.63, 31.86 0.01, 31.96 0.48 M18.93 0.35 C24.18 -1.12, 32.58 0.92, 37.72 2.66 C42.86 4.41, 47.39 6.99, 49.76 10.82 C52.13 14.65, 53.21 21.2, 51.94 25.63 C50.68 30.06, 46.85 34.89, 42.16 37.38 C37.47 39.87, 29.8 41.05, 23.81 40.57 C17.82 40.09, 10.34 37.31, 6.19 34.5 C2.04 31.68, -0.89 28.01, -1.08 23.69 C-1.26 19.37, 1.44 12.48, 5.09 8.58 C8.73 4.67, 18.59 1.26, 20.79 0.25 C22.99 -0.76, 18.3 2.24, 18.29 2.52" stroke="#e03131" stroke-width="2" fill="none"></path></g><g transform="translate(591.7632263136616 419.15089492418406) rotate(0 6.351997375488281 10)"><text x="6.351997375488281" y="14.016" font-family="Virgil, Segoe UI Emoji" font-size="16px" fill="#e03131" text-anchor="middle" style="white-space: pre;" direction="ltr" dominant-baseline="alphabetic">v1</text></g><g stroke-linecap="round" transform="translate(657.2000732421875 348.80010986328125) rotate(0 26 21)"><path d="M35.27 1.21 C40.6 2.46, 46.45 6.53, 49.09 10.29 C51.73 14.06, 52.18 19.36, 51.08 23.82 C49.99 28.27, 46.71 33.9, 42.5 37.05 C38.29 40.19, 31.47 42.64, 25.81 42.69 C20.15 42.75, 12.79 40.24, 8.53 37.39 C4.26 34.53, 1.2 30.1, 0.21 25.55 C-0.78 21.01, -0.09 14.29, 2.57 10.12 C5.24 5.96, 10.02 1.68, 16.22 0.58 C22.43 -0.53, 35.37 2.66, 39.82 3.49 C44.28 4.33, 43.07 5.39, 42.96 5.57 M23.29 -1.34 C28.57 -2.33, 36.49 -0.02, 41.34 2.57 C46.19 5.16, 50.93 9.96, 52.38 14.21 C53.84 18.47, 52.77 24.06, 50.08 28.13 C47.39 32.19, 41.45 36.22, 36.22 38.61 C30.98 40.99, 23.81 43.33, 18.65 42.42 C13.5 41.52, 8.17 37.04, 5.29 33.17 C2.41 29.3, 1.27 23.41, 1.37 19.2 C1.47 14.99, 2.17 11.22, 5.91 7.92 C9.65 4.61, 20.99 0.79, 23.8 -0.62 C26.62 -2.03, 22.81 -1.01, 22.81 -0.55" stroke="#e03131" stroke-width="2" fill="none"></path></g><g transform="translate(673.4352996779194 359.95086745836375) rotate(0 9.879997253417969 10)"><text x="9.879997253417969" y="14.016" font-family="Virgil, Segoe UI Emoji" font-size="16px" fill="#e03131" text-anchor="middle" style="white-space: pre;" direction="ltr" dominant-baseline="alphabetic">v2</text></g><g stroke-linecap="round" transform="translate(641.1999816894531 473.60011291503906) rotate(0 26 21)"><path d="M24.8 -0.81 C29.95 -1.16, 37.55 1.48, 41.96 4.54 C46.38 7.59, 50.26 13.05, 51.28 17.51 C52.29 21.98, 50.73 27.33, 48.07 31.32 C45.42 35.31, 40.54 39.9, 35.34 41.44 C30.13 42.97, 22.24 42.22, 16.84 40.52 C11.45 38.83, 5.69 34.98, 2.96 31.27 C0.23 27.56, -0.41 22.67, 0.47 18.27 C1.36 13.86, 3.33 7.89, 8.27 4.81 C13.21 1.74, 26.07 0.35, 30.13 -0.2 C34.19 -0.75, 32.78 1.12, 32.64 1.54 M15.26 1.52 C19.68 -0.77, 26.74 -1.76, 31.74 -0.87 C36.74 0.02, 42.06 2.92, 45.24 6.87 C48.42 10.81, 50.77 18.13, 50.82 22.8 C50.88 27.46, 48.88 31.74, 45.55 34.84 C42.23 37.94, 36.67 40.48, 30.89 41.38 C25.1 42.28, 15.7 42.68, 10.87 40.23 C6.04 37.79, 3.45 31.41, 1.88 26.71 C0.32 22, -0.57 16.07, 1.49 12.01 C3.54 7.95, 12.29 3.99, 14.21 2.37 C16.12 0.75, 12.62 1.8, 12.98 2.28" stroke="#e03131" stroke-width="2" fill="none"></path></g><g transform="translate(657.6832092238178 484.75087051012156) rotate(0 9.631996154785156 10)"><text x="9.631996154785156" y="14.016" font-family="Virgil, Segoe UI Emoji" font-size="16px" fill="#e03131" text-anchor="middle" style="white-space: pre;" direction="ltr" dominant-baseline="alphabetic">v3</text></g><g stroke-linecap="round" transform="translate(753.199951171875 485.6001281738281) rotate(0 26 21)"><path d="M15.44 2.43 C20.07 0.54, 27.28 -0.15, 32.63 1.16 C37.97 2.47, 44.45 6.67, 47.5 10.32 C50.55 13.96, 51.68 18.8, 50.93 23 C50.18 27.21, 46.88 32.32, 43.02 35.55 C39.16 38.77, 33.26 42.02, 27.76 42.34 C22.26 42.65, 14.37 40.22, 10.02 37.42 C5.66 34.62, 2.9 29.77, 1.65 25.53 C0.4 21.29, -0.2 16.03, 2.52 11.98 C5.25 7.92, 15.3 2.92, 18 1.2 C20.7 -0.52, 18.77 1.17, 18.73 1.65 M16.91 -0.26 C21.62 -1.41, 29.39 0.74, 34.8 2.63 C40.2 4.51, 46.34 7.32, 49.33 11.07 C52.31 14.82, 54.17 20.46, 52.7 25.13 C51.23 29.8, 45.05 36.42, 40.51 39.11 C35.98 41.79, 30.91 41.85, 25.49 41.23 C20.07 40.61, 12.16 38.32, 8.01 35.39 C3.86 32.46, 1.43 28.03, 0.59 23.66 C-0.25 19.3, -0.17 12.8, 2.98 9.18 C6.13 5.56, 16.99 3.2, 19.48 1.92 C21.97 0.64, 18.03 1.38, 17.91 1.49" stroke="#e03131" stroke-width="2" fill="none"></path></g><g transform="translate(770.0111816359272 496.7508857689106) rotate(0 9.303993225097656 10)"><text x="9.303993225097656" y="14.016" font-family="Virgil, Segoe UI Emoji" font-size="16px" fill="#e03131" text-anchor="middle" style="white-space: pre;" direction="ltr" dominant-baseline="alphabetic">v6</text></g><g stroke-linecap="round" transform="translate(760.3999633789062 403.2001190185547) rotate(0 26 21)"><path d="M34.65 2.15 C39.72 3.23, 44.91 6.45, 47.59 10.07 C50.27 13.7, 51.52 19.35, 50.75 23.91 C49.97 28.47, 47.14 34.49, 42.94 37.43 C38.74 40.37, 30.99 41.66, 25.55 41.55 C20.1 41.43, 14.49 39.51, 10.26 36.76 C6.04 34.01, 1.25 29.41, 0.19 25.05 C-0.88 20.69, 1.22 14.47, 3.87 10.61 C6.52 6.75, 10.56 3.11, 16.08 1.87 C21.6 0.63, 33.11 2.81, 36.99 3.17 C40.87 3.52, 39.61 3.97, 39.38 3.99 M15.88 1.51 C21.02 -0.69, 29.61 -1.11, 34.69 0.44 C39.77 2, 43.4 7.15, 46.36 10.85 C49.33 14.54, 52.94 18.57, 52.46 22.62 C51.98 26.67, 47.56 31.93, 43.48 35.14 C39.4 38.35, 33.64 41.52, 27.97 41.89 C22.3 42.26, 13.77 39.86, 9.45 37.35 C5.12 34.85, 3.21 31.13, 2.02 26.86 C0.83 22.6, 0.06 16.01, 2.3 11.76 C4.54 7.51, 13.04 2.8, 15.44 1.38 C17.85 -0.05, 16.76 3.06, 16.72 3.23" stroke="#e03131" stroke-width="2" fill="none"></path></g><g transform="translate(777.3871963453998 414.3508766136372) rotate(0 9.12799072265625 10)"><text x="9.12799072265625" y="14.016" font-family="Virgil, Segoe UI Emoji" font-size="16px" fill="#e03131" text-anchor="middle" style="white-space: pre;" direction="ltr" dominant-baseline="alphabetic">v5</text></g><g stroke-linecap="round" transform="translate(867.5999755859375 479.2001953125) rotate(0 26 21)"><path d="M36.39 1.38 C41.49 3.11, 47.52 8.58, 49.88 12.72 C52.23 16.86, 51.91 22.01, 50.53 26.22 C49.15 30.43, 46.15 35.31, 41.6 37.98 C37.05 40.65, 28.85 42.63, 23.22 42.26 C17.59 41.89, 11.84 38.93, 7.82 35.75 C3.8 32.57, -0.3 27.52, -0.9 23.18 C-1.5 18.84, 0.92 13.43, 4.23 9.7 C7.54 5.98, 13.09 2.03, 18.95 0.84 C24.81 -0.34, 35.55 1.95, 39.37 2.59 C43.18 3.23, 41.82 4.2, 41.85 4.66 M22.62 1.51 C27.76 0.85, 37.02 0.96, 41.7 3.14 C46.39 5.33, 49.38 10.17, 50.74 14.63 C52.1 19.1, 52.35 25.79, 49.85 29.95 C47.34 34.1, 40.62 37.53, 35.71 39.57 C30.8 41.61, 25.63 43.28, 20.37 42.19 C15.11 41.1, 7.56 36.96, 4.16 33.03 C0.75 29.11, -0.81 22.95, -0.06 18.64 C0.69 14.32, 4.9 10.45, 8.65 7.14 C12.4 3.83, 19.9 -0.32, 22.47 -1.2 C25.04 -2.09, 24.01 1.44, 24.07 1.83" stroke="#e03131" stroke-width="2" fill="none"></path></g><g transform="translate(885.2272079420795 490.3509529075825) rotate(0 8.487991333007812 10)"><text x="8.487991333007812" y="14.016" font-family="Virgil, Segoe UI Emoji" font-size="16px" fill="#e03131" text-anchor="middle" style="white-space: pre;" direction="ltr" dominant-baseline="alphabetic">v7</text></g><g stroke-linecap="round" transform="translate(894 375.20013427734375) rotate(0 26 21)"><path d="M16.63 0.8 C21.62 -1.03, 30.58 -0.76, 35.86 0.92 C41.14 2.6, 45.62 6.91, 48.32 10.88 C51.01 14.85, 53.11 20.28, 52.01 24.74 C50.91 29.21, 46.16 34.66, 41.71 37.69 C37.27 40.73, 30.83 43.02, 25.32 42.95 C19.81 42.88, 12.96 40.46, 8.65 37.26 C4.35 34.06, 0.49 28.36, -0.5 23.77 C-1.5 19.18, -0.56 13.48, 2.68 9.71 C5.92 5.93, 16.17 2.41, 18.95 1.12 C21.74 -0.17, 19.42 1.81, 19.39 1.97 M37.62 1.3 C42.42 3.16, 48.4 8.68, 50.41 12.93 C52.42 17.18, 51.22 22.36, 49.68 26.82 C48.15 31.28, 45.82 37.16, 41.22 39.68 C36.63 42.2, 27.9 42.75, 22.13 41.94 C16.36 41.12, 10.16 37.95, 6.62 34.79 C3.09 31.63, 1.36 27.63, 0.91 22.98 C0.47 18.33, 0.67 10.44, 3.94 6.92 C7.2 3.39, 15.05 2.76, 20.51 1.84 C25.98 0.91, 33.87 1.23, 36.72 1.38 C39.57 1.54, 37.82 2.19, 37.62 2.76" stroke="#e03131" stroke-width="2" fill="none"></path></g><g transform="translate(909.8112304640522 386.35089187242625) rotate(0 10.303993225097656 10)"><text x="10.303993225097656" y="14.016" font-family="Virgil, Segoe UI Emoji" font-size="16px" fill="#e03131" text-anchor="middle" style="white-space: pre;" direction="ltr" dominant-baseline="alphabetic">v8</text></g><g stroke-linecap="round" transform="translate(758.7999877929688 330.40013122558594) rotate(0 26 21)"><path d="M19.94 0.9 C24.94 -0.25, 33.39 0.28, 38.23 2.36 C43.06 4.45, 46.96 9.1, 48.96 13.39 C50.96 17.68, 51.78 23.86, 50.21 28.09 C48.64 32.33, 44.26 36.66, 39.54 38.81 C34.83 40.96, 27.5 41.7, 21.93 40.99 C16.37 40.28, 9.69 37.67, 6.16 34.54 C2.62 31.42, 0.9 26.49, 0.72 22.27 C0.54 18.05, 1.48 13.06, 5.08 9.23 C8.68 5.41, 18.84 0.7, 22.34 -0.7 C25.84 -2.09, 26.07 0.4, 26.09 0.85 M15.69 0.83 C20.67 -0.76, 30.49 0.53, 35.86 2.12 C41.23 3.72, 45.31 6.74, 47.91 10.38 C50.52 14.03, 52.16 19.4, 51.49 24 C50.81 28.61, 48.3 35.22, 43.87 38.01 C39.43 40.8, 30.58 40.63, 24.88 40.73 C19.17 40.83, 13.94 41.42, 9.64 38.61 C5.35 35.81, 0.21 28.56, -0.87 23.91 C-1.96 19.27, 0.4 14.4, 3.12 10.74 C5.84 7.08, 13.02 3.3, 15.43 1.95 C17.84 0.61, 17.43 2.67, 17.57 2.68" stroke="#1e1e1e" stroke-width="2" fill="none"></path></g><g transform="translate(775.6112182570209 341.55088882066843) rotate(0 9.303993225097656 10)"><text x="9.303993225097656" y="14.016" font-family="Virgil, Segoe UI Emoji" font-size="16px" fill="#1e1e1e" text-anchor="middle" style="white-space: pre;" direction="ltr" dominant-baseline="alphabetic">v4</text></g><g stroke-linecap="round"><g transform="translate(615.1431042695783 411.2390809533597) rotate(0 22.3067866468499 -15.26254962501551)"><path d="M0 0 C11 -7.33, 23 -15.4, 44.61 -30.53 M0 0 C9.42 -6.35, 18.08 -12.67, 44.61 -30.53" stroke="#e03131" stroke-width="2" fill="none"></path></g><g transform="translate(615.1431042695783 411.2390809533597) rotate(0 22.3067866468499 -15.26254962501551)"><path d="M43.66 -30.6 L37.04 -17.28 L30.24 -28.3 L44.71 -31.17" stroke="none" stroke-width="0" fill="#e03131" fill-rule="evenodd"></path><path d="M44.61 -30.53 C42.55 -26.99, 41.07 -23.92, 36.92 -17.65 M44.61 -30.53 C43.45 -28.17, 41.61 -25.67, 36.92 -17.65 M36.92 -17.65 C35.87 -19.82, 33.8 -21.63, 29.8 -28.14 M36.92 -17.65 C35.16 -20.62, 33.01 -23.55, 29.8 -28.14 M29.8 -28.14 C34.35 -28.21, 39.9 -29.85, 44.61 -30.53 M29.8 -28.14 C34.59 -28.58, 38.57 -29.91, 44.61 -30.53 M44.61 -30.53 C44.61 -30.53, 44.61 -30.53, 44.61 -30.53 M44.61 -30.53 C44.61 -30.53, 44.61 -30.53, 44.61 -30.53" stroke="#e03131" stroke-width="2" fill="none"></path></g></g><mask></mask><g stroke-linecap="round"><g transform="translate(616.4672584834004 446.0900989627694) rotate(0 14.837001368623874 17.370782613651443)"><path d="M0 0 C8.21 9.19, 14.66 18.88, 29.67 34.74 M0 0 C7.24 7.82, 13.7 16.03, 29.67 34.74" stroke="#e03131" stroke-width="2" fill="none"></path></g><g transform="translate(616.4672584834004 446.0900989627694) rotate(0 14.837001368623874 17.370782613651443)"><path d="M29.79 35.11 L16.49 28.3 L25.83 19.62 L30.24 34.31" stroke="none" stroke-width="0" fill="#e03131" fill-rule="evenodd"></path><path d="M29.67 34.74 C26.4 33.16, 21.76 31.89, 16.05 28.46 M29.67 34.74 C26.51 32.89, 22.92 31.44, 16.05 28.46 M16.05 28.46 C18.08 27.18, 20.16 24.25, 25.73 20.27 M16.05 28.46 C19.78 25.01, 23.79 21.98, 25.73 20.27 M25.73 20.27 C27.08 23.32, 27.56 26.73, 29.67 34.74 M25.73 20.27 C26.49 23.92, 27.97 28.56, 29.67 34.74 M29.67 34.74 C29.67 34.74, 29.67 34.74, 29.67 34.74 M29.67 34.74 C29.67 34.74, 29.67 34.74, 29.67 34.74" stroke="#e03131" stroke-width="2" fill="none"></path></g></g><mask></mask><g stroke-linecap="round"><g transform="translate(708.435322335612 361.9769454326779) rotate(0 24.822943364161233 -3.704914388717782)"><path d="M0 0 C15.69 -1.92, 32.7 -4.05, 49.65 -7.41 M0 0 C11.43 -1.96, 23.33 -2.98, 49.65 -7.41" stroke="#e03131" stroke-width="2" fill="none"></path></g><g transform="translate(708.435322335612 361.9769454326779) rotate(0 24.822943364161233 -3.704914388717782)"><path d="M50.08 -7.57 L37.31 0.33 L35.79 -11.98 L50.01 -7.86" stroke="none" stroke-width="0" fill="#e03131" fill-rule="evenodd"></path><path d="M49.65 -7.41 C44.75 -4.15, 40.82 -1.06, 37.21 0.97 M49.65 -7.41 C46.36 -5.77, 43.42 -3.2, 37.21 0.97 M37.21 0.97 C36.41 -3.55, 36.57 -6.71, 35.23 -11.55 M37.21 0.97 C36.81 -2.18, 36 -5.41, 35.23 -11.55 M35.23 -11.55 C40.87 -10.02, 46.2 -7.88, 49.65 -7.41 M35.23 -11.55 C40.62 -9.61, 45.65 -8.65, 49.65 -7.41 M49.65 -7.41 C49.65 -7.41, 49.65 -7.41, 49.65 -7.41 M49.65 -7.41 C49.65 -7.41, 49.65 -7.41, 49.65 -7.41" stroke="#e03131" stroke-width="2" fill="none"></path></g></g><mask></mask><g stroke-linecap="round"><g transform="translate(703.8880903289087 387.13884445283566) rotate(0 28.279890367372218 15.495823860272026)"><path d="M0 0 C15.78 11.08, 33.23 19.09, 56.56 30.99 M0 0 C10.89 7.68, 23.76 13.38, 56.56 30.99" stroke="#e03131" stroke-width="2" fill="none"></path></g><g transform="translate(703.8880903289087 387.13884445283566) rotate(0 28.279890367372218 15.495823860272026)"><path d="M56.76 29.7 L42.71 29.39 L48.24 18.13 L56.42 31.87" stroke="none" stroke-width="0" fill="#e03131" fill-rule="evenodd"></path><path d="M56.56 30.99 C50.99 32.27, 46.45 30.91, 41.58 30.24 M56.56 30.99 C52.83 31.22, 50.38 30.43, 41.58 30.24 M41.58 30.24 C45.13 26.48, 45.57 21.25, 47.5 19.04 M41.58 30.24 C42.43 27.47, 44.79 25.55, 47.5 19.04 M47.5 19.04 C49.6 23.18, 53.53 24.07, 56.56 30.99 M47.5 19.04 C48.8 21.03, 51.32 24.11, 56.56 30.99 M56.56 30.99 C56.56 30.99, 56.56 30.99, 56.56 30.99 M56.56 30.99 C56.56 30.99, 56.56 30.99, 56.56 30.99" stroke="#e03131" stroke-width="2" fill="none"></path></g></g><mask></mask><g stroke-linecap="round"><g transform="translate(816.7913299176244 420.8022364990909) rotate(0 38.01302379437732 -9.203157708370611)"><path d="M0 0 C26.18 -6.95, 52.91 -15.63, 76.03 -18.41 M0 0 C16.88 -4.69, 34.15 -8.82, 76.03 -18.41" stroke="#e03131" stroke-width="2" fill="none"></path></g><g transform="translate(816.7913299176244 420.8022364990909) rotate(0 38.01302379437732 -9.203157708370611)"><path d="M77.16 -19.26 L64.94 -10.08 L61.21 -20.65 L74.7 -17.96" stroke="none" stroke-width="0" fill="#e03131" fill-rule="evenodd"></path><path d="M76.03 -18.41 C70.81 -14.69, 66.14 -12.94, 64.21 -9.17 M76.03 -18.41 C73.51 -16.43, 71.46 -14.51, 64.21 -9.17 M64.21 -9.17 C62.85 -12.15, 61.96 -14.1, 61.35 -21.53 M64.21 -9.17 C64 -12.43, 62.43 -16.42, 61.35 -21.53 M61.35 -21.53 C66.68 -22.18, 68.54 -19.72, 76.03 -18.41 M61.35 -21.53 C66.95 -20.21, 72.09 -18.7, 76.03 -18.41 M76.03 -18.41 C76.03 -18.41, 76.03 -18.41, 76.03 -18.41 M76.03 -18.41 C76.03 -18.41, 76.03 -18.41, 76.03 -18.41" stroke="#e03131" stroke-width="2" fill="none"></path></g></g><mask></mask><g stroke-linecap="round"><g transform="translate(695.0491517306655 501.48337552922203) rotate(0 27.958337393967213 1.6982006061731454)"><path d="M0 0 C20.27 -0.44, 42.48 1.09, 55.92 3.47 M0 0 C21.48 1.09, 40.33 3.61, 55.92 3.47" stroke="#e03131" stroke-width="2" fill="none"></path></g><g transform="translate(695.0491517306655 501.48337552922203) rotate(0 27.958337393967213 1.6982006061731454)"><path d="M56.65 2.56 L41.98 10.24 L41.21 -2.87 L54.16 2.29" stroke="none" stroke-width="0" fill="#e03131" fill-rule="evenodd"></path><path d="M55.92 3.47 C49.1 4.54, 43.76 6.99, 42.12 9.36 M55.92 3.47 C51.5 5.41, 45.11 8.51, 42.12 9.36 M42.12 9.36 C41.41 5.35, 42.41 -0.23, 42.53 -3.31 M42.12 9.36 C41.94 6.06, 42.16 2.5, 42.53 -3.31 M42.53 -3.31 C46.13 -0.65, 53.55 0.36, 55.92 3.47 M42.53 -3.31 C44.96 -1.44, 49.05 0.3, 55.92 3.47 M55.92 3.47 C55.92 3.47, 55.92 3.47, 55.92 3.47 M55.92 3.47 C55.92 3.47, 55.92 3.47, 55.92 3.47" stroke="#e03131" stroke-width="2" fill="none"></path></g></g><mask></mask><g stroke-linecap="round"><g transform="translate(807.9925061618196 505.80687005750246) rotate(0 29.249872243673508 -1.848326995418347)"><path d="M0 0 C17.05 -2.23, 38.73 -1.51, 58.5 -3.7 M0 0 C15.71 0.08, 33.62 -2.44, 58.5 -3.7" stroke="#e03131" stroke-width="2" fill="none"></path></g><g transform="translate(807.9925061618196 505.80687005750246) rotate(0 29.249872243673508 -1.848326995418347)"><path d="M58.36 -2.82 L44.03 3.97 L42.76 -10.3 L58.57 -4.12" stroke="none" stroke-width="0" fill="#e03131" fill-rule="evenodd"></path><path d="M58.5 -3.7 C53.01 -2.66, 51.07 1.06, 45.35 3.53 M58.5 -3.7 C54.17 -0.96, 51.41 0, 45.35 3.53 M45.35 3.53 C45.16 -0.83, 44.54 -2.25, 44.52 -9.12 M45.35 3.53 C45.01 -1.23, 45.16 -5.2, 44.52 -9.12 M44.52 -9.12 C48.64 -9.36, 49.11 -7.13, 58.5 -3.7 M44.52 -9.12 C48.96 -7.09, 52.12 -6.58, 58.5 -3.7 M58.5 -3.7 C58.5 -3.7, 58.5 -3.7, 58.5 -3.7 M58.5 -3.7 C58.5 -3.7, 58.5 -3.7, 58.5 -3.7" stroke="#e03131" stroke-width="2" fill="none"></path></g></g><mask></mask><g stroke-linecap="round"><g transform="translate(876.5376157792407 481.94759314404246) rotate(0 -34.91647802355658 -21.623266567966425)"><path d="M0 0 C-13.29 -9.49, -29.99 -17.38, -69.83 -43.25 M0 0 C-18.2 -11.59, -37.9 -23.58, -69.83 -43.25" stroke="#e03131" stroke-width="2" fill="none"></path></g><g transform="translate(876.5376157792407 481.94759314404246) rotate(0 -34.91647802355658 -21.623266567966425)"><path d="M-71.16 -42.81 L-56.69 -42.7 L-61.5 -31.14 L-70.15 -43.03" stroke="none" stroke-width="0" fill="#e03131" fill-rule="evenodd"></path><path d="M-69.83 -43.25 C-65.62 -42.5, -63.68 -41.08, -54.93 -41.52 M-69.83 -43.25 C-65.48 -43.3, -61.95 -43, -54.93 -41.52 M-54.93 -41.52 C-57.54 -36.97, -58.45 -34.92, -61.57 -30.72 M-54.93 -41.52 C-56.61 -37.75, -59.66 -35.42, -61.57 -30.72 M-61.57 -30.72 C-65.22 -34.82, -66.74 -39.82, -69.83 -43.25 M-61.57 -30.72 C-65.16 -35.58, -67.51 -39.58, -69.83 -43.25 M-69.83 -43.25 C-69.83 -43.25, -69.83 -43.25, -69.83 -43.25 M-69.83 -43.25 C-69.83 -43.25, -69.83 -43.25, -69.83 -43.25" stroke="#e03131" stroke-width="2" fill="none"></path></g></g><mask></mask><g transform="translate(522.3999938964844 532.3001251220703) rotate(0 234.375 48)"><text x="0" y="19.3125" font-family="Cascadia, Segoe UI Emoji" font-size="20px" fill="#1e1e1e" text-anchor="start" style="white-space: pre;" direction="ltr" dominant-baseline="alphabetic">grado_in:  0   0   0   0   0   0   0   0</text><text x="0" y="43.3125" font-family="Cascadia, Segoe UI Emoji" font-size="20px" fill="#1e1e1e" text-anchor="start" style="white-space: pre;" direction="ltr" dominant-baseline="alphabetic">          v1  v2  v3  v4  v5  v6  v7  v8</text><text x="0" y="67.3125" font-family="Cascadia, Segoe UI Emoji" font-size="20px" fill="#1e1e1e" text-anchor="start" style="white-space: pre;" direction="ltr" dominant-baseline="alphabetic">pila: v4</text><text x="0" y="91.3125" font-family="Cascadia, Segoe UI Emoji" font-size="20px" fill="#1e1e1e" text-anchor="start" style="white-space: pre;" direction="ltr" dominant-baseline="alphabetic">result = v1 v3 v6 v7 v2 v5 v8</text></g><g transform="translate(523.1999816894531 325.4001159667969) rotate(0 35.15625 12)"><text x="0" y="19.3125" font-family="Cascadia, Segoe UI Emoji" font-size="20px" fill="#1e1e1e" text-anchor="start" style="white-space: pre;" direction="ltr" dominant-baseline="alphabetic">Paso 7</text></g><g transform="translate(199.17507934570312 638.1501083374023) rotate(0 324.91973876953125 25)"><text x="324.91973876953125" y="17.52" font-family="Virgil, Segoe UI Emoji" font-size="20px" fill="#e03131" text-anchor="middle" style="white-space: pre;" direction="ltr" dominant-baseline="alphabetic">suponiendo que el orden de la lista de adyacentes es ascendente</text><text x="324.91973876953125" y="42.519999999999996" font-family="Virgil, Segoe UI Emoji" font-size="20px" fill="#e03131" text-anchor="middle" style="white-space: pre;" direction="ltr" dominant-baseline="alphabetic">resultado posible = v1 v3 v6 v7 v2 v5 v8 v4</text></g></svg>