<svg version="1.1" xmlns="http://www.w3.org/2000/svg" viewBox="0 0 1020.9500122070312 649.2499771118164" width="1020.9500122070312" height="649.2499771118164">
  <!-- svg-source:excalidraw -->
  
  <defs>
    <style class="style-fonts">
      @font-face {
        font-family: "Virgil";
        src: url("https://excalidraw.com/Virgil.woff2");
      }
      @font-face {
        font-family: "Cascadia";
        src: url("https://excalidraw.com/Cascadia.woff2");
      }
      @font-face {
        font-family: "Assistant";
        src: url("https://excalidraw.com/Assistant-Regular.woff2");
      }
    </style>
    
  </defs>
  <rect x="0" y="0" width="1020.9500122070312" height="649.2499771118164" fill="#ffffff"></rect><g stroke-linecap="round" transform="translate(59.600006103515625 94.60005187988281) rotate(0 26 21)"><path d="M20.12 -0.31 C24.91 -1.46, 32.01 0.54, 37.01 2.82 C42 5.09, 47.82 9.29, 50.07 13.34 C52.32 17.38, 52.05 22.76, 50.5 27.08 C48.95 31.4, 45.42 36.88, 40.78 39.28 C36.14 41.68, 28.21 42.22, 22.66 41.48 C17.11 40.74, 11.23 37.99, 7.47 34.85 C3.71 31.71, 0.31 27.19, 0.11 22.64 C-0.1 18.1, 2.22 11.32, 6.22 7.59 C10.22 3.87, 20.47 1.64, 24.09 0.29 C27.71 -1.06, 28.09 -0.81, 27.93 -0.53 M20.06 0.28 C24.99 -0.92, 32.99 0.93, 37.94 2.99 C42.89 5.05, 47.43 8.55, 49.77 12.65 C52.11 16.74, 53.96 22.97, 51.97 27.54 C49.98 32.11, 42.72 37.58, 37.84 40.06 C32.97 42.54, 28.16 43.57, 22.73 42.41 C17.29 41.26, 8.93 36.83, 5.23 33.13 C1.53 29.43, 0.29 24.29, 0.54 20.21 C0.79 16.13, 3.06 12, 6.72 8.64 C10.39 5.28, 20 1.36, 22.54 0.05 C25.08 -1.26, 22.33 0.2, 21.98 0.79" stroke="#e03131" stroke-width="2" fill="none"></path></g><g transform="translate(79.36323241717713 105.75080947496531) rotate(0 6.351997375488281 10)"><text x="6.351997375488281" y="14.016" font-family="Virgil, Segoe UI Emoji" font-size="16px" fill="#e03131" text-anchor="middle" style="white-space: pre;" direction="ltr" dominant-baseline="alphabetic">v1</text></g><g stroke-linecap="round" transform="translate(144.80007934570312 35.4000244140625) rotate(0 26 21)"><path d="M15.38 2.43 C20.13 0.32, 27.16 -0.51, 32.6 0.72 C38.05 1.94, 44.87 6.13, 48.05 9.79 C51.23 13.45, 52.25 18.38, 51.69 22.66 C51.13 26.95, 48.62 32.21, 44.69 35.51 C40.75 38.81, 33.55 42.17, 28.09 42.47 C22.62 42.77, 16.37 39.98, 11.88 37.31 C7.39 34.64, 2.62 30.84, 1.15 26.45 C-0.31 22.06, 0.3 15.26, 3.08 10.96 C5.86 6.67, 14.69 2.36, 17.82 0.69 C20.96 -0.99, 21.51 0.68, 21.9 0.9 M24.85 -1.04 C30.54 -1.52, 39.55 0.97, 43.77 4.12 C48 7.28, 49.18 13.25, 50.2 17.87 C51.21 22.48, 52.48 28.28, 49.86 31.82 C47.23 35.36, 39.72 37.75, 34.44 39.1 C29.16 40.45, 23.15 40.98, 18.16 39.95 C13.17 38.91, 7.28 36.65, 4.51 32.91 C1.74 29.17, 0.71 22.11, 1.53 17.49 C2.35 12.88, 5.68 7.95, 9.44 5.23 C13.2 2.52, 21.56 1.9, 24.08 1.23 C26.61 0.56, 24.55 1.04, 24.6 1.22" stroke="#e03131" stroke-width="2" fill="none"></path></g><g transform="translate(161.0353057814349 46.550782009144996) rotate(0 9.879997253417969 10)"><text x="9.879997253417969" y="14.016" font-family="Virgil, Segoe UI Emoji" font-size="16px" fill="#e03131" text-anchor="middle" style="white-space: pre;" direction="ltr" dominant-baseline="alphabetic">v2</text></g><g stroke-linecap="round" transform="translate(128.79998779296875 160.2000274658203) rotate(0 26 21)"><path d="M33.69 1.46 C38.91 2.32, 44.21 5.3, 47.32 8.83 C50.43 12.36, 52.87 18.02, 52.35 22.64 C51.82 27.27, 48.1 33.51, 44.19 36.59 C40.28 39.68, 34.41 40.89, 28.89 41.17 C23.38 41.44, 15.71 40.91, 11.12 38.24 C6.52 35.58, 2.89 29.6, 1.33 25.17 C-0.23 20.74, -0.5 15.53, 1.77 11.69 C4.05 7.84, 8.87 3.82, 14.98 2.1 C21.09 0.38, 34.04 1.05, 38.44 1.37 C42.84 1.69, 41.67 3.62, 41.37 4 M15.85 2.19 C20.65 0.69, 30.73 0.84, 36.02 1.99 C41.31 3.13, 44.9 5.43, 47.58 9.06 C50.27 12.69, 52.83 18.91, 52.14 23.76 C51.44 28.61, 47.58 35.16, 43.42 38.15 C39.26 41.14, 32.77 41.88, 27.16 41.71 C21.56 41.53, 14.5 39.74, 9.81 37.09 C5.12 34.44, 0.2 30.13, -0.99 25.82 C-2.18 21.52, -0.2 15.32, 2.65 11.25 C5.49 7.18, 13.71 3.06, 16.08 1.42 C18.44 -0.22, 16.62 1.36, 16.85 1.42" stroke="#e03131" stroke-width="2" fill="none"></path></g><g transform="translate(145.28321532733332 171.3507850609028) rotate(0 9.631996154785156 10)"><text x="9.631996154785156" y="14.016" font-family="Virgil, Segoe UI Emoji" font-size="16px" fill="#e03131" text-anchor="middle" style="white-space: pre;" direction="ltr" dominant-baseline="alphabetic">v3</text></g><g stroke-linecap="round" transform="translate(240.79995727539062 172.20004272460938) rotate(0 26 21)"><path d="M35.02 0.68 C40.17 1.98, 45.46 6.96, 48.4 10.78 C51.34 14.59, 53.51 19.18, 52.66 23.57 C51.82 27.96, 47.62 34.2, 43.33 37.1 C39.04 40.01, 32.67 41.02, 26.91 41.02 C21.15 41.02, 13.22 39.74, 8.75 37.11 C4.29 34.47, 0.87 29.73, 0.1 25.2 C-0.67 20.67, 1.37 14, 4.14 9.93 C6.9 5.85, 10.84 2, 16.72 0.77 C22.59 -0.47, 35.12 1.53, 39.4 2.52 C43.67 3.51, 42.67 6.47, 42.36 6.7 M33.08 -0.45 C38.13 0.35, 45.36 4.71, 48.59 8.94 C51.83 13.18, 53.16 20.4, 52.5 24.96 C51.83 29.53, 48.79 33.47, 44.61 36.32 C40.44 39.16, 33.47 41.62, 27.47 42.02 C21.46 42.43, 13.24 41.41, 8.61 38.77 C3.98 36.12, 0.81 30.73, -0.3 26.15 C-1.41 21.57, -0.72 15.45, 1.96 11.31 C4.64 7.16, 10.53 3.25, 15.78 1.3 C21.03 -0.65, 30.5 -0.61, 33.46 -0.4 C36.42 -0.18, 33.75 2.13, 33.57 2.6" stroke="#1e1e1e" stroke-width="2" fill="none"></path></g><g transform="translate(257.6111877394427 183.35080031969187) rotate(0 9.303993225097656 10)"><text x="9.303993225097656" y="14.016" font-family="Virgil, Segoe UI Emoji" font-size="16px" fill="#1e1e1e" text-anchor="middle" style="white-space: pre;" direction="ltr" dominant-baseline="alphabetic">v6</text></g><g stroke-linecap="round" transform="translate(247.99996948242188 89.80003356933594) rotate(0 26 21)"><path d="M20.78 -0.17 C25.88 -1.51, 32.87 0.41, 37.8 2.36 C42.72 4.31, 48.26 7.48, 50.32 11.53 C52.38 15.59, 51.85 22.15, 50.15 26.68 C48.45 31.2, 44.47 36.31, 40.11 38.7 C35.76 41.1, 29.53 41.67, 24.04 41.04 C18.56 40.41, 11.17 38.11, 7.2 34.94 C3.23 31.76, 0.7 26.23, 0.22 22 C-0.26 17.78, 0.42 13.4, 4.32 9.6 C8.21 5.79, 19.52 0.59, 23.58 -0.8 C27.65 -2.2, 28.53 0.82, 28.7 1.2 M14.45 3.53 C19.06 1.38, 27.1 -0.6, 32.52 0.15 C37.94 0.9, 43.97 4.25, 46.99 8.04 C50 11.82, 51.02 18.24, 50.61 22.86 C50.2 27.49, 48.19 32.59, 44.53 35.78 C40.87 38.96, 34.09 41.48, 28.64 41.95 C23.19 42.43, 16.49 41.27, 11.83 38.63 C7.18 36, 2.44 30.19, 0.72 26.15 C-0.99 22.11, -0.48 18.43, 1.53 14.39 C3.55 10.35, 10.76 3.76, 12.83 1.9 C14.9 0.05, 13.58 3, 13.97 3.25" stroke="#1e1e1e" stroke-width="2" fill="none"></path></g><g transform="translate(264.98720244891535 100.95079116441843) rotate(0 9.12799072265625 10)"><text x="9.12799072265625" y="14.016" font-family="Virgil, Segoe UI Emoji" font-size="16px" fill="#1e1e1e" text-anchor="middle" style="white-space: pre;" direction="ltr" dominant-baseline="alphabetic">v5</text></g><g stroke-linecap="round" transform="translate(355.1999816894531 165.80010986328125) rotate(0 26 21)"><path d="M16.68 0.59 C21.26 -1.34, 27.93 -0.75, 33.09 0.82 C38.25 2.4, 44.37 6.35, 47.62 10.04 C50.87 13.74, 53.3 18.67, 52.6 22.98 C51.91 27.3, 47.69 32.83, 43.45 35.93 C39.22 39.03, 32.88 41.14, 27.2 41.58 C21.52 42.03, 13.89 41.43, 9.4 38.6 C4.91 35.77, 1.22 29.04, 0.26 24.6 C-0.71 20.15, -0.37 16.14, 3.61 11.95 C7.59 7.76, 19.7 1.23, 24.15 -0.56 C28.6 -2.34, 30.47 0.69, 30.33 1.23 M35.35 1.27 C40.01 2.72, 44.52 7.63, 47.08 11.64 C49.65 15.65, 51.66 21.09, 50.76 25.35 C49.86 29.61, 45.9 34.46, 41.71 37.2 C37.52 39.94, 31.12 42.02, 25.63 41.77 C20.14 41.53, 13.05 38.36, 8.79 35.72 C4.54 33.08, 1.14 30.2, 0.1 25.91 C-0.94 21.62, -0.26 14.02, 2.56 9.98 C5.38 5.95, 11.62 3.29, 17.03 1.68 C22.44 0.07, 32.27 0.26, 35.01 0.34 C37.75 0.42, 33.57 1.49, 33.47 2.14" stroke="#1e1e1e" stroke-width="2" fill="none"></path></g><g transform="translate(372.82721404559504 176.95086745836375) rotate(0 8.487991333007812 10)"><text x="8.487991333007812" y="14.016" font-family="Virgil, Segoe UI Emoji" font-size="16px" fill="#1e1e1e" text-anchor="middle" style="white-space: pre;" direction="ltr" dominant-baseline="alphabetic">v7</text></g><g stroke-linecap="round" transform="translate(381.6000061035156 61.800048828125) rotate(0 26 21)"><path d="M13.41 2.73 C18.2 0.37, 26.72 -1.17, 32.22 -0.38 C37.72 0.41, 43.11 3.84, 46.43 7.45 C49.75 11.07, 52.45 16.55, 52.15 21.31 C51.85 26.08, 48.45 32.76, 44.64 36.03 C40.83 39.29, 34.6 40.34, 29.3 40.92 C24 41.51, 17.46 41.88, 12.87 39.53 C8.28 37.19, 3.74 31.2, 1.75 26.86 C-0.25 22.53, -1.86 17.77, 0.9 13.51 C3.65 9.25, 14.25 3.34, 18.28 1.3 C22.31 -0.74, 24.88 0.96, 25.07 1.28 M25.45 0.79 C30.79 0.4, 37.57 2.48, 41.86 5.25 C46.15 8.01, 50.19 13.2, 51.17 17.38 C52.16 21.55, 50.59 26.19, 47.78 30.29 C44.96 34.39, 39.59 40.36, 34.28 41.99 C28.98 43.62, 21.11 41.77, 15.95 40.05 C10.8 38.33, 5.91 35.64, 3.36 31.67 C0.81 27.69, -0.16 20.61, 0.68 16.21 C1.51 11.81, 4.03 7.79, 8.38 5.27 C12.74 2.74, 23.85 2.07, 26.82 1.08 C29.79 0.09, 26.12 -0.73, 26.19 -0.7" stroke="#1e1e1e" stroke-width="2" fill="none"></path></g><g transform="translate(397.4112365675677 72.9508064232075) rotate(0 10.303993225097656 10)"><text x="10.303993225097656" y="14.016" font-family="Virgil, Segoe UI Emoji" font-size="16px" fill="#1e1e1e" text-anchor="middle" style="white-space: pre;" direction="ltr" dominant-baseline="alphabetic">v8</text></g><g stroke-linecap="round" transform="translate(246.39999389648438 17.000045776367188) rotate(0 26 21)"><path d="M29.33 -0.43 C34.5 -0.07, 41.65 2.81, 45.31 6.39 C48.97 9.97, 51.12 16.63, 51.28 21.05 C51.45 25.47, 49.47 29.37, 46.3 32.89 C43.14 36.42, 37.59 41.2, 32.28 42.21 C26.98 43.23, 19.7 41.13, 14.49 39 C9.28 36.86, 3.32 33.38, 1 29.42 C-1.32 25.45, -1.38 19.42, 0.57 15.21 C2.52 10.99, 7.52 6.5, 12.7 4.12 C17.87 1.73, 28.06 1.5, 31.63 0.91 C35.19 0.32, 34.01 0.38, 34.08 0.56 M32.29 0.5 C37.57 1.09, 43.53 3.64, 46.74 7.56 C49.96 11.48, 52.12 19.42, 51.58 24.04 C51.04 28.66, 47.37 32.24, 43.49 35.28 C39.6 38.32, 33.62 41.97, 28.25 42.31 C22.88 42.64, 16.02 39.85, 11.27 37.28 C6.52 34.72, 1.12 30.93, -0.27 26.91 C-1.65 22.89, 0.43 17.51, 2.97 13.17 C5.5 8.82, 9.81 3.04, 14.94 0.83 C20.08 -1.38, 31.02 -0.22, 33.76 -0.09 C36.5 0.05, 31.45 1.14, 31.39 1.65" stroke="#e03131" stroke-width="2" fill="none"></path></g><g transform="translate(263.21122436053645 28.150803371449683) rotate(0 9.303993225097656 10)"><text x="9.303993225097656" y="14.016" font-family="Virgil, Segoe UI Emoji" font-size="16px" fill="#e03131" text-anchor="middle" style="white-space: pre;" direction="ltr" dominant-baseline="alphabetic">v4</text></g><g stroke-linecap="round"><g transform="translate(102.79276410575392 97.80502187222373) rotate(0 22.28195978051994 -15.245562809056906)"><path d="M0 0 C14.36 -10.36, 29.09 -20.09, 44.56 -30.49 M0 0 C9.69 -6.64, 20.76 -13.75, 44.56 -30.49" stroke="#e03131" stroke-width="2" fill="none"></path></g><g transform="translate(102.79276410575392 97.80502187222373) rotate(0 22.28195978051994 -15.245562809056906)"><path d="M45.39 -31.46 L37.73 -17.34 L29.34 -27.04 L43.81 -30.15" stroke="none" stroke-width="0" fill="#e03131" fill-rule="evenodd"></path><path d="M44.56 -30.49 C42.13 -26.75, 39.82 -22.37, 37.02 -17.53 M44.56 -30.49 C42.56 -27.28, 41.42 -24.35, 37.02 -17.53 M37.02 -17.53 C34.97 -19.65, 34.09 -21.91, 29.78 -27.94 M37.02 -17.53 C34.68 -20.19, 32.76 -23.2, 29.78 -27.94 M29.78 -27.94 C33.03 -28.79, 35.79 -29.23, 44.56 -30.49 M29.78 -27.94 C35.39 -28.78, 41.03 -30.06, 44.56 -30.49 M44.56 -30.49 C44.56 -30.49, 44.56 -30.49, 44.56 -30.49 M44.56 -30.49 C44.56 -30.49, 44.56 -30.49, 44.56 -30.49" stroke="#e03131" stroke-width="2" fill="none"></path></g></g><mask></mask><g stroke-linecap="round"><g transform="translate(104.10381111484901 132.73280125591384) rotate(0 14.818728104657453 17.3493887424697)"><path d="M0 0 C6.56 7.19, 12.12 16.08, 29.64 34.7 M0 0 C8.09 9.37, 15.3 17.87, 29.64 34.7" stroke="#e03131" stroke-width="2" fill="none"></path></g><g transform="translate(104.10381111484901 132.73280125591384) rotate(0 14.818728104657453 17.3493887424697)"><path d="M30.35 34.88 L15.55 29.36 L24.89 20.58 L29.77 34.91" stroke="none" stroke-width="0" fill="#e03131" fill-rule="evenodd"></path><path d="M29.64 34.7 C26.81 33.01, 23.22 32.7, 16 28.46 M29.64 34.7 C26.3 33.26, 22.17 31.05, 16 28.46 M16 28.46 C19.7 26.19, 22.38 23.15, 25.65 20.24 M16 28.46 C18.77 26.1, 21.64 23.49, 25.65 20.24 M25.65 20.24 C25.99 23.96, 28.36 27.56, 29.64 34.7 M25.65 20.24 C26.74 23.77, 27.44 27.89, 29.64 34.7 M29.64 34.7 C29.64 34.7, 29.64 34.7, 29.64 34.7 M29.64 34.7 C29.64 34.7, 29.64 34.7, 29.64 34.7" stroke="#e03131" stroke-width="2" fill="none"></path></g></g><mask></mask><g stroke-linecap="round"><g transform="translate(196.03532843912785 48.576859983459144) rotate(0 24.822943364161233 -3.704914388717782)"><path d="M0 0 C11.18 -0.69, 23.42 -4.32, 49.65 -7.41 M0 0 C17.67 -3.3, 36.19 -5.81, 49.65 -7.41" stroke="#e03131" stroke-width="2" fill="none"></path></g><g transform="translate(196.03532843912785 48.576859983459144) rotate(0 24.822943364161233 -3.704914388717782)"><path d="M49.2 -6.51 L36.2 0.92 L35.49 -11.78 L50.42 -7.92" stroke="none" stroke-width="0" fill="#e03131" fill-rule="evenodd"></path><path d="M49.65 -7.41 C46.09 -4.78, 43.32 -4.26, 36.95 0.58 M49.65 -7.41 C44.83 -4.85, 40.6 -1.81, 36.95 0.58 M36.95 0.58 C36.23 -3.57, 35.81 -8.8, 35.36 -11.99 M36.95 0.58 C36.15 -4.17, 35.67 -9.06, 35.36 -11.99 M35.36 -11.99 C39.66 -11.21, 42.5 -9.57, 49.65 -7.41 M35.36 -11.99 C39.73 -10.33, 44.79 -8.7, 49.65 -7.41 M49.65 -7.41 C49.65 -7.41, 49.65 -7.41, 49.65 -7.41 M49.65 -7.41 C49.65 -7.41, 49.65 -7.41, 49.65 -7.41" stroke="#e03131" stroke-width="2" fill="none"></path></g></g><mask></mask><g stroke-linecap="round"><g transform="translate(191.58381361382715 73.79120675232275) rotate(0 28.232031776670738 15.469599985919217)"><path d="M0 0 C13.77 5.73, 30.38 16.94, 56.46 30.94 M0 0 C19.76 10.67, 39.5 22.72, 56.46 30.94" stroke="#e03131" stroke-width="2" fill="none"></path></g><g transform="translate(191.58381361382715 73.79120675232275) rotate(0 28.232031776670738 15.469599985919217)"><path d="M54.95 31.61 L41.74 30.72 L48.88 18.03 L57.98 31.15" stroke="none" stroke-width="0" fill="#e03131" fill-rule="evenodd"></path><path d="M56.46 30.94 C52.07 29.61, 49.63 31.82, 41.48 30.29 M56.46 30.94 C51.54 30.1, 46.44 30.86, 41.48 30.29 M41.48 30.29 C43.76 24.82, 47 20.96, 47.33 19.04 M41.48 30.29 C43.42 26.22, 45.44 21.75, 47.33 19.04 M47.33 19.04 C49.37 22.44, 52.9 25.96, 56.46 30.94 M47.33 19.04 C49.69 22.41, 51.57 24.17, 56.46 30.94 M56.46 30.94 C56.46 30.94, 56.46 30.94, 56.46 30.94 M56.46 30.94 C56.46 30.94, 56.46 30.94, 56.46 30.94" stroke="#e03131" stroke-width="2" fill="none"></path></g></g><mask></mask><g stroke-linecap="round"><g transform="translate(304.3982609199338 107.40047449459325) rotate(0 38.002610335131976 -9.200636553825234)"><path d="M0 0 C31.63 -5.24, 61.62 -15.3, 76.01 -18.4 M0 0 C15.74 -2.54, 31.36 -7.13, 76.01 -18.4" stroke="#1e1e1e" stroke-width="2" fill="none"></path></g><g transform="translate(304.3982609199338 107.40047449459325) rotate(0 38.002610335131976 -9.200636553825234)"><path d="M76.26 -17.97 L65.95 -9.91 L62.78 -20.97 L76.89 -19" stroke="none" stroke-width="0" fill="#1e1e1e" fill-rule="evenodd"></path><path d="M76.01 -18.4 C72.29 -13.64, 67.43 -11.88, 64.4 -8.89 M76.01 -18.4 C74.08 -16.04, 71.98 -14.79, 64.4 -8.89 M64.4 -8.89 C64.37 -13.8, 62.95 -18.14, 61.26 -21.18 M64.4 -8.89 C63.22 -13.33, 62.35 -16.05, 61.26 -21.18 M61.26 -21.18 C65.21 -20.28, 67.5 -20.98, 76.01 -18.4 M61.26 -21.18 C66.14 -20.92, 71.62 -19.84, 76.01 -18.4 M76.01 -18.4 C76.01 -18.4, 76.01 -18.4, 76.01 -18.4 M76.01 -18.4 C76.01 -18.4, 76.01 -18.4, 76.01 -18.4" stroke="#1e1e1e" stroke-width="2" fill="none"></path></g></g><mask></mask><g stroke-linecap="round"><g transform="translate(182.68262434493613 188.08536441697595) rotate(0 27.940745525205216 1.7318363993783805)"><path d="M0 0 C12.85 -0.95, 21.83 1.79, 55.88 3.46 M0 0 C14.12 0.24, 26.97 1.29, 55.88 3.46" stroke="#e03131" stroke-width="2" fill="none"></path></g><g transform="translate(182.68262434493613 188.08536441697595) rotate(0 27.940745525205216 1.7318363993783805)"><path d="M57.43 2.45 L43.37 8.98 L43.69 -4.48 L55.4 2.11" stroke="none" stroke-width="0" fill="#e03131" fill-rule="evenodd"></path><path d="M55.88 3.46 C53.64 3.73, 48.46 6.36, 41.85 8.77 M55.88 3.46 C53.18 4.67, 49.52 6.1, 41.85 8.77 M41.85 8.77 C42.61 5.22, 42.29 3.1, 42.8 -3.88 M41.85 8.77 C42.04 5.67, 42.08 1.32, 42.8 -3.88 M42.8 -3.88 C45.87 -2.82, 51.23 1.05, 55.88 3.46 M42.8 -3.88 C48.15 -1.45, 51.9 1.94, 55.88 3.46 M55.88 3.46 C55.88 3.46, 55.88 3.46, 55.88 3.46 M55.88 3.46 C55.88 3.46, 55.88 3.46, 55.88 3.46" stroke="#e03131" stroke-width="2" fill="none"></path></g></g><mask></mask><g stroke-linecap="round"><g transform="translate(295.59296571266054 192.40675594126753) rotate(0 29.2489454141936 -1.8491232409870975)"><path d="M0 0 C19.74 -0.28, 42.2 -1.37, 58.5 -3.7 M0 0 C21.93 -1.23, 42.22 -1.8, 58.5 -3.7" stroke="#1e1e1e" stroke-width="2" fill="none"></path></g><g transform="translate(295.59296571266054 192.40675594126753) rotate(0 29.2489454141936 -1.8491232409870975)"><path d="M60.02 -3.49 L46.41 3.23 L43.91 -10.16 L58.48 -3.38" stroke="none" stroke-width="0" fill="#1e1e1e" fill-rule="evenodd"></path><path d="M58.5 -3.7 C52.23 -0.44, 47.96 2.56, 45.52 3.83 M58.5 -3.7 C54.06 -0.93, 48.3 2.44, 45.52 3.83 M45.52 3.83 C45.33 0.35, 44.72 -2.79, 44.39 -8.8 M45.52 3.83 C44.95 1, 45.1 -1.17, 44.39 -8.8 M44.39 -8.8 C49.32 -6.57, 54.33 -5.59, 58.5 -3.7 M44.39 -8.8 C46.98 -7.31, 51.43 -6.3, 58.5 -3.7 M58.5 -3.7 C58.5 -3.7, 58.5 -3.7, 58.5 -3.7 M58.5 -3.7 C58.5 -3.7, 58.5 -3.7, 58.5 -3.7" stroke="#1e1e1e" stroke-width="2" fill="none"></path></g></g><mask></mask><g stroke-linecap="round"><g transform="translate(364.0933082674726 168.52006491794225) rotate(0 -34.8898310007113 -21.606764454613582)"><path d="M0 0 C-17.27 -8.94, -31.1 -18.5, -69.78 -43.21 M0 0 C-20.65 -11.29, -39.88 -23.69, -69.78 -43.21" stroke="#1e1e1e" stroke-width="2" fill="none"></path></g><g transform="translate(364.0933082674726 168.52006491794225) rotate(0 -34.8898310007113 -21.606764454613582)"><path d="M-68.89 -43.82 L-55.4 -42.49 L-61.84 -30.18 L-68.67 -44.71" stroke="none" stroke-width="0" fill="#1e1e1e" fill-rule="evenodd"></path><path d="M-69.78 -43.21 C-67.23 -42.02, -61.76 -41.06, -54.93 -41.13 M-69.78 -43.21 C-66.29 -42.02, -61.87 -41.65, -54.93 -41.13 M-54.93 -41.13 C-56.67 -39.22, -59.26 -36.58, -61.83 -30.49 M-54.93 -41.13 C-57.58 -36.97, -60.11 -33.49, -61.83 -30.49 M-61.83 -30.49 C-62.57 -33.43, -66.55 -35.18, -69.78 -43.21 M-61.83 -30.49 C-63.03 -33.47, -65.88 -37.39, -69.78 -43.21 M-69.78 -43.21 C-69.78 -43.21, -69.78 -43.21, -69.78 -43.21 M-69.78 -43.21 C-69.78 -43.21, -69.78 -43.21, -69.78 -43.21" stroke="#1e1e1e" stroke-width="2" fill="none"></path></g></g><mask></mask><g transform="translate(10 218.90003967285156) rotate(0 234.375 36)"><text x="0" y="19.3125" font-family="Cascadia, Segoe UI Emoji" font-size="20px" fill="#1e1e1e" text-anchor="start" style="white-space: pre;" direction="ltr" dominant-baseline="alphabetic">grado_in:  x   x   x   x   1   0   1   1</text><text x="0" y="43.3125" font-family="Cascadia, Segoe UI Emoji" font-size="20px" fill="#1e1e1e" text-anchor="start" style="white-space: pre;" direction="ltr" dominant-baseline="alphabetic">          v1  v2  v3  v4  v5  v6  v7  v8</text><text x="0" y="67.3125" font-family="Cascadia, Segoe UI Emoji" font-size="20px" fill="#1e1e1e" text-anchor="start" style="white-space: pre;" direction="ltr" dominant-baseline="alphabetic">result = v1  v2  v3  v4  </text></g><g transform="translate(10.79998779296875 12.000030517578125) rotate(0 46.875 12)"><text x="0" y="19.3125" font-family="Cascadia, Segoe UI Emoji" font-size="20px" fill="#1e1e1e" text-anchor="start" style="white-space: pre;" direction="ltr" dominant-baseline="alphabetic">Bucle: 4</text></g><g stroke-linecap="round" transform="translate(591.2001037597656 92.60002136230469) rotate(0 26 21)"><path d="M19.56 0.27 C24.85 -1.1, 33.39 -0.23, 38.44 1.93 C43.49 4.09, 47.9 8.91, 49.86 13.23 C51.81 17.55, 51.66 23.75, 50.16 27.84 C48.65 31.93, 45.44 35.54, 40.81 37.76 C36.18 39.99, 28.02 41.7, 22.38 41.19 C16.74 40.69, 10.67 37.8, 6.96 34.74 C3.25 31.68, 0.24 27.29, 0.14 22.82 C0.03 18.36, 1.8 11.76, 6.31 7.97 C10.82 4.18, 22.7 1.33, 27.21 0.09 C31.71 -1.15, 33.45 0.32, 33.36 0.54 M26.82 -1.48 C32.51 -1.54, 39.32 1.86, 43.45 4.85 C47.58 7.83, 50.49 12.06, 51.59 16.44 C52.68 20.83, 52.56 27.28, 50 31.17 C47.44 35.05, 41.64 38.18, 36.22 39.73 C30.8 41.29, 23.04 42.01, 17.48 40.52 C11.92 39.02, 5.95 34.47, 2.86 30.76 C-0.22 27.06, -1.88 22.47, -1.02 18.29 C-0.16 14.12, 3.41 8.93, 8.02 5.71 C12.62 2.48, 23.61 -0.34, 26.62 -1.06 C29.63 -1.77, 26.24 1.04, 26.06 1.4" stroke="#e03131" stroke-width="2" fill="none"></path></g><g transform="translate(610.9633300734271 103.75077895738718) rotate(0 6.351997375488281 10)"><text x="6.351997375488281" y="14.016" font-family="Virgil, Segoe UI Emoji" font-size="16px" fill="#e03131" text-anchor="middle" style="white-space: pre;" direction="ltr" dominant-baseline="alphabetic">v1</text></g><g stroke-linecap="round" transform="translate(676.4001770019531 33.399993896484375) rotate(0 26 21)"><path d="M22.75 0.48 C27.77 -0.14, 34.73 1.74, 39.54 4 C44.36 6.25, 49.98 9.88, 51.65 13.99 C53.33 18.09, 51.91 24.4, 49.61 28.61 C47.31 32.82, 42.73 36.96, 37.83 39.24 C32.93 41.52, 25.48 43.29, 20.2 42.3 C14.93 41.31, 9.43 37.03, 6.19 33.31 C2.94 29.58, 0.46 24.48, 0.74 19.94 C1.01 15.4, 3.8 9.51, 7.83 6.07 C11.86 2.63, 21.81 0.4, 24.92 -0.69 C28.03 -1.79, 26.67 -1.11, 26.49 -0.51 M13.73 1.86 C18.29 -0.44, 27 -0.53, 32.61 0.34 C38.23 1.21, 44.19 3.59, 47.43 7.09 C50.67 10.59, 52.52 16.85, 52.05 21.33 C51.58 25.82, 48.56 30.49, 44.61 34.01 C40.66 37.53, 33.92 41.55, 28.37 42.46 C22.82 43.37, 15.65 42.13, 11.3 39.48 C6.95 36.82, 3.77 30.73, 2.26 26.52 C0.75 22.31, 0.36 18.37, 2.24 14.2 C4.12 10.03, 11.48 3.33, 13.55 1.51 C15.61 -0.31, 14.47 2.75, 14.64 3.27" stroke="#e03131" stroke-width="2" fill="none"></path></g><g transform="translate(692.635403437685 44.55075149156687) rotate(0 9.879997253417969 10)"><text x="9.879997253417969" y="14.016" font-family="Virgil, Segoe UI Emoji" font-size="16px" fill="#e03131" text-anchor="middle" style="white-space: pre;" direction="ltr" dominant-baseline="alphabetic">v2</text></g><g stroke-linecap="round" transform="translate(660.4000854492188 158.1999969482422) rotate(0 26 21)"><path d="M30.98 -0.64 C36.32 -0.41, 41.9 3.19, 45.42 6.68 C48.93 10.16, 51.94 15.51, 52.08 20.26 C52.21 25, 49.6 31.64, 46.22 35.15 C42.84 38.67, 37.18 40.63, 31.8 41.34 C26.43 42.05, 18.86 41.65, 13.97 39.4 C9.08 37.15, 4.53 32.19, 2.48 27.84 C0.44 23.5, -0.02 17.64, 1.68 13.33 C3.39 9.03, 7.66 3.98, 12.71 2.01 C17.75 0.04, 28.33 1.44, 31.95 1.53 C35.56 1.61, 34.32 2.31, 34.38 2.52 M21.47 -0.42 C26.36 -1.63, 33.51 0.02, 38.14 2.1 C42.77 4.18, 47.39 7.73, 49.26 12.06 C51.14 16.38, 51.14 23.5, 49.41 28.06 C47.68 32.61, 43.2 37.25, 38.88 39.37 C34.56 41.48, 28.76 41.29, 23.47 40.75 C18.19 40.21, 11.09 39.43, 7.16 36.12 C3.23 32.8, 0.05 25.45, -0.13 20.86 C-0.3 16.26, 2.75 11.91, 6.13 8.56 C9.5 5.22, 17.89 1.93, 20.12 0.79 C22.34 -0.35, 19.38 1.65, 19.47 1.72" stroke="#e03131" stroke-width="2" fill="none"></path></g><g transform="translate(676.8833129835834 169.35075454332468) rotate(0 9.631996154785156 10)"><text x="9.631996154785156" y="14.016" font-family="Virgil, Segoe UI Emoji" font-size="16px" fill="#e03131" text-anchor="middle" style="white-space: pre;" direction="ltr" dominant-baseline="alphabetic">v3</text></g><g stroke-linecap="round" transform="translate(772.4000549316406 170.20001220703125) rotate(0 26 21)"><path d="M14.58 1.67 C19.25 -0.21, 26.73 0.35, 32.29 1.45 C37.85 2.55, 44.56 4.78, 47.95 8.29 C51.35 11.79, 53.04 18.02, 52.64 22.46 C52.25 26.9, 49.52 31.83, 45.59 34.95 C41.66 38.06, 34.73 40.73, 29.05 41.16 C23.37 41.59, 16.36 39.78, 11.53 37.53 C6.7 35.28, 1.78 31.7, 0.06 27.64 C-1.66 23.59, -2.33 17.75, 1.22 13.2 C4.76 8.66, 16.88 2.35, 21.33 0.38 C25.78 -1.59, 27.85 0.93, 27.9 1.39 M17.48 -0.02 C22.2 -1.38, 29.57 0.3, 34.67 2.3 C39.77 4.3, 45.15 8.28, 48.09 11.99 C51.03 15.7, 53.31 20.11, 52.31 24.56 C51.32 29.01, 46.76 35.95, 42.14 38.69 C37.53 41.42, 30.14 41.29, 24.63 40.98 C19.11 40.68, 13.19 39.67, 9.07 36.83 C4.94 34, 0.88 28.37, -0.13 23.97 C-1.14 19.58, 0.02 14.54, 3.03 10.48 C6.04 6.42, 15.32 0.92, 17.92 -0.37 C20.52 -1.66, 18.67 2.19, 18.62 2.72" stroke="#e03131" stroke-width="2" fill="none"></path></g><g transform="translate(789.2112853956928 181.35076980211375) rotate(0 9.303993225097656 10)"><text x="9.303993225097656" y="14.016" font-family="Virgil, Segoe UI Emoji" font-size="16px" fill="#e03131" text-anchor="middle" style="white-space: pre;" direction="ltr" dominant-baseline="alphabetic">v6</text></g><g stroke-linecap="round" transform="translate(779.6000671386719 87.80000305175781) rotate(0 26 21)"><path d="M20.63 0.34 C25.78 -1.09, 33.05 0.27, 38.03 2.19 C43.02 4.1, 48.33 7.86, 50.53 11.83 C52.73 15.8, 52.89 21.75, 51.23 26.02 C49.57 30.28, 45.38 34.67, 40.57 37.45 C35.76 40.22, 28.08 42.85, 22.37 42.66 C16.67 42.47, 10.07 39.64, 6.36 36.29 C2.65 32.94, 0.45 27, 0.14 22.55 C-0.17 18.1, 0.78 13.2, 4.49 9.58 C8.21 5.97, 19.05 2.39, 22.43 0.87 C25.82 -0.65, 24.77 0.32, 24.81 0.46 M16.72 1.71 C22.02 -0.19, 31.05 -1.31, 36.47 0.4 C41.89 2.11, 46.75 7.99, 49.23 11.95 C51.71 15.92, 52.39 19.87, 51.33 24.19 C50.28 28.5, 47.29 34.81, 42.9 37.83 C38.51 40.85, 30.86 42.34, 24.99 42.3 C19.12 42.25, 11.86 40.81, 7.69 37.56 C3.51 34.31, 0.55 27.15, -0.07 22.79 C-0.68 18.43, 1.29 15.05, 4.02 11.41 C6.75 7.77, 14.06 2.65, 16.29 0.97 C18.51 -0.72, 17.15 0.93, 17.38 1.3" stroke="#1e1e1e" stroke-width="2" fill="none"></path></g><g transform="translate(796.5873001051655 98.95076064684031) rotate(0 9.12799072265625 10)"><text x="9.12799072265625" y="14.016" font-family="Virgil, Segoe UI Emoji" font-size="16px" fill="#1e1e1e" text-anchor="middle" style="white-space: pre;" direction="ltr" dominant-baseline="alphabetic">v5</text></g><g stroke-linecap="round" transform="translate(886.8000793457031 163.80007934570312) rotate(0 26 21)"><path d="M22.96 -0.34 C28.06 -1.37, 35.19 0.08, 39.8 2.37 C44.41 4.66, 49.06 8.88, 50.63 13.4 C52.2 17.91, 51.42 25.01, 49.22 29.46 C47.02 33.91, 42.15 38.09, 37.43 40.11 C32.71 42.14, 26.26 42.47, 20.89 41.61 C15.53 40.75, 8.72 38.37, 5.23 34.96 C1.74 31.55, -0.17 25.77, -0.06 21.13 C0.06 16.49, 0.82 10.68, 5.92 7.13 C11.01 3.58, 25.18 0.65, 30.51 -0.18 C35.83 -1.01, 37.83 1.84, 37.86 2.16 M31.71 1.42 C36.78 2.05, 42.79 3.59, 46.29 7.02 C49.79 10.46, 52.9 17.35, 52.69 22.06 C52.48 26.78, 49.05 31.88, 45.04 35.31 C41.03 38.73, 34.13 42.24, 28.61 42.61 C23.09 42.98, 16.46 39.8, 11.94 37.52 C7.42 35.24, 3.42 33, 1.49 28.93 C-0.43 24.85, -1.54 17.52, 0.41 13.08 C2.36 8.64, 8.19 4.4, 13.19 2.3 C18.19 0.21, 27.24 0.76, 30.39 0.53 C33.54 0.3, 31.94 0.72, 32.07 0.95" stroke="#1e1e1e" stroke-width="2" fill="none"></path></g><g transform="translate(904.4273117018452 174.95083694078562) rotate(0 8.487991333007812 10)"><text x="8.487991333007812" y="14.016" font-family="Virgil, Segoe UI Emoji" font-size="16px" fill="#1e1e1e" text-anchor="middle" style="white-space: pre;" direction="ltr" dominant-baseline="alphabetic">v7</text></g><g stroke-linecap="round" transform="translate(913.2001037597656 59.800018310546875) rotate(0 26 21)"><path d="M18.61 -0.07 C23.4 -1.29, 30.47 0.46, 35.41 2.52 C40.36 4.58, 45.64 8.4, 48.29 12.31 C50.95 16.21, 52.56 21.54, 51.35 25.95 C50.13 30.36, 45.52 35.99, 41.02 38.77 C36.51 41.55, 29.91 43.06, 24.32 42.64 C18.73 42.22, 11.54 39.56, 7.48 36.26 C3.42 32.96, 0.59 27.46, -0.04 22.83 C-0.67 18.2, -0.49 12.4, 3.69 8.48 C7.87 4.57, 20.5 0.54, 25.04 -0.65 C29.58 -1.83, 31.1 0.87, 30.93 1.38 M35.05 1.51 C40.13 2.85, 45.29 6.49, 47.88 10.4 C50.47 14.32, 51.45 20.83, 50.61 25.01 C49.76 29.19, 46.77 32.4, 42.8 35.46 C38.83 38.52, 32.53 43.07, 26.77 43.37 C21.02 43.67, 12.75 40.34, 8.29 37.27 C3.82 34.19, 0.98 29.3, -0.03 24.92 C-1.03 20.54, -0.64 14.89, 2.27 10.99 C5.17 7.09, 12.01 3.27, 17.42 1.52 C22.83 -0.23, 31.72 0.69, 34.7 0.49 C37.69 0.29, 35.62 -0.16, 35.35 0.32" stroke="#1e1e1e" stroke-width="2" fill="none"></path></g><g transform="translate(929.0113342238178 70.95077590562937) rotate(0 10.303993225097656 10)"><text x="10.303993225097656" y="14.016" font-family="Virgil, Segoe UI Emoji" font-size="16px" fill="#1e1e1e" text-anchor="middle" style="white-space: pre;" direction="ltr" dominant-baseline="alphabetic">v8</text></g><g stroke-linecap="round" transform="translate(778.0000915527344 15.000015258789062) rotate(0 26 21)"><path d="M13.33 2.9 C18.08 0.62, 26.54 -0.48, 32.05 0.59 C37.56 1.66, 43.11 5.61, 46.42 9.33 C49.72 13.05, 52.24 18.53, 51.89 22.88 C51.54 27.24, 48.16 32.37, 44.32 35.44 C40.48 38.51, 34.37 40.96, 28.83 41.33 C23.29 41.7, 15.63 40.14, 11.08 37.64 C6.53 35.15, 2.97 30.41, 1.55 26.36 C0.12 22.3, 0.12 17.45, 2.53 13.33 C4.94 9.21, 13.09 3.7, 15.99 1.65 C18.9 -0.4, 19.81 0.68, 19.97 1.04 M28.36 1.01 C33.65 1.04, 40.89 2.11, 44.86 5.53 C48.83 8.95, 52.13 16.81, 52.17 21.51 C52.22 26.2, 48.66 30.4, 45.14 33.71 C41.62 37.01, 36.39 40.33, 31.04 41.33 C25.68 42.32, 17.71 41.73, 13.01 39.69 C8.3 37.65, 4.71 33.36, 2.81 29.08 C0.91 24.8, -0.16 18.52, 1.58 14.01 C3.32 9.51, 8.69 4.33, 13.26 2.07 C17.83 -0.19, 26.24 0.9, 29 0.44 C31.77 -0.01, 29.96 -0.98, 29.84 -0.65" stroke="#e03131" stroke-width="2" fill="none"></path></g><g transform="translate(794.8113220167866 26.15077285387156) rotate(0 9.303993225097656 10)"><text x="9.303993225097656" y="14.016" font-family="Virgil, Segoe UI Emoji" font-size="16px" fill="#e03131" text-anchor="middle" style="white-space: pre;" direction="ltr" dominant-baseline="alphabetic">v4</text></g><g stroke-linecap="round"><g transform="translate(634.392861762004 95.80499135464561) rotate(0 22.28195978051997 -15.245562809056906)"><path d="M0 0 C8.38 -5.82, 18.65 -12.75, 44.56 -30.49 M0 0 C11.66 -8.12, 22.79 -15.76, 44.56 -30.49" stroke="#e03131" stroke-width="2" fill="none"></path></g><g transform="translate(634.392861762004 95.80499135464561) rotate(0 22.28195978051997 -15.245562809056906)"><path d="M44.48 -31.26 L36.97 -18.19 L28.8 -28.03 L44.68 -29.53" stroke="none" stroke-width="0" fill="#e03131" fill-rule="evenodd"></path><path d="M44.56 -30.49 C42.17 -27.3, 41.37 -25.11, 36.87 -17.61 M44.56 -30.49 C42.9 -27.41, 40.68 -23.95, 36.87 -17.61 M36.87 -17.61 C35.43 -20.67, 33.65 -22.44, 29.75 -28.11 M36.87 -17.61 C35.19 -20.21, 33.74 -22.32, 29.75 -28.11 M29.75 -28.11 C34.27 -28.89, 37.31 -29.28, 44.56 -30.49 M29.75 -28.11 C35.43 -29.08, 41.13 -29.95, 44.56 -30.49 M44.56 -30.49 C44.56 -30.49, 44.56 -30.49, 44.56 -30.49 M44.56 -30.49 C44.56 -30.49, 44.56 -30.49, 44.56 -30.49" stroke="#e03131" stroke-width="2" fill="none"></path></g></g><mask></mask><g stroke-linecap="round"><g transform="translate(635.7039087710991 130.73277073833572) rotate(0 14.818728104657453 17.3493887424697)"><path d="M0 0 C11.07 13.01, 21.74 26.94, 29.64 34.7 M0 0 C8.83 10.17, 17.24 20.12, 29.64 34.7" stroke="#e03131" stroke-width="2" fill="none"></path></g><g transform="translate(635.7039087710991 130.73277073833572) rotate(0 14.818728104657453 17.3493887424697)"><path d="M29.73 34.12 L15.05 28.52 L25.78 21.2 L29.13 35.45" stroke="none" stroke-width="0" fill="#e03131" fill-rule="evenodd"></path><path d="M29.64 34.7 C24.58 32.41, 19.07 30.69, 16 28.44 M29.64 34.7 C25.63 32.75, 21.42 30.75, 16 28.44 M16 28.44 C18.27 27.16, 19.58 25.21, 25.66 20.23 M16 28.44 C19.69 25.56, 23 22.54, 25.66 20.23 M25.66 20.23 C25.95 23.62, 28.19 26.08, 29.64 34.7 M25.66 20.23 C26.57 24.48, 28.17 28.71, 29.64 34.7 M29.64 34.7 C29.64 34.7, 29.64 34.7, 29.64 34.7 M29.64 34.7 C29.64 34.7, 29.64 34.7, 29.64 34.7" stroke="#e03131" stroke-width="2" fill="none"></path></g></g><mask></mask><g stroke-linecap="round"><g transform="translate(727.6354260953779 46.57682946588102) rotate(0 24.822943364161233 -3.704914388717782)"><path d="M0 0 C17.75 -1.84, 36.29 -4.76, 49.65 -7.41 M0 0 C11.63 -2.05, 23.34 -3.28, 49.65 -7.41" stroke="#e03131" stroke-width="2" fill="none"></path></g><g transform="translate(727.6354260953779 46.57682946588102) rotate(0 24.822943364161233 -3.704914388717782)"><path d="M48.69 -7.33 L37.26 1.85 L34.75 -10.9 L50.6 -7.62" stroke="none" stroke-width="0" fill="#e03131" fill-rule="evenodd"></path><path d="M49.65 -7.41 C44.75 -3.71, 40.45 -0.83, 37.15 0.89 M49.65 -7.41 C46.46 -5.68, 43.32 -3.28, 37.15 0.89 M37.15 0.89 C36.24 -1.85, 36.66 -4.99, 35.26 -11.65 M37.15 0.89 C36.61 -1.98, 36 -4.8, 35.26 -11.65 M35.26 -11.65 C39.9 -11.21, 43.13 -9.58, 49.65 -7.41 M35.26 -11.65 C39.6 -10.41, 43.61 -9.37, 49.65 -7.41 M49.65 -7.41 C49.65 -7.41, 49.65 -7.41, 49.65 -7.41 M49.65 -7.41 C49.65 -7.41, 49.65 -7.41, 49.65 -7.41" stroke="#e03131" stroke-width="2" fill="none"></path></g></g><mask></mask><g stroke-linecap="round"><g transform="translate(723.1839112700773 71.79117623474463) rotate(0 28.232031776670738 15.469599985919217)"><path d="M0 0 C16.83 10.22, 32.86 18.32, 56.46 30.94 M0 0 C14.72 9.47, 30.74 18.08, 56.46 30.94" stroke="#e03131" stroke-width="2" fill="none"></path></g><g transform="translate(723.1839112700773 71.79117623474463) rotate(0 28.232031776670738 15.469599985919217)"><path d="M56.69 32.87 L40.46 31.92 L49.13 18.71 L55.56 30.83" stroke="none" stroke-width="0" fill="#e03131" fill-rule="evenodd"></path><path d="M56.46 30.94 C51.83 31.93, 46.48 30.82, 41.47 30.42 M56.46 30.94 C51.59 31.04, 47.57 30.86, 41.47 30.42 M41.47 30.42 C44.47 26.18, 44.89 22.79, 47.22 19.12 M41.47 30.42 C42.91 27.07, 45.11 22.47, 47.22 19.12 M47.22 19.12 C50.1 22.38, 52.93 25.68, 56.46 30.94 M47.22 19.12 C50.3 22.42, 53.53 25.75, 56.46 30.94 M56.46 30.94 C56.46 30.94, 56.46 30.94, 56.46 30.94 M56.46 30.94 C56.46 30.94, 56.46 30.94, 56.46 30.94" stroke="#e03131" stroke-width="2" fill="none"></path></g></g><mask></mask><g stroke-linecap="round"><g transform="translate(835.9983585761838 105.40044397701513) rotate(0 38.002610335131976 -9.200636553825234)"><path d="M0 0 C28.3 -7.58, 58.59 -15.85, 76.01 -18.4 M0 0 C17.37 -4.26, 36.57 -9.71, 76.01 -18.4" stroke="#1e1e1e" stroke-width="2" fill="none"></path></g><g transform="translate(835.9983585761838 105.40044397701513) rotate(0 38.002610335131976 -9.200636553825234)"><path d="M74.99 -16.91 L66.08 -9.59 L60.43 -21.65 L76.69 -19.8" stroke="none" stroke-width="0" fill="#1e1e1e" fill-rule="evenodd"></path><path d="M76.01 -18.4 C70.5 -14.69, 66.51 -11.96, 64.17 -9.18 M76.01 -18.4 C72.63 -15.87, 70.83 -14.54, 64.17 -9.18 M64.17 -9.18 C62.33 -12.62, 62.58 -17.53, 61.34 -21.54 M64.17 -9.18 C63.2 -13.69, 62.53 -16.51, 61.34 -21.54 M61.34 -21.54 C64.13 -21.78, 67.38 -19.36, 76.01 -18.4 M61.34 -21.54 C66.42 -21.11, 70.1 -19.43, 76.01 -18.4 M76.01 -18.4 C76.01 -18.4, 76.01 -18.4, 76.01 -18.4 M76.01 -18.4 C76.01 -18.4, 76.01 -18.4, 76.01 -18.4" stroke="#1e1e1e" stroke-width="2" fill="none"></path></g></g><mask></mask><g stroke-linecap="round"><g transform="translate(714.2827220011861 186.08533389939782) rotate(0 27.940745525205216 1.7318363993783805)"><path d="M0 0 C20.12 0.2, 39.78 0.71, 55.88 3.46 M0 0 C19.89 0.26, 38.79 2.81, 55.88 3.46" stroke="#e03131" stroke-width="2" fill="none"></path></g><g transform="translate(714.2827220011861 186.08533389939782) rotate(0 27.940745525205216 1.7318363993783805)"><path d="M57.79 3.05 L41.01 8.84 L43.39 -5.11 L56.14 3.45" stroke="none" stroke-width="0" fill="#e03131" fill-rule="evenodd"></path><path d="M55.88 3.46 C50.41 4.7, 44.61 6.14, 41.92 8.95 M55.88 3.46 C51.5 4.88, 46.41 7.79, 41.92 8.95 M41.92 8.95 C42.57 4.98, 42.72 0.67, 42.71 -3.71 M41.92 8.95 C42.31 5.04, 41.9 -0.08, 42.71 -3.71 M42.71 -3.71 C46.27 -0.87, 49.77 0.53, 55.88 3.46 M42.71 -3.71 C45.94 -1.62, 49.8 -0.52, 55.88 3.46 M55.88 3.46 C55.88 3.46, 55.88 3.46, 55.88 3.46 M55.88 3.46 C55.88 3.46, 55.88 3.46, 55.88 3.46" stroke="#e03131" stroke-width="2" fill="none"></path></g></g><mask></mask><g stroke-linecap="round"><g transform="translate(827.1930633689105 190.4067254236894) rotate(0 29.2489454141936 -1.8491232409870975)"><path d="M0 0 C16.49 -2.63, 36.46 -3.3, 58.5 -3.7 M0 0 C20.2 -0.2, 39.8 -2.77, 58.5 -3.7" stroke="#e03131" stroke-width="2" fill="none"></path></g><g transform="translate(827.1930633689105 190.4067254236894) rotate(0 29.2489454141936 -1.8491232409870975)"><path d="M57.59 -3.81 L46.05 2.16 L44.76 -9.1 L58.79 -1.73" stroke="none" stroke-width="0" fill="#e03131" fill-rule="evenodd"></path><path d="M58.5 -3.7 C53.52 -2.93, 51.18 -0.38, 45.37 3.56 M58.5 -3.7 C54.26 -0.83, 49.51 0.66, 45.37 3.56 M45.37 3.56 C45.29 -1.76, 45.43 -5.52, 44.5 -9.09 M45.37 3.56 C44.56 0.83, 44.76 -1.87, 44.5 -9.09 M44.5 -9.09 C47.93 -7.53, 50.54 -5.44, 58.5 -3.7 M44.5 -9.09 C47.8 -8.55, 50.27 -6.67, 58.5 -3.7 M58.5 -3.7 C58.5 -3.7, 58.5 -3.7, 58.5 -3.7 M58.5 -3.7 C58.5 -3.7, 58.5 -3.7, 58.5 -3.7" stroke="#e03131" stroke-width="2" fill="none"></path></g></g><mask></mask><g stroke-linecap="round"><g transform="translate(895.6934059237226 166.52003440036412) rotate(0 -34.8898310007113 -21.606764454613582)"><path d="M0 0 C-16.09 -12.68, -33.43 -20.75, -69.78 -43.21 M0 0 C-16.22 -10.12, -31.66 -19.1, -69.78 -43.21" stroke="#1e1e1e" stroke-width="2" fill="none"></path></g><g transform="translate(895.6934059237226 166.52003440036412) rotate(0 -34.8898310007113 -21.606764454613582)"><path d="M-69.1 -44.61 L-54.64 -41.38 L-61.33 -28.65 L-70.18 -43.55" stroke="none" stroke-width="0" fill="#1e1e1e" fill-rule="evenodd"></path><path d="M-69.78 -43.21 C-65.43 -43.64, -61.81 -41.21, -54.89 -41.37 M-69.78 -43.21 C-66.43 -43.38, -62.59 -42.26, -54.89 -41.37 M-54.89 -41.37 C-56.04 -38.74, -59.72 -35.29, -61.62 -30.62 M-54.89 -41.37 C-57.86 -37.25, -60.66 -32.93, -61.62 -30.62 M-61.62 -30.62 C-65.17 -33.93, -68.64 -40.05, -69.78 -43.21 M-61.62 -30.62 C-64.65 -34.62, -66.61 -38.02, -69.78 -43.21 M-69.78 -43.21 C-69.78 -43.21, -69.78 -43.21, -69.78 -43.21 M-69.78 -43.21 C-69.78 -43.21, -69.78 -43.21, -69.78 -43.21" stroke="#1e1e1e" stroke-width="2" fill="none"></path></g></g><mask></mask><g transform="translate(541.60009765625 216.90000915527344) rotate(0 234.375 36)"><text x="0" y="19.3125" font-family="Cascadia, Segoe UI Emoji" font-size="20px" fill="#1e1e1e" text-anchor="start" style="white-space: pre;" direction="ltr" dominant-baseline="alphabetic">grado_in:  x   x   x   x   1   x   0   1</text><text x="0" y="43.3125" font-family="Cascadia, Segoe UI Emoji" font-size="20px" fill="#1e1e1e" text-anchor="start" style="white-space: pre;" direction="ltr" dominant-baseline="alphabetic">          v1  v2  v3  v4  v5  v6  v7  v8</text><text x="0" y="67.3125" font-family="Cascadia, Segoe UI Emoji" font-size="20px" fill="#1e1e1e" text-anchor="start" style="white-space: pre;" direction="ltr" dominant-baseline="alphabetic">result = v1  v2  v3  v4  v6</text></g><g transform="translate(542.4000854492188 10) rotate(0 46.875 12)"><text x="0" y="19.3125" font-family="Cascadia, Segoe UI Emoji" font-size="20px" fill="#1e1e1e" text-anchor="start" style="white-space: pre;" direction="ltr" dominant-baseline="alphabetic">Bucle: 5</text></g><g stroke-linecap="round" transform="translate(60.000091552734375 395.8000183105469) rotate(0 26 21)"><path d="M32.1 0.01 C37.12 1, 44.04 5.97, 47.22 9.75 C50.39 13.54, 51.82 18.21, 51.17 22.71 C50.53 27.21, 47.15 33.57, 43.34 36.76 C39.54 39.95, 33.89 41.53, 28.36 41.85 C22.82 42.18, 14.67 41.21, 10.13 38.71 C5.58 36.21, 2.42 31.38, 1.07 26.87 C-0.28 22.37, -0.26 15.75, 2.03 11.69 C4.32 7.62, 9.56 4.18, 14.82 2.49 C20.08 0.81, 30.12 1.66, 33.57 1.58 C37.02 1.5, 35.49 1.87, 35.52 2 M20.26 0.91 C25.44 -0.45, 32.31 0.18, 37.36 1.86 C42.41 3.55, 48.46 6.92, 50.57 11.02 C52.68 15.11, 51.57 21.74, 50.02 26.46 C48.48 31.17, 45.82 36.65, 41.3 39.31 C36.78 41.97, 28.51 42.81, 22.92 42.43 C17.33 42.06, 11.67 40.61, 7.76 37.08 C3.84 33.55, 0.15 26.19, -0.55 21.25 C-1.25 16.32, 0.46 10.77, 3.57 7.46 C6.68 4.16, 15.44 2.31, 18.13 1.44 C20.83 0.58, 19.38 1.8, 19.74 2.26" stroke="#e03131" stroke-width="2" fill="none"></path></g><g transform="translate(79.76331786639588 406.95077590562937) rotate(0 6.351997375488281 10)"><text x="6.351997375488281" y="14.016" font-family="Virgil, Segoe UI Emoji" font-size="16px" fill="#e03131" text-anchor="middle" style="white-space: pre;" direction="ltr" dominant-baseline="alphabetic">v1</text></g><g stroke-linecap="round" transform="translate(145.20016479492188 336.59999084472656) rotate(0 26 21)"><path d="M16.09 1.17 C20.78 -0.57, 28.21 0.53, 33.61 2.04 C39.02 3.55, 45.67 6.39, 48.53 10.21 C51.39 14.02, 51.66 20.41, 50.77 24.94 C49.87 29.48, 47.3 34.65, 43.15 37.43 C39.01 40.21, 31.52 41.56, 25.88 41.62 C20.23 41.69, 13.59 40.5, 9.26 37.8 C4.93 35.1, 0.83 29.91, -0.11 25.42 C-1.05 20.94, 0.45 15.1, 3.61 10.9 C6.77 6.7, 16.19 1.93, 18.86 0.21 C21.53 -1.51, 19.59 0.03, 19.64 0.58 M28.87 -1.15 C33.96 -1.09, 39.17 2.36, 43.08 5.87 C47 9.39, 51.75 15.36, 52.37 19.94 C52.99 24.52, 49.99 29.58, 46.81 33.34 C43.63 37.1, 38.65 41.63, 33.3 42.52 C27.94 43.41, 20.01 40.98, 14.69 38.68 C9.37 36.38, 3.9 32.41, 1.37 28.72 C-1.15 25.04, -2.08 20.52, -0.47 16.59 C1.13 12.66, 6.24 7.63, 11.01 5.13 C15.78 2.62, 25.27 2.16, 28.15 1.55 C31.04 0.93, 28.51 1.51, 28.33 1.44" stroke="#e03131" stroke-width="2" fill="none"></path></g><g transform="translate(161.4353912306537 347.75074843980906) rotate(0 9.879997253417997 10)"><text x="9.879997253417969" y="14.016" font-family="Virgil, Segoe UI Emoji" font-size="16px" fill="#e03131" text-anchor="middle" style="white-space: pre;" direction="ltr" dominant-baseline="alphabetic">v2</text></g><g stroke-linecap="round" transform="translate(129.2000732421875 461.3999938964844) rotate(0 26 21)"><path d="M23.78 0.02 C29.03 -0.7, 35.33 1.63, 39.91 4.28 C44.5 6.94, 49.74 11.78, 51.28 15.97 C52.83 20.15, 51.59 25.31, 49.18 29.4 C46.77 33.5, 41.9 38.47, 36.84 40.54 C31.78 42.61, 24.13 43.04, 18.84 41.84 C13.54 40.63, 8.11 37.19, 5.06 33.31 C2.01 29.43, 0.22 23.15, 0.54 18.57 C0.87 13.99, 2.85 8.83, 7.01 5.83 C11.17 2.83, 22.05 1.45, 25.49 0.58 C28.92 -0.29, 27.6 0.26, 27.6 0.62 M16.31 2.73 C21.11 0.91, 27.6 0.08, 32.89 1.43 C38.17 2.79, 44.97 7.4, 48.02 10.84 C51.07 14.28, 52.09 18.04, 51.18 22.06 C50.26 26.07, 46.72 31.49, 42.55 34.94 C38.37 38.38, 31.45 42.06, 26.13 42.73 C20.8 43.4, 14.79 41.54, 10.59 38.96 C6.39 36.38, 2.12 31.66, 0.9 27.24 C-0.32 22.83, 0.89 16.89, 3.27 12.46 C5.64 8.02, 12.88 2.53, 15.15 0.66 C17.42 -1.22, 16.5 0.74, 16.9 1.22" stroke="#e03131" stroke-width="2" fill="none"></path></g><g transform="translate(145.68330077655213 472.55075149156687) rotate(0 9.631996154785185 10)"><text x="9.631996154785156" y="14.016" font-family="Virgil, Segoe UI Emoji" font-size="16px" fill="#e03131" text-anchor="middle" style="white-space: pre;" direction="ltr" dominant-baseline="alphabetic">v3</text></g><g stroke-linecap="round" transform="translate(241.20004272460938 473.40000915527344) rotate(0 26 21)"><path d="M25.25 0.52 C30.6 -0.06, 37.21 1.28, 41.53 4.06 C45.85 6.83, 50.01 12.6, 51.16 17.15 C52.3 21.7, 50.93 27.44, 48.42 31.35 C45.9 35.27, 41.05 39.15, 36.06 40.64 C31.07 42.12, 23.89 41.75, 18.46 40.28 C13.03 38.8, 6.51 35.36, 3.46 31.76 C0.42 28.17, -0.69 23.05, 0.19 18.69 C1.07 14.32, 3.68 8.54, 8.72 5.58 C13.75 2.63, 26.06 1.68, 30.4 0.95 C34.73 0.22, 34.81 0.92, 34.75 1.22 M35.12 2.57 C40.21 3.45, 45.33 5.58, 47.88 9.02 C50.42 12.47, 51.47 18.44, 50.4 23.24 C49.32 28.04, 45.48 34.52, 41.45 37.84 C37.42 41.16, 31.54 43.04, 26.22 43.17 C20.9 43.29, 13.75 41.51, 9.52 38.58 C5.29 35.66, 1.96 30.47, 0.84 25.62 C-0.27 20.77, -0.03 13.68, 2.82 9.48 C5.68 5.28, 12.52 1.8, 17.99 0.42 C23.45 -0.97, 32.68 1.21, 35.6 1.18 C38.52 1.15, 36.01 -0.08, 35.52 0.25" stroke="#e03131" stroke-width="2" fill="none"></path></g><g transform="translate(258.01127318866145 484.55076675035593) rotate(0 9.303993225097656 10)"><text x="9.303993225097656" y="14.016" font-family="Virgil, Segoe UI Emoji" font-size="16px" fill="#e03131" text-anchor="middle" style="white-space: pre;" direction="ltr" dominant-baseline="alphabetic">v6</text></g><g stroke-linecap="round" transform="translate(248.40005493164062 391) rotate(0 26 21)"><path d="M32.23 1.22 C37.41 2.17, 43.27 5.72, 46.6 9.32 C49.93 12.92, 52.46 18.53, 52.2 22.81 C51.94 27.09, 49.04 31.89, 45.01 35 C40.98 38.12, 33.63 40.86, 28 41.51 C22.37 42.16, 15.72 41.34, 11.23 38.89 C6.75 36.44, 2.6 31.12, 1.1 26.79 C-0.4 22.47, 0.08 17.18, 2.23 12.94 C4.38 8.7, 8.16 3.1, 13.98 1.35 C19.81 -0.41, 32.53 1.95, 37.2 2.4 C41.86 2.85, 42.09 3.79, 41.97 4.07 M35.75 0.56 C40.58 2.48, 45.68 8.35, 48.28 12.86 C50.88 17.36, 52.51 23.11, 51.33 27.58 C50.14 32.05, 45.69 37.13, 41.17 39.68 C36.65 42.23, 29.91 43.69, 24.21 42.88 C18.52 42.08, 10.85 38.32, 6.98 34.84 C3.11 31.36, 1.25 26.33, 0.99 22 C0.73 17.68, 2.22 12.67, 5.4 8.89 C8.58 5.11, 15.02 0.48, 20.05 -0.68 C25.09 -1.84, 33.02 1.53, 35.62 1.93 C38.22 2.34, 35.69 1.36, 35.67 1.73" stroke="#1e1e1e" stroke-width="2" fill="none"></path></g><g transform="translate(265.3872878981341 402.1507575950825) rotate(0 9.12799072265625 10)"><text x="9.12799072265625" y="14.016" font-family="Virgil, Segoe UI Emoji" font-size="16px" fill="#1e1e1e" text-anchor="middle" style="white-space: pre;" direction="ltr" dominant-baseline="alphabetic">v5</text></g><g stroke-linecap="round" transform="translate(355.6000671386719 467.0000762939453) rotate(0 26 21)"><path d="M33.35 0.97 C38.71 1.67, 44.96 4.86, 47.95 8.49 C50.95 12.11, 52 18.03, 51.35 22.72 C50.71 27.41, 47.96 33.4, 44.07 36.63 C40.19 39.86, 33.62 41.77, 28.06 42.11 C22.49 42.45, 15.37 41.44, 10.69 38.67 C6.02 35.89, 1.35 29.86, -0.01 25.45 C-1.37 21.04, -0.14 16.21, 2.54 12.2 C5.21 8.19, 10.49 3.16, 16.04 1.39 C21.58 -0.37, 32.09 1.46, 35.82 1.6 C39.55 1.74, 38.8 2.07, 38.42 2.23 M14.5 3.42 C19.32 1.37, 26.72 1.05, 32.18 2.05 C37.64 3.04, 44.09 6.21, 47.28 9.39 C50.46 12.58, 51.54 16.97, 51.3 21.16 C51.06 25.35, 49.42 31.1, 45.83 34.53 C42.24 37.97, 35.33 41.33, 29.78 41.77 C24.24 42.21, 17.57 39.62, 12.56 37.16 C7.56 34.71, 1.69 31.21, -0.23 27.04 C-2.16 22.86, -1.32 16.19, 1.04 12.11 C3.4 8.03, 11.54 4.07, 13.93 2.54 C16.32 1.02, 15.15 2.7, 15.38 2.96" stroke="#e03131" stroke-width="2" fill="none"></path></g><g transform="translate(373.2272994948138 478.1508338890278) rotate(0 8.487991333007812 10)"><text x="8.487991333007812" y="14.016" font-family="Virgil, Segoe UI Emoji" font-size="16px" fill="#e03131" text-anchor="middle" style="white-space: pre;" direction="ltr" dominant-baseline="alphabetic">v7</text></g><g stroke-linecap="round" transform="translate(382.0000915527344 363.00001525878906) rotate(0 26 21)"><path d="M27.8 -0.31 C33.01 0.02, 40.32 3.47, 44.36 6.75 C48.4 10.03, 51.58 14.88, 52.05 19.37 C52.52 23.86, 50.53 30.17, 47.17 33.71 C43.81 37.24, 37.26 39.48, 31.88 40.59 C26.5 41.7, 19.71 42.22, 14.92 40.35 C10.12 38.48, 5.39 33.5, 3.11 29.39 C0.84 25.28, -0.23 20.03, 1.25 15.69 C2.73 11.35, 6.78 5.95, 11.99 3.35 C17.21 0.75, 28.33 0.3, 32.53 0.09 C36.74 -0.13, 37.1 1.57, 37.22 2.06 M36.31 2.53 C41.19 3.49, 45.7 6.53, 48.36 10.21 C51.03 13.89, 53.25 20.07, 52.29 24.62 C51.33 29.17, 47.04 34.87, 42.62 37.53 C38.2 40.19, 31.68 40.75, 25.77 40.58 C19.86 40.41, 11.6 39.41, 7.17 36.51 C2.73 33.62, -0.25 27.62, -0.84 23.21 C-1.42 18.8, 0.37 13.72, 3.66 10.07 C6.96 6.43, 13.61 2.75, 18.94 1.33 C24.27 -0.1, 32.94 1.34, 35.66 1.51 C38.38 1.69, 35.16 1.97, 35.27 2.38" stroke="#1e1e1e" stroke-width="2" fill="none"></path></g><g transform="translate(397.81132201678645 374.15077285387156) rotate(0 10.303993225097656 10)"><text x="10.303993225097656" y="14.016" font-family="Virgil, Segoe UI Emoji" font-size="16px" fill="#1e1e1e" text-anchor="middle" style="white-space: pre;" direction="ltr" dominant-baseline="alphabetic">v8</text></g><g stroke-linecap="round" transform="translate(246.80007934570312 318.20001220703125) rotate(0 26 21)"><path d="M21.06 0.57 C26.18 -0.52, 33.66 1.2, 38.39 3.21 C43.12 5.23, 47.39 8.53, 49.42 12.67 C51.45 16.81, 52.11 23.77, 50.57 28.07 C49.03 32.37, 44.89 36.18, 40.2 38.49 C35.51 40.8, 27.89 42.59, 22.41 41.91 C16.93 41.24, 11.23 37.98, 7.33 34.43 C3.44 30.89, -0.55 25.24, -0.97 20.67 C-1.4 16.1, 0.76 10.41, 4.78 7.02 C8.8 3.63, 19.75 1.38, 23.16 0.31 C26.56 -0.76, 25.08 0.24, 25.22 0.61 M35.09 0.22 C40.44 1.47, 45.95 6.17, 48.86 9.91 C51.77 13.65, 53.69 18.2, 52.54 22.66 C51.38 27.12, 46.41 33.56, 41.93 36.68 C37.45 39.8, 31.07 41.2, 25.66 41.38 C20.26 41.56, 13.54 40.39, 9.5 37.75 C5.45 35.12, 2.48 30.03, 1.38 25.56 C0.29 21.1, 0.48 14.91, 2.92 10.96 C5.37 7.02, 10.58 3.47, 16.03 1.9 C21.48 0.33, 32.44 1.57, 35.63 1.56 C38.82 1.55, 35.64 1.36, 35.18 1.85" stroke="#e03131" stroke-width="2" fill="none"></path></g><g transform="translate(263.6113098097552 329.35076980211375) rotate(0 9.303993225097656 10)"><text x="9.303993225097656" y="14.016" font-family="Virgil, Segoe UI Emoji" font-size="16px" fill="#e03131" text-anchor="middle" style="white-space: pre;" direction="ltr" dominant-baseline="alphabetic">v4</text></g><g stroke-linecap="round"><g transform="translate(103.19284955497278 399.0049883028878) rotate(0 22.28195978051994 -15.245562809056906)"><path d="M0 0 C11.77 -7.91, 23.13 -15.39, 44.56 -30.49 M0 0 C10.05 -6.33, 19.44 -13.19, 44.56 -30.49" stroke="#e03131" stroke-width="2" fill="none"></path></g><g transform="translate(103.19284955497278 399.0049883028878) rotate(0 22.28195978051994 -15.245562809056906)"><path d="M45.33 -31.33 L36.27 -18 L29.88 -27.07 L45.3 -29.96" stroke="none" stroke-width="0" fill="#e03131" fill-rule="evenodd"></path><path d="M44.56 -30.49 C42.7 -26.97, 40.54 -23.25, 36.99 -17.54 M44.56 -30.49 C42.98 -27.39, 41.03 -24.68, 36.99 -17.54 M36.99 -17.54 C34.05 -21.36, 31.8 -24.68, 29.78 -27.97 M36.99 -17.54 C34.51 -20.85, 32.02 -24.62, 29.78 -27.97 M29.78 -27.97 C33.15 -28.3, 37.32 -28.9, 44.56 -30.49 M29.78 -27.97 C32.57 -28.64, 35.8 -28.93, 44.56 -30.49 M44.56 -30.49 C44.56 -30.49, 44.56 -30.49, 44.56 -30.49 M44.56 -30.49 C44.56 -30.49, 44.56 -30.49, 44.56 -30.49" stroke="#e03131" stroke-width="2" fill="none"></path></g></g><mask></mask><g stroke-linecap="round"><g transform="translate(104.50389656406787 433.9327676865779) rotate(0 14.818728104657453 17.34938874246967)"><path d="M0 0 C10.52 13.01, 20.41 24.08, 29.64 34.7 M0 0 C8.56 10.29, 17.59 20.77, 29.64 34.7" stroke="#e03131" stroke-width="2" fill="none"></path></g><g transform="translate(104.50389656406787 433.9327676865779) rotate(0 14.818728104657453 17.34938874246967)"><path d="M28.91 34.24 L16.05 29.45 L26.29 20.79 L29.28 34.47" stroke="none" stroke-width="0" fill="#e03131" fill-rule="evenodd"></path><path d="M29.64 34.7 C24.67 32.99, 19.25 29.79, 15.95 28.55 M29.64 34.7 C25.43 33.07, 21.63 31.45, 15.95 28.55 M15.95 28.55 C17.88 25.92, 21.26 24.41, 25.55 20.27 M15.95 28.55 C19.67 25.58, 23.06 22.03, 25.55 20.27 M25.55 20.27 C26.94 25.85, 27.74 29.95, 29.64 34.7 M25.55 20.27 C26.63 24.66, 28.15 28.98, 29.64 34.7 M29.64 34.7 C29.64 34.7, 29.64 34.7, 29.64 34.7 M29.64 34.7 C29.64 34.7, 29.64 34.7, 29.64 34.7" stroke="#e03131" stroke-width="2" fill="none"></path></g></g><mask></mask><g stroke-linecap="round"><g transform="translate(196.43541388834637 349.7768264141232) rotate(0 24.822943364161233 -3.704914388717782)"><path d="M0 0 C14.91 -3.21, 31.38 -4.52, 49.65 -7.41 M0 0 C18.45 -2.39, 36.52 -6.06, 49.65 -7.41" stroke="#e03131" stroke-width="2" fill="none"></path></g><g transform="translate(196.43541388834637 349.7768264141232) rotate(0 24.822943364161233 -3.704914388717782)"><path d="M49.74 -6.51 L37.75 1.21 L34.97 -12.11 L49.64 -6.67" stroke="none" stroke-width="0" fill="#e03131" fill-rule="evenodd"></path><path d="M49.65 -7.41 C45.04 -5.34, 41.6 -2, 37.01 0.68 M49.65 -7.41 C45.02 -4.07, 40.13 -1.77, 37.01 0.68 M37.01 0.68 C37.02 -2, 36.83 -4.74, 35.33 -11.89 M37.01 0.68 C36.18 -4.55, 35.84 -9.53, 35.33 -11.89 M35.33 -11.89 C39.61 -11.04, 45.28 -9.35, 49.65 -7.41 M35.33 -11.89 C39.25 -10.66, 42.7 -9.59, 49.65 -7.41 M49.65 -7.41 C49.65 -7.41, 49.65 -7.41, 49.65 -7.41 M49.65 -7.41 C49.65 -7.41, 49.65 -7.41, 49.65 -7.41" stroke="#e03131" stroke-width="2" fill="none"></path></g></g><mask></mask><g stroke-linecap="round"><g transform="translate(191.983899063046 374.9911731829868) rotate(0 28.232031776670738 15.469599985919217)"><path d="M0 0 C20.15 12.3, 42.15 21.96, 56.46 30.94 M0 0 C18.54 8.89, 37.06 19.3, 56.46 30.94" stroke="#e03131" stroke-width="2" fill="none"></path></g><g transform="translate(191.983899063046 374.9911731829868) rotate(0 28.232031776670738 15.469599985919217)"><path d="M57.94 31.99 L40.82 29.06 L47.95 20.07 L57.42 30.96" stroke="none" stroke-width="0" fill="#e03131" fill-rule="evenodd"></path><path d="M56.46 30.94 C50.97 30.82, 46.68 29.12, 41.53 29.52 M56.46 30.94 C51.14 29.86, 45.85 29.42, 41.53 29.52 M41.53 29.52 C43.85 27.35, 45.5 25.18, 47.96 18.59 M41.53 29.52 C44.29 25.22, 46.56 21.56, 47.96 18.59 M47.96 18.59 C50.83 21.97, 53.26 27.06, 56.46 30.94 M47.96 18.59 C50.64 22.49, 53.27 26.67, 56.46 30.94 M56.46 30.94 C56.46 30.94, 56.46 30.94, 56.46 30.94 M56.46 30.94 C56.46 30.94, 56.46 30.94, 56.46 30.94" stroke="#e03131" stroke-width="2" fill="none"></path></g></g><mask></mask><g stroke-linecap="round"><g transform="translate(304.79834636915257 408.6004409252573) rotate(0 38.002610335131976 -9.200636553825234)"><path d="M0 0 C18.86 -5.38, 35.61 -8.39, 76.01 -18.4 M0 0 C28.69 -7.31, 58.06 -12.99, 76.01 -18.4" stroke="#1e1e1e" stroke-width="2" fill="none"></path></g><g transform="translate(304.79834636915257 408.6004409252573) rotate(0 38.002610335131976 -9.200636553825234)"><path d="M75.29 -18.86 L64.46 -7.33 L62.2 -21.05 L74.14 -19.67" stroke="none" stroke-width="0" fill="#1e1e1e" fill-rule="evenodd"></path><path d="M76.01 -18.4 C74.4 -16.84, 71.23 -13.72, 64.47 -8.81 M76.01 -18.4 C70.9 -15.5, 66.4 -10.71, 64.47 -8.81 M64.47 -8.81 C64.62 -12.27, 63.16 -17.05, 61.24 -21.07 M64.47 -8.81 C63.96 -11.7, 63.25 -15.1, 61.24 -21.07 M61.24 -21.07 C63.75 -20.76, 67.76 -18.99, 76.01 -18.4 M61.24 -21.07 C65.8 -19.99, 71.47 -19.1, 76.01 -18.4 M76.01 -18.4 C76.01 -18.4, 76.01 -18.4, 76.01 -18.4 M76.01 -18.4 C76.01 -18.4, 76.01 -18.4, 76.01 -18.4" stroke="#1e1e1e" stroke-width="2" fill="none"></path></g></g><mask></mask><g stroke-linecap="round"><g transform="translate(183.08270979415465 489.28533084764) rotate(0 27.940745525205216 1.7318363993783805)"><path d="M0 0 C19.35 1.72, 39.01 1.71, 55.88 3.46 M0 0 C10.41 1.73, 22.68 2.7, 55.88 3.46" stroke="#e03131" stroke-width="2" fill="none"></path></g><g transform="translate(183.08270979415465 489.28533084764) rotate(0 27.940745525205216 1.7318363993783805)"><path d="M55.87 4.94 L43.06 9.41 L40.62 -4.56 L55.48 2.45" stroke="none" stroke-width="0" fill="#e03131" fill-rule="evenodd"></path><path d="M55.88 3.46 C51.85 5.61, 48.04 6.71, 42.1 9.38 M55.88 3.46 C52.41 4.91, 50.37 6.31, 42.1 9.38 M42.1 9.38 C42.91 4.83, 41.35 2.14, 42.49 -3.29 M42.1 9.38 C42.48 5.71, 41.66 3.21, 42.49 -3.29 M42.49 -3.29 C45.81 -0.86, 48.92 -0.37, 55.88 3.46 M42.49 -3.29 C47.15 -1.08, 50.98 0.86, 55.88 3.46 M55.88 3.46 C55.88 3.46, 55.88 3.46, 55.88 3.46 M55.88 3.46 C55.88 3.46, 55.88 3.46, 55.88 3.46" stroke="#e03131" stroke-width="2" fill="none"></path></g></g><mask></mask><g stroke-linecap="round"><g transform="translate(295.9930511618795 493.6067223719316) rotate(0 29.2489454141936 -1.8491232409871259)"><path d="M0 0 C16.63 -1.88, 27.82 -3.59, 58.5 -3.7 M0 0 C12.25 -0.28, 24.35 -0.83, 58.5 -3.7" stroke="#e03131" stroke-width="2" fill="none"></path></g><g transform="translate(295.9930511618795 493.6067223719316) rotate(0 29.2489454141936 -1.8491232409871259)"><path d="M59.46 -3.68 L43.58 2.42 L44.04 -9.96 L59.63 -2.25" stroke="none" stroke-width="0" fill="#e03131" fill-rule="evenodd"></path><path d="M58.5 -3.7 C56.5 -2.43, 50.41 -1.12, 45.45 3.7 M58.5 -3.7 C55.84 -1.52, 53.16 0.17, 45.45 3.7 M45.45 3.7 C44.17 0.27, 43.98 -4.04, 44.45 -8.94 M45.45 3.7 C44.52 -0.04, 44.34 -4.01, 44.45 -8.94 M44.45 -8.94 C48.67 -7.78, 52.16 -6.52, 58.5 -3.7 M44.45 -8.94 C49.68 -7.08, 53.47 -4.83, 58.5 -3.7 M58.5 -3.7 C58.5 -3.7, 58.5 -3.7, 58.5 -3.7 M58.5 -3.7 C58.5 -3.7, 58.5 -3.7, 58.5 -3.7" stroke="#e03131" stroke-width="2" fill="none"></path></g></g><mask></mask><g stroke-linecap="round"><g transform="translate(364.49339371669157 469.7200313486063) rotate(0 -34.8898310007113 -21.606764454613597)"><path d="M0 0 C-24.37 -15.55, -46.31 -29.28, -69.78 -43.21 M0 0 C-24.36 -13.61, -48.67 -29.1, -69.78 -43.21" stroke="#e03131" stroke-width="2" fill="none"></path></g><g transform="translate(364.49339371669157 469.7200313486063) rotate(0 -34.8898310007113 -21.606764454613597)"><path d="M-71.65 -44.48 L-55.34 -42.06 L-60.76 -29.01 L-69.98 -41.74" stroke="none" stroke-width="0" fill="#e03131" fill-rule="evenodd"></path><path d="M-69.78 -43.21 C-66.55 -43.68, -61.79 -43.06, -54.94 -41.05 M-69.78 -43.21 C-64.46 -41.83, -59.15 -41.33, -54.94 -41.05 M-54.94 -41.05 C-57.51 -37.69, -58.65 -34.89, -61.89 -30.45 M-54.94 -41.05 C-56.92 -39.12, -58.05 -36.55, -61.89 -30.45 M-61.89 -30.45 C-64.79 -35.41, -67.13 -38.13, -69.78 -43.21 M-61.89 -30.45 C-64.86 -33.96, -67.82 -38.35, -69.78 -43.21 M-69.78 -43.21 C-69.78 -43.21, -69.78 -43.21, -69.78 -43.21 M-69.78 -43.21 C-69.78 -43.21, -69.78 -43.21, -69.78 -43.21" stroke="#e03131" stroke-width="2" fill="none"></path></g></g><mask></mask><g transform="translate(10.40008544921875 520.1000061035156) rotate(0 234.375 36)"><text x="0" y="19.3125" font-family="Cascadia, Segoe UI Emoji" font-size="20px" fill="#1e1e1e" text-anchor="start" style="white-space: pre;" direction="ltr" dominant-baseline="alphabetic">grado_in:  x   x   x   x   0   x   x   1</text><text x="0" y="43.3125" font-family="Cascadia, Segoe UI Emoji" font-size="20px" fill="#1e1e1e" text-anchor="start" style="white-space: pre;" direction="ltr" dominant-baseline="alphabetic">          v1  v2  v3  v4  v5  v6  v7  v8</text><text x="0" y="67.3125" font-family="Cascadia, Segoe UI Emoji" font-size="20px" fill="#1e1e1e" text-anchor="start" style="white-space: pre;" direction="ltr" dominant-baseline="alphabetic">result = v1  v2  v3  v4  v6  v7</text></g><g transform="translate(11.2000732421875 313.1999969482422) rotate(0 46.875 12)"><text x="0" y="19.3125" font-family="Cascadia, Segoe UI Emoji" font-size="20px" fill="#1e1e1e" text-anchor="start" style="white-space: pre;" direction="ltr" dominant-baseline="alphabetic">Bucle: 6</text></g><g stroke-linecap="round" transform="translate(591.8000183105469 395.79998779296875) rotate(0 26 21)"><path d="M35.58 1.24 C40.67 2.73, 46.74 8.07, 49.46 12.15 C52.17 16.22, 53.09 21.46, 51.86 25.68 C50.64 29.89, 46.59 34.6, 42.08 37.44 C37.58 40.28, 30.37 42.82, 24.83 42.71 C19.3 42.6, 12.84 40.15, 8.88 36.78 C4.92 33.42, 1.96 27.18, 1.08 22.53 C0.2 17.88, 0.78 12.53, 3.6 8.89 C6.42 5.25, 11.72 1.62, 17.98 0.7 C24.24 -0.22, 36.87 2.36, 41.17 3.39 C45.48 4.42, 44.07 6.41, 43.8 6.87 M24.22 0.66 C29.16 -0.39, 34.74 0.28, 39.45 2.57 C44.17 4.86, 50.87 9.7, 52.5 14.39 C54.14 19.07, 51.76 26.65, 49.25 30.68 C46.74 34.72, 42.24 37.02, 37.43 38.6 C32.62 40.18, 25.64 41.06, 20.4 40.15 C15.15 39.24, 9.27 36.74, 5.96 33.14 C2.66 29.55, 0.11 22.85, 0.58 18.6 C1.04 14.36, 4.83 10.99, 8.74 7.68 C12.65 4.38, 21.29 -0.13, 24.02 -1.22 C26.76 -2.32, 25.14 0.65, 25.18 1.09" stroke="#e03131" stroke-width="2" fill="none"></path></g><g transform="translate(611.5632446242083 406.95074538805125) rotate(0 6.351997375488281 10)"><text x="6.351997375488281" y="14.016" font-family="Virgil, Segoe UI Emoji" font-size="16px" fill="#e03131" text-anchor="middle" style="white-space: pre;" direction="ltr" dominant-baseline="alphabetic">v1</text></g><g stroke-linecap="round" transform="translate(677.0000915527344 336.59996032714844) rotate(0 26 21)"><path d="M19.39 0.46 C24.49 -1.14, 32.18 -0.74, 37.27 1.26 C42.36 3.27, 47.46 8.27, 49.94 12.5 C52.42 16.74, 53.43 22.55, 52.15 26.67 C50.88 30.8, 47.06 34.78, 42.28 37.26 C37.49 39.74, 29.29 41.76, 23.44 41.55 C17.59 41.35, 11.01 39.14, 7.18 36.03 C3.36 32.91, 1.02 27.3, 0.48 22.88 C-0.06 18.47, 0.71 13.14, 3.96 9.55 C7.21 5.95, 17.19 2.71, 19.98 1.3 C22.77 -0.1, 20.49 0.84, 20.7 1.13 M32.37 -0.72 C37.81 0.17, 42.53 5.21, 45.86 8.66 C49.19 12.1, 52.23 15.8, 52.36 19.96 C52.5 24.13, 50.18 29.99, 46.67 33.63 C43.15 37.27, 36.87 40.99, 31.28 41.78 C25.68 42.57, 17.87 40.44, 13.09 38.37 C8.31 36.29, 4.43 33.69, 2.6 29.32 C0.77 24.95, 0.06 16.51, 2.1 12.16 C4.15 7.81, 10.01 5.31, 14.88 3.22 C19.74 1.14, 28.67 0.23, 31.29 -0.35 C33.92 -0.93, 30.98 -0.59, 30.63 -0.25" stroke="#e03131" stroke-width="2" fill="none"></path></g><g transform="translate(693.2353179884662 347.75071792223093) rotate(0 9.879997253417969 10)"><text x="9.879997253417969" y="14.016" font-family="Virgil, Segoe UI Emoji" font-size="16px" fill="#e03131" text-anchor="middle" style="white-space: pre;" direction="ltr" dominant-baseline="alphabetic">v2</text></g><g stroke-linecap="round" transform="translate(661 461.39996337890625) rotate(0 26 21)"><path d="M21.85 1.12 C27.02 0.27, 34.79 1.4, 39.7 3.37 C44.6 5.34, 49.62 8.9, 51.28 12.94 C52.95 16.98, 51.84 23.26, 49.69 27.6 C47.54 31.94, 43 36.67, 38.4 38.96 C33.79 41.25, 27.48 42.02, 22.05 41.34 C16.62 40.66, 9.43 38.13, 5.79 34.89 C2.15 31.64, 0.22 26.38, 0.22 21.88 C0.21 17.39, 1.08 11.52, 5.75 7.94 C10.41 4.36, 23.56 1.68, 28.22 0.41 C32.88 -0.85, 34.01 -0.08, 33.71 0.36 M16.96 0.02 C22 -2.11, 30 -1.72, 35.42 -0.03 C40.83 1.66, 46.65 6.23, 49.45 10.16 C52.24 14.09, 53.04 18.89, 52.18 23.57 C51.33 28.26, 48.52 35.43, 44.31 38.28 C40.1 41.13, 32.45 40.74, 26.93 40.68 C21.41 40.63, 15.54 40.68, 11.19 37.96 C6.84 35.24, 2.2 29.04, 0.83 24.35 C-0.54 19.66, 0.57 13.79, 2.98 9.84 C5.38 5.88, 12.86 1.86, 15.27 0.62 C17.68 -0.63, 17.06 1.95, 17.43 2.37" stroke="#e03131" stroke-width="2" fill="none"></path></g><g transform="translate(677.4832275343647 472.55072097398875) rotate(0 9.631996154785156 10)"><text x="9.631996154785156" y="14.016" font-family="Virgil, Segoe UI Emoji" font-size="16px" fill="#e03131" text-anchor="middle" style="white-space: pre;" direction="ltr" dominant-baseline="alphabetic">v3</text></g><g stroke-linecap="round" transform="translate(772.9999694824219 473.3999786376953) rotate(0 26 21)"><path d="M36.61 0.81 C41.35 1.98, 45.76 6.63, 48.1 10.69 C50.44 14.75, 51.59 20.78, 50.64 25.19 C49.68 29.59, 46.71 34.3, 42.39 37.14 C38.07 39.98, 30.3 42.19, 24.72 42.23 C19.13 42.26, 12.98 40.33, 8.87 37.33 C4.77 34.34, 0.77 28.78, 0.08 24.27 C-0.61 19.76, 1.7 14.33, 4.73 10.3 C7.76 6.28, 12.64 1.18, 18.28 0.12 C23.92 -0.94, 34.67 3.11, 38.57 3.93 C42.46 4.74, 41.63 4.82, 41.64 5 M15.49 2.3 C19.97 0.22, 27.01 -1.35, 32.42 -0.08 C37.84 1.19, 44.68 6.41, 48 9.9 C51.32 13.39, 52.6 16.52, 52.34 20.86 C52.07 25.21, 50.25 32.59, 46.43 35.97 C42.61 39.34, 35.23 40.86, 29.41 41.12 C23.59 41.38, 16.46 39.99, 11.52 37.52 C6.59 35.04, 1.25 30.3, -0.21 26.26 C-1.67 22.22, 0.34 17.33, 2.75 13.28 C5.16 9.24, 12.41 3.56, 14.24 2 C16.07 0.45, 13.29 3.46, 13.73 3.96" stroke="#e03131" stroke-width="2" fill="none"></path></g><g transform="translate(789.8111999464741 484.5507362327778) rotate(0 9.303993225097656 10)"><text x="9.303993225097656" y="14.016" font-family="Virgil, Segoe UI Emoji" font-size="16px" fill="#e03131" text-anchor="middle" style="white-space: pre;" direction="ltr" dominant-baseline="alphabetic">v6</text></g><g stroke-linecap="round" transform="translate(780.1999816894531 390.9999694824219) rotate(0 26 21)"><path d="M16.32 1.13 C21.38 -0.57, 29.95 -0.7, 35.25 0.9 C40.54 2.51, 45.32 6.68, 48.08 10.76 C50.85 14.83, 52.74 20.92, 51.82 25.36 C50.89 29.8, 46.68 34.55, 42.51 37.39 C38.34 40.23, 32.26 42.59, 26.79 42.38 C21.31 42.18, 14.18 38.95, 9.65 36.15 C5.12 33.34, 0.75 29.88, -0.4 25.57 C-1.55 21.25, -1.55 14.47, 2.76 10.25 C7.06 6.03, 20.62 1.67, 25.42 0.27 C30.23 -1.14, 31.79 1.36, 31.58 1.8 M27.55 1.48 C32.83 1.16, 39.1 1, 43.37 3.79 C47.63 6.59, 52.26 13.7, 53.15 18.24 C54.03 22.77, 51.8 27.43, 48.66 31.02 C45.52 34.61, 39.85 38.31, 34.31 39.78 C28.77 41.25, 20.5 41.16, 15.44 39.82 C10.38 38.49, 6.45 35.63, 3.95 31.8 C1.45 27.96, -0.38 21.1, 0.42 16.81 C1.23 12.52, 4.23 8.71, 8.79 6.05 C13.35 3.4, 24.77 1.87, 27.79 0.86 C30.8 -0.14, 27.03 -0.13, 26.88 0.02" stroke="#e03131" stroke-width="2" fill="none"></path></g><g transform="translate(797.1872146559467 402.15072707750437) rotate(0 9.12799072265625 10)"><text x="9.12799072265625" y="14.016" font-family="Virgil, Segoe UI Emoji" font-size="16px" fill="#e03131" text-anchor="middle" style="white-space: pre;" direction="ltr" dominant-baseline="alphabetic">v5</text></g><g stroke-linecap="round" transform="translate(887.3999938964844 467.0000457763672) rotate(0 26 21)"><path d="M23.94 0.28 C29.19 -0.08, 37.14 2.12, 41.66 4.8 C46.19 7.48, 49.69 12.05, 51.09 16.37 C52.5 20.69, 52.48 26.91, 50.09 30.74 C47.71 34.56, 42.15 37.43, 36.77 39.32 C31.4 41.21, 23.38 43.24, 17.85 42.08 C12.32 40.92, 6.44 36.24, 3.59 32.37 C0.74 28.51, 0.15 23.2, 0.75 18.89 C1.34 14.57, 3.12 9.49, 7.15 6.48 C11.18 3.47, 21.63 1.76, 24.94 0.81 C28.26 -0.14, 26.97 0.41, 27.03 0.76 M39.81 3.1 C44.62 4.99, 48.72 8.6, 50.49 12.51 C52.26 16.41, 52.47 22.29, 50.45 26.55 C48.42 30.81, 42.93 35.43, 38.34 38.07 C33.74 40.7, 28.19 42.89, 22.89 42.34 C17.59 41.78, 10.49 37.95, 6.54 34.71 C2.6 31.48, -0.85 27.26, -0.77 22.95 C-0.69 18.63, 3.35 12.66, 7.02 8.84 C10.69 5.02, 15.95 1.15, 21.25 0.03 C26.56 -1.09, 36.04 1.57, 38.85 2.14 C41.66 2.72, 38.52 2.97, 38.13 3.48" stroke="#e03131" stroke-width="2" fill="none"></path></g><g transform="translate(905.0272262526264 478.1508033714497) rotate(0 8.487991333007812 10)"><text x="8.487991333007812" y="14.016" font-family="Virgil, Segoe UI Emoji" font-size="16px" fill="#e03131" text-anchor="middle" style="white-space: pre;" direction="ltr" dominant-baseline="alphabetic">v7</text></g><g stroke-linecap="round" transform="translate(913.8000183105469 362.99998474121094) rotate(0 26 21)"><path d="M28.9 0.44 C34.3 0.63, 41.87 3.93, 45.77 7.01 C49.68 10.09, 52.3 14.32, 52.34 18.91 C52.39 23.49, 49.55 30.81, 46.02 34.53 C42.5 38.24, 36.38 40.3, 31.19 41.21 C25.99 42.12, 19.86 41.86, 14.85 39.99 C9.85 38.11, 3.58 34.01, 1.16 29.96 C-1.25 25.92, -1.43 20.1, 0.35 15.73 C2.12 11.36, 6.73 6.17, 11.8 3.75 C16.87 1.33, 27.05 1.59, 30.77 1.21 C34.49 0.84, 34.27 1.11, 34.11 1.49 M30.84 -0.65 C35.82 -0.09, 41.33 3.27, 44.96 7.05 C48.59 10.83, 52.55 17.43, 52.64 22.02 C52.73 26.61, 49.42 31.09, 45.51 34.6 C41.6 38.11, 34.44 42.22, 29.17 43.09 C23.91 43.95, 18.48 42.44, 13.93 39.81 C9.38 37.19, 3.84 31.81, 1.9 27.34 C-0.04 22.88, 0.35 17.04, 2.29 13.02 C4.23 8.99, 8.84 5.15, 13.54 3.18 C18.24 1.21, 27.55 1.61, 30.5 1.22 C33.45 0.82, 31.14 0.53, 31.24 0.8" stroke="#1e1e1e" stroke-width="2" fill="none"></path></g><g transform="translate(929.6112487745991 374.15074233629343) rotate(0 10.303993225097656 10)"><text x="10.303993225097656" y="14.016" font-family="Virgil, Segoe UI Emoji" font-size="16px" fill="#1e1e1e" text-anchor="middle" style="white-space: pre;" direction="ltr" dominant-baseline="alphabetic">v8</text></g><g stroke-linecap="round" transform="translate(778.6000061035156 318.1999816894531) rotate(0 26 21)"><path d="M30.14 -0.71 C35.16 -0.26, 41.1 4.5, 44.62 7.97 C48.14 11.45, 50.85 15.77, 51.25 20.15 C51.64 24.53, 50.47 30.58, 46.98 34.26 C43.5 37.95, 36.01 41.26, 30.33 42.26 C24.65 43.27, 17.65 42.49, 12.91 40.3 C8.16 38.1, 3.87 33.27, 1.87 29.09 C-0.13 24.9, -1.02 19.48, 0.89 15.19 C2.8 10.91, 8.03 5.6, 13.33 3.38 C18.63 1.17, 28.68 2.02, 32.69 1.9 C36.7 1.77, 37.43 2.51, 37.37 2.65 M17.71 1.84 C22.78 0.21, 29.81 -0.66, 34.81 1 C39.81 2.66, 44.68 7.72, 47.71 11.8 C50.75 15.87, 53.77 21.33, 53.03 25.47 C52.29 29.61, 47.68 33.96, 43.27 36.66 C38.86 39.35, 32.21 41.45, 26.56 41.63 C20.92 41.8, 13.82 40.39, 9.37 37.7 C4.91 35.02, 0.77 30.03, -0.17 25.5 C-1.11 20.96, 0.76 14.49, 3.72 10.51 C6.68 6.53, 15.32 3.03, 17.59 1.62 C19.86 0.2, 17.46 1.93, 17.34 2" stroke="#e03131" stroke-width="2" fill="none"></path></g><g transform="translate(795.4112365675678 329.3507392845356) rotate(0 9.303993225097656 10)"><text x="9.303993225097656" y="14.016" font-family="Virgil, Segoe UI Emoji" font-size="16px" fill="#e03131" text-anchor="middle" style="white-space: pre;" direction="ltr" dominant-baseline="alphabetic">v4</text></g><g stroke-linecap="round"><g transform="translate(634.9927763127853 399.00495778530967) rotate(0 22.28195978051997 -15.245562809056906)"><path d="M0 0 C14.92 -11.04, 28.41 -19.21, 44.56 -30.49 M0 0 C10.23 -7.49, 20.52 -14.29, 44.56 -30.49" stroke="#e03131" stroke-width="2" fill="none"></path></g><g transform="translate(634.9927763127853 399.00495778530967) rotate(0 22.28195978051997 -15.245562809056906)"><path d="M43.81 -30.54 L37.24 -17.14 L30.04 -28.05 L45.21 -30.47" stroke="none" stroke-width="0" fill="#e03131" fill-rule="evenodd"></path><path d="M44.56 -30.49 C42.36 -26.94, 38.93 -21.31, 36.83 -17.64 M44.56 -30.49 C42.89 -27.92, 41.31 -24.95, 36.83 -17.64 M36.83 -17.64 C33.86 -21.13, 32.06 -25.48, 29.75 -28.16 M36.83 -17.64 C35.34 -20.02, 33.71 -22.32, 29.75 -28.16 M29.75 -28.16 C33.17 -28.7, 35.91 -29.57, 44.56 -30.49 M29.75 -28.16 C35.62 -29.21, 41.38 -30.11, 44.56 -30.49 M44.56 -30.49 C44.56 -30.49, 44.56 -30.49, 44.56 -30.49 M44.56 -30.49 C44.56 -30.49, 44.56 -30.49, 44.56 -30.49" stroke="#e03131" stroke-width="2" fill="none"></path></g></g><mask></mask><g stroke-linecap="round"><g transform="translate(636.3038233218804 433.93273716899967) rotate(0 14.818728104657453 17.349388742469728)"><path d="M0 0 C9.3 12.82, 19.38 23.38, 29.64 34.7 M0 0 C11 12.18, 21.67 25, 29.64 34.7" stroke="#e03131" stroke-width="2" fill="none"></path></g><g transform="translate(636.3038233218804 433.93273716899967) rotate(0 14.818728104657453 17.349388742469728)"><path d="M30.05 35.2 L16.38 28.38 L26.5 20.2 L30.2 34.09" stroke="none" stroke-width="0" fill="#e03131" fill-rule="evenodd"></path><path d="M29.64 34.7 C24.45 33.17, 19.9 30.11, 16.09 28.27 M29.64 34.7 C25.04 32.04, 20.23 30.04, 16.09 28.27 M16.09 28.27 C19.98 25.7, 22.04 23.48, 25.85 20.18 M16.09 28.27 C19.34 25.33, 22.43 22.64, 25.85 20.18 M25.85 20.18 C27.05 24.78, 29.14 30.86, 29.64 34.7 M25.85 20.18 C27.36 25.28, 28.6 30.71, 29.64 34.7 M29.64 34.7 C29.64 34.7, 29.64 34.7, 29.64 34.7 M29.64 34.7 C29.64 34.7, 29.64 34.7, 29.64 34.7" stroke="#e03131" stroke-width="2" fill="none"></path></g></g><mask></mask><g stroke-linecap="round"><g transform="translate(728.2353406461589 349.7767958965451) rotate(0 24.822943364161233 -3.704914388717782)"><path d="M0 0 C9.58 -2, 21.19 -3.06, 49.65 -7.41 M0 0 C10.63 -1.33, 20.64 -3.08, 49.65 -7.41" stroke="#e03131" stroke-width="2" fill="none"></path></g><g transform="translate(728.2353406461589 349.7767958965451) rotate(0 24.822943364161233 -3.704914388717782)"><path d="M49.94 -7.3 L37.8 0.91 L35.81 -12.25 L49.8 -8.28" stroke="none" stroke-width="0" fill="#e03131" fill-rule="evenodd"></path><path d="M49.65 -7.41 C46.47 -5.8, 44.87 -3.72, 37.15 0.89 M49.65 -7.41 C47.4 -5.73, 44.64 -4.19, 37.15 0.89 M37.15 0.89 C35.82 -3.23, 35.9 -8.46, 35.26 -11.64 M37.15 0.89 C36.41 -2.43, 36.35 -5.29, 35.26 -11.64 M35.26 -11.64 C40.2 -9.64, 44.24 -8.83, 49.65 -7.41 M35.26 -11.64 C39.2 -10.32, 42.98 -9.11, 49.65 -7.41 M49.65 -7.41 C49.65 -7.41, 49.65 -7.41, 49.65 -7.41 M49.65 -7.41 C49.65 -7.41, 49.65 -7.41, 49.65 -7.41" stroke="#e03131" stroke-width="2" fill="none"></path></g></g><mask></mask><g stroke-linecap="round"><g transform="translate(723.7838258208585 374.9911426654087) rotate(0 28.232031776670738 15.469599985919217)"><path d="M0 0 C23.19 12.82, 42.42 25.92, 56.46 30.94 M0 0 C13.19 6.47, 26.27 14.8, 56.46 30.94" stroke="#e03131" stroke-width="2" fill="none"></path></g><g transform="translate(723.7838258208585 374.9911426654087) rotate(0 28.232031776670738 15.469599985919217)"><path d="M57.76 30.98 L42.61 28.77 L47.89 17.11 L55.12 32.19" stroke="none" stroke-width="0" fill="#e03131" fill-rule="evenodd"></path><path d="M56.46 30.94 C51.44 30.89, 43.27 31.2, 41.49 29.98 M56.46 30.94 C53.35 30.41, 50.36 31.26, 41.49 29.98 M41.49 29.98 C44.07 26.59, 44.92 22.49, 47.57 18.86 M41.49 29.98 C43.26 27.69, 44.37 24.8, 47.57 18.86 M47.57 18.86 C50.75 22.29, 51.69 25.28, 56.46 30.94 M47.57 18.86 C49.74 22.55, 52.6 25.46, 56.46 30.94 M56.46 30.94 C56.46 30.94, 56.46 30.94, 56.46 30.94 M56.46 30.94 C56.46 30.94, 56.46 30.94, 56.46 30.94" stroke="#e03131" stroke-width="2" fill="none"></path></g></g><mask></mask><g stroke-linecap="round"><g transform="translate(836.5982731269651 408.6004104076792) rotate(0 38.002610335131976 -9.200636553825234)"><path d="M0 0 C19.06 -3.88, 40.44 -8.76, 76.01 -18.4 M0 0 C23.75 -4.26, 46.22 -11.7, 76.01 -18.4" stroke="#e03131" stroke-width="2" fill="none"></path></g><g transform="translate(836.5982731269651 408.6004104076792) rotate(0 38.002610335131976 -9.200636553825234)"><path d="M77.12 -19.62 L64.62 -10.77 L59.95 -20.09 L74.88 -19.25" stroke="none" stroke-width="0" fill="#e03131" fill-rule="evenodd"></path><path d="M76.01 -18.4 C71.42 -14.73, 68.43 -11.97, 64.3 -9.02 M76.01 -18.4 C73.08 -14.87, 69.14 -13.42, 64.3 -9.02 M64.3 -9.02 C62.43 -14.12, 60.97 -19.94, 61.29 -21.33 M64.3 -9.02 C63.49 -12.14, 62.44 -14.51, 61.29 -21.33 M61.29 -21.33 C66.71 -19.71, 72.55 -19.03, 76.01 -18.4 M61.29 -21.33 C66.41 -20.43, 71.53 -19.25, 76.01 -18.4 M76.01 -18.4 C76.01 -18.4, 76.01 -18.4, 76.01 -18.4 M76.01 -18.4 C76.01 -18.4, 76.01 -18.4, 76.01 -18.4" stroke="#e03131" stroke-width="2" fill="none"></path></g></g><mask></mask><g stroke-linecap="round"><g transform="translate(714.8826365519672 489.285300330062) rotate(0 27.940745525205216 1.7318363993783805)"><path d="M0 0 C16.57 2.35, 36.28 2.51, 55.88 3.46 M0 0 C14.68 -0.53, 29.82 1.63, 55.88 3.46" stroke="#e03131" stroke-width="2" fill="none"></path></g><g transform="translate(714.8826365519672 489.285300330062) rotate(0 27.940745525205216 1.7318363993783805)"><path d="M56.2 1.71 L40.49 9.95 L41.71 -4.78 L55.96 4.96" stroke="none" stroke-width="0" fill="#e03131" fill-rule="evenodd"></path><path d="M55.88 3.46 C50.12 6.47, 46.75 7.45, 41.83 8.7 M55.88 3.46 C52.49 4.3, 49.42 6.6, 41.83 8.7 M41.83 8.7 C41.32 3.52, 41.86 1.11, 42.83 -3.94 M41.83 8.7 C41.84 5, 43.11 0.55, 42.83 -3.94 M42.83 -3.94 C46.81 -1.46, 52.14 0.39, 55.88 3.46 M42.83 -3.94 C47.73 -1.15, 52.14 1.47, 55.88 3.46 M55.88 3.46 C55.88 3.46, 55.88 3.46, 55.88 3.46 M55.88 3.46 C55.88 3.46, 55.88 3.46, 55.88 3.46" stroke="#e03131" stroke-width="2" fill="none"></path></g></g><mask></mask><g stroke-linecap="round"><g transform="translate(827.792977919692 493.60669185435336) rotate(0 29.2489454141936 -1.849123240987069)"><path d="M0 0 C21.71 -1.19, 42.44 -1.63, 58.5 -3.7 M0 0 C24.31 -0.57, 46.88 -2.93, 58.5 -3.7" stroke="#e03131" stroke-width="2" fill="none"></path></g><g transform="translate(827.792977919692 493.60669185435336) rotate(0 29.2489454141936 -1.849123240987069)"><path d="M57.16 -2.45 L44.32 2.84 L44.53 -7.46 L59.73 -4.21" stroke="none" stroke-width="0" fill="#e03131" fill-rule="evenodd"></path><path d="M58.5 -3.7 C53.66 -0.38, 48.15 3.05, 45.44 3.68 M58.5 -3.7 C54.05 -0.57, 48.27 1.71, 45.44 3.68 M45.44 3.68 C44.57 0.63, 45.44 -3.54, 44.45 -8.96 M45.44 3.68 C45.82 0.47, 45.16 -3.64, 44.45 -8.96 M44.45 -8.96 C49.73 -7.78, 54.65 -5.18, 58.5 -3.7 M44.45 -8.96 C48.72 -7.25, 52.31 -6.45, 58.5 -3.7 M58.5 -3.7 C58.5 -3.7, 58.5 -3.7, 58.5 -3.7 M58.5 -3.7 C58.5 -3.7, 58.5 -3.7, 58.5 -3.7" stroke="#e03131" stroke-width="2" fill="none"></path></g></g><mask></mask><g stroke-linecap="round"><g transform="translate(896.2933204745041 469.7200008310283) rotate(0 -34.8898310007113 -21.606764454613597)"><path d="M0 0 C-27.42 -14.65, -51.17 -32.18, -69.78 -43.21 M0 0 C-15.04 -9.41, -30.26 -18.81, -69.78 -43.21" stroke="#e03131" stroke-width="2" fill="none"></path></g><g transform="translate(896.2933204745041 469.7200008310283) rotate(0 -34.8898310007113 -21.606764454613597)"><path d="M-70.9 -44.06 L-54.8 -39.97 L-60.32 -31.19 L-71.25 -43.59" stroke="none" stroke-width="0" fill="#e03131" fill-rule="evenodd"></path><path d="M-69.78 -43.21 C-64.74 -41.41, -56.95 -41.55, -54.88 -41.46 M-69.78 -43.21 C-66.43 -43.27, -63.55 -43.05, -54.88 -41.46 M-54.88 -41.46 C-55.88 -39.18, -57.98 -37.52, -61.55 -30.68 M-54.88 -41.46 C-57.15 -37.4, -59.74 -33.2, -61.55 -30.68 M-61.55 -30.68 C-63.28 -34.24, -66.6 -37.78, -69.78 -43.21 M-61.55 -30.68 C-64.76 -35.3, -67.14 -38.43, -69.78 -43.21 M-69.78 -43.21 C-69.78 -43.21, -69.78 -43.21, -69.78 -43.21 M-69.78 -43.21 C-69.78 -43.21, -69.78 -43.21, -69.78 -43.21" stroke="#e03131" stroke-width="2" fill="none"></path></g></g><mask></mask><g transform="translate(542.2000122070312 520.0999755859375) rotate(0 234.375 36)"><text x="0" y="19.3125" font-family="Cascadia, Segoe UI Emoji" font-size="20px" fill="#1e1e1e" text-anchor="start" style="white-space: pre;" direction="ltr" dominant-baseline="alphabetic">grado_in:  x   x   x   x   x   x   x   0</text><text x="0" y="43.3125" font-family="Cascadia, Segoe UI Emoji" font-size="20px" fill="#1e1e1e" text-anchor="start" style="white-space: pre;" direction="ltr" dominant-baseline="alphabetic">          v1  v2  v3  v4  v5  v6  v7  v8</text><text x="0" y="67.3125" font-family="Cascadia, Segoe UI Emoji" font-size="20px" fill="#1e1e1e" text-anchor="start" style="white-space: pre;" direction="ltr" dominant-baseline="alphabetic">result = v1  v2  v3  v4  v6  v7  v5</text></g><g transform="translate(543 313.19996643066406) rotate(0 46.875 12)"><text x="0" y="19.3125" font-family="Cascadia, Segoe UI Emoji" font-size="20px" fill="#1e1e1e" text-anchor="start" style="white-space: pre;" direction="ltr" dominant-baseline="alphabetic">Bucle: 7</text></g><g transform="translate(280.57501220703125 615.2499771118164) rotate(0 228.515625 12)"><text x="0" y="19.3125" font-family="Cascadia, Segoe UI Emoji" font-size="20px" fill="#e03131" text-anchor="start" style="white-space: pre;" direction="ltr" dominant-baseline="alphabetic">result = v1  v2  v3  v4  v6  v7  v5  v8</text></g></svg>