<?xml version="1.0" encoding="us-ascii" standalone="no"?><svg xmlns="http://www.w3.org/2000/svg" xmlns:xlink="http://www.w3.org/1999/xlink" contentStyleType="text/css" height="460px" preserveAspectRatio="none" style="width:868px;height:460px;background:#FFFFFF;" version="1.1" viewBox="0 0 868 460" width="868px" zoomAndPan="magnify"><defs/><g><!--class Sequence--><g id="elem_Sequence"><rect codeLine="1" fill="#F1F1F1" height="80.5938" id="Sequence" rx="2.5" ry="2.5" style="stroke:#181818;stroke-width:0.5;" width="159" x="430.5" y="10"/><ellipse cx="465.75" cy="26" fill="#A9DCDF" rx="11" ry="11" style="stroke:#181818;stroke-width:1.0;"/><path d="M467.8281,27.8125 L468.2188,28.7969 L467.8281,28.7969 C467.375,28.7969 467.2656,28.8125 467.1094,28.9219 C466.8594,29.0781 466.7031,29.3594 466.7031,29.6563 C466.7031,29.9219 466.8438,30.1719 467.0625,30.3281 C467.2031,30.4531 467.4063,30.5 467.8281,30.5 L470.1875,30.5 C470.5469,30.5 470.7656,30.4688 470.9063,30.375 C471.1563,30.2344 471.3125,29.9375 471.3125,29.6563 C471.3125,29.375 471.1719,29.125 470.9531,28.9688 C470.7813,28.8281 470.625,28.7969 470.1563,28.7969 L466.7656,20.5938 L463.0938,20.5938 C462.6406,20.5938 462.5156,20.6094 462.3594,20.7031 C462.1094,20.875 461.9531,21.1563 461.9531,21.4375 C461.9531,21.7188 462.0938,21.9688 462.3125,22.1406 C462.4844,22.25 462.6563,22.2813 463.0938,22.2813 L464.1719,22.2813 L461.5313,28.7969 C461.1094,28.7969 460.9531,28.8125 460.7969,28.9219 C460.5469,29.0781 460.3906,29.3594 460.3906,29.6563 C460.3906,30.2188 460.7656,30.5 461.5156,30.5 L463.7813,30.5 C464.1406,30.5 464.3594,30.4688 464.4844,30.375 C464.75,30.2344 464.8906,29.9375 464.8906,29.6563 C464.8906,29.375 464.7656,29.125 464.5469,28.9531 C464.375,28.8281 464.2344,28.7969 463.7813,28.7969 L463.3906,28.7969 L463.7813,27.8125 L467.8281,27.8125 Z M467.125,26.1094 L464.4531,26.1094 L465.7969,22.8438 L467.125,26.1094 Z " fill="#000000"/><text fill="#000000" font-family="sans-serif" font-size="14" font-style="italic" lengthAdjust="spacing" textLength="71" x="484.25" y="30.8467">Sequence</text><rect fill="#FFFFFF" height="15.9688" style="stroke:#181818;stroke-width:1.0;stroke-dasharray:2.0,2.0;" width="9" x="583.5" y="7"/><text fill="#000000" font-family="sans-serif" font-size="12" font-style="italic" lengthAdjust="spacing" textLength="7" x="584.5" y="19.1387">T</text><line style="stroke:#181818;stroke-width:0.5;" x1="431.5" x2="588.5" y1="42" y2="42"/><line style="stroke:#181818;stroke-width:0.5;" x1="431.5" x2="588.5" y1="50" y2="50"/><ellipse cx="441.5" cy="63.6484" fill="#84BE84" rx="3" ry="3" style="stroke:#038048;stroke-width:1.0;"/><text fill="#000000" font-family="sans-serif" font-size="14" font-style="italic" lengthAdjust="spacing" textLength="64" x="450.5" y="66.9951">size(): int</text><ellipse cx="441.5" cy="79.9453" fill="#84BE84" rx="3" ry="3" style="stroke:#038048;stroke-width:1.0;"/><text fill="#000000" font-family="sans-serif" font-size="14" font-style="italic" lengthAdjust="spacing" textLength="133" x="450.5" y="83.292">isEmpty(): boolean</text></g><!--class Queue--><g id="elem_Queue"><rect codeLine="6" fill="#F1F1F1" height="178.375" id="Queue" rx="2.5" ry="2.5" style="stroke:#181818;stroke-width:0.5;" width="186" x="313" y="151"/><ellipse cx="373.75" cy="167" fill="#ADD1B2" rx="11" ry="11" style="stroke:#181818;stroke-width:1.0;"/><path d="M376.0938,162.6719 C375.1563,162.2344 374.5625,162.0938 373.6875,162.0938 C371.0625,162.0938 369.0625,164.1719 369.0625,166.8906 L369.0625,168.0156 C369.0625,170.5938 371.1719,172.4844 374.0625,172.4844 C375.2813,172.4844 376.4375,172.1875 377.1875,171.6406 C377.7656,171.2344 378.0938,170.7813 378.0938,170.3906 C378.0938,169.9375 377.7031,169.5469 377.2344,169.5469 C377.0156,169.5469 376.8125,169.625 376.625,169.8125 C376.1719,170.2969 376.1719,170.2969 375.9844,170.3906 C375.5625,170.6563 374.875,170.7813 374.1094,170.7813 C372.0625,170.7813 370.7656,169.6875 370.7656,167.9844 L370.7656,166.8906 C370.7656,165.1094 372.0156,163.7969 373.75,163.7969 C374.3281,163.7969 374.9375,163.9531 375.4063,164.2031 C375.8906,164.4844 376.0625,164.7031 376.1563,165.1094 C376.2188,165.5156 376.25,165.6406 376.3906,165.7656 C376.5313,165.9063 376.7656,166.0156 376.9844,166.0156 C377.25,166.0156 377.5156,165.875 377.6875,165.6563 C377.7969,165.5 377.8281,165.3125 377.8281,164.8906 L377.8281,163.4688 C377.8281,163.0313 377.8125,162.9063 377.7188,162.75 C377.5625,162.4844 377.2813,162.3438 376.9844,162.3438 C376.6875,162.3438 376.4844,162.4375 376.2656,162.75 L376.0938,162.6719 Z " fill="#000000"/><text fill="#000000" font-family="sans-serif" font-size="14" lengthAdjust="spacing" textLength="45" x="394.25" y="171.8467">Queue</text><rect fill="#FFFFFF" height="15.9688" style="stroke:#181818;stroke-width:1.0;stroke-dasharray:2.0,2.0;" width="9" x="493" y="148"/><text fill="#000000" font-family="sans-serif" font-size="12" font-style="italic" lengthAdjust="spacing" textLength="7" x="494" y="160.1387">T</text><line style="stroke:#181818;stroke-width:0.5;" x1="314" x2="498" y1="183" y2="183"/><text fill="#000000" font-family="sans-serif" font-size="14" lengthAdjust="spacing" textLength="98" x="319" y="199.9951">data: List&lt;T&gt;</text><line style="stroke:#181818;stroke-width:0.5;" x1="314" x2="498" y1="207.2969" y2="207.2969"/><ellipse cx="324" cy="220.9453" fill="#84BE84" rx="3" ry="3" style="stroke:#038048;stroke-width:1.0;"/><text fill="#000000" font-family="sans-serif" font-size="14" lengthAdjust="spacing" textLength="94" x="333" y="224.292">Queue(): void</text><ellipse cx="324" cy="237.2422" fill="#84BE84" rx="3" ry="3" style="stroke:#038048;stroke-width:1.0;"/><text fill="#000000" font-family="sans-serif" font-size="14" lengthAdjust="spacing" textLength="160" x="333" y="240.5889">enqueue(data: T): void</text><ellipse cx="324" cy="253.5391" fill="#84BE84" rx="3" ry="3" style="stroke:#038048;stroke-width:1.0;"/><text fill="#000000" font-family="sans-serif" font-size="14" lengthAdjust="spacing" textLength="89" x="333" y="256.8857">dequeue(): T</text><ellipse cx="324" cy="269.8359" fill="#84BE84" rx="3" ry="3" style="stroke:#038048;stroke-width:1.0;"/><text fill="#000000" font-family="sans-serif" font-size="14" lengthAdjust="spacing" textLength="63" x="333" y="273.1826">head(): T</text><ellipse cx="324" cy="286.1328" fill="#84BE84" rx="3" ry="3" style="stroke:#038048;stroke-width:1.0;"/><text fill="#000000" font-family="sans-serif" font-size="14" lengthAdjust="spacing" textLength="67" x="333" y="289.4795">size(): int</text><ellipse cx="324" cy="302.4297" fill="#84BE84" rx="3" ry="3" style="stroke:#038048;stroke-width:1.0;"/><text fill="#000000" font-family="sans-serif" font-size="14" lengthAdjust="spacing" textLength="136" x="333" y="305.7764">isEmpty(): boolean</text><ellipse cx="324" cy="318.7266" fill="#84BE84" rx="3" ry="3" style="stroke:#038048;stroke-width:1.0;"/><text fill="#000000" font-family="sans-serif" font-size="14" lengthAdjust="spacing" textLength="123" x="333" y="322.0732">toString(): String</text></g><!--class Stack--><g id="elem_Stack"><rect codeLine="18" fill="#F1F1F1" height="178.375" id="Stack" rx="2.5" ry="2.5" style="stroke:#181818;stroke-width:0.5;" width="162" x="534" y="151"/><ellipse cx="584.75" cy="167" fill="#ADD1B2" rx="11" ry="11" style="stroke:#181818;stroke-width:1.0;"/><path d="M587.0938,162.6719 C586.1563,162.2344 585.5625,162.0938 584.6875,162.0938 C582.0625,162.0938 580.0625,164.1719 580.0625,166.8906 L580.0625,168.0156 C580.0625,170.5938 582.1719,172.4844 585.0625,172.4844 C586.2813,172.4844 587.4375,172.1875 588.1875,171.6406 C588.7656,171.2344 589.0938,170.7813 589.0938,170.3906 C589.0938,169.9375 588.7031,169.5469 588.2344,169.5469 C588.0156,169.5469 587.8125,169.625 587.625,169.8125 C587.1719,170.2969 587.1719,170.2969 586.9844,170.3906 C586.5625,170.6563 585.875,170.7813 585.1094,170.7813 C583.0625,170.7813 581.7656,169.6875 581.7656,167.9844 L581.7656,166.8906 C581.7656,165.1094 583.0156,163.7969 584.75,163.7969 C585.3281,163.7969 585.9375,163.9531 586.4063,164.2031 C586.8906,164.4844 587.0625,164.7031 587.1563,165.1094 C587.2188,165.5156 587.25,165.6406 587.3906,165.7656 C587.5313,165.9063 587.7656,166.0156 587.9844,166.0156 C588.25,166.0156 588.5156,165.875 588.6875,165.6563 C588.7969,165.5 588.8281,165.3125 588.8281,164.8906 L588.8281,163.4688 C588.8281,163.0313 588.8125,162.9063 588.7188,162.75 C588.5625,162.4844 588.2813,162.3438 587.9844,162.3438 C587.6875,162.3438 587.4844,162.4375 587.2656,162.75 L587.0938,162.6719 Z " fill="#000000"/><text fill="#000000" font-family="sans-serif" font-size="14" lengthAdjust="spacing" textLength="41" x="605.25" y="171.8467">Stack</text><rect fill="#FFFFFF" height="15.9688" style="stroke:#181818;stroke-width:1.0;stroke-dasharray:2.0,2.0;" width="9" x="690" y="148"/><text fill="#000000" font-family="sans-serif" font-size="12" font-style="italic" lengthAdjust="spacing" textLength="7" x="691" y="160.1387">T</text><line style="stroke:#181818;stroke-width:0.5;" x1="535" x2="695" y1="183" y2="183"/><text fill="#000000" font-family="sans-serif" font-size="14" lengthAdjust="spacing" textLength="98" x="540" y="199.9951">data: List&lt;T&gt;</text><line style="stroke:#181818;stroke-width:0.5;" x1="535" x2="695" y1="207.2969" y2="207.2969"/><ellipse cx="545" cy="220.9453" fill="#84BE84" rx="3" ry="3" style="stroke:#038048;stroke-width:1.0;"/><text fill="#000000" font-family="sans-serif" font-size="14" lengthAdjust="spacing" textLength="90" x="554" y="224.292">Stack(): void</text><ellipse cx="545" cy="237.2422" fill="#84BE84" rx="3" ry="3" style="stroke:#038048;stroke-width:1.0;"/><text fill="#000000" font-family="sans-serif" font-size="14" lengthAdjust="spacing" textLength="133" x="554" y="240.5889">push(data: T): void</text><ellipse cx="545" cy="253.5391" fill="#84BE84" rx="3" ry="3" style="stroke:#038048;stroke-width:1.0;"/><text fill="#000000" font-family="sans-serif" font-size="14" lengthAdjust="spacing" textLength="57" x="554" y="256.8857">pop(): T</text><ellipse cx="545" cy="269.8359" fill="#84BE84" rx="3" ry="3" style="stroke:#038048;stroke-width:1.0;"/><text fill="#000000" font-family="sans-serif" font-size="14" lengthAdjust="spacing" textLength="54" x="554" y="273.1826">top(): T</text><ellipse cx="545" cy="286.1328" fill="#84BE84" rx="3" ry="3" style="stroke:#038048;stroke-width:1.0;"/><text fill="#000000" font-family="sans-serif" font-size="14" lengthAdjust="spacing" textLength="67" x="554" y="289.4795">size(): int</text><ellipse cx="545" cy="302.4297" fill="#84BE84" rx="3" ry="3" style="stroke:#038048;stroke-width:1.0;"/><text fill="#000000" font-family="sans-serif" font-size="14" lengthAdjust="spacing" textLength="136" x="554" y="305.7764">isEmpty(): boolean</text><ellipse cx="545" cy="318.7266" fill="#84BE84" rx="3" ry="3" style="stroke:#038048;stroke-width:1.0;"/><text fill="#000000" font-family="sans-serif" font-size="14" lengthAdjust="spacing" textLength="123" x="554" y="322.0732">toString(): String</text></g><!--class CircularQueue--><g id="elem_CircularQueue"><rect codeLine="30" fill="#F1F1F1" height="64.2969" id="CircularQueue" rx="2.5" ry="2.5" style="stroke:#181818;stroke-width:0.5;" width="142" x="227" y="389"/><ellipse cx="242" cy="405" fill="#ADD1B2" rx="11" ry="11" style="stroke:#181818;stroke-width:1.0;"/><path d="M244.3438,400.6719 C243.4063,400.2344 242.8125,400.0938 241.9375,400.0938 C239.3125,400.0938 237.3125,402.1719 237.3125,404.8906 L237.3125,406.0156 C237.3125,408.5938 239.4219,410.4844 242.3125,410.4844 C243.5313,410.4844 244.6875,410.1875 245.4375,409.6406 C246.0156,409.2344 246.3438,408.7813 246.3438,408.3906 C246.3438,407.9375 245.9531,407.5469 245.4844,407.5469 C245.2656,407.5469 245.0625,407.625 244.875,407.8125 C244.4219,408.2969 244.4219,408.2969 244.2344,408.3906 C243.8125,408.6563 243.125,408.7813 242.3594,408.7813 C240.3125,408.7813 239.0156,407.6875 239.0156,405.9844 L239.0156,404.8906 C239.0156,403.1094 240.2656,401.7969 242,401.7969 C242.5781,401.7969 243.1875,401.9531 243.6563,402.2031 C244.1406,402.4844 244.3125,402.7031 244.4063,403.1094 C244.4688,403.5156 244.5,403.6406 244.6406,403.7656 C244.7813,403.9063 245.0156,404.0156 245.2344,404.0156 C245.5,404.0156 245.7656,403.875 245.9375,403.6563 C246.0469,403.5 246.0781,403.3125 246.0781,402.8906 L246.0781,401.4688 C246.0781,401.0313 246.0625,400.9063 245.9688,400.75 C245.8125,400.4844 245.5313,400.3438 245.2344,400.3438 C244.9375,400.3438 244.7344,400.4375 244.5156,400.75 L244.3438,400.6719 Z " fill="#000000"/><text fill="#000000" font-family="sans-serif" font-size="14" lengthAdjust="spacing" textLength="99" x="256" y="409.8467">CircularQueue</text><rect fill="#FFFFFF" height="15.9688" style="stroke:#181818;stroke-width:1.0;stroke-dasharray:2.0,2.0;" width="9" x="363" y="386"/><text fill="#000000" font-family="sans-serif" font-size="12" font-style="italic" lengthAdjust="spacing" textLength="7" x="364" y="398.1387">T</text><line style="stroke:#181818;stroke-width:0.5;" x1="228" x2="368" y1="421" y2="421"/><line style="stroke:#181818;stroke-width:0.5;" x1="228" x2="368" y1="429" y2="429"/><ellipse cx="238" cy="442.6484" fill="#84BE84" rx="3" ry="3" style="stroke:#038048;stroke-width:1.0;"/><text fill="#000000" font-family="sans-serif" font-size="14" lengthAdjust="spacing" textLength="61" x="247" y="445.9951">shift(): T</text></g><!--class DoubleEndedQueue--><g id="elem_DoubleEndedQueue"><rect codeLine="34" fill="#F1F1F1" height="64.2969" id="DoubleEndedQueue" rx="2.5" ry="2.5" style="stroke:#181818;stroke-width:0.5;" width="222" x="404" y="389"/><ellipse cx="436.1" cy="405" fill="#ADD1B2" rx="11" ry="11" style="stroke:#181818;stroke-width:1.0;"/><path d="M438.4438,400.6719 C437.5063,400.2344 436.9125,400.0938 436.0375,400.0938 C433.4125,400.0938 431.4125,402.1719 431.4125,404.8906 L431.4125,406.0156 C431.4125,408.5938 433.5219,410.4844 436.4125,410.4844 C437.6313,410.4844 438.7875,410.1875 439.5375,409.6406 C440.1156,409.2344 440.4438,408.7813 440.4438,408.3906 C440.4438,407.9375 440.0531,407.5469 439.5844,407.5469 C439.3656,407.5469 439.1625,407.625 438.975,407.8125 C438.5219,408.2969 438.5219,408.2969 438.3344,408.3906 C437.9125,408.6563 437.225,408.7813 436.4594,408.7813 C434.4125,408.7813 433.1156,407.6875 433.1156,405.9844 L433.1156,404.8906 C433.1156,403.1094 434.3656,401.7969 436.1,401.7969 C436.6781,401.7969 437.2875,401.9531 437.7563,402.2031 C438.2406,402.4844 438.4125,402.7031 438.5063,403.1094 C438.5688,403.5156 438.6,403.6406 438.7406,403.7656 C438.8813,403.9063 439.1156,404.0156 439.3344,404.0156 C439.6,404.0156 439.8656,403.875 440.0375,403.6563 C440.1469,403.5 440.1781,403.3125 440.1781,402.8906 L440.1781,401.4688 C440.1781,401.0313 440.1625,400.9063 440.0688,400.75 C439.9125,400.4844 439.6313,400.3438 439.3344,400.3438 C439.0375,400.3438 438.8344,400.4375 438.6156,400.75 L438.4438,400.6719 Z " fill="#000000"/><text fill="#000000" font-family="sans-serif" font-size="14" lengthAdjust="spacing" textLength="141" x="453.9" y="409.8467">DoubleEndedQueue</text><rect fill="#FFFFFF" height="15.9688" style="stroke:#181818;stroke-width:1.0;stroke-dasharray:2.0,2.0;" width="9" x="620" y="386"/><text fill="#000000" font-family="sans-serif" font-size="12" font-style="italic" lengthAdjust="spacing" textLength="7" x="621" y="398.1387">T</text><line style="stroke:#181818;stroke-width:0.5;" x1="405" x2="625" y1="421" y2="421"/><line style="stroke:#181818;stroke-width:0.5;" x1="405" x2="625" y1="429" y2="429"/><ellipse cx="415" cy="442.6484" fill="#84BE84" rx="3" ry="3" style="stroke:#038048;stroke-width:1.0;"/><text fill="#000000" font-family="sans-serif" font-size="14" lengthAdjust="spacing" textLength="196" x="424" y="445.9951">enqueueFirst(data :T) : void</text></g><g id="elem_GMN7"><path d="M661,401 L661,417 L626.469,421 L661,425 L661,441.2656 A0,0 0 0 0 661,441.2656 L861,441.2656 A0,0 0 0 0 861,441.2656 L861,411 L851,401 L661,401 A0,0 0 0 0 661,401 " fill="#FEFFDD" style="stroke:#181818;stroke-width:0.5;"/><path d="M851,401 L851,411 L861,411 L851,401 " fill="#FEFFDD" style="stroke:#181818;stroke-width:0.5;"/><text fill="#000000" font-family="sans-serif" font-size="13" lengthAdjust="spacing" textLength="165" x="667" y="418.0669">Especializaci&#243;n de la cola,</text><text fill="#000000" font-family="sans-serif" font-size="13" lengthAdjust="spacing" textLength="179" x="667" y="433.1997">permitiendo encolar al inicio</text></g><g id="elem_GMN10"><path d="M6,393.5 L6,448.8984 A0,0 0 0 0 6,448.8984 L192,448.8984 A0,0 0 0 0 192,448.8984 L192,425 L226.97,421 L192,417 L192,403.5 L182,393.5 L6,393.5 A0,0 0 0 0 6,393.5 " fill="#FEFFDD" style="stroke:#181818;stroke-width:0.5;"/><path d="M182,393.5 L182,403.5 L192,403.5 L182,393.5 " fill="#FEFFDD" style="stroke:#181818;stroke-width:0.5;"/><text fill="#000000" font-family="sans-serif" font-size="13" lengthAdjust="spacing" textLength="165" x="12" y="410.5669">Especializaci&#243;n de la cola,</text><text fill="#000000" font-family="sans-serif" font-size="13" lengthAdjust="spacing" textLength="146" x="12" y="425.6997">haci&#233;ndola circular con</text><text fill="#000000" font-family="sans-serif" font-size="13" lengthAdjust="spacing" textLength="149" x="12" y="440.8325">un nuevo m&#233;todo rotar</text></g><!--reverse link Sequence to Queue--><g id="link_Sequence_Queue"><path codeLine="49" d="M479.2135,107.005 C469.5545,124.42 466.534,129.863 454.983,150.689 " fill="none" id="Sequence-backto-Queue" style="stroke:#181818;stroke-width:1.0;"/><polygon fill="none" points="487.944,91.264,473.9665,104.0948,484.4605,109.9151,487.944,91.264" style="stroke:#181818;stroke-width:1.0;"/></g><!--reverse link Sequence to Stack--><g id="link_Sequence_Stack"><path codeLine="50" d="M541.0626,106.9693 C550.8146,124.3843 553.883,129.863 565.546,150.689 " fill="none" id="Sequence-backto-Stack" style="stroke:#181818;stroke-width:1.0;"/><polygon fill="none" points="532.268,91.264,535.8275,109.9008,546.2977,104.0377,532.268,91.264" style="stroke:#181818;stroke-width:1.0;"/></g><!--reverse link Queue to CircularQueue--><g id="link_Queue_CircularQueue"><path codeLine="52" d="M343.4922,344.6011 C330.6072,365.9571 326.961,372.0003 316.891,388.6902 " fill="none" id="Queue-backto-CircularQueue" style="stroke:#181818;stroke-width:1.0;"/><polygon fill="none" points="352.791,329.189,338.3549,341.5015,348.6296,347.7007,352.791,329.189" style="stroke:#181818;stroke-width:1.0;"/></g><!--reverse link Queue to DoubleEndedQueue--><g id="link_Queue_DoubleEndedQueue"><path codeLine="53" d="M469.0635,344.5631 C482.0675,365.9191 485.771,372.0003 495.934,388.6902 " fill="none" id="Queue-backto-DoubleEndedQueue" style="stroke:#181818;stroke-width:1.0;"/><polygon fill="none" points="459.702,329.189,463.9388,347.6836,474.1882,341.4426,459.702,329.189" style="stroke:#181818;stroke-width:1.0;"/></g><!--SRC=[ZPD1Si8m34NtEOMMPT9UW66wQUcgcmwvWB45qTJOmPQPAPG3iUuHk5Xj9vGaiEWElIzBtpz6B3qx8Hca5jx30hS1ZSHPzGo70k0WElq8fQSzFaocG8P72ldvfk6l92wjrIXCSIoATk97mF0tJWaMKtWdpv4K4PHPJWTtbbG2QBOPjQrLfq2I56ultLK6DGfrhNh-SdthAcEs2tParectl-3gTi52VbxStjg5CZVq_4BP15-FtBRSDjbRBhXV38Ey6n_SDNhr-K9E1YtS8DqqkgOLjv50xrglDYmrper2DJxHvVr6pdE-1aoh2NIfTqECPGH7wvh1hcw6vJbptw0aeMal99r_32W4BK1QBHvpGuDkGqneb8NumY9t87JCW2JP8c98MxfT6bTvrU2Q_zjJ9twAMnBjZaSvVtk0OC04t5dOd4zienLdMRZU-iiV06RVJq_juuqP36b-0r0KhPhHm6Wyq9F6SVq2]--></g></svg>