<?xml version="1.0" encoding="us-ascii" standalone="no"?><svg xmlns="http://www.w3.org/2000/svg" xmlns:xlink="http://www.w3.org/1999/xlink" contentStyleType="text/css" height="655px" preserveAspectRatio="none" style="width:869px;height:655px;background:#FFFFFF;" version="1.1" viewBox="0 0 869 655" width="869px" zoomAndPan="magnify"><defs/><g><!--class Sequence--><g id="elem_Sequence"><rect codeLine="1" fill="#F1F1F1" height="80.5938" id="Sequence" rx="2.5" ry="2.5" style="stroke:#181818;stroke-width:0.5;" width="159" x="80.5" y="107.5"/><ellipse cx="115.75" cy="123.5" fill="#A9DCDF" rx="11" ry="11" style="stroke:#181818;stroke-width:1.0;"/><path d="M117.8281,125.3125 L118.2188,126.2969 L117.8281,126.2969 C117.375,126.2969 117.2656,126.3125 117.1094,126.4219 C116.8594,126.5781 116.7031,126.8594 116.7031,127.1563 C116.7031,127.4219 116.8438,127.6719 117.0625,127.8281 C117.2031,127.9531 117.4063,128 117.8281,128 L120.1875,128 C120.5469,128 120.7656,127.9688 120.9063,127.875 C121.1563,127.7344 121.3125,127.4375 121.3125,127.1563 C121.3125,126.875 121.1719,126.625 120.9531,126.4688 C120.7813,126.3281 120.625,126.2969 120.1563,126.2969 L116.7656,118.0938 L113.0938,118.0938 C112.6406,118.0938 112.5156,118.1094 112.3594,118.2031 C112.1094,118.375 111.9531,118.6563 111.9531,118.9375 C111.9531,119.2188 112.0938,119.4688 112.3125,119.6406 C112.4844,119.75 112.6563,119.7813 113.0938,119.7813 L114.1719,119.7813 L111.5313,126.2969 C111.1094,126.2969 110.9531,126.3125 110.7969,126.4219 C110.5469,126.5781 110.3906,126.8594 110.3906,127.1563 C110.3906,127.7188 110.7656,128 111.5156,128 L113.7813,128 C114.1406,128 114.3594,127.9688 114.4844,127.875 C114.75,127.7344 114.8906,127.4375 114.8906,127.1563 C114.8906,126.875 114.7656,126.625 114.5469,126.4531 C114.375,126.3281 114.2344,126.2969 113.7813,126.2969 L113.3906,126.2969 L113.7813,125.3125 L117.8281,125.3125 Z M117.125,123.6094 L114.4531,123.6094 L115.7969,120.3438 L117.125,123.6094 Z " fill="#000000"/><text fill="#000000" font-family="sans-serif" font-size="14" font-style="italic" lengthAdjust="spacing" textLength="71" x="134.25" y="128.3467">Sequence</text><rect fill="#FFFFFF" height="15.9688" style="stroke:#181818;stroke-width:1.0;stroke-dasharray:2.0,2.0;" width="9" x="233.5" y="104.5"/><text fill="#000000" font-family="sans-serif" font-size="12" font-style="italic" lengthAdjust="spacing" textLength="7" x="234.5" y="116.6387">T</text><line style="stroke:#181818;stroke-width:0.5;" x1="81.5" x2="238.5" y1="139.5" y2="139.5"/><line style="stroke:#181818;stroke-width:0.5;" x1="81.5" x2="238.5" y1="147.5" y2="147.5"/><ellipse cx="91.5" cy="161.1484" fill="#84BE84" rx="3" ry="3" style="stroke:#038048;stroke-width:1.0;"/><text fill="#000000" font-family="sans-serif" font-size="14" font-style="italic" lengthAdjust="spacing" textLength="64" x="100.5" y="164.4951">size(): int</text><ellipse cx="91.5" cy="177.4453" fill="#84BE84" rx="3" ry="3" style="stroke:#038048;stroke-width:1.0;"/><text fill="#000000" font-family="sans-serif" font-size="14" font-style="italic" lengthAdjust="spacing" textLength="133" x="100.5" y="180.792">isEmpty(): boolean</text></g><!--class Queue--><g id="elem_Queue"><rect codeLine="6" fill="#F1F1F1" height="178.375" id="Queue" rx="2.5" ry="2.5" style="stroke:#181818;stroke-width:0.5;" width="186" x="93" y="346"/><ellipse cx="153.75" cy="362" fill="#ADD1B2" rx="11" ry="11" style="stroke:#181818;stroke-width:1.0;"/><path d="M156.0938,357.6719 C155.1563,357.2344 154.5625,357.0938 153.6875,357.0938 C151.0625,357.0938 149.0625,359.1719 149.0625,361.8906 L149.0625,363.0156 C149.0625,365.5938 151.1719,367.4844 154.0625,367.4844 C155.2813,367.4844 156.4375,367.1875 157.1875,366.6406 C157.7656,366.2344 158.0938,365.7813 158.0938,365.3906 C158.0938,364.9375 157.7031,364.5469 157.2344,364.5469 C157.0156,364.5469 156.8125,364.625 156.625,364.8125 C156.1719,365.2969 156.1719,365.2969 155.9844,365.3906 C155.5625,365.6563 154.875,365.7813 154.1094,365.7813 C152.0625,365.7813 150.7656,364.6875 150.7656,362.9844 L150.7656,361.8906 C150.7656,360.1094 152.0156,358.7969 153.75,358.7969 C154.3281,358.7969 154.9375,358.9531 155.4063,359.2031 C155.8906,359.4844 156.0625,359.7031 156.1563,360.1094 C156.2188,360.5156 156.25,360.6406 156.3906,360.7656 C156.5313,360.9063 156.7656,361.0156 156.9844,361.0156 C157.25,361.0156 157.5156,360.875 157.6875,360.6563 C157.7969,360.5 157.8281,360.3125 157.8281,359.8906 L157.8281,358.4688 C157.8281,358.0313 157.8125,357.9063 157.7188,357.75 C157.5625,357.4844 157.2813,357.3438 156.9844,357.3438 C156.6875,357.3438 156.4844,357.4375 156.2656,357.75 L156.0938,357.6719 Z " fill="#000000"/><text fill="#000000" font-family="sans-serif" font-size="14" lengthAdjust="spacing" textLength="45" x="174.25" y="366.8467">Queue</text><rect fill="#FFFFFF" height="15.9688" style="stroke:#181818;stroke-width:1.0;stroke-dasharray:2.0,2.0;" width="9" x="273" y="343"/><text fill="#000000" font-family="sans-serif" font-size="12" font-style="italic" lengthAdjust="spacing" textLength="7" x="274" y="355.1387">T</text><line style="stroke:#181818;stroke-width:0.5;" x1="94" x2="278" y1="378" y2="378"/><text fill="#000000" font-family="sans-serif" font-size="14" lengthAdjust="spacing" textLength="98" x="99" y="394.9951">data: List&lt;T&gt;</text><line style="stroke:#181818;stroke-width:0.5;" x1="94" x2="278" y1="402.2969" y2="402.2969"/><ellipse cx="104" cy="415.9453" fill="#84BE84" rx="3" ry="3" style="stroke:#038048;stroke-width:1.0;"/><text fill="#000000" font-family="sans-serif" font-size="14" lengthAdjust="spacing" textLength="94" x="113" y="419.292">Queue(): void</text><ellipse cx="104" cy="432.2422" fill="#84BE84" rx="3" ry="3" style="stroke:#038048;stroke-width:1.0;"/><text fill="#000000" font-family="sans-serif" font-size="14" lengthAdjust="spacing" textLength="160" x="113" y="435.5889">enqueue(data: T): void</text><ellipse cx="104" cy="448.5391" fill="#84BE84" rx="3" ry="3" style="stroke:#038048;stroke-width:1.0;"/><text fill="#000000" font-family="sans-serif" font-size="14" lengthAdjust="spacing" textLength="89" x="113" y="451.8857">dequeue(): T</text><ellipse cx="104" cy="464.8359" fill="#84BE84" rx="3" ry="3" style="stroke:#038048;stroke-width:1.0;"/><text fill="#000000" font-family="sans-serif" font-size="14" lengthAdjust="spacing" textLength="63" x="113" y="468.1826">head(): T</text><ellipse cx="104" cy="481.1328" fill="#84BE84" rx="3" ry="3" style="stroke:#038048;stroke-width:1.0;"/><text fill="#000000" font-family="sans-serif" font-size="14" lengthAdjust="spacing" textLength="67" x="113" y="484.4795">size(): int</text><ellipse cx="104" cy="497.4297" fill="#84BE84" rx="3" ry="3" style="stroke:#038048;stroke-width:1.0;"/><text fill="#000000" font-family="sans-serif" font-size="14" lengthAdjust="spacing" textLength="136" x="113" y="500.7764">isEmpty(): boolean</text><ellipse cx="104" cy="513.7266" fill="#84BE84" rx="3" ry="3" style="stroke:#038048;stroke-width:1.0;"/><text fill="#000000" font-family="sans-serif" font-size="14" lengthAdjust="spacing" textLength="123" x="113" y="517.0732">toString(): String</text></g><!--class Stack--><g id="elem_Stack"><rect codeLine="18" fill="#F1F1F1" height="178.375" id="Stack" rx="2.5" ry="2.5" style="stroke:#181818;stroke-width:0.5;" width="162" x="365" y="346"/><ellipse cx="415.75" cy="362" fill="#ADD1B2" rx="11" ry="11" style="stroke:#181818;stroke-width:1.0;"/><path d="M418.0938,357.6719 C417.1563,357.2344 416.5625,357.0938 415.6875,357.0938 C413.0625,357.0938 411.0625,359.1719 411.0625,361.8906 L411.0625,363.0156 C411.0625,365.5938 413.1719,367.4844 416.0625,367.4844 C417.2813,367.4844 418.4375,367.1875 419.1875,366.6406 C419.7656,366.2344 420.0938,365.7813 420.0938,365.3906 C420.0938,364.9375 419.7031,364.5469 419.2344,364.5469 C419.0156,364.5469 418.8125,364.625 418.625,364.8125 C418.1719,365.2969 418.1719,365.2969 417.9844,365.3906 C417.5625,365.6563 416.875,365.7813 416.1094,365.7813 C414.0625,365.7813 412.7656,364.6875 412.7656,362.9844 L412.7656,361.8906 C412.7656,360.1094 414.0156,358.7969 415.75,358.7969 C416.3281,358.7969 416.9375,358.9531 417.4063,359.2031 C417.8906,359.4844 418.0625,359.7031 418.1563,360.1094 C418.2188,360.5156 418.25,360.6406 418.3906,360.7656 C418.5313,360.9063 418.7656,361.0156 418.9844,361.0156 C419.25,361.0156 419.5156,360.875 419.6875,360.6563 C419.7969,360.5 419.8281,360.3125 419.8281,359.8906 L419.8281,358.4688 C419.8281,358.0313 419.8125,357.9063 419.7188,357.75 C419.5625,357.4844 419.2813,357.3438 418.9844,357.3438 C418.6875,357.3438 418.4844,357.4375 418.2656,357.75 L418.0938,357.6719 Z " fill="#000000"/><text fill="#000000" font-family="sans-serif" font-size="14" lengthAdjust="spacing" textLength="41" x="436.25" y="366.8467">Stack</text><rect fill="#FFFFFF" height="15.9688" style="stroke:#181818;stroke-width:1.0;stroke-dasharray:2.0,2.0;" width="9" x="521" y="343"/><text fill="#000000" font-family="sans-serif" font-size="12" font-style="italic" lengthAdjust="spacing" textLength="7" x="522" y="355.1387">T</text><line style="stroke:#181818;stroke-width:0.5;" x1="366" x2="526" y1="378" y2="378"/><text fill="#000000" font-family="sans-serif" font-size="14" lengthAdjust="spacing" textLength="98" x="371" y="394.9951">data: List&lt;T&gt;</text><line style="stroke:#181818;stroke-width:0.5;" x1="366" x2="526" y1="402.2969" y2="402.2969"/><ellipse cx="376" cy="415.9453" fill="#84BE84" rx="3" ry="3" style="stroke:#038048;stroke-width:1.0;"/><text fill="#000000" font-family="sans-serif" font-size="14" lengthAdjust="spacing" textLength="90" x="385" y="419.292">Stack(): void</text><ellipse cx="376" cy="432.2422" fill="#84BE84" rx="3" ry="3" style="stroke:#038048;stroke-width:1.0;"/><text fill="#000000" font-family="sans-serif" font-size="14" lengthAdjust="spacing" textLength="133" x="385" y="435.5889">push(data: T): void</text><ellipse cx="376" cy="448.5391" fill="#84BE84" rx="3" ry="3" style="stroke:#038048;stroke-width:1.0;"/><text fill="#000000" font-family="sans-serif" font-size="14" lengthAdjust="spacing" textLength="57" x="385" y="451.8857">pop(): T</text><ellipse cx="376" cy="464.8359" fill="#84BE84" rx="3" ry="3" style="stroke:#038048;stroke-width:1.0;"/><text fill="#000000" font-family="sans-serif" font-size="14" lengthAdjust="spacing" textLength="54" x="385" y="468.1826">top(): T</text><ellipse cx="376" cy="481.1328" fill="#84BE84" rx="3" ry="3" style="stroke:#038048;stroke-width:1.0;"/><text fill="#000000" font-family="sans-serif" font-size="14" lengthAdjust="spacing" textLength="67" x="385" y="484.4795">size(): int</text><ellipse cx="376" cy="497.4297" fill="#84BE84" rx="3" ry="3" style="stroke:#038048;stroke-width:1.0;"/><text fill="#000000" font-family="sans-serif" font-size="14" lengthAdjust="spacing" textLength="136" x="385" y="500.7764">isEmpty(): boolean</text><ellipse cx="376" cy="513.7266" fill="#84BE84" rx="3" ry="3" style="stroke:#038048;stroke-width:1.0;"/><text fill="#000000" font-family="sans-serif" font-size="14" lengthAdjust="spacing" textLength="123" x="385" y="517.0732">toString(): String</text></g><!--class CircularQueue--><g id="elem_CircularQueue"><rect codeLine="30" fill="#F1F1F1" height="64.2969" id="CircularQueue" rx="2.5" ry="2.5" style="stroke:#181818;stroke-width:0.5;" width="142" x="7" y="584"/><ellipse cx="22" cy="600" fill="#ADD1B2" rx="11" ry="11" style="stroke:#181818;stroke-width:1.0;"/><path d="M24.3438,595.6719 C23.4063,595.2344 22.8125,595.0938 21.9375,595.0938 C19.3125,595.0938 17.3125,597.1719 17.3125,599.8906 L17.3125,601.0156 C17.3125,603.5938 19.4219,605.4844 22.3125,605.4844 C23.5313,605.4844 24.6875,605.1875 25.4375,604.6406 C26.0156,604.2344 26.3438,603.7813 26.3438,603.3906 C26.3438,602.9375 25.9531,602.5469 25.4844,602.5469 C25.2656,602.5469 25.0625,602.625 24.875,602.8125 C24.4219,603.2969 24.4219,603.2969 24.2344,603.3906 C23.8125,603.6563 23.125,603.7813 22.3594,603.7813 C20.3125,603.7813 19.0156,602.6875 19.0156,600.9844 L19.0156,599.8906 C19.0156,598.1094 20.2656,596.7969 22,596.7969 C22.5781,596.7969 23.1875,596.9531 23.6563,597.2031 C24.1406,597.4844 24.3125,597.7031 24.4063,598.1094 C24.4688,598.5156 24.5,598.6406 24.6406,598.7656 C24.7813,598.9063 25.0156,599.0156 25.2344,599.0156 C25.5,599.0156 25.7656,598.875 25.9375,598.6563 C26.0469,598.5 26.0781,598.3125 26.0781,597.8906 L26.0781,596.4688 C26.0781,596.0313 26.0625,595.9063 25.9688,595.75 C25.8125,595.4844 25.5313,595.3438 25.2344,595.3438 C24.9375,595.3438 24.7344,595.4375 24.5156,595.75 L24.3438,595.6719 Z " fill="#000000"/><text fill="#000000" font-family="sans-serif" font-size="14" lengthAdjust="spacing" textLength="99" x="36" y="604.8467">CircularQueue</text><rect fill="#FFFFFF" height="15.9688" style="stroke:#181818;stroke-width:1.0;stroke-dasharray:2.0,2.0;" width="9" x="143" y="581"/><text fill="#000000" font-family="sans-serif" font-size="12" font-style="italic" lengthAdjust="spacing" textLength="7" x="144" y="593.1387">T</text><line style="stroke:#181818;stroke-width:0.5;" x1="8" x2="148" y1="616" y2="616"/><line style="stroke:#181818;stroke-width:0.5;" x1="8" x2="148" y1="624" y2="624"/><ellipse cx="18" cy="637.6484" fill="#84BE84" rx="3" ry="3" style="stroke:#038048;stroke-width:1.0;"/><text fill="#000000" font-family="sans-serif" font-size="14" lengthAdjust="spacing" textLength="61" x="27" y="640.9951">shift(): T</text></g><!--class DoubleEndedQueue--><g id="elem_DoubleEndedQueue"><rect codeLine="34" fill="#F1F1F1" height="64.2969" id="DoubleEndedQueue" rx="2.5" ry="2.5" style="stroke:#181818;stroke-width:0.5;" width="222" x="184" y="584"/><ellipse cx="216.1" cy="600" fill="#ADD1B2" rx="11" ry="11" style="stroke:#181818;stroke-width:1.0;"/><path d="M218.4438,595.6719 C217.5063,595.2344 216.9125,595.0938 216.0375,595.0938 C213.4125,595.0938 211.4125,597.1719 211.4125,599.8906 L211.4125,601.0156 C211.4125,603.5938 213.5219,605.4844 216.4125,605.4844 C217.6313,605.4844 218.7875,605.1875 219.5375,604.6406 C220.1156,604.2344 220.4438,603.7813 220.4438,603.3906 C220.4438,602.9375 220.0531,602.5469 219.5844,602.5469 C219.3656,602.5469 219.1625,602.625 218.975,602.8125 C218.5219,603.2969 218.5219,603.2969 218.3344,603.3906 C217.9125,603.6563 217.225,603.7813 216.4594,603.7813 C214.4125,603.7813 213.1156,602.6875 213.1156,600.9844 L213.1156,599.8906 C213.1156,598.1094 214.3656,596.7969 216.1,596.7969 C216.6781,596.7969 217.2875,596.9531 217.7563,597.2031 C218.2406,597.4844 218.4125,597.7031 218.5063,598.1094 C218.5688,598.5156 218.6,598.6406 218.7406,598.7656 C218.8813,598.9063 219.1156,599.0156 219.3344,599.0156 C219.6,599.0156 219.8656,598.875 220.0375,598.6563 C220.1469,598.5 220.1781,598.3125 220.1781,597.8906 L220.1781,596.4688 C220.1781,596.0313 220.1625,595.9063 220.0688,595.75 C219.9125,595.4844 219.6313,595.3438 219.3344,595.3438 C219.0375,595.3438 218.8344,595.4375 218.6156,595.75 L218.4438,595.6719 Z " fill="#000000"/><text fill="#000000" font-family="sans-serif" font-size="14" lengthAdjust="spacing" textLength="141" x="233.9" y="604.8467">DoubleEndedQueue</text><rect fill="#FFFFFF" height="15.9688" style="stroke:#181818;stroke-width:1.0;stroke-dasharray:2.0,2.0;" width="9" x="400" y="581"/><text fill="#000000" font-family="sans-serif" font-size="12" font-style="italic" lengthAdjust="spacing" textLength="7" x="401" y="593.1387">T</text><line style="stroke:#181818;stroke-width:0.5;" x1="185" x2="405" y1="616" y2="616"/><line style="stroke:#181818;stroke-width:0.5;" x1="185" x2="405" y1="624" y2="624"/><ellipse cx="195" cy="637.6484" fill="#84BE84" rx="3" ry="3" style="stroke:#038048;stroke-width:1.0;"/><text fill="#000000" font-family="sans-serif" font-size="14" lengthAdjust="spacing" textLength="196" x="204" y="640.9951">enqueueFirst(data :T) : void</text></g><!--class ArrayList--><g id="elem_ArrayList"><rect codeLine="39" fill="#F1F1F1" height="276.1563" id="ArrayList" rx="2.5" ry="2.5" style="stroke:#181818;stroke-width:0.5;" width="394" x="275" y="10"/><ellipse cx="322.75" cy="26" fill="#ADD1B2" rx="11" ry="11" style="stroke:#181818;stroke-width:1.0;"/><path d="M325.0938,21.6719 C324.1563,21.2344 323.5625,21.0938 322.6875,21.0938 C320.0625,21.0938 318.0625,23.1719 318.0625,25.8906 L318.0625,27.0156 C318.0625,29.5938 320.1719,31.4844 323.0625,31.4844 C324.2813,31.4844 325.4375,31.1875 326.1875,30.6406 C326.7656,30.2344 327.0938,29.7813 327.0938,29.3906 C327.0938,28.9375 326.7031,28.5469 326.2344,28.5469 C326.0156,28.5469 325.8125,28.625 325.625,28.8125 C325.1719,29.2969 325.1719,29.2969 324.9844,29.3906 C324.5625,29.6563 323.875,29.7813 323.1094,29.7813 C321.0625,29.7813 319.7656,28.6875 319.7656,26.9844 L319.7656,25.8906 C319.7656,24.1094 321.0156,22.7969 322.75,22.7969 C323.3281,22.7969 323.9375,22.9531 324.4063,23.2031 C324.8906,23.4844 325.0625,23.7031 325.1563,24.1094 C325.2188,24.5156 325.25,24.6406 325.3906,24.7656 C325.5313,24.9063 325.7656,25.0156 325.9844,25.0156 C326.25,25.0156 326.5156,24.875 326.6875,24.6563 C326.7969,24.5 326.8281,24.3125 326.8281,23.8906 L326.8281,22.4688 C326.8281,22.0313 326.8125,21.9063 326.7188,21.75 C326.5625,21.4844 326.2813,21.3438 325.9844,21.3438 C325.6875,21.3438 325.4844,21.4375 325.2656,21.75 L325.0938,21.6719 Z " fill="#000000"/><text fill="#000000" font-family="sans-serif" font-size="14" lengthAdjust="spacing" textLength="125" x="343.25" y="30.8467">java.util.ArrayList</text><rect fill="#FFFFFF" height="15.9688" style="stroke:#181818;stroke-width:1.0;stroke-dasharray:2.0,2.0;" width="163" x="509" y="7"/><text fill="#000000" font-family="sans-serif" font-size="12" font-style="italic" lengthAdjust="spacing" textLength="161" x="510" y="19.1387">E extends java.lang.Object</text><line style="stroke:#181818;stroke-width:0.5;" x1="276" x2="668" y1="42" y2="42"/><rect fill="none" height="6" style="stroke:#C82930;stroke-width:1.0;" width="6" x="283" y="52.6484"/><text fill="#000000" font-family="sans-serif" font-size="14" lengthAdjust="spacing" textLength="57" x="295" y="58.9951">size: int</text><line style="stroke:#181818;stroke-width:0.5;" x1="276" x2="668" y1="66.2969" y2="66.2969"/><ellipse cx="286" cy="79.9453" fill="#84BE84" rx="3" ry="3" style="stroke:#038048;stroke-width:1.0;"/><text fill="#000000" font-family="sans-serif" font-size="14" lengthAdjust="spacing" textLength="368" x="295" y="83.292">ArrayList(c: java.util.Collection&lt;? extends E&gt;): void</text><ellipse cx="286" cy="96.2422" fill="#84BE84" rx="3" ry="3" style="stroke:#038048;stroke-width:1.0;"/><text fill="#000000" font-family="sans-serif" font-size="14" lengthAdjust="spacing" textLength="67" x="295" y="99.5889">size(): int</text><ellipse cx="286" cy="112.5391" fill="#84BE84" rx="3" ry="3" style="stroke:#038048;stroke-width:1.0;"/><text fill="#000000" font-family="sans-serif" font-size="14" lengthAdjust="spacing" textLength="136" x="295" y="115.8857">isEmpty(): boolean</text><ellipse cx="286" cy="128.8359" fill="#84BE84" rx="3" ry="3" style="stroke:#038048;stroke-width:1.0;"/><text fill="#000000" font-family="sans-serif" font-size="14" lengthAdjust="spacing" textLength="273" x="295" y="132.1826">contains(o: java.lang.Object): boolean</text><ellipse cx="286" cy="145.1328" fill="#84BE84" rx="3" ry="3" style="stroke:#038048;stroke-width:1.0;"/><text fill="#000000" font-family="sans-serif" font-size="14" lengthAdjust="spacing" textLength="230" x="295" y="148.4795">indexOf(o: java.lang.Object): int</text><ellipse cx="286" cy="161.4297" fill="#84BE84" rx="3" ry="3" style="stroke:#038048;stroke-width:1.0;"/><text fill="#000000" font-family="sans-serif" font-size="14" lengthAdjust="spacing" textLength="175" x="295" y="164.7764">clone(): java.lang.Object</text><ellipse cx="286" cy="177.7266" fill="#84BE84" rx="3" ry="3" style="stroke:#038048;stroke-width:1.0;"/><text fill="#000000" font-family="sans-serif" font-size="14" lengthAdjust="spacing" textLength="121" x="295" y="181.0732">get(index: int): E</text><ellipse cx="286" cy="194.0234" fill="#84BE84" rx="3" ry="3" style="stroke:#038048;stroke-width:1.0;"/><text fill="#000000" font-family="sans-serif" font-size="14" lengthAdjust="spacing" textLength="206" x="295" y="197.3701">set(index: int, element: E): E</text><ellipse cx="286" cy="210.3203" fill="#84BE84" rx="3" ry="3" style="stroke:#038048;stroke-width:1.0;"/><text fill="#000000" font-family="sans-serif" font-size="14" lengthAdjust="spacing" textLength="130" x="295" y="213.667">add(e: E): boolean</text><ellipse cx="286" cy="226.6172" fill="#84BE84" rx="3" ry="3" style="stroke:#038048;stroke-width:1.0;"/><text fill="#000000" font-family="sans-serif" font-size="14" lengthAdjust="spacing" textLength="230" x="295" y="229.9639">add(index: int, element: E): void</text><ellipse cx="286" cy="242.9141" fill="#84BE84" rx="3" ry="3" style="stroke:#038048;stroke-width:1.0;"/><text fill="#000000" font-family="sans-serif" font-size="14" lengthAdjust="spacing" textLength="147" x="295" y="246.2607">remove(index:int): E</text><ellipse cx="286" cy="259.2109" fill="#84BE84" rx="3" ry="3" style="stroke:#038048;stroke-width:1.0;"/><text fill="#000000" font-family="sans-serif" font-size="14" lengthAdjust="spacing" textLength="257" x="295" y="262.5576">equals(o :java.lang.Object) :boolean</text><ellipse cx="286" cy="275.5078" fill="#84BE84" rx="3" ry="3" style="stroke:#038048;stroke-width:1.0;"/><text fill="#000000" font-family="sans-serif" font-size="14" lengthAdjust="spacing" textLength="223" x="295" y="278.8545">iterator() :java.util.Iterator&lt;E&gt;</text></g><g id="elem_GMN8"><path d="M662,596 L662,636.2656 L862,636.2656 L862,606 L852,596 L662,596 " fill="#FEFFDD" style="stroke:#181818;stroke-width:0.5;"/><path d="M852,596 L852,606 L862,606 L852,596 " fill="#FEFFDD" style="stroke:#181818;stroke-width:1.0;"/><text fill="#000000" font-family="sans-serif" font-size="13" lengthAdjust="spacing" textLength="165" x="668" y="613.0669">Especializaci&#243;n de la cola,</text><text fill="#000000" font-family="sans-serif" font-size="13" lengthAdjust="spacing" textLength="179" x="668" y="628.1997">permitiendo encolar al inicio</text></g><g id="elem_GMN11"><path d="M441,588.5 L441,643.8984 L627,643.8984 L627,598.5 L617,588.5 L441,588.5 " fill="#FEFFDD" style="stroke:#181818;stroke-width:0.5;"/><path d="M617,588.5 L617,598.5 L627,598.5 L617,588.5 " fill="#FEFFDD" style="stroke:#181818;stroke-width:1.0;"/><text fill="#000000" font-family="sans-serif" font-size="13" lengthAdjust="spacing" textLength="165" x="447" y="605.5669">Especializaci&#243;n de la cola,</text><text fill="#000000" font-family="sans-serif" font-size="13" lengthAdjust="spacing" textLength="146" x="447" y="620.6997">haci&#233;ndola circular con</text><text fill="#000000" font-family="sans-serif" font-size="13" lengthAdjust="spacing" textLength="149" x="447" y="635.8325">un nuevo m&#233;todo rotar</text></g><!--link DoubleEndedQueue to GMN8--><g id="link_DoubleEndedQueue_GMN8"><path d="M355.175,583.9064 C380.727,572.0049 411.31,559.9599 440.5,554 C521.931,537.374 546.32,536.19 627.5,554 C664.168,562.0445 702.758,581.0792 729.152,595.9518 " fill="none" id="DoubleEndedQueue-GMN8" style="stroke:#181818;stroke-width:1.0;stroke-dasharray:7.0,7.0;"/></g><!--link GMN11 to CircularQueue--><g id="link_GMN11_CircularQueue"><path d="M489.45,588.3581 C465.524,575.1321 434.959,560.7354 405.5,554 C309.315,532.009 278.706,528.096 183.5,554 C161.258,560.0517 138.919,572.1107 120.56,583.9978 " fill="none" id="GMN11-CircularQueue" style="stroke:#181818;stroke-width:1.0;stroke-dasharray:7.0,7.0;"/></g><!--reverse link Sequence to Queue--><g id="link_Sequence_Queue"><path codeLine="69" d="M165.2505,206.5535 C168.9415,247.0085 173.157,293.224 177.952,345.782 " fill="none" id="Sequence-backto-Queue" style="stroke:#181818;stroke-width:1.0;"/><polygon fill="none" points="163.615,188.628,159.2753,207.0987,171.2257,206.0084,163.615,188.628" style="stroke:#181818;stroke-width:1.0;"/></g><!--reverse link Sequence to Stack--><g id="link_Sequence_Stack"><path codeLine="70" d="M193.4097,203.9964 C211.5447,232.6484 228.553,256.146 257,286 C289.344,319.943 329.76,352.635 364.907,378.62 " fill="none" id="Sequence-backto-Stack" style="stroke:#181818;stroke-width:1.0;"/><polygon fill="none" points="183.783,188.787,188.3399,207.2053,198.4795,200.7876,183.783,188.787" style="stroke:#181818;stroke-width:1.0;"/></g><!--reverse link Queue to CircularQueue--><g id="link_Queue_CircularQueue"><path codeLine="72" d="M123.4922,539.6011 C110.6072,560.9571 106.9607,567.0003 96.8908,583.6902 " fill="none" id="Queue-backto-CircularQueue" style="stroke:#181818;stroke-width:1.0;"/><polygon fill="none" points="132.791,524.189,118.3549,536.5015,128.6296,542.7007,132.791,524.189" style="stroke:#181818;stroke-width:1.0;"/></g><!--reverse link Queue to DoubleEndedQueue--><g id="link_Queue_DoubleEndedQueue"><path codeLine="73" d="M249.0635,539.5631 C262.0675,560.9191 265.771,567.0003 275.934,583.6902 " fill="none" id="Queue-backto-DoubleEndedQueue" style="stroke:#181818;stroke-width:1.0;"/><polygon fill="none" points="239.702,524.189,243.9388,542.6836,254.1882,536.4426,239.702,524.189" style="stroke:#181818;stroke-width:1.0;"/></g><!--reverse link ArrayList to Stack--><g id="link_ArrayList_Stack"><path codeLine="76" d="M458.405,298.0244 C456.558,318.2734 455.787,326.719 454.063,345.622 " fill="none" id="ArrayList-backto-Stack" style="stroke:#181818;stroke-width:1.0;"/><polygon fill="#181818" points="459.495,286.074,454.9665,291.6858,458.405,298.0244,462.9334,292.4125,459.495,286.074" style="stroke:#181818;stroke-width:1.0;"/></g><!--reverse link ArrayList to Queue--><g id="link_ArrayList_Queue"><path codeLine="77" d="M325.9449,294.5444 C305.6249,314.7934 293.657,326.719 274.688,345.622 " fill="none" id="ArrayList-backto-Queue" style="stroke:#181818;stroke-width:1.0;"/><polygon fill="#181818" points="334.445,286.074,327.3715,287.4758,325.9449,294.5444,333.0184,293.1426,334.445,286.074" style="stroke:#181818;stroke-width:1.0;"/></g><!--SRC=[ZLHjRjim3FtlKn3zvInD3c046ORM0mOCA8Ra0epC9EeKAP7ee1_hWVfxH-Z59jEEOySfi7_MUu_a8qq9Lu4zAWPbC0HOqA4agsYsdCDh0l2A3Vy6uw1VA1rbe2rVC3hakpq_L-JAEKDeaxSagJF-AgbiqnN8cC5F7JWYIGJ6GbU1HwUB2Y1x4AYMBXi6AggWmqcz561BM9nF7Nzo7heIcDs2lRQR2g-_uEnsmQX-dzmExS9O11s_CDwNONlXjiRTNhp9WRk7_Y2lZW-k6ZtxlDDUbGPzRxfLwgrUSpqIwBHrxygLeTmML5n6DFF-hdrWQGEovGYQgJT9cYmtZtZ4QSdQJBzvZyyoc1peYSaM0OGrQ3VJXzKZAPxV00PebL9mKlL-wdpSSgdAu9pypXaJuxMpiwzjzdpUMPB-1AyFSAoSPTGsf2uRUEihTHpCqyFw4s5JH1bdfUYbHBPgGvnA6j57LLxlP0- -1JAq8ykHRYLO52dLG7TDA_ZJoFPAUDgv8pN2Rk5uLT34rY4RT0HPjuvcyiZEfwD6Ah_WHuFEyhaiG68T4tYzsJAuzM2VP9Noi2UbqUWNLFhZhuM2m20eP_1M17loEyqw_au7yP69k0SqiJsjj4iY35MLffQXjPJgRVh_rTbM-7kiKg5DUAIbNu3IWYtfw63tySukMl6EqNVAdzv0cFsPJEhtArw3FYhF02H9pGhKCne3EjHWN4bolXPVJkakC57-0m00]--></g></svg>